<?xml version="1.0" encoding="utf-8"?>
<!-- Generator: Adobe Illustrator 16.0.3, SVG Export Plug-In . SVG Version: 6.00 Build 0)  -->
<!DOCTYPE svg PUBLIC "-//W3C//DTD SVG 1.1//EN" "http://www.w3.org/Graphics/SVG/1.1/DTD/svg11.dtd">
<svg version="1.1" id="Layer_1" xmlns="http://www.w3.org/2000/svg" xmlns:xlink="http://www.w3.org/1999/xlink" x="0px" y="0px"
	 width="40px" height="40px" viewBox="0 0 40 40" enable-background="new 0 0 40 40" xml:space="preserve">
<g>
	<g>
		<path fill="#FFFFFF" d="M26.307,30.381c-0.4-0.311-0.808-0.492-1.221-0.544c-0.233-0.026-0.634,0.148-1.203,0.525
			c-0.569,0.376-0.814,0.744-0.736,1.107c0.181,0.83,0.956,1.504,2.327,2.023c0.104,0.025,0.207-0.014,0.311-0.117
			s0.265-0.162,0.484-0.175c0.22-0.014,0.407-0.195,0.563-0.545s0.207-0.707,0.155-1.069C26.935,31.094,26.708,30.692,26.307,30.381
			z M30.749,7.926c0.025-0.439-0.207-0.762-0.698-0.969c-0.439-0.129-0.88-0.259-1.319-0.388c-0.311-0.103-0.634-0.09-0.97,0.039
			s-0.53,0.349-0.582,0.659c-0.104,0.698-0.75,3.645-1.939,8.841c-0.775,3.517-1.163,6.489-1.163,8.919
			c0,0.543,0.013,1.086,0.039,1.629c0.077,1.034,0.775,1.681,2.094,1.938c0.232,0.052,0.485-0.019,0.757-0.213
			c0.271-0.193,0.407-0.407,0.407-0.64c-0.078-2.611,0.388-5.959,1.396-10.043C29.934,12.993,30.593,9.736,30.749,7.926z
			 M20.582,29.264c-0.421-3.72-0.421-7.579-0.702-11.439c-0.176-0.351-0.141-0.982-0.141-1.544
			c-0.386-1.193-0.491-2.702-0.842-3.895c-0.281-1.509-0.21-3.439-0.913-4.386c-0.772,0.035-1.053,0.316-1.65,0.562
			c-0.632,2.631-1.088,5.438-1.755,8c-0.562-1.649-1.299-3.053-1.896-4.667v-0.492c-0.597-0.877-0.737-2.386-1.685-2.842
			c-0.281,0.351-0.526,0.105-0.948,0.21C9.945,9.053,9.875,9.438,9.629,9.579v1.614c-0.316,1.895,0,4.386-0.14,6.421
			c-0.035,0.526-0.176,1.053-0.211,1.474c0,0.141,0.105,0.281,0.105,0.351c0,0.491-0.21,1.263-0.105,1.754
			c0.211,0.351,0.035,1.229,0.105,1.789c0.175,2-0.141,5.123,0,7.123c0.246,0.07,0.421-0.351,0.562,0
			c0.176-0.28,0.421-0.456,0.702-0.421c0.597-1.93,0.421-5.474,0.667-7.403c-0.351-1.755-0.105-4.176,0.176-5.93
			c-0.141-0.597-0.246-1.579-0.105-2.281c0.316,0.667,0.597,1.369,0.737,2.281c0.526,0.877,0.667,2.281,0.982,3.439
			c0.246,0.28,0.421,0.596,0.421,1.123c0.386,0.21,0.351,0.983,0.808,1.087c0.14,0.632,0.562,0.843,0.877,1.264
			c0.281-0.035,0.562-0.035,0.702,0.141c0.913-0.316,0.281-1.931,0.562-2.983c-0.105-1.369,0.316-3.158,0.737-4.281
			c0.597,4.456,0.562,9.79,0.948,14.526c0.316,0.352,0.843,0.421,0.877,1.123c0.176,0,0.352-0.035,0.316,0.211
			c0.175-0.211,0.597-0.105,0.842-0.211c0.105-0.315,0.281-0.491,0.421-0.702C20.722,30.352,20.301,29.79,20.582,29.264z"/>
	</g>
</g>
</svg>
