<?xml version="1.0" encoding="utf-8"?>
<!-- Generator: Adobe Illustrator 16.0.3, SVG Export Plug-In . SVG Version: 6.00 Build 0)  -->
<!DOCTYPE svg PUBLIC "-//W3C//DTD SVG 1.1//EN" "http://www.w3.org/Graphics/SVG/1.1/DTD/svg11.dtd">
<svg version="1.1" id="Layer_1" xmlns="http://www.w3.org/2000/svg" xmlns:xlink="http://www.w3.org/1999/xlink" x="0px" y="0px"
	 width="512px" height="512px" viewBox="166.5 306.5 512 512" enable-background="new 166.5 306.5 512 512" xml:space="preserve">
<path fill="#00AFF0" d="M180.134,414.161c29.635-56.499,115.056-100.179,210.57-106.746c95.56-6.699,201.038,23.681,245.854,81.414
	c44.646,57.696,28.809,142.782,32.442,223.03c3.414,80.345,26.744,155.652-15.456,186.966
	c-41.98,31.213-149.321,18.464-227.046,7.975c-77.603-10.319-125.763-18.416-155.713-38.903
	c-29.781-20.452-41.701-53.37-50.156-81.854c-8.237-28.583-13.273-52.499-28.712-99.3
	C176.433,540.074,150.326,470.625,180.134,414.161z"/>
<g>
	<g>
		<path fill="#FFFFFF" d="M505.044,697.518c-5.131-3.979-10.34-6.307-15.635-6.974c-2.979-0.328-8.11,1.911-15.396,6.726
			c-7.285,4.813-10.425,9.536-9.43,14.187c2.313,10.623,12.246,19.249,29.792,25.89c1.324,0.327,2.647-0.169,3.972-1.492
			c1.323-1.328,3.39-2.075,6.204-2.239c2.813-0.169,5.21-2.494,7.194-6.97c1.984-4.484,2.647-9.051,1.992-13.692
			C513.07,706.642,510.175,701.5,505.044,697.518z M552.959,397.686c-5.628-1.65-11.256-3.31-16.884-4.967
			c-3.973-1.321-8.111-1.158-12.41,0.498c-4.306,1.657-6.788,4.469-7.45,8.439c-1.322,8.937-9.599,46.658-24.824,113.17
			c-9.934,45.007-14.895,83.063-14.895,114.167c0,6.943,0.164,13.896,0.498,20.843c0.99,13.235,9.927,21.51,26.811,24.819
			c2.978,0.662,6.205-0.249,9.679-2.732c3.475-2.477,5.217-5.209,5.217-8.188c-0.996-33.418,4.967-76.271,17.875-128.558
			c14.892-60.228,23.33-101.92,25.322-125.088C562.225,404.467,559.248,400.333,552.959,397.686z M431.761,683.212
			c-5.392-47.606-5.392-97.013-8.986-146.418c-2.247-4.492-1.798-12.576-1.798-19.762c-4.94-15.271-6.291-34.583-10.783-49.854
			c-3.596-19.313-2.695-44.015-11.684-56.142c-9.885,0.448-13.48,4.042-21.119,7.187c-8.088,33.687-13.929,69.615-22.466,102.402
			c-7.188-21.109-16.625-39.075-24.265-59.734v-6.289c-7.639-11.229-9.436-30.541-21.566-36.379
			c-3.596,4.491-6.74,1.347-12.133,2.694c-1.348,3.593-2.247,8.533-5.393,10.33v20.661c-4.043,24.253,0,56.142-1.797,82.19
			c-0.449,6.737-2.246,13.476-2.695,18.863c0,1.796,1.348,3.594,1.348,4.491c0,6.288-2.695,16.169-1.348,22.457
			c2.695,4.491,0.449,15.72,1.348,22.904c2.247,25.604-1.797,65.574,0,91.177c3.146,0.896,5.393-4.491,7.189,0
			c2.246-3.593,5.392-5.839,8.986-5.392c7.639-24.7,5.392-70.063,8.537-94.768c-4.494-22.457-1.349-53.448,2.246-75.904
			c-1.797-7.635-3.146-20.211-1.348-29.192c4.044,8.532,7.639,17.517,9.438,29.192c6.739,11.229,8.536,29.194,12.582,44.017
			c3.146,3.594,5.391,7.637,5.391,14.373c4.943,2.694,4.494,12.575,10.334,13.923c1.798,8.085,7.189,10.777,11.234,16.169
			c3.596-0.448,7.188-0.448,8.986,1.797c11.684-4.041,3.594-24.702,7.188-38.176c-1.348-17.519,4.045-40.425,9.438-54.795
			c7.641,57.041,7.188,125.309,12.132,185.941c4.044,4.491,10.784,5.392,11.233,14.373c2.247,0,4.492-0.45,4.045,2.694
			c2.247-2.694,7.639-1.349,10.784-2.694c1.348-4.043,3.594-6.289,5.392-8.981C433.559,697.136,428.166,689.949,431.761,683.212z"/>
	</g>
</g>
</svg>
