<?xml version="1.0" encoding="utf-8"?>
<!-- Generator: Adobe Illustrator 16.0.3, SVG Export Plug-In . SVG Version: 6.00 Build 0)  -->
<!DOCTYPE svg PUBLIC "-//W3C//DTD SVG 1.1//EN" "http://www.w3.org/Graphics/SVG/1.1/DTD/svg11.dtd">
<svg version="1.1" id="Layer_1" xmlns="http://www.w3.org/2000/svg" xmlns:xlink="http://www.w3.org/1999/xlink" x="0px" y="0px"
	 width="512px" height="512px" viewBox="-993.5 1506.5 512 512" enable-background="new -993.5 1506.5 512 512"
	 xml:space="preserve">
<path fill="#00AFF0" d="M-979.865,1614.16c29.635-56.498,115.056-100.178,210.571-106.746
	c95.56-6.699,201.039,23.682,245.854,81.414c44.646,57.697,28.81,142.782,32.442,223.03c3.414,80.344,26.745,155.65-15.456,186.965
	c-41.979,31.212-149.321,18.465-227.046,7.975c-77.604-10.318-125.763-18.416-155.713-38.902
	c-29.782-20.451-41.702-53.369-50.157-81.854c-8.237-28.584-13.273-52.5-28.712-99.301
	C-983.566,1740.073-1009.673,1670.625-979.865,1614.16z"/>
<g>
	<g>
		<path fill="#FFFFFF" d="M-656.766,1895.376c-5.131-3.979-10.34-6.307-15.635-6.974c-2.979-0.328-8.11,1.911-15.396,6.727
			c-7.285,4.813-10.425,9.535-9.43,14.187c2.313,10.623,12.247,19.249,29.792,25.89c1.324,0.327,2.646-0.169,3.972-1.491
			c1.323-1.328,3.391-2.075,6.204-2.239c2.813-0.169,5.21-2.494,7.194-6.97c1.983-4.484,2.646-9.052,1.992-13.692
			C-648.739,1904.5-651.635,1899.358-656.766,1895.376z M-608.851,1595.545c-5.628-1.649-11.256-3.31-16.884-4.967
			c-3.974-1.32-8.111-1.158-12.41,0.498c-4.306,1.657-6.788,4.469-7.45,8.439c-1.322,8.937-9.599,46.657-24.824,113.169
			c-9.934,45.007-14.895,83.063-14.895,114.167c0,6.943,0.164,13.896,0.498,20.843c0.99,13.235,9.927,21.51,26.811,24.819
			c2.979,0.662,6.205-0.249,9.68-2.732c3.475-2.477,5.217-5.209,5.217-8.188c-0.996-33.418,4.967-76.271,17.875-128.559
			c14.892-60.227,23.33-101.919,25.322-125.087C-599.585,1602.326-602.562,1598.192-608.851,1595.545z M-730.049,1881.07
			c-5.392-47.605-5.392-97.013-8.985-146.418c-2.247-4.492-1.799-12.576-1.799-19.762c-4.939-15.271-6.291-34.582-10.782-49.854
			c-3.597-19.313-2.695-44.015-11.685-56.142c-9.885,0.448-13.479,4.042-21.119,7.187c-8.088,33.688-13.929,69.615-22.466,102.401
			c-7.188-21.109-16.625-39.074-24.265-59.733v-6.289c-7.639-11.229-9.437-30.541-21.566-36.379
			c-3.596,4.491-6.74,1.348-12.133,2.694c-1.348,3.593-2.247,8.533-5.393,10.33v20.661c-4.043,24.253,0,56.141-1.797,82.188
			c-0.449,6.737-2.246,13.477-2.695,18.863c0,1.796,1.348,3.594,1.348,4.491c0,6.288-2.695,16.169-1.348,22.457
			c2.695,4.49,0.449,15.72,1.348,22.904c2.247,25.604-1.797,65.573,0,91.177c3.146,0.896,5.393-4.491,7.189,0
			c2.246-3.594,5.392-5.839,8.985-5.393c7.64-24.7,5.393-70.063,8.537-94.768c-4.494-22.457-1.349-53.448,2.246-75.904
			c-1.797-7.635-3.146-20.211-1.348-29.192c4.044,8.532,7.639,17.518,9.438,29.192c6.739,11.229,8.536,29.194,12.582,44.017
			c3.146,3.595,5.392,7.638,5.392,14.373c4.942,2.694,4.494,12.575,10.334,13.924c1.798,8.085,7.188,10.776,11.233,16.169
			c3.597-0.448,7.188-0.448,8.986,1.797c11.684-4.041,3.594-24.702,7.188-38.177c-1.349-17.519,4.045-40.425,9.438-54.795
			c7.641,57.041,7.188,125.31,12.132,185.941c4.044,4.491,10.784,5.392,11.233,14.373c2.247,0,4.492-0.45,4.045,2.694
			c2.247-2.694,7.639-1.35,10.784-2.694c1.348-4.043,3.594-6.289,5.392-8.981C-728.251,1894.994-733.644,1887.808-730.049,1881.07z"
			/>
	</g>
</g>
</svg>
