<?xml version="1.0" encoding="utf-8"?>
<!-- Generator: Adobe Illustrator 16.0.3, SVG Export Plug-In . SVG Version: 6.00 Build 0)  -->
<!DOCTYPE svg PUBLIC "-//W3C//DTD SVG 1.1//EN" "http://www.w3.org/Graphics/SVG/1.1/DTD/svg11.dtd">
<svg version="1.1" id="Layer_1" xmlns="http://www.w3.org/2000/svg" xmlns:xlink="http://www.w3.org/1999/xlink" x="0px" y="0px"
	 width="512px" height="512px" viewBox="0 0 512 512" enable-background="new 0 0 512 512" xml:space="preserve">
<path fill="#00AFF0" d="M13.634,107.661C43.269,51.162,128.69,7.482,224.204,0.915c95.559-6.699,201.038,23.68,245.856,81.414
	c44.646,57.697,28.807,142.782,32.442,223.03c3.414,80.345,26.744,155.654-15.456,186.966
	c-41.982,31.213-149.321,18.464-227.046,7.975c-77.602-10.32-125.761-18.416-155.713-38.904
	c-29.781-20.453-41.701-53.371-50.156-81.855c-8.237-28.583-13.273-52.499-28.712-99.3C9.933,233.574-16.174,164.125,13.634,107.661
	z"/>
<g>
	<g>
		<path fill="#FFFFFF" d="M338.544,391.018c-5.131-3.981-10.34-6.307-15.635-6.974c-2.98-0.328-8.11,1.911-15.396,6.726
			c-7.285,4.813-10.424,9.536-9.429,14.185c2.313,10.623,12.246,19.249,29.792,25.89c1.324,0.327,2.647-0.169,3.971-1.493
			c1.324-1.329,3.389-2.076,6.205-2.24c2.812-0.169,5.209-2.494,7.194-6.969c1.985-4.485,2.648-9.05,1.992-13.693
			C346.57,400.142,343.675,395,338.544,391.018z M386.459,91.185c-5.628-1.651-11.256-3.309-16.884-4.966
			c-3.971-1.323-8.111-1.159-12.41,0.498c-4.306,1.657-6.788,4.468-7.45,8.439c-1.323,8.937-9.599,46.659-24.825,113.17
			c-9.933,45.007-14.894,83.063-14.894,114.167c0,6.945,0.164,13.896,0.498,20.843c0.99,13.235,9.927,21.51,26.811,24.819
			c2.976,0.662,6.205-0.249,9.678-2.732c3.474-2.477,5.216-5.209,5.216-8.189c-0.996-33.418,4.967-76.269,17.875-128.556
			c14.892-60.228,23.331-101.92,25.323-125.088C395.725,97.967,392.748,93.833,386.459,91.185z M265.261,376.712
			c-5.392-47.607-5.392-97.013-8.987-146.418c-2.247-4.492-1.797-12.576-1.797-19.762c-4.942-15.271-6.291-34.583-10.784-49.854
			c-3.595-19.313-2.696-44.015-11.683-56.142c-9.885,0.449-13.48,4.042-21.119,7.186c-8.088,33.686-13.929,69.616-22.466,102.403
			c-7.189-21.109-16.625-39.075-24.265-59.735v-6.288c-7.638-11.229-9.436-30.542-21.567-36.38
			c-3.595,4.492-6.74,1.347-12.132,2.695c-1.348,3.593-2.247,8.533-5.392,10.33v20.661c-4.044,24.253,0,56.142-1.797,82.192
			c-0.45,6.737-2.247,13.474-2.696,18.863c0,1.796,1.348,3.593,1.348,4.491c0,6.288-2.696,16.169-1.348,22.457
			c2.696,4.492,0.449,15.72,1.348,22.906c2.247,25.602-1.797,65.574,0,91.175c3.146,0.898,5.392-4.491,7.189,0
			c2.247-3.593,5.392-5.839,8.986-5.39c7.639-24.702,5.392-70.065,8.538-94.768c-4.494-22.457-1.348-53.448,2.247-75.904
			c-1.797-7.635-3.146-20.211-1.348-29.194c4.044,8.534,7.639,17.517,9.437,29.194c6.74,11.229,8.537,29.194,12.581,44.016
			c3.146,3.593,5.392,7.636,5.392,14.372c4.943,2.695,4.494,12.576,10.334,13.923c1.797,8.085,7.189,10.779,11.234,16.169
			c3.595-0.448,7.189-0.448,8.987,1.797c11.682-4.041,3.594-24.702,7.189-38.176c-1.348-17.517,4.044-40.423,9.436-54.795
			c7.639,57.042,7.189,125.309,12.132,185.943c4.044,4.491,10.784,5.39,11.233,14.373c2.247,0,4.494-0.45,4.045,2.694
			c2.247-2.694,7.639-1.348,10.784-2.694c1.348-4.043,3.594-6.289,5.392-8.983C267.058,390.636,261.666,383.449,265.261,376.712z"/>
	</g>
</g>
</svg>
