<?xml version="1.0" encoding="utf-8"?>
<!-- Generator: Adobe Illustrator 16.0.3, SVG Export Plug-In . SVG Version: 6.00 Build 0)  -->
<!DOCTYPE svg PUBLIC "-//W3C//DTD SVG 1.1//EN" "http://www.w3.org/Graphics/SVG/1.1/DTD/svg11.dtd">
<svg version="1.1" id="Layer_1" xmlns="http://www.w3.org/2000/svg" xmlns:xlink="http://www.w3.org/1999/xlink" x="0px" y="0px"
	 width="50px" height="50px" viewBox="166.5 306.5 50 50" enable-background="new 166.5 306.5 50 50" xml:space="preserve">
<g>
	<g>
		<path fill="#FFFFFF" d="M199.561,344.686c-0.501-0.389-1.01-0.616-1.527-0.681c-0.291-0.032-0.792,0.187-1.503,0.656
			c-0.711,0.471-1.018,0.932-0.921,1.386c0.226,1.037,1.196,1.88,2.91,2.528c0.129,0.032,0.258-0.017,0.388-0.146
			c0.129-0.13,0.331-0.203,0.606-0.219c0.274-0.017,0.509-0.244,0.703-0.681c0.193-0.438,0.258-0.884,0.194-1.338
			C200.345,345.577,200.062,345.074,199.561,344.686z M204.24,315.405c-0.549-0.161-1.099-0.323-1.649-0.485
			c-0.388-0.129-0.792-0.113-1.212,0.049c-0.42,0.162-0.663,0.437-0.728,0.824c-0.129,0.873-0.937,4.557-2.424,11.052
			c-0.97,4.396-1.455,8.111-1.455,11.149c0,0.678,0.016,1.356,0.048,2.035c0.097,1.293,0.97,2.101,2.618,2.424
			c0.291,0.064,0.606-0.024,0.945-0.267s0.509-0.509,0.509-0.8c-0.097-3.264,0.485-7.448,1.746-12.555
			c1.455-5.882,2.278-9.953,2.473-12.216C205.145,316.067,204.854,315.664,204.24,315.405z M192.405,343.289
			c-0.527-4.649-0.527-9.475-0.878-14.299c-0.219-0.438-0.175-1.229-0.175-1.93c-0.483-1.491-0.614-3.378-1.053-4.869
			c-0.351-1.886-0.263-4.298-1.141-5.482c-0.965,0.044-1.316,0.395-2.062,0.702c-0.79,3.289-1.36,6.798-2.194,10
			c-0.702-2.062-1.624-3.816-2.37-5.834v-0.613c-0.746-1.097-0.921-2.983-2.106-3.553c-0.351,0.438-0.658,0.131-1.185,0.263
			c-0.132,0.351-0.22,0.833-0.527,1.009v2.018c-0.395,2.369,0,5.482-0.175,8.026c-0.044,0.658-0.22,1.316-0.263,1.843
			c0,0.175,0.131,0.351,0.131,0.438c0,0.614-0.263,1.579-0.131,2.193c0.263,0.438,0.043,1.534,0.131,2.236
			c0.22,2.5-0.175,6.403,0,8.904c0.307,0.087,0.527-0.439,0.702,0c0.219-0.352,0.526-0.57,0.877-0.526
			c0.746-2.413,0.527-6.843,0.834-9.255c-0.439-2.193-0.132-5.22,0.219-7.413c-0.175-0.745-0.307-1.974-0.131-2.851
			c0.395,0.833,0.746,1.711,0.921,2.851c0.658,1.097,0.833,2.852,1.229,4.299c0.307,0.351,0.527,0.746,0.527,1.403
			c0.482,0.264,0.438,1.229,1.009,1.36c0.176,0.789,0.702,1.052,1.097,1.578c0.351-0.043,0.702-0.043,0.878,0.176
			c1.141-0.395,0.351-2.412,0.702-3.728c-0.131-1.711,0.395-3.948,0.922-5.352c0.746,5.57,0.702,12.237,1.185,18.158
			c0.395,0.438,1.053,0.526,1.097,1.404c0.219,0,0.438-0.044,0.395,0.263c0.219-0.263,0.746-0.132,1.053-0.263
			c0.132-0.396,0.351-0.614,0.527-0.878C192.58,344.648,192.054,343.946,192.405,343.289z"/>
	</g>
</g>
</svg>
