<?xml version="1.0" encoding="utf-8"?>
<!-- Generator: Adobe Illustrator 16.0.3, SVG Export Plug-In . SVG Version: 6.00 Build 0)  -->
<!DOCTYPE svg PUBLIC "-//W3C//DTD SVG 1.1//EN" "http://www.w3.org/Graphics/SVG/1.1/DTD/svg11.dtd">
<svg version="1.1" id="Layer_1" xmlns="http://www.w3.org/2000/svg" xmlns:xlink="http://www.w3.org/1999/xlink" x="0px" y="0px"
	 width="50px" height="50px" viewBox="-1224.5 1275.5 50 50" enable-background="new -1224.5 1275.5 50 50" xml:space="preserve">
<g>
	<g>
		<path fill="#FFFFFF" d="M-1191.616,1313.477c-0.5-0.389-1.01-0.614-1.526-0.681c-0.291-0.032-0.791,0.187-1.502,0.656
			c-0.711,0.471-1.02,0.932-0.922,1.386c0.227,1.037,1.196,1.88,2.909,2.528c0.13,0.032,0.259-0.017,0.39-0.146
			c0.129-0.13,0.33-0.202,0.604-0.219s0.511-0.244,0.703-0.681c0.192-0.438,0.258-0.885,0.194-1.338
			C-1190.832,1314.368-1191.114,1313.865-1191.616,1313.477z M-1186.938,1284.196c-0.549-0.161-1.1-0.323-1.648-0.485
			c-0.389-0.129-0.792-0.113-1.212,0.049s-0.663,0.438-0.729,0.824c-0.129,0.873-0.937,4.557-2.424,11.052
			c-0.97,4.396-1.455,8.112-1.455,11.15c0,0.678,0.018,1.354,0.049,2.035c0.098,1.293,0.971,2.101,2.617,2.424
			c0.291,0.063,0.606-0.022,0.945-0.269c0.34-0.242,0.51-0.509,0.51-0.8c-0.098-3.264,0.484-7.448,1.746-12.555
			c1.454-5.882,2.277-9.953,2.473-12.216C-1186.032,1284.857-1186.323,1284.455-1186.938,1284.196z M-1198.771,1312.08
			c-0.526-4.648-0.526-9.475-0.876-14.299c-0.219-0.438-0.176-1.229-0.176-1.93c-0.482-1.492-0.613-3.379-1.053-4.869
			c-0.351-1.888-0.263-4.299-1.141-5.482c-0.965,0.044-1.316,0.395-2.063,0.702c-0.789,3.289-1.359,6.798-2.193,10
			c-0.702-2.062-1.625-3.816-2.37-5.834v-0.613c-0.746-1.097-0.921-2.983-2.106-3.553c-0.351,0.438-0.658,0.131-1.185,0.263
			c-0.132,0.352-0.22,0.833-0.527,1.01v2.019c-0.396,2.369,0,5.481-0.175,8.024c-0.044,0.658-0.221,1.316-0.264,1.845
			c0,0.175,0.132,0.351,0.132,0.438c0,0.614-0.263,1.58-0.132,2.194c0.264,0.438,0.043,1.533,0.132,2.236
			c0.22,2.5-0.175,6.401,0,8.902c0.307,0.087,0.526-0.438,0.702,0c0.219-0.352,0.525-0.568,0.877-0.525
			c0.746-2.412,0.526-6.844,0.834-9.254c-0.439-2.193-0.133-5.222,0.219-7.416c-0.175-0.744-0.307-1.974-0.131-2.851
			c0.395,0.833,0.746,1.711,0.921,2.851c0.658,1.099,0.833,2.854,1.229,4.3c0.307,0.352,0.526,0.745,0.526,1.405
			c0.481,0.264,0.438,1.229,1.009,1.358c0.176,0.789,0.702,1.052,1.098,1.578c0.351-0.043,0.701-0.043,0.877,0.176
			c1.142-0.396,0.352-2.412,0.703-3.729c-0.131-1.711,0.396-3.947,0.922-5.352c0.746,5.571,0.701,12.238,1.185,18.159
			c0.396,0.438,1.054,0.524,1.097,1.404c0.219,0,0.438-0.046,0.396,0.263c0.219-0.263,0.746-0.132,1.053-0.263
			c0.132-0.396,0.35-0.614,0.527-0.88C-1198.598,1313.439-1199.123,1312.737-1198.771,1312.08z"/>
	</g>
</g>
</svg>
