<?xml version="1.0" encoding="utf-8"?>
<!-- Generator: Adobe Illustrator 16.0.3, SVG Export Plug-In . SVG Version: 6.00 Build 0)  -->
<!DOCTYPE svg PUBLIC "-//W3C//DTD SVG 1.1//EN" "http://www.w3.org/Graphics/SVG/1.1/DTD/svg11.dtd">
<svg version="1.1" id="Layer_1" xmlns="http://www.w3.org/2000/svg" xmlns:xlink="http://www.w3.org/1999/xlink" x="0px" y="0px"
	 width="180px" height="100px" viewBox="-1159.5 1300.5 180 100" enable-background="new -1159.5 1300.5 180 100"
	 xml:space="preserve">
<g>
	<g>
		<path fill="#FFFFFF" d="M-990.164,1357.988c-0.962-0.749-1.938-1.188-2.932-1.313c-0.562-0.062-1.521,0.359-2.89,1.266
			c-1.365,0.904-1.953,1.793-1.768,2.668c0.434,1.998,2.296,3.621,5.586,4.869c0.248,0.063,0.497-0.031,0.745-0.279
			c0.248-0.25,0.635-0.393,1.163-0.424c0.527-0.03,0.977-0.469,1.35-1.311c0.372-0.843,0.496-1.701,0.373-2.574
			C-988.659,1359.705-989.202,1358.738-990.164,1357.988z M-979.505,1303.934c0.063-1.058-0.496-1.836-1.678-2.334
			c-1.055-0.311-2.108-0.621-3.163-0.934c-0.745-0.249-1.521-0.218-2.327,0.094c-0.809,0.313-1.271,0.84-1.396,1.588
			c-0.25,1.68-1.801,8.774-4.656,21.283c-1.86,8.463-2.793,15.62-2.793,21.472c0,1.306,0.031,2.612,0.096,3.92
			c0.188,2.487,1.859,4.045,5.025,4.668c0.56,0.123,1.164-0.047,1.814-0.516c0.65-0.466,0.979-0.979,0.979-1.541
			c-0.188-6.283,0.933-14.344,3.353-24.175C-981.46,1316.131-979.878,1308.29-979.505,1303.934z M-1064.833,1354.103
			c-0.484-0.244-0.975-0.396-1.459-0.455c-0.091-0.013-0.288-0.041-0.592-0.095c-0.215-0.038-0.387-0.061-0.518-0.061
			c-0.283,0-0.543,0.086-0.773,0.259c0,0.052-0.022,0.117-0.068,0.199c-0.046,0.081-0.063,0.142-0.054,0.182
			c0.151,0.335,0.466,0.551,0.94,0.643c0.07,1.3,0.045,2.722-0.076,4.265c-0.131,0.093-0.233,0.176-0.312,0.252
			s-0.112,0.16-0.112,0.252c0,0.183,0.104,0.345,0.317,0.487c-0.091,0.66-0.146,1.498-0.167,2.514
			c-0.021,0.844-0.04,1.691-0.061,2.544c0.133,0.272,0.365,0.411,0.699,0.411c0.143,0,0.272-0.036,0.396-0.107
			c0.483-0.283,0.972-0.567,1.458-0.853c0.599-0.366,1.048-0.737,1.354-1.112c0.396-0.486,0.592-1.021,0.592-1.6
			c0-0.751-0.42-1.401-1.26-1.95c-0.162-0.071-0.332-0.146-0.511-0.222c-0.178-0.075-0.28-0.189-0.313-0.344
			c0.519-0.354,1.033-0.715,1.551-1.08c0.535-0.446,0.869-0.944,1.003-1.493c0.061-0.265,0.024-0.589-0.104-0.976
			C-1063.099,1355.226-1063.738,1354.671-1064.833,1354.103z M-1064.938,1360.82c0.191,0.233,0.289,0.503,0.289,0.809
			c0,0.103-0.012,0.207-0.031,0.319c-0.08,0.363-0.213,0.654-0.396,0.867c-0.102,0.121-0.28,0.263-0.539,0.418
			c-0.259,0.158-0.446,0.309-0.569,0.449c-0.08-0.265-0.121-0.559-0.121-0.884c0-0.224,0.027-0.557,0.084-0.997
			c0.056-0.44,0.084-0.77,0.084-0.981c0-0.121-0.006-0.233-0.016-0.337c0.069-0.028,0.146-0.045,0.229-0.045
			C-1065.785,1360.438-1065.456,1360.565-1064.938,1360.82z M-1064.517,1357.012c-0.23,0.337-0.5,0.574-0.805,0.718
			c-0.021,0.01-0.102,0.067-0.242,0.176c-0.142,0.106-0.248,0.158-0.318,0.158c0.011-0.324,0-0.775-0.03-1.354
			c-0.04-0.63-0.062-1.076-0.062-1.341c0-0.193,0.006-0.375,0.017-0.549c0.05-0.021,0.097-0.03,0.138-0.03
			c0.082,0,0.182,0.041,0.305,0.123c0.172,0.101,0.298,0.167,0.38,0.196c0.557,0.203,0.86,0.494,0.911,0.869
			C-1064.187,1356.331-1064.281,1356.678-1064.517,1357.012z M-1056.996,1355.077c-0.362-0.214-0.684-0.32-0.957-0.32
			c-0.069,0-0.131,0.005-0.182,0.018c-0.496,0.121-0.987,0.248-1.476,0.379c-0.565,0.154-1.043,0.326-1.428,0.52
			c-0.324,0.133-0.648,0.266-0.972,0.396c-0.345,0.173-0.522,0.404-0.532,0.699c-0.01,0.314,0.27,0.527,0.836,0.641
			c-0.063,0.884-0.102,1.367-0.122,1.447c-0.021,0.082-0.104,0.16-0.25,0.235c-0.147,0.076-0.226,0.159-0.235,0.252
			c-0.029,0.183,0.098,0.37,0.379,0.563c-0.09,0.699-0.09,1.492,0,2.377c0.031,0.305,0.162,0.578,0.396,0.822
			c0.232,0.244,0.491,0.399,0.773,0.473c0.901,0.232,1.966,0.33,3.188,0.289c0.162-0.012,0.286-0.084,0.372-0.221
			c0.086-0.14,0.114-0.287,0.084-0.449c-0.091-0.487-0.277-0.701-0.563-0.641c-0.062,0-0.137,0.039-0.229,0.113
			c-0.091,0.076-0.177,0.114-0.258,0.114c-1.175,0.051-2-0.093-2.479-0.429c-0.08-0.172-0.121-0.403-0.121-0.698
			c0-0.438,0.098-1.032,0.289-1.783c0.283-0.11,0.664-0.172,1.141-0.185c0.566-0.01,0.957-0.041,1.17-0.092
			c0.121,0.01,0.225-0.028,0.304-0.121c0.121-0.133,0.192-0.203,0.214-0.213c0.069-0.041,0.104-0.098,0.104-0.168
			c0-0.063-0.07-0.191-0.212-0.396c-0.203-0.121-0.446-0.183-0.729-0.183c-0.15,0-0.391,0.024-0.715,0.074
			c-0.322,0.051-0.562,0.076-0.714,0.076c-0.213,0-0.399-0.029-0.563-0.091c0.041-0.914,0.105-1.504,0.197-1.767
			c0.375-0.153,0.928-0.332,1.655-0.535c0.729-0.202,1.281-0.381,1.655-0.532c0.07-0.052,0.104-0.116,0.104-0.197
			c0-0.052-0.021-0.133-0.061-0.243C-1056.96,1355.192-1056.983,1355.117-1056.996,1355.077z M-1053.44,1354.103
			c-0.485-0.244-0.973-0.396-1.457-0.455c-0.094-0.013-0.289-0.041-0.595-0.095c-0.213-0.038-0.385-0.061-0.517-0.061
			c-0.283,0-0.541,0.086-0.774,0.259c0,0.052-0.021,0.117-0.067,0.199c-0.045,0.081-0.063,0.142-0.053,0.182
			c0.15,0.335,0.467,0.551,0.94,0.643c0.069,1.3,0.046,2.722-0.076,4.265c-0.132,0.093-0.233,0.176-0.313,0.252
			c-0.073,0.076-0.111,0.16-0.111,0.252c0,0.183,0.105,0.345,0.316,0.487c-0.09,0.66-0.146,1.498-0.166,2.514
			c-0.021,0.844-0.041,1.691-0.062,2.544c0.132,0.274,0.364,0.412,0.699,0.412c0.142,0,0.272-0.036,0.396-0.106
			c0.485-0.285,0.971-0.568,1.457-0.854c0.598-0.366,1.049-0.736,1.353-1.111c0.396-0.488,0.594-1.021,0.594-1.601
			c0-0.751-0.42-1.401-1.262-1.95c-0.161-0.07-0.332-0.145-0.509-0.222c-0.179-0.075-0.28-0.189-0.313-0.343
			c0.518-0.354,1.033-0.717,1.55-1.082c0.536-0.445,0.87-0.943,1.002-1.492c0.063-0.266,0.025-0.59-0.106-0.975
			C-1051.705,1355.226-1052.349,1354.671-1053.44,1354.103z M-1053.548,1360.82c0.191,0.233,0.289,0.503,0.289,0.809
			c0,0.103-0.012,0.207-0.03,0.319c-0.082,0.363-0.213,0.654-0.396,0.867c-0.103,0.121-0.28,0.263-0.539,0.418
			c-0.258,0.158-0.447,0.309-0.568,0.449c-0.081-0.265-0.122-0.559-0.122-0.884c0-0.224,0.028-0.557,0.084-0.997
			s0.083-0.77,0.083-0.981c0-0.121-0.005-0.233-0.016-0.337c0.07-0.028,0.146-0.045,0.229-0.045
			C-1054.396,1360.438-1054.063,1360.565-1053.548,1360.82z M-1053.122,1357.012c-0.232,0.337-0.502,0.574-0.806,0.718
			c-0.021,0.01-0.103,0.067-0.243,0.176c-0.143,0.104-0.248,0.158-0.317,0.158c0.011-0.324,0-0.775-0.03-1.354
			c-0.041-0.63-0.063-1.076-0.063-1.341c0-0.193,0.006-0.375,0.018-0.549c0.051-0.021,0.096-0.03,0.137-0.03
			c0.08,0,0.183,0.041,0.304,0.123c0.172,0.101,0.299,0.167,0.38,0.196c0.557,0.203,0.86,0.494,0.911,0.869
			C-1052.794,1356.331-1052.892,1356.678-1053.122,1357.012z M-1046.896,1356.707c-0.051-0.416-0.105-0.832-0.168-1.25
			c-0.082-0.485-0.264-0.854-0.547-1.096c-0.11-0.093-0.238-0.14-0.379-0.14c-0.193,0-0.32,0.071-0.381,0.213
			c-0.264,0.643-0.563,1.562-0.896,2.761c-0.395,1.381-0.684,2.323-0.863,2.831c-0.021,0.072-0.114,0.125-0.281,0.16
			s-0.271,0.082-0.318,0.139c-0.045,0.057-0.067,0.107-0.067,0.158c0,0.063,0.071,0.146,0.213,0.261s0.207,0.213,0.196,0.306
			c-0.029,0.314-0.196,0.844-0.5,1.584c-0.254,0.65-0.364,1.167-0.334,1.555c0.02,0.191,0.197,0.347,0.531,0.457
			c0.264,0.082,0.436,0.029,0.517-0.151c0.161-0.388,0.329-0.95,0.501-1.69c0.183-0.803,0.328-1.361,0.439-1.677
			c0.224-0.192,0.531-0.313,0.928-0.364c0.345-0.031,0.688-0.062,1.033-0.092c0.19,0.518,0.357,1.162,0.5,1.936
			c0.133,0.711,0.444,1.11,0.94,1.203c0.063,0.011,0.179-0.063,0.351-0.213c0.172-0.154,0.26-0.33,0.26-0.533
			c0-0.123-0.031-0.266-0.092-0.428C-1045.86,1361.08-1046.389,1359.103-1046.896,1356.707z M-1048.81,1359.771
			c0.224-0.846,0.485-1.688,0.789-2.529c0.093,0.406,0.188,0.813,0.289,1.219c0.103,0.467,0.166,0.889,0.196,1.266
			C-1048.224,1359.726-1048.647,1359.739-1048.81,1359.771z M-1043.325,1357.562c-0.092-0.254-0.137-0.527-0.137-0.822
			c0-0.792,0.271-1.463,0.818-2.012c0.063-0.062,0.121-0.091,0.184-0.091c0.011,0,0.086,0.021,0.229,0.062
			c0.09,0.029,0.177,0.025,0.258-0.016c0.294-0.152,0.439-0.33,0.439-0.533c0-0.111-0.051-0.226-0.15-0.336
			c-0.213-0.233-0.531-0.352-0.957-0.352c-0.223,0-0.45,0.057-0.685,0.168c-0.507,0.243-0.896,0.646-1.17,1.203
			c-0.243,0.487-0.364,1.042-0.364,1.661c0,0.752,0.326,1.754,0.979,3.009s0.979,2.212,0.979,2.872c0,0.467-0.106,0.924-0.318,1.37
			c-0.051,0.109-0.152,0.174-0.305,0.186c-0.151,0.01-0.248,0.038-0.289,0.09c-0.15,0.174-0.229,0.319-0.229,0.44
			c0,0.204,0.15,0.371,0.455,0.504c0.081,0.03,0.167,0.045,0.259,0.045c0.232,0,0.496-0.104,0.79-0.317
			c0.364-0.274,0.594-0.498,0.686-0.672c0.271-0.519,0.408-1.057,0.408-1.613c0-0.682-0.242-1.51-0.729-2.483
			C-1042.899,1358.459-1043.285,1357.672-1043.325,1357.562z M-1033.589,1354.103c-0.486-0.244-0.975-0.396-1.459-0.455
			c-0.091-0.013-0.288-0.041-0.594-0.095c-0.213-0.038-0.385-0.061-0.517-0.061c-0.282,0-0.542,0.086-0.774,0.259
			c0,0.052-0.021,0.117-0.066,0.199c-0.046,0.081-0.063,0.142-0.054,0.182c0.151,0.335,0.466,0.551,0.94,0.643
			c0.07,1.3,0.045,2.722-0.076,4.265c-0.131,0.093-0.233,0.176-0.312,0.252s-0.114,0.16-0.114,0.252
			c0,0.183,0.106,0.345,0.319,0.487c-0.091,0.66-0.146,1.498-0.167,2.514c-0.021,0.844-0.041,1.691-0.061,2.544
			c0.131,0.274,0.362,0.412,0.696,0.412c0.144,0,0.273-0.036,0.396-0.106c0.483-0.285,0.972-0.568,1.457-0.854
			c0.599-0.366,1.049-0.736,1.353-1.111c0.396-0.488,0.594-1.021,0.594-1.601c0-0.751-0.421-1.401-1.262-1.95
			c-0.162-0.07-0.332-0.145-0.509-0.222c-0.179-0.075-0.281-0.189-0.313-0.343c0.519-0.354,1.032-0.717,1.549-1.082
			c0.537-0.445,0.871-0.943,1.004-1.492c0.062-0.266,0.025-0.59-0.105-0.975
			C-1031.854,1355.226-1032.495,1354.671-1033.589,1354.103z M-1033.694,1360.82c0.191,0.233,0.287,0.503,0.287,0.809
			c0,0.103-0.01,0.207-0.029,0.319c-0.08,0.363-0.213,0.654-0.396,0.867c-0.103,0.121-0.28,0.263-0.539,0.418
			c-0.259,0.158-0.446,0.309-0.569,0.449c-0.08-0.265-0.121-0.559-0.121-0.884c0-0.224,0.026-0.557,0.084-0.997
			c0.056-0.44,0.084-0.77,0.084-0.981c0-0.121-0.006-0.233-0.018-0.337c0.071-0.028,0.147-0.045,0.229-0.045
			C-1034.541,1360.438-1034.212,1360.565-1033.694,1360.82z M-1033.272,1357.012c-0.23,0.337-0.5,0.574-0.805,0.718
			c-0.021,0.01-0.102,0.067-0.242,0.176c-0.142,0.106-0.248,0.158-0.319,0.158c0.012-0.324,0-0.775-0.029-1.354
			c-0.04-0.63-0.062-1.076-0.062-1.341c0-0.193,0.004-0.375,0.017-0.549c0.05-0.021,0.096-0.03,0.137-0.03
			c0.08,0,0.183,0.041,0.306,0.123c0.172,0.101,0.297,0.167,0.379,0.196c0.558,0.203,0.859,0.494,0.912,0.869
			C-1032.94,1356.331-1033.037,1356.678-1033.272,1357.012z M-1025.752,1355.077c-0.364-0.214-0.685-0.32-0.957-0.32
			c-0.07,0-0.131,0.005-0.183,0.018c-0.495,0.121-0.986,0.248-1.475,0.379c-0.566,0.154-1.043,0.326-1.428,0.52
			c-0.324,0.133-0.648,0.266-0.973,0.396c-0.344,0.173-0.521,0.404-0.531,0.699c-0.01,0.314,0.27,0.527,0.836,0.641
			c-0.063,0.884-0.102,1.367-0.122,1.447c-0.021,0.082-0.104,0.16-0.25,0.235c-0.147,0.076-0.226,0.159-0.235,0.252
			c-0.031,0.183,0.096,0.37,0.379,0.563c-0.09,0.699-0.09,1.492,0,2.377c0.03,0.305,0.162,0.578,0.396,0.822
			c0.232,0.244,0.491,0.399,0.773,0.473c0.9,0.232,1.965,0.33,3.188,0.289c0.162-0.012,0.286-0.084,0.372-0.221
			c0.086-0.14,0.113-0.287,0.084-0.449c-0.091-0.487-0.278-0.701-0.563-0.641c-0.062,0-0.138,0.039-0.229,0.113
			c-0.091,0.076-0.177,0.114-0.258,0.114c-1.176,0.051-2-0.093-2.479-0.429c-0.08-0.172-0.121-0.403-0.121-0.698
			c0-0.438,0.098-1.032,0.289-1.783c0.283-0.11,0.664-0.172,1.141-0.185c0.566-0.01,0.955-0.041,1.17-0.092
			c0.121,0.01,0.223-0.028,0.304-0.121c0.121-0.133,0.192-0.203,0.213-0.213c0.07-0.041,0.105-0.098,0.105-0.168
			c0-0.063-0.07-0.191-0.214-0.396c-0.201-0.121-0.444-0.183-0.729-0.183c-0.15,0-0.39,0.024-0.714,0.074
			c-0.324,0.051-0.562,0.076-0.714,0.076c-0.213,0-0.4-0.029-0.563-0.091c0.041-0.914,0.105-1.504,0.197-1.767
			c0.374-0.153,0.926-0.332,1.655-0.535c0.729-0.202,1.279-0.381,1.654-0.532c0.07-0.052,0.105-0.116,0.105-0.197
			c0-0.052-0.021-0.133-0.061-0.243C-1025.716,1355.192-1025.741,1355.117-1025.752,1355.077z M-1018.294,1355.597
			c-0.011-0.021-0.011-0.094,0-0.215c0-0.102-0.016-0.15-0.045-0.15c-0.021,0-0.053,0.016-0.094,0.045
			c-0.19-0.111-0.385-0.168-0.575-0.168c-0.243,0-0.415,0.097-0.519,0.289c0.021,0.256,0.03,0.515,0.03,0.776
			c0,0.683-0.083,1.706-0.25,3.077s-0.251,2.403-0.251,3.095c0,0.039,0.006,0.071,0.006,0.11c-0.203-0.217-0.428-0.439-0.688-0.676
			c-1.104-1.006-1.659-1.516-1.671-1.523c-0.161-0.132-0.323-0.265-0.484-0.396c-0.213-0.185-0.319-0.341-0.319-0.474
			c0-0.121,0.093-0.231,0.273-0.336c0.444-0.242,0.819-0.578,1.124-1.005c0.354-0.478,0.529-0.954,0.529-1.433
			c0-0.568-0.188-1.098-0.562-1.584c-0.405-0.528-0.881-0.803-1.428-0.823c-1.084-0.051-1.677,0.239-1.777,0.869
			c-0.151,0.944-0.228,2.106-0.228,3.487v1.662c-0.012,0.813-0.036,1.514-0.076,2.103c-0.012,0.071-0.036,0.253-0.076,0.548
			c-0.04,0.254-0.061,0.458-0.061,0.609c0,0.519,0.223,0.828,0.668,0.93c0.069,0.02,0.16,0.005,0.267-0.046
			c0.104-0.052,0.169-0.076,0.188-0.076c0.133-0.498,0.224-1.168,0.272-2.011c0.081-1.117,0.138-1.809,0.167-2.072
			c0.438,0.376,1.1,1.046,1.99,2.012c0.8,0.863,1.468,1.504,2.005,1.92c0.166-0.043,0.293-0.094,0.401-0.146
			c0.074,0.021,0.156,0.036,0.25,0.041c0.305,0.01,0.502-0.127,0.594-0.411c-0.012-0.254-0.018-0.513-0.018-0.776
			c0-0.712,0.071-1.763,0.213-3.154c0.144-1.392,0.213-2.433,0.213-3.121c0-0.314-0.01-0.62-0.028-0.914
			C-1018.271,1355.646-1018.284,1355.626-1018.294,1355.597z M-1023.822,1358.442c0.021-0.264,0.021-0.604,0-1.021
			c-0.028-0.548-0.046-0.888-0.046-1.021c0-0.325,0.025-0.614,0.076-0.868c0.063-0.152,0.213-0.229,0.455-0.229
			c0.323,0,0.561,0.086,0.707,0.26s0.234,0.365,0.267,0.578c0.011,0.145,0,0.306-0.03,0.487
			C-1022.506,1357.21-1022.981,1357.813-1023.822,1358.442z M-1015.938,1357.562c-0.09-0.254-0.138-0.527-0.138-0.822
			c0-0.792,0.273-1.463,0.82-2.012c0.062-0.062,0.121-0.091,0.184-0.091c0.011,0,0.087,0.021,0.228,0.062
			c0.092,0.029,0.178,0.025,0.259-0.016c0.294-0.152,0.44-0.33,0.44-0.533c0-0.111-0.051-0.226-0.151-0.336
			c-0.213-0.233-0.531-0.352-0.957-0.352c-0.224,0-0.451,0.057-0.685,0.168c-0.506,0.243-0.896,0.646-1.17,1.203
			c-0.242,0.487-0.363,1.042-0.363,1.661c0,0.752,0.326,1.754,0.979,3.009c0.653,1.255,0.98,2.212,0.98,2.872
			c0,0.467-0.106,0.924-0.319,1.37c-0.051,0.109-0.151,0.174-0.304,0.186c-0.152,0.01-0.248,0.038-0.289,0.09
			c-0.151,0.174-0.229,0.319-0.229,0.44c0,0.204,0.151,0.371,0.455,0.504c0.08,0.03,0.167,0.045,0.26,0.045
			c0.23,0,0.496-0.104,0.789-0.317c0.363-0.274,0.592-0.498,0.685-0.672c0.272-0.519,0.409-1.057,0.409-1.613
			c0-0.682-0.242-1.51-0.729-2.483C-1015.514,1358.459-1015.897,1357.672-1015.938,1357.562z M-1011.504,1355.597
			c-0.013-0.021-0.013-0.094,0-0.215c0-0.102-0.017-0.15-0.046-0.15c-0.021,0-0.053,0.016-0.092,0.045
			c-0.192-0.111-0.385-0.168-0.576-0.168c-0.243,0-0.416,0.097-0.518,0.289c0.021,0.256,0.029,0.515,0.029,0.776
			c0,0.683-0.084,1.706-0.251,3.077s-0.25,2.403-0.25,3.095c0,0.396,0.021,0.771,0.062,1.128c0.039,0.354,0.277,0.543,0.713,0.563
			c0.306,0.01,0.503-0.127,0.595-0.411c-0.013-0.254-0.017-0.513-0.017-0.776c0-0.711,0.069-1.763,0.213-3.153
			c0.143-1.392,0.211-2.433,0.211-3.122c0-0.314-0.01-0.62-0.028-0.914C-1011.479,1355.646-1011.494,1355.626-1011.504,1355.597z
			 M-1007.176,1361.229c-0.64-0.375-1.271-0.75-1.898-1.127c0.273-0.426,0.896-1.143,1.868-2.146
			c0.83-0.862,1.389-1.607,1.671-2.239c-0.021-0.272-0.229-0.409-0.622-0.409c-0.143,0-0.271,0.023-0.396,0.074
			c-0.445,0.528-0.896,1.053-1.353,1.569c-0.537,0.619-1.014,1.114-1.429,1.491c0.021-0.813-0.046-1.907-0.196-3.291
			c-0.012-0.12-0.088-0.211-0.229-0.266c-0.143-0.058-0.278-0.104-0.41-0.146c-0.132,0.021-0.258,0.041-0.38,0.063
			c-0.162,0.039-0.232,0.121-0.213,0.242c0.143,0.792,0.213,1.728,0.213,2.806c0,0.354-0.011,0.885-0.03,1.592
			c-0.021,0.705-0.029,1.235-0.029,1.593c0,0.985,0.062,1.843,0.184,2.573c0.039,0.266,0.191,0.441,0.455,0.533
			c0.031,0.07,0.104,0.106,0.229,0.106c0.111,0,0.197-0.021,0.258-0.063c0.213-0.092,0.319-0.258,0.319-0.502
			c0-0.069-0.011-0.188-0.03-0.351c-0.021-0.163-0.029-0.285-0.029-0.366c-0.021-0.699-0.047-1.238-0.075-1.613
			c1.428,0.854,2.479,1.492,3.157,1.918c0.063,0.041,0.117,0.063,0.168,0.063c0.052,0,0.123-0.024,0.222-0.076
			c0.096-0.052,0.175-0.075,0.233-0.075c0.031,0,0.065,0.004,0.106,0.016c0.081-0.243,0.121-0.396,0.121-0.457
			c0-0.092-0.03-0.163-0.091-0.215C-1005.869,1362.108-1006.467,1361.681-1007.176,1361.229z M-1137.041,1343.205
			c-0.835-7.396-0.835-15.07-1.392-22.746c-0.348-0.698-0.278-1.954-0.278-3.07c-0.765-2.373-0.974-5.373-1.669-7.744
			c-0.557-3-0.417-6.838-1.809-8.723c-1.53,0.07-2.087,0.628-3.27,1.117c-1.252,5.232-2.157,10.814-3.479,15.909
			c-1.113-3.28-2.574-6.071-3.757-9.281v-0.978c-1.182-1.744-1.46-4.744-3.339-5.651c-0.556,0.696-1.043,0.209-1.878,0.418
			c-0.209,0.56-0.348,1.326-0.835,1.604v3.211c-0.626,3.768,0,8.723-0.278,12.77c-0.07,1.046-0.348,2.093-0.417,2.932
			c0,0.278,0.209,0.558,0.209,0.697c0,0.977-0.417,2.512-0.209,3.489c0.417,0.698,0.07,2.439,0.209,3.557
			c0.348,3.979-0.278,10.188,0,14.166c0.487,0.141,0.834-0.697,1.113,0c0.348-0.559,0.835-0.906,1.392-0.838
			c1.183-3.838,0.834-10.885,1.322-14.723c-0.696-3.487-0.209-8.302,0.348-11.792c-0.278-1.187-0.487-3.139-0.208-4.535
			c0.626,1.326,1.183,2.722,1.461,4.535c1.043,1.746,1.322,4.537,1.948,6.839c0.487,0.558,0.835,1.187,0.835,2.233
			c0.765,0.418,0.696,1.95,1.6,2.159c0.278,1.256,1.113,1.676,1.739,2.512c0.557-0.068,1.113-0.068,1.391,0.279
			c1.809-0.628,0.557-3.836,1.113-5.929c-0.208-2.723,0.626-6.28,1.461-8.514c1.183,8.861,1.113,19.467,1.878,28.887
			c0.626,0.698,1.669,0.837,1.739,2.231c0.348,0,0.696-0.068,0.626,0.42c0.348-0.42,1.183-0.209,1.669-0.42
			c0.209-0.627,0.557-0.978,0.835-1.396C-1136.763,1345.368-1137.598,1344.252-1137.041,1343.205z M-1117.63,1335.878
			c-0.766-4.466-1.67-8.86-1.948-13.884c-0.348-1.536-0.695-3.21-0.695-5.164c-0.557-1.396-0.974-2.93-0.974-5.023
			c-0.974-3-1.739-6.281-2.854-9.142c-0.417-0.14-0.904-0.278-0.834-0.978c-1.044-0.56-1.601,0.905-2.296,0.277
			c-0.487,0.837-1.044,1.536-1.878,1.954c-0.626,3.21-0.487,6.49-0.835,9.839c-0.278,2.023-0.904,5.582-1.252,7.396
			c-0.348,1.746-0.417,3.699-0.696,5.373c-0.07,0.488-0.417,0.838-0.487,1.257c-0.209,1.185-0.278,3.208-0.348,3.767
			c-0.417,5.024,0.139,10.259-1.113,14.025c1.252,0.487,1.878,0.069,2.782,0.278c0.348-0.278,0.418-0.906,1.113-0.838
			c-0.069-0.696,0.209-0.978,0.417-1.396c0.208-3.628,1.113-6.28,1.322-9.839c1.878,0.349,2.713,0.209,4.8,0.14
			c0.417,3.63,0.904,7.118,2.157,9.699c1.53,0.14,2.226,1.256,3.687,0.698c0.209-0.629,0.626-1.047,0.835-1.674
			C-1117.004,1340.553-1118.119,1337.974-1117.63,1335.878z M-1128.206,1330.019c0.626-4.187,1.809-7.745,2.157-12.351
			c0.139,0.07,0.208,0.141,0.348,0.141c0.557,4.047,0.974,8.233,1.6,12.21C-1125.284,1330.156-1127.023,1330.296-1128.206,1330.019z
			 M-1097.249,1325.482c-0.696-1.188-1.67-0.906-2.574-1.465c-0.278,0.068-0.417,0.35-0.695,0.418
			c-2.644-0.278-4.383,0.838-6.47,1.396c0.07,0.56-0.557,0.209-0.417,0.837c1.392,1.116,2.574,3.138,4.8,2.371
			c0,0.978,0.278,1.674,0.07,2.931c0,0.209,0.278,0.142,0.139,0.418c0.069,3.07-0.904,5.164-1.461,7.049
			c-0.348,1.115-0.626,2.722-1.878,2.303c-3.2-5.514-2.713-14.79-3.409-22.815c0.208-1.675,0.139-3.001,0.348-4.675
			c-0.348-0.488-0.07-2.304,0.278-2.722c-0.557-1.465,0.487-3.279,0.557-4.814c0.903-0.488,1.46-1.465,2.225-2.093
			c1.6-0.349,2.365,0.978,2.852,2.163c1.322,0.14,1.252,1.675,2.853,1.465c0.487-0.418,0.696-1.186,1.113-1.675
			c-0.904-3.28-4.243-6.77-7.513-5.233c-0.626-0.14-0.974,0.07-1.461,0c0,0.209,0,0.559-0.139,0.559
			c-1.322,0-2.157,0.838-3.409,0.979c-0.626,0.979-1.044,2.65-1.322,3.979c-1.391,7.955-0.556,16.539-0.695,23.861
			c0.417,0,0.208,0.56,0.417,0.628c-0.278,1.815,0,3.07,0.556,4.047c0,0.42,0.14,0.698,0,1.256c0.696,3.142,2.574,5.024,3.966,7.396
			c1.113,0.838,2.296,1.535,3.757,2.023c0.695-0.418,1.809-0.14,2.713-0.209c0.208-0.56,0.626-0.697,1.043-0.906
			c0.209-1.326,1.252-1.535,1.322-3.07c0.348,0.209,0.139-0.488,0.487-0.279c0.069-1.465,0.974-2.582,1.391-4.047
			c0.626-2.651,0.487-5.582,0.835-8.582C-1097.388,1328.135-1097.317,1326.739-1097.249,1325.482z M-1077.979,1335.878
			c-0.765-4.466-1.669-8.86-1.948-13.884c-0.348-1.536-0.696-3.21-0.696-5.164c-0.557-1.396-0.974-2.93-0.974-5.023
			c-0.974-3-1.739-6.281-2.853-9.142c-0.417-0.14-0.904-0.278-0.835-0.978c-1.043-0.56-1.6,0.905-2.296,0.277
			c-0.487,0.837-1.043,1.536-1.878,1.954c-0.626,3.21-0.487,6.49-0.835,9.839c-0.278,2.023-0.904,5.582-1.252,7.396
			c-0.348,1.746-0.417,3.699-0.696,5.373c-0.069,0.488-0.417,0.838-0.487,1.257c-0.208,1.185-0.278,3.208-0.348,3.767
			c-0.417,5.024,0.139,10.259-1.113,14.025c1.252,0.487,1.878,0.069,2.783,0.278c0.348-0.278,0.417-0.906,1.113-0.838
			c-0.069-0.696,0.208-0.978,0.417-1.396c0.208-3.628,1.113-6.28,1.322-9.839c1.878,0.349,2.713,0.209,4.8,0.14
			c0.417,3.63,0.904,7.118,2.156,9.699c1.531,0.14,2.227,1.256,3.688,0.698c0.208-0.629,0.626-1.047,0.835-1.674
			C-1077.353,1340.553-1078.465,1337.974-1077.979,1335.878z M-1088.552,1330.019c0.626-4.187,1.809-7.745,2.157-12.351
			c0.139,0.07,0.208,0.141,0.348,0.141c0.557,4.047,0.974,8.233,1.6,12.21C-1085.63,1330.156-1087.371,1330.296-1088.552,1330.019z
			 M-1058.639,1344.88c0.067-0.559,0.209-1.047,0.348-1.466c-0.276-1.187-0.976-1.954-1.252-3.21
			c-0.626-0.069-0.976-0.627-1.252-1.188c-1.879-1.186-4.176,0.907-6.19-0.277c-0.418,0.697-1.531-0.209-1.671,0.277
			c0-0.277-0.209-0.277-0.276-0.418c1.319-3.629,2.086-7.886,3.061-11.79c0.418,0.209,0.07-0.627,0.486-0.418
			c-0.068-1.258,0.488-1.677,0.418-2.861c0.418,0.209,0.07-0.627,0.486-0.418c0.209-2.582,1.252-4.047,1.67-6.352
			c1.879-2.441,2.364-6.141,3.617-9.141c0.277-2.163-0.695-2.932-0.975-4.396c-0.626-0.49-1.461-0.699-1.811-1.537
			c-4.801,0.352-8.278,1.537-13.356,1.396c-0.208,1.047,0.765,2.441,1.113,3.141c0.139,0.278,0.069,0.627,0.139,0.697
			c1.183,1.674,4.591,1.674,6.749,2.023c0.35-0.351,1.602-0.418,2.02-0.209c-0.559,1.604-1.461,3.069-2.088,4.744
			c-0.14,0.278,0,0.838-0.14,1.116c-0.07,0.209-0.349,0.209-0.485,0.418c-0.211,0.63-0.211,1.536-0.419,2.164
			c-0.069,0.209-0.418,0.279-0.485,0.421c-0.209,0.767-0.209,1.674-0.418,2.512c-0.209,0.627-0.626,1.115-0.835,1.744
			c-0.835,3.068-1.669,6.141-2.226,9.487c-0.417-0.209,0,0.559-0.487,0.418c-0.278,3.279-2.087,4.955-1.531,8.862
			c0.348,0.978,0.626,1.954,0.765,3.14c0.626,0.279,0.348,0.769,0.696,1.117c0.835,0.838,2.713,0.209,3.618,0.838
			c0.14-0.07,0.068-0.42,0.418-0.279c0.348,0.559,1.6,0,1.947,0.559C-1065.387,1345.717-1061.282,1345.787-1058.639,1344.88z
			 M-1050.149,1311.109c0.557-1.188,0.834-2.722,1.32-3.979c-0.349-1.465-0.558-3.069-0.558-4.954
			c-0.277-0.837-1.112-0.906-1.462-1.675c-1.67,0.07-3.34,0.351-4.033,1.675c-1.67-0.277-1.393,2.023-2.02,3.141
			c0.14,1.535,0.976,2.094,1.043,3.629C-1054.117,1309.923-1053.073,1311.736-1050.149,1311.109z M-1051.61,1314.736
			c-0.768,0.908-2.229,0.908-2.924,1.885c0.278,1.117,0.626,2.443,0.141,3.629c1.81,6.768-0.069,16.745,2.088,23.094
			c0.834,0.209,1.529,0.63,1.877,1.466c0.904-0.278,1.045,0.487,1.879,0.35c0.349-0.768,0.695-1.535,1.184-2.163
			c-0.14-2.792-0.418-5.373-0.277-8.513c-0.069-2.373-0.141-5.584-0.418-8.792
			C-1049.178,1321.785-1047.995,1315.714-1051.61,1314.736z M-1034.358,1332.668c1.252,2.513,2.088,5.44,3.616,7.676
			c-0.067,0.56,0.278,0.769,0.142,1.396c0.902,0.768,1.319,1.884,1.809,3.001c1.252-0.35,2.087,0.977,2.991,0.977
			c0.975,0,1.321-0.768,1.948-1.604c-0.209-1.325-0.418-2.582-0.278-4.188c0.626-0.487,0.694-2.024,0.278-2.792
			c0.557-1.604-0.35-2.93,0.276-4.744c-0.974-5.649-0.557-12.069-0.694-18.28c0-0.209-0.35-0.141-0.277-0.418
			c-0.278-3.209,0.139-7.117-0.418-10.047c0.209-0.561-0.209-2.024-0.836-2.305c-1.252-0.558-2.713,1.116-4.104,1.116
			c-0.276,0.696-0.209,1.047-0.139,1.465c0.067,0.628,0.208,1.955,0,2.652c-0.487,2.093-0.418,5.931,0,8.094
			c-0.278,0.069-0.278,0.488-0.278,0.978c0.766,4.049,0.208,10.049,0.559,14.023c-1.739-3.695-2.854-8.093-4.035-12.419
			c-0.975-0.697-1.461-1.954-1.53-3.56c-0.418,0-0.278-0.559-0.558-0.559c-1.112-3.419-2.156-6.839-3.271-10.117
			c-0.484-0.279-0.834-0.769-1.391-0.978c-1.88,0.487-3.826,0.767-4.035,2.582c-0.068,0.767,0.486,1.604,0.559,2.512
			c0.209,1.884,0.139,3.978-0.279,5.583c0.209,3.907,0,8.723,0.418,13.048c0.14,1.466-0.209,3.278,0,5.231
			c0.486,5.022,0.695,10.188,0.418,14.862c0.695,0.836-0.069,1.885,0.277,2.513c0.903-0.279,2.364,0.21,2.227-1.675
			c0.277-0.209,0.348,0,0.695,0c0-2.86,1.81-5.303,0.834-8.163c0.767-2.722-0.902-9.003,0-13.465
			c-0.416-1.886,0.627-4.467,0.141-6.561c0.626,2.023,0.974,4.257,2.156,5.723
			C-1036.653,1327.438-1034.849,1329.459-1034.358,1332.668z M-1006.323,1338.111c0.141-0.839-0.626,0-1.183-0.279
			c-0.487,0.978-1.394,1.396-2.296,1.884c-0.35,1.326-1.463,2.305-2.854,1.885c-0.07-0.906-0.558-1.257-0.975-1.744
			c-1.044-4.047-2.018-8.934-1.67-14.165c-0.139-0.14-0.487-0.067-0.417-0.418c0-0.209,0.348-0.14,0.278-0.418
			c-1.113-4.814-0.696-12.211,1.183-15.631c0.834,0,1.112-0.559,1.81-0.697c1.111,0.279,1.252,1.813,2.645,1.813
			c0.139,0.837,1.111,0.628,1.183,1.466c1.321,0,1.113-0.209,1.948-0.559c0.693-3.419-1.461-4.605-2.296-6.629
			c0-0.419,0.417-0.35,0.348-0.768l-1.183-1.605c-4.244-0.488-6.4,1.535-8.905,3.07c-0.835,2.512-2.504,5.512-1.947,8.791
			c0.14,4.467,0,8.233,0.14,12.631c0.697,5.858,1.045,12.209,2.923,16.743c0.487,0,0.487,0.56,1.183,0.42
			c-0.139,0.419,0.141,0.35,0.141,0.697c0.903-0.068,1.252,0.488,1.668,1.047c0.836-0.14,1.603,0.418,2.438,0.56
			c1.669,0.278,3.13-0.279,4.174-0.56c1.672-0.418,3.409-0.35,3.758-2.164c0.349-1.952-0.486-4.533-1.113-5.65
			C-1005.769,1337.832-1006.187,1337.762-1006.323,1338.111z"/>
	</g>
</g>
</svg>
