<?xml version="1.0" encoding="utf-8"?>
<!-- Generator: Adobe Illustrator 16.0.3, SVG Export Plug-In . SVG Version: 6.00 Build 0)  -->
<!DOCTYPE svg PUBLIC "-//W3C//DTD SVG 1.1//EN" "http://www.w3.org/Graphics/SVG/1.1/DTD/svg11.dtd">
<svg version="1.1" id="Layer_1" xmlns="http://www.w3.org/2000/svg" xmlns:xlink="http://www.w3.org/1999/xlink" x="0px" y="0px"
	 width="135px" height="60px" viewBox="-22 80.5 135 60" enable-background="new -22 80.5 135 60" xml:space="preserve">
<path fill="#00AFF0" d="M52.579,80.506c0.588,0,1.176,0,1.764,0c0.303,0,0.703-0.029,0.94,0.041c0.238,0.07,0.611-0.021,0.824,0.041
	c0.209,0,0.418,0,0.627,0c0,0.014,0,0.027,0,0.041c0.194,0,0.393,0,0.588,0c0,0.014,0,0.027,0,0.041c0.053,0,0.104,0,0.156,0
	c0.131,0,0.262,0,0.393,0c0,0.014,0,0.027,0,0.041c0.17,0,0.34,0,0.51,0c0,0.014,0,0.027,0,0.041c0.17,0,0.34,0,0.51,0
	c0,0,0.003,0.034,0.078,0.041c0.145,0,0.287,0,0.432,0c0,0.014,0,0.027,0,0.041c0.185,0,0.365,0,0.549,0c0,0.014,0,0.027,0,0.041
	c0.195,0,0.394,0,0.59,0c0,0.014,0,0.027,0,0.041c0.209,0,0.418,0,0.627,0c0.074,0.007,0.076,0.041,0.076,0.041
	c0.287,0,0.576,0,0.863,0c0,0.014,0,0.027,0,0.041c0.012,0,0.025,0,0.039,0c0.269,0.046,0.609-0.021,0.822,0.041
	c0.85,0.027,1.7,0.055,2.548,0.082c0,0.014,0,0.027,0,0.041c0.353,0.014,0.706,0.027,1.06,0.041c0.17,0,0.341,0,0.511,0
	c0,0.014,0,0.027,0,0.041c0.325,0.014,0.651,0.027,0.979,0.041c0.145,0,0.288,0,0.433,0c0,0.014,0,0.027,0,0.041
	c0.223,0,0.443,0,0.666,0c0,0.014,0,0.027,0,0.041c0.223,0,0.445,0,0.666,0c0,0.014,0,0.027,0,0.041c0.197,0,0.393,0,0.589,0
	c0,0.014,0,0.027,0,0.041c0.262,0.014,0.522,0.027,0.784,0.041c0.131,0,0.261,0,0.392,0c0,0.014,0,0.027,0,0.041
	c0.183,0,0.366,0,0.549,0c0,0.014,0,0.027,0,0.041c0.511,0.027,1.021,0.055,1.528,0.082c0,0.014,0,0.027,0,0.041
	c0.156,0,0.314,0,0.471,0c0,0.014,0,0.027,0,0.041c0.145,0,0.287,0,0.432,0c0,0.013,0,0.027,0,0.041c0.156,0,0.313,0,0.472,0
	c0,0.014,0,0.027,0,0.041c0.145,0,0.287,0,0.432,0c0,0.014,0,0.027,0,0.041c0.131,0,0.262,0,0.393,0c0,0.014,0,0.026,0,0.041
	c0.131,0,0.262,0,0.392,0c0,0.014,0,0.026,0,0.041c0.131,0,0.263,0,0.394,0c0,0.014,0,0.026,0,0.041c0.131,0,0.261,0,0.393,0
	c0,0.014,0,0.026,0,0.041c0.131,0,0.262,0,0.395,0c0,0.014,0,0.026,0,0.041c0.115,0,0.232,0,0.353,0c0,0.014,0,0.026,0,0.041
	c0.116,0,0.235,0,0.353,0c0.498,0.149,1.15,0.096,1.646,0.246c0.3,0.026,0.602,0.055,0.901,0.082
	c1.188,0.19,2.379,0.381,3.566,0.573c0.341,0.109,0.769,0.177,1.099,0.287c0.064,0,0.131,0,0.195,0
	c1.28,0.354,2.563,0.71,3.841,1.065c0.104,0.014,0.209,0.026,0.313,0.041c0,0.014,0,0.026,0,0.041c0.054,0,0.104,0,0.158,0
	c0,0.014,0,0.026,0,0.041c0.051,0,0.104,0,0.154,0c0,0.014,0,0.026,0,0.041c0.118,0.014,0.235,0.026,0.354,0.041
	c0,0.014,0,0.026,0,0.041c0.116,0.014,0.233,0.026,0.353,0.041c0,0.014,0,0.026,0,0.041c0.614,0.108,1.229,0.219,1.845,0.328
	c0.262,0.014,0.521,0.026,0.783,0.041c0.229,0.066,0.609,0.041,0.9,0.041c0.512,0,1.297,0.084,1.725-0.041c0.225,0,0.444,0,0.666,0
	c0-0.015,0-0.027,0-0.041c0.146,0,0.288,0,0.434,0c0.074-0.008,0.078-0.041,0.078-0.041c0.17,0,0.34,0,0.51,0
	c0-0.015,0-0.027,0-0.041c0.145,0,0.287,0,0.431,0c0-0.015,0-0.027,0-0.041c0.157,0,0.313,0,0.472,0c0-0.015,0-0.027,0-0.041
	c0.156,0,0.313,0,0.472,0c0-0.015,0-0.027,0-0.041c0.155,0,0.313,0,0.47,0c0-0.015,0-0.027,0-0.041c0.171,0,0.341,0,0.511,0
	c0-0.015,0-0.027,0-0.041c0.354-0.015,0.706-0.027,1.06-0.041c0.17,0,0.34,0,0.51,0c0-0.015,0-0.027,0-0.041
	c0.186-0.055,0.925,0,1.059,0.041c0.146,0,0.287,0,0.433,0c0.268,0,0.569,0.019,0.782,0.082c0.195,0.014,0.394,0.026,0.588,0.041
	c0,0.014,0,0.026,0,0.041c0.078,0,0.157,0,0.237,0c0,0.014,0,0.026,0,0.041c0.063,0,0.129,0,0.194,0c0,0.014,0,0.026,0,0.041
	c0.065,0,0.131,0,0.196,0c0,0.014,0,0.026,0,0.041c0.052,0,0.104,0,0.154,0c0,0.014,0,0.026,0,0.041c0.055,0,0.104,0,0.157,0
	c0,0.014,0,0.026,0,0.041c0.054,0,0.104,0,0.157,0c0,0.014,0,0.026,0,0.041c0.052,0,0.104,0,0.154,0c0,0.014,0,0.026,0,0.041
	c0.039,0,0.078,0,0.117,0c0,0.014,0,0.026,0,0.041c0.041,0,0.08,0,0.119,0c0,0.014,0,0.026,0,0.041c0.038,0,0.077,0,0.116,0
	c0,0.014,0,0.026,0,0.04c0.039,0,0.079,0,0.118,0c0,0.015,0,0.027,0,0.041c0.078,0.015,0.156,0.027,0.234,0.041
	c0,0.015,0,0.027,0,0.041c0.024,0,0.053,0,0.078,0c0,0.015,0,0.027,0,0.041c0.039,0,0.078,0,0.116,0c0,0.015,0,0.027,0,0.041
	c0.026,0,0.054,0,0.079,0c0,0.015,0,0.027,0,0.041c0.039,0,0.078,0,0.117,0c0,0.015,0,0.027,0,0.041
	c0.077,0.027,0.154,0.056,0.234,0.082c0,0.015,0,0.027,0,0.041c0.024,0,0.052,0,0.078,0c0,0.015,0,0.027,0,0.041
	c0.025,0,0.053,0,0.078,0c0,0.015,0,0.026,0,0.041c0.025,0,0.053,0,0.078,0c0,0.015,0,0.026,0,0.041c0.025,0,0.053,0,0.078,0
	c0,0.015,0,0.026,0,0.041c0.025,0,0.053,0,0.078,0c0,0.015,0,0.026,0,0.041c0.025,0,0.053,0,0.078,0
	c0.014,0.026,0.025,0.056,0.039,0.082c0.078,0.026,0.156,0.056,0.234,0.082c0,0.015,0,0.026,0,0.041
	c0.039,0.015,0.078,0.026,0.117,0.041c0.014,0.026,0.024,0.055,0.039,0.082c0.026,0,0.053,0,0.078,0c0,0.014,0,0.026,0,0.041
	c0.039,0.014,0.078,0.026,0.118,0.041c0.013,0.026,0.024,0.055,0.039,0.082c0.024,0,0.052,0,0.077,0
	c0.025,0.041,0.053,0.082,0.078,0.123c0.025,0,0.054,0,0.078,0c0.025,0.042,0.053,0.083,0.078,0.123c0.026,0,0.053,0,0.078,0
	c0.053,0.068,0.104,0.138,0.157,0.205c0.024,0,0.052,0,0.078,0c0.104,0.123,0.209,0.246,0.313,0.369c0.024,0,0.051,0,0.076,0
	c0.055,0.068,0.104,0.138,0.157,0.205c0.024,0.015,0.052,0.027,0.078,0.041c0,0.027,0,0.055,0,0.082
	c0.131,0.123,0.262,0.246,0.392,0.369c0,0.027,0,0.055,0,0.082c0.065,0.055,0.133,0.109,0.196,0.164c0,0.027,0,0.055,0,0.082
	c0.039,0.027,0.078,0.055,0.116,0.082c0,0.027,0,0.055,0,0.082c0.039,0.027,0.078,0.055,0.117,0.082c0,0.027,0,0.055,0,0.082
	c0.039,0.027,0.078,0.055,0.117,0.083c0,0.027,0,0.054,0,0.082c0.039,0.027,0.079,0.055,0.118,0.082c0,0.027,0,0.055,0,0.082
	c0.025,0.014,0.052,0.027,0.078,0.041c0,0.027,0,0.055,0,0.082c0.026,0.014,0.054,0.027,0.078,0.041c0,0.027,0,0.055,0,0.082
	c0.026,0.014,0.053,0.027,0.079,0.041c0,0.027,0,0.055,0,0.082c0.025,0.014,0.052,0.027,0.078,0.041c0,0.027,0,0.055,0,0.082
	c0.025,0.014,0.052,0.027,0.078,0.041c0.013,0.055,0.024,0.108,0.039,0.164c0.024,0.014,0.053,0.026,0.078,0.041
	c0,0.026,0,0.055,0,0.082c0.014,0,0.024,0,0.039,0c0,0.026,0,0.055,0,0.082c0.024,0.014,0.053,0.026,0.077,0.041
	c0,0.026,0,0.055,0,0.082c0.015,0,0.026,0,0.039,0c0,0.026,0,0.055,0,0.082c0.015,0,0.026,0,0.039,0c0,0.026,0,0.055,0,0.082
	c0.015,0,0.024,0,0.039,0c0,0.026,0,0.055,0,0.082c0.024,0.014,0.053,0.026,0.079,0.041c0.023,0.082,0.052,0.164,0.078,0.245
	c0.013,0,0.025,0,0.037,0c0,0.027,0,0.056,0,0.082c0.015,0,0.027,0,0.039,0c0.027,0.082,0.055,0.164,0.078,0.246
	c0.016,0,0.026,0,0.041,0c0,0.041,0,0.082,0,0.123c0.014,0,0.024,0,0.039,0c0,0.026,0,0.056,0,0.082c0.012,0,0.024,0,0.039,0
	c0.025,0.082,0.051,0.164,0.077,0.246c0.013,0,0.026,0,0.039,0c0,0.041,0,0.082,0,0.123c0.015,0,0.026,0,0.039,0
	c0,0.026,0,0.055,0,0.082c0.015,0,0.026,0,0.04,0c0.014,0.067,0.025,0.137,0.039,0.205c0.014,0,0.025,0,0.039,0
	c0,0.041,0,0.082,0,0.122c0.013,0,0.025,0,0.039,0c0,0.027,0,0.056,0,0.082c0.013,0,0.025,0,0.039,0
	c0.025,0.123,0.053,0.246,0.078,0.369c0.123,0.328,0.24,0.72,0.354,1.066c0,0.055,0,0.109,0,0.164c0.014,0,0.025,0,0.039,0
	c0,0.055,0,0.109,0,0.164c0.014,0,0.025,0,0.039,0c0,0.055,0,0.109,0,0.164c0.014,0,0.025,0,0.039,0c0,0.055,0,0.109,0,0.164
	c0.014,0,0.025,0,0.039,0c0.104,0.669,0.209,1.339,0.313,2.009c0.016,0.328,0.026,0.656,0.039,0.983
	c0.117,0.441,0.039,1.238,0.039,1.765c0.002,0.292,0.022,0.675-0.039,0.902c0,0.15,0,0.301,0,0.451
	c-0.013,0.205-0.023,0.41-0.039,0.614c-0.013,0-0.024,0-0.039,0c-0.024,0.369-0.051,0.738-0.078,1.106
	c-0.092,0.33-0.104,0.781-0.194,1.107c0,0.082,0,0.164,0,0.246c-0.326,1.693-0.652,3.39-0.979,5.083
	c-0.322,1.033-0.453,2.221-0.785,3.239c-0.063,0.328-0.131,0.656-0.194,0.982c-0.015,0-0.024,0-0.039,0c0,0.041,0,0.082,0,0.123
	c-0.015,0-0.024,0-0.039,0c0,0.056,0,0.108,0,0.164c-0.015,0-0.024,0-0.039,0c0,0.056,0,0.108,0,0.164c-0.015,0-0.024,0-0.039,0
	c0,0.055,0,0.108,0,0.164c-0.014,0-0.024,0-0.039,0c-0.014,0.108-0.024,0.219-0.039,0.327c-0.243,0.71-0.386,1.548-0.628,2.255
	c-0.052,0.26-0.104,0.521-0.154,0.778c-0.154,0.446-0.278,0.987-0.434,1.437c0,0.055,0,0.107,0,0.164c-0.014,0-0.025,0-0.039,0
	c0,0.055,0,0.107,0,0.164c-0.013,0-0.025,0-0.039,0c0,0.041,0,0.082,0,0.121c-0.013,0-0.025,0-0.037,0c0,0.057,0,0.109,0,0.164
	c-0.016,0-0.027,0-0.039,0c0,0.041,0,0.082,0,0.123c-0.016,0-0.027,0-0.039,0c-0.016,0.098-0.026,0.191-0.041,0.287
	c-0.014,0-0.024,0-0.039,0c-0.014,0.098-0.024,0.189-0.039,0.286c-0.013,0-0.025,0-0.039,0c-0.012,0.096-0.025,0.19-0.039,0.287
	c-0.014,0-0.025,0-0.038,0c0,0.055,0,0.108,0,0.163c-0.015,0-0.026,0-0.039,0c0,0.041,0,0.082,0,0.123c-0.015,0-0.026,0-0.04,0
	c0,0.056,0,0.109,0,0.164c-0.395,1.142-0.628,2.426-1.02,3.567c-0.014,0.109-0.025,0.22-0.039,0.328
	c-0.138,0.396-0.256,0.876-0.394,1.271c0,0.057,0,0.109,0,0.164c-0.013,0-0.024,0-0.039,0c0,0.041,0,0.082,0,0.123
	c-0.013,0-0.024,0-0.039,0c0,0.057,0,0.109,0,0.164c-0.013,0-0.024,0-0.039,0c0,0.055,0,0.109,0,0.164
	c-0.202,0.59-0.346,1.295-0.549,1.887c-0.052,0.26-0.104,0.52-0.155,0.777c-0.203,0.621-0.339,1.352-0.55,1.969
	c-0.053,0.26-0.104,0.521-0.155,0.778c-0.015,0-0.027,0-0.039,0c-0.039,0.19-0.078,0.382-0.117,0.573c-0.014,0-0.026,0-0.041,0
	c0,0.041,0,0.082,0,0.123c-0.012,0-0.024,0-0.039,0c-0.012,0.096-0.024,0.191-0.038,0.287c-0.013,0-0.026,0-0.039,0
	c-0.013,0.096-0.026,0.191-0.039,0.287c-0.015,0-0.026,0-0.039,0c-0.026,0.137-0.054,0.271-0.079,0.41c-0.013,0-0.025,0-0.039,0
	c0,0.054,0,0.106,0,0.162c-0.013,0-0.025,0-0.039,0c0,0.041,0,0.082,0,0.123c-0.013,0-0.025,0-0.039,0c0,0.041,0,0.082,0,0.123
	c-0.013,0-0.025,0-0.039,0c0,0.055,0,0.108,0,0.163c-0.013,0-0.025,0-0.039,0c-0.014,0.082-0.024,0.164-0.039,0.246
	c-0.014,0-0.024,0-0.039,0c0,0.041,0,0.082,0,0.123c-0.014,0-0.024,0-0.039,0c0,0.041,0,0.082,0,0.123c-0.014,0-0.024,0-0.039,0
	c0,0.041,0,0.082,0,0.123c-0.014,0-0.025,0-0.039,0c0,0.041,0,0.082,0,0.123c-0.014,0-0.025,0-0.038,0c0,0.041,0,0.082,0,0.123
	c-0.015,0-0.026,0-0.039,0c-0.015,0.082-0.026,0.164-0.039,0.246c-0.015,0-0.026,0-0.039,0c-0.015,0.081-0.024,0.163-0.04,0.243
	c-0.014,0-0.023,0-0.039,0c0,0.042,0,0.083,0,0.124c-0.014,0-0.023,0-0.039,0c0,0.041,0,0.082,0,0.123c-0.013,0-0.026,0-0.04,0
	c0,0.041,0,0.082,0,0.123c-0.012,0-0.025,0-0.039,0c0,0.041,0,0.082,0,0.123c-0.014,0-0.025,0-0.037,0c0,0.027,0,0.057,0,0.082
	c-0.016,0-0.027,0-0.039,0c-0.016,0.082-0.027,0.164-0.041,0.246c-0.014,0-0.024,0-0.039,0c0,0.027,0,0.057,0,0.082
	c-0.014,0-0.024,0-0.039,0c-0.014,0.082-0.025,0.164-0.039,0.246c-0.012,0-0.025,0-0.039,0c-0.012,0.068-0.025,0.137-0.039,0.205
	c-0.014,0-0.025,0-0.038,0c0,0.027,0,0.055,0,0.082c-0.015,0-0.026,0-0.04,0c0,0.041,0,0.082,0,0.123c-0.014,0-0.025,0-0.039,0
	c0,0.025,0,0.055,0,0.081c-0.014,0-0.025,0-0.039,0c0,0.041,0,0.082,0,0.123c-0.014,0-0.025,0-0.039,0c0,0.026,0,0.056,0,0.082
	c-0.014,0-0.025,0-0.039,0c0,0.041,0,0.082,0,0.123c-0.013,0-0.025,0-0.039,0c-0.014,0.056-0.025,0.108-0.039,0.164
	c-0.014,0-0.025,0-0.039,0c0,0.041,0,0.082,0,0.123c-0.014,0-0.025,0-0.039,0c-0.014,0.055-0.025,0.108-0.039,0.163
	c-0.014,0-0.024,0-0.039,0c0,0.041,0,0.082,0,0.123c-0.014,0-0.025,0-0.039,0c0,0.026,0,0.056,0,0.083c-0.014,0-0.025,0-0.039,0
	c-0.025,0.082-0.053,0.164-0.078,0.246c-0.014,0-0.025,0-0.041,0c0,0.041,0,0.082,0,0.123c-0.012,0-0.023,0-0.037,0
	c0,0.026,0,0.056,0,0.082c-0.014,0-0.025,0-0.039,0c0,0.026,0,0.056,0,0.082c-0.014,0-0.026,0-0.039,0c0,0.026,0,0.055,0,0.082
	c-0.014,0-0.025,0-0.039,0c-0.025,0.082-0.055,0.164-0.078,0.245c-0.014,0-0.025,0-0.04,0c-0.039,0.123-0.077,0.245-0.116,0.368
	c-0.025,0.016-0.053,0.027-0.078,0.041c0,0.027,0,0.057,0,0.082c-0.015,0-0.025,0-0.039,0c0,0.027,0,0.057,0,0.082
	c-0.015,0-0.025,0-0.039,0c0,0.027,0,0.057,0,0.082c-0.015,0-0.025,0-0.039,0c0,0.027,0,0.057,0,0.082
	c-0.025,0.016-0.053,0.025-0.078,0.041c-0.014,0.057-0.026,0.107-0.039,0.164c-0.026,0.015-0.053,0.025-0.078,0.041
	c0,0.025,0,0.056,0,0.082c-0.025,0.014-0.053,0.025-0.079,0.041c0,0.025,0,0.055,0,0.082c-0.039,0.025-0.078,0.055-0.116,0.082
	c0,0.025,0,0.055,0,0.082c-0.039,0.025-0.078,0.055-0.117,0.082c0,0.025,0,0.055,0,0.082c-0.093,0.08-0.185,0.162-0.273,0.244
	c-0.025,0.041-0.055,0.082-0.079,0.123c-0.024,0-0.054,0-0.078,0c-0.024,0.041-0.052,0.082-0.078,0.123c-0.024,0-0.053,0-0.077,0
	c-0.015,0.026-0.025,0.056-0.039,0.082c-0.025,0-0.054,0-0.078,0c0,0.015,0,0.026,0,0.041c-0.078,0.026-0.158,0.055-0.235,0.082
	c0,0.014,0,0.026,0,0.041c-0.039,0-0.078,0-0.117,0c0,0.014,0,0.026,0,0.041c-0.053,0-0.104,0-0.157,0c0,0.014,0,0.026,0,0.041
	c-0.174,0.055-0.932-0.004-1.057-0.041c-0.093,0-0.185,0-0.274,0c0-0.015,0-0.027,0-0.041c-0.063,0-0.131,0-0.195,0
	c0-0.015,0-0.027,0-0.041c-0.065,0-0.132,0-0.196,0c-0.591-0.201-1.227-0.371-1.766-0.615c-0.077-0.014-0.154-0.026-0.233-0.041
	c0-0.014,0-0.025,0-0.039c-0.039,0-0.078,0-0.117,0c0-0.016,0-0.027,0-0.041c-0.038,0-0.077,0-0.116,0c0-0.016,0-0.027,0-0.041
	c-0.039,0-0.078,0-0.117,0c0-0.016,0-0.027,0-0.041c-0.026,0-0.053,0-0.078,0c0-0.016,0-0.027,0-0.041
	c-0.118-0.027-0.235-0.057-0.354-0.082c-0.438-0.186-0.938-0.334-1.411-0.492c-0.131-0.016-0.262-0.025-0.393-0.041
	c-0.287-0.096-0.656-0.152-0.939-0.246c-0.132-0.014-0.263-0.025-0.393-0.041c-0.359-0.118-0.814-0.169-1.179-0.286
	c-0.131-0.015-0.262-0.026-0.393-0.041c-0.357-0.118-0.816-0.17-1.176-0.286c-0.131-0.016-0.262-0.027-0.393-0.041
	c-0.367-0.121-0.848-0.171-1.215-0.287c-0.146-0.015-0.287-0.026-0.433-0.041c-0.469-0.15-1.061-0.181-1.525-0.328
	c-0.158-0.016-0.313-0.027-0.473-0.042c-0.695-0.219-1.566-0.196-2.271-0.409c-0.195-0.015-0.394-0.027-0.588-0.041
	c-0.47-0.142-1.098-0.104-1.568-0.246c-0.132,0-0.263,0-0.394,0c0-0.015,0-0.026,0-0.041c-0.117,0-0.234,0-0.354,0
	c0-0.015,0-0.026,0-0.041c-0.145,0-0.287,0-0.432,0c0-0.015,0-0.026,0-0.041c-0.146,0-0.289,0-0.433,0c0-0.015,0-0.026,0-0.041
	c-0.144,0-0.287,0-0.433,0c-0.013,0-0.024,0-0.039,0c0-0.015,0-0.026,0-0.041c-0.195,0-0.392,0-0.588,0c0-0.015,0-0.026,0-0.041
	c-0.171,0-0.341,0-0.509,0c-0.42,0-0.984-0.062-1.334,0.041c-0.224,0-0.443,0-0.666,0c0,0.015,0,0.026,0,0.041
	c-0.17,0-0.34,0-0.51,0c0,0.015,0,0.026,0,0.041c-0.156,0-0.313,0-0.472,0c0,0.015,0,0.026,0,0.041c-0.155,0-0.313,0-0.47,0
	c0,0.015,0,0.026,0,0.041c-0.146,0-0.288,0-0.434,0c0,0.015,0,0.026,0,0.041c-0.156,0-0.312,0-0.47,0c0,0.015,0,0.026,0,0.041
	c-0.184,0-0.365,0-0.549,0c0,0.015,0,0.026,0,0.041c-1.346,0.026-2.691,0.056-4.037,0.082c-0.404,0.118-1.052,0.041-1.527,0.041
	c-0.156,0-0.313,0-0.473,0c0,0.014,0,0.026,0,0.041c-0.705,0-1.411,0-2.116,0c-0.195,0-0.392,0-0.588,0c0,0.014,0,0.026,0,0.041
	c-1.098,0-2.195,0-3.292,0c-1.776-0.015-3.555-0.027-5.331-0.041c0-0.015,0-0.027,0-0.041c-0.234,0-0.471,0-0.706,0
	c-0.247,0-0.495,0-0.743,0c0-0.015,0-0.026,0-0.041c-0.064,0-0.132,0-0.197,0c-0.303-0.004-0.699,0.03-0.939-0.041
	c-0.313,0-0.627,0-0.938,0c-0.232-0.067-0.627,0.028-0.862-0.041c0-0.015,0-0.026,0-0.041c-0.274,0-0.55,0-0.823,0
	c0-0.015,0-0.026,0-0.041c-0.014,0-0.025,0-0.039,0c-0.262,0-0.523,0-0.783,0c0-0.015,0-0.026,0-0.041
	c-0.367-0.015-0.73-0.026-1.099-0.041c-0.17,0-0.34,0-0.51,0c0-0.015,0-0.026,0-0.041c-0.339-0.015-0.679-0.026-1.019-0.041
	c-0.172,0-0.342,0-0.512,0c-0.189-0.056-0.53,0.022-0.746-0.041c-0.188-0.056-0.528,0.022-0.743-0.041c0-0.015,0-0.026,0-0.041
	c-0.235,0-0.471,0-0.706,0c0-0.015,0-0.026,0-0.04c-0.235,0-0.471,0-0.706,0c0-0.014,0-0.027,0-0.041
	c-0.327-0.014-0.653-0.027-0.98-0.041c-0.144,0-0.288,0-0.431,0c0-0.014,0-0.027,0-0.041c-0.901-0.041-1.803-0.082-2.706-0.123
	c0-0.014,0-0.027,0-0.041c-0.288-0.014-0.575-0.027-0.862-0.041c-0.144,0-0.288,0-0.431,0c0-0.014,0-0.027,0-0.041
	c-0.222,0-0.444,0-0.667,0c0-0.014,0-0.027,0-0.041c-0.287-0.014-0.575-0.027-0.862-0.041c-0.144,0-0.287,0-0.431,0
	c0-0.014,0-0.027,0-0.041c-0.274-0.014-0.549-0.027-0.823-0.041c-0.144,0-0.288,0-0.431,0c0-0.014,0-0.027,0-0.041
	c-0.274-0.014-0.549-0.027-0.823-0.041c-0.144,0-0.289,0-0.432,0c0-0.014,0-0.025,0-0.041c-0.209,0-0.418,0-0.627,0
	c0-0.014,0-0.025,0-0.041c-0.196,0-0.392,0-0.588,0c0-0.014,0-0.025,0-0.041c-0.274-0.014-0.549-0.025-0.823-0.041
	c-0.144,0-0.288,0-0.431,0c0-0.014,0-0.025,0-0.041c-0.196,0-0.392,0-0.588,0c0-0.014,0-0.025,0-0.041
	c-0.81-0.041-1.622-0.082-2.432-0.123c0-0.014,0-0.025,0-0.041c-0.274-0.014-0.548-0.025-0.823-0.041c-0.131,0-0.261,0-0.392,0
	c0-0.014,0-0.025,0-0.041c-0.183,0-0.366,0-0.549,0c0-0.014,0-0.025,0-0.041c-0.052,0-0.104,0-0.157,0c-0.13,0-0.261,0-0.392,0
	c0-0.014,0-0.025,0-0.041c-0.169,0-0.339,0-0.509,0c0-0.014,0-0.025,0-0.041c-0.169,0-0.339,0-0.509,0c0-0.014,0-0.025,0-0.041
	c-0.157,0-0.313,0-0.47,0c0-0.014,0-0.025,0-0.041c-0.157,0-0.313,0-0.47,0c0-0.014,0-0.025,0-0.041c-0.157,0-0.313,0-0.471,0
	c0-0.014,0-0.025,0-0.041c-0.47-0.025-0.94-0.055-1.411-0.082c0-0.014,0-0.025,0-0.041c-0.158,0-0.314,0-0.472,0
	c0-0.015,0-0.026,0-0.04c-0.157,0-0.313,0-0.47,0c0-0.016,0-0.027,0-0.041c-0.17,0-0.34,0-0.51,0c0-0.016,0-0.027,0-0.041
	c-0.169,0-0.339,0-0.509,0c0-0.016,0-0.027,0-0.041c-0.17,0-0.34,0-0.51,0c0-0.016,0-0.027,0-0.04c-0.13,0-0.261,0-0.392,0
	c-0.04,0-0.079,0-0.118,0c0-0.015,0-0.027,0-0.041c-0.196,0-0.392,0-0.587,0c0-0.015,0-0.027,0-0.041
	c-0.418-0.015-0.836-0.027-1.254-0.041c-0.191-0.058-0.529,0.021-0.745-0.041c0-0.015,0-0.027,0-0.041c-0.313,0-0.627,0-0.941,0
	c0-0.015,0-0.027,0-0.041c-0.17,0-0.339,0-0.509,0c-0.301,0-0.601,0-0.902,0c-0.35-0.104-0.915-0.041-1.333-0.041
	c-0.245,0-0.561-0.015-0.745,0.041c-0.431,0-0.862,0-1.293,0c0,0.014,0,0.026,0,0.041c-0.497,0.014-0.994,0.026-1.49,0.041
	c0,0.014,0,0.026,0,0.041c-0.261,0.014-0.521,0.026-0.784,0.041c-0.13,0-0.261,0-0.392,0c0,0.014,0,0.026,0,0.041
	c-0.183,0-0.366,0-0.549,0c-0.053,0.016,0.016,0.03-0.039,0.041c-0.144,0-0.287,0-0.431,0c0,0.013,0,0.024,0,0.04
	c-0.157,0-0.313,0-0.47,0c0,0.014,0,0.025,0,0.041c-0.144,0-0.288,0-0.431,0c0,0.014,0,0.025,0,0.041c-0.144,0-0.288,0-0.431,0
	c0,0.014,0,0.025,0,0.041c-0.144,0-0.288,0-0.431,0c0,0.014,0,0.025,0,0.04c-0.131,0-0.262,0-0.393,0c0,0.016,0,0.027,0,0.041
	c-0.366,0.027-0.731,0.057-1.098,0.082c0,0.016,0,0.027,0,0.041c-0.118,0-0.235,0-0.353,0c0,0.016,0,0.027,0,0.041
	c-0.104,0-0.209,0-0.313,0c0,0.016,0,0.027,0,0.041c-0.118,0-0.235,0-0.353,0c-0.639,0.193-1.481,0.139-2.116,0.328
	c-0.288,0.027-0.575,0.057-0.862,0.082c0,0.016,0,0.027,0,0.041c-0.092,0-0.183,0-0.274,0c0,0.016,0,0.027,0,0.041
	c-0.092,0-0.183,0-0.273,0c0,0.016,0,0.027,0,0.041c-0.091,0-0.183,0-0.274,0c-0.628,0.193-1.415,0.174-2.039,0.369
	c-0.249,0.027-0.497,0.055-0.745,0.082c0,0.014,0,0.027,0,0.041c-0.157,0.014-0.314,0.027-0.471,0.041
	c-0.631,0.198-1.41,0.211-2.038,0.409c-0.157,0.015-0.313,0.026-0.47,0.041c-0.527,0.17-1.196,0.196-1.725,0.369
	c-0.144,0.014-0.288,0.026-0.431,0.041c-0.445,0.144-1.006,0.188-1.45,0.327c-0.079,0-0.157,0-0.235,0
	c-0.431,0.141-0.979,0.191-1.412,0.329c-0.078,0-0.157,0-0.235,0c0,0.015,0,0.026,0,0.041c-0.065,0-0.13,0-0.196,0
	c0,0.015,0,0.026,0,0.041c-0.065,0-0.13,0-0.196,0c0,0.015,0,0.026,0,0.041c-0.065,0-0.131,0-0.196,0c0,0.015,0,0.026,0,0.041
	c-0.065,0-0.13,0-0.196,0c-0.819,0.276-1.755,0.399-2.548,0.695c-0.104,0.016-0.209,0.027-0.313,0.041c0,0.016,0,0.027,0,0.041
	c-0.052,0-0.104,0-0.157,0c0,0.016,0,0.027,0,0.041c-0.039,0-0.078,0-0.118,0c0,0.016,0,0.027,0,0.041
	c-0.144,0.027-0.287,0.057-0.431,0.082c0,0.016,0,0.027,0,0.041c-0.104,0.016-0.209,0.027-0.313,0.041c0,0.016,0,0.027,0,0.041
	c-0.039,0-0.079,0-0.118,0c0,0.016,0,0.027,0,0.041c-0.144,0.027-0.287,0.057-0.431,0.082c0,0.016,0,0.025,0,0.041
	c-0.104,0.016-0.209,0.025-0.313,0.041c-0.484,0.181-1.017,0.331-1.53,0.492c-0.078,0-0.157,0-0.235,0c0,0.014,0,0.025,0,0.041
	c-0.256,0.074-0.625-0.028-0.784-0.082c-0.052,0-0.104,0-0.157,0c0-0.016,0-0.027,0-0.041c-0.026,0-0.052,0-0.078,0
	c0-0.016,0-0.027,0-0.041c-0.04,0-0.079,0-0.118,0c-0.278-0.131-0.503-0.399-0.706-0.615c-0.039-0.025-0.079-0.055-0.118-0.082
	c0-0.025,0-0.055,0-0.082c-0.039-0.025-0.079-0.055-0.118-0.082c0-0.025,0-0.055,0-0.082c-0.026-0.014-0.052-0.025-0.078-0.041
	c-0.013-0.055-0.026-0.107-0.04-0.163c-0.013,0-0.026,0-0.039,0c-0.026-0.082-0.052-0.163-0.078-0.245c-0.013,0-0.026,0-0.04,0
	c0-0.041,0-0.082,0-0.123c-0.013,0-0.026,0-0.039,0c0-0.026,0-0.056,0-0.082c-0.013,0-0.026,0-0.039,0c0-0.041,0-0.082,0-0.123
	c-0.013,0-0.026,0-0.04,0c0-0.041,0-0.082,0-0.123c-0.013,0-0.026,0-0.039,0c0-0.041,0-0.082,0-0.123c-0.013,0-0.026,0-0.039,0
	c0-0.041,0-0.082,0-0.124c-0.013,0-0.026,0-0.039,0c-0.052-0.231-0.104-0.465-0.157-0.696c-0.013,0-0.026,0-0.04,0
	c0-0.041,0-0.082,0-0.123c-0.013,0-0.026,0-0.039,0c0-0.041,0-0.082,0-0.123c-0.013,0-0.026,0-0.039,0c0-0.041,0-0.082,0-0.122
	c-0.013,0-0.026,0-0.04,0c-0.013-0.096-0.026-0.191-0.039-0.287c-0.013,0-0.026,0-0.039,0c-0.013-0.109-0.026-0.219-0.039-0.328
	c-0.013,0-0.026,0-0.04,0c-0.026-0.164-0.052-0.328-0.078-0.492c-0.013,0-0.026,0-0.039,0c0-0.066,0-0.137,0-0.205
	c-0.013,0-0.026,0-0.04,0c0-0.066,0-0.137,0-0.204c-0.013,0-0.026,0-0.039,0c0-0.068,0-0.139,0-0.204c-0.013,0-0.026,0-0.039,0
	c0-0.068,0-0.138,0-0.205c-0.013,0-0.026,0-0.04,0c0-0.082,0-0.164,0-0.246c-0.095-0.337-0.1-0.8-0.195-1.146
	c0-0.123,0-0.246,0-0.369c-0.013,0-0.026,0-0.039,0c0-0.137,0-0.272,0-0.409c-0.013,0-0.026,0-0.039,0c0-0.164,0-0.328,0-0.492
	c-0.013,0-0.026,0-0.04,0c0-0.231,0-0.465,0-0.696c-0.112-0.42-0.039-1.178-0.039-1.681c0-0.293-0.021-0.677,0.039-0.901
	c0-0.231,0-0.466,0-0.697c0.013,0,0.026,0,0.04,0c0-0.148,0-0.301,0-0.449c0.122-0.45,0.074-1.065,0.196-1.518
	c0-0.149,0-0.302,0-0.451c0.013,0,0.026,0,0.039,0c0.013-0.328,0.026-0.655,0.039-0.983c0.013,0,0.026,0,0.04,0
	c0-0.179,0-0.354,0-0.532c0.013,0,0.026,0,0.039,0c0-0.178,0-0.354,0-0.531c0.013,0,0.026,0,0.039,0
	c0.013-0.262,0.026-0.522,0.04-0.78c0-0.137,0-0.272,0-0.409c0.013,0,0.026,0,0.039,0c0-0.179,0-0.354,0-0.533
	c0.013,0,0.026,0,0.039,0c0.039-0.684,0.079-1.367,0.118-2.051c0.013,0,0.026,0,0.039,0c0-0.137,0-0.273,0-0.409
	c0.013,0,0.026,0,0.039,0c0-0.137,0-0.272,0-0.41c0.013,0,0.026,0,0.04,0c0-0.122,0-0.245,0-0.368c0.013,0,0.026,0,0.039,0
	c0-0.108,0-0.22,0-0.328c0.077-0.273,0.081-0.672,0.157-0.941c0-0.098,0-0.189,0-0.287c0.013,0,0.026,0,0.039,0
	c0.013-0.164,0.026-0.328,0.04-0.492c0.157-0.543,0.194-1.189,0.353-1.722c0-0.068,0-0.138,0-0.205
	c0.071-0.233,0.126-0.546,0.196-0.778c0-0.066,0-0.137,0-0.203c0.301-0.973,0.423-2.095,0.745-3.036c0-0.056,0-0.109,0-0.164
	c0.013,0,0.026,0,0.039,0c0-0.055,0-0.109,0-0.164c0.013,0,0.026,0,0.039,0c0-0.055,0-0.109,0-0.164c0.013,0,0.026,0,0.039,0
	c0-0.055,0-0.109,0-0.164c0.013,0,0.026,0,0.04,0c0-0.041,0-0.082,0-0.123c0.013,0,0.026,0,0.039,0c0-0.055,0-0.109,0-0.164
	c0.013,0,0.026,0,0.039,0c0-0.055,0-0.109,0-0.164c0.013,0,0.026,0,0.04,0c0.013-0.096,0.026-0.191,0.039-0.287
	c0.013,0,0.026,0,0.039,0c0.013-0.109,0.026-0.219,0.039-0.328c0.247-0.714,0.421-1.545,0.667-2.255c0-0.055,0-0.108,0-0.164
	c0.013,0,0.026,0,0.039,0c0-0.041,0-0.082,0-0.123c0.013,0,0.026,0,0.04,0c0-0.054,0-0.108,0-0.163
	c0.25-0.722,0.457-1.538,0.706-2.257c0.052-0.232,0.105-0.464,0.157-0.697c0.509-1.459,0.906-3.047,1.411-4.51
	c0.013-0.096,0.026-0.19,0.04-0.286c0.276-0.729,0.489-1.55,0.784-2.256c0.026-0.123,0.052-0.246,0.079-0.369
	c0.013,0,0.026,0,0.039,0c0-0.027,0-0.055,0-0.082c0.013,0,0.026,0,0.039,0c0.026-0.123,0.052-0.246,0.079-0.369
	c0.013,0,0.026,0,0.039,0c0-0.026,0-0.055,0-0.082c0.013,0,0.026,0,0.039,0c0.026-0.123,0.052-0.246,0.079-0.369
	c0.013,0,0.026,0,0.039,0c0-0.026,0-0.055,0-0.081c0.013,0,0.026,0,0.04,0c0.013-0.082,0.026-0.164,0.039-0.246
	c0.013,0,0.026,0,0.039,0c0-0.027,0-0.056,0-0.082c0.013,0,0.026,0,0.039,0c0.013-0.082,0.026-0.164,0.04-0.246
	c0.013,0,0.026,0,0.039,0c0-0.026,0-0.054,0-0.082c0.013,0,0.026,0,0.039,0c0.007-0.083,0.02-0.165,0.033-0.248
	c0.013,0,0.026,0,0.04,0c0-0.026,0-0.056,0-0.082c0.013,0,0.026,0,0.039,0c0-0.041,0-0.082,0-0.123c0.013,0,0.026,0,0.039,0
	c0-0.041,0-0.082,0-0.123c0.351-0.84,0.652-1.76,0.98-2.624c0.063-0.247,0.128-0.492,0.193-0.738c0.013,0,0.026,0,0.04,0
	c0-0.027,0-0.056,0-0.082c0.013,0,0.026,0,0.039,0c0.025-0.123,0.051-0.246,0.077-0.369c0.013,0,0.026,0,0.04,0
	c0.013-0.055,0.026-0.108,0.039-0.164c0.013,0,0.026,0,0.039,0c0.04-0.122,0.079-0.245,0.119-0.368
	c0.026-0.015,0.052-0.027,0.078-0.041c0.013-0.056,0.026-0.109,0.039-0.164c0.026-0.016,0.052-0.027,0.079-0.042
	c0-0.026,0-0.056,0-0.082c0.039-0.026,0.078-0.056,0.117-0.082c0-0.026,0-0.056,0-0.082c0.092-0.082,0.183-0.164,0.274-0.246
	c0.053-0.067,0.104-0.136,0.156-0.205c0.026,0,0.052,0,0.079,0c0.013-0.026,0.026-0.054,0.039-0.082c0.026,0,0.052,0,0.079,0
	c0.013-0.026,0.026-0.054,0.039-0.081c0.078-0.027,0.157-0.056,0.235-0.082c0-0.015,0-0.027,0-0.041
	c0.078-0.027,0.157-0.056,0.235-0.082c0-0.015,0-0.027,0-0.041c0.039,0,0.079,0,0.118,0c0-0.015,0-0.027,0-0.041
	c0.026,0,0.052,0,0.079,0c0-0.015,0-0.027,0-0.041c0.339-0.097,0.679-0.191,1.019-0.287c0.078,0,0.157,0,0.235,0
	c0-0.015,0-0.027,0-0.041c0.079,0,0.157,0,0.235,0c0-0.015,0-0.027,0-0.041c0.091,0,0.183,0,0.274,0c0-0.015,0-0.027,0-0.041
	c0.118,0,0.235,0,0.353,0c0-0.015,0-0.027,0-0.041c0.392-0.027,0.784-0.055,1.176-0.082c1.176-0.205,2.352-0.411,3.527-0.616
	c0.091,0,0.183,0,0.274,0c0.228-0.07,0.56-0.096,0.784-0.164c0.091,0,0.183,0,0.274,0c0.327-0.1,0.771-0.105,1.098-0.205
	c0.653-0.082,1.308-0.164,1.961-0.246c0.414-0.127,0.957-0.121,1.372-0.246c0.104,0,0.209,0,0.313,0
	c0.24-0.072,0.584-0.091,0.823-0.164c0.092,0,0.183,0,0.274,0c0-0.013,0-0.027,0-0.041c0.091,0,0.183,0,0.274,0
	c0-0.014,0-0.027,0-0.041c0.091,0,0.183,0,0.274,0c0-0.014,0-0.027,0-0.041c0.091,0,0.183,0,0.274,0
	c0.57-0.177,1.306-0.152,1.881-0.328c0.183-0.014,0.366-0.026,0.549-0.041c0-0.014,0-0.026,0-0.041c0.091,0,0.183,0,0.274,0
	c0-0.014,0-0.026,0-0.041c0.091,0,0.183,0,0.274,0c0-0.014,0-0.026,0-0.041c0.091,0,0.183,0,0.274,0c0-0.014,0-0.026,0-0.041
	c0.196-0.014,0.392-0.026,0.587-0.041c0.52-0.16,1.202-0.129,1.725-0.287c0.196-0.014,0.392-0.026,0.588-0.041
	c0.547-0.166,1.254-0.121,1.804-0.286c0.209-0.015,0.418-0.027,0.627-0.041c0-0.015,0-0.027,0-0.041c0.104,0,0.209,0,0.313,0
	c0-0.015,0-0.027,0-0.041c0.104,0,0.209,0,0.313,0c0.484-0.146,1.119-0.101,1.606-0.246c0.209-0.015,0.418-0.026,0.627-0.041
	c0-0.015,0-0.026,0-0.041c0.339-0.026,0.679-0.056,1.019-0.082c0.505-0.151,1.179-0.095,1.687-0.246c0.117,0,0.235,0,0.353,0
	c0-0.014,0-0.026,0-0.041c0.118,0,0.235,0,0.353,0c0-0.014,0-0.026,0-0.041c0.118,0,0.235,0,0.353,0c0-0.014,0-0.026,0-0.041
	c0.118,0,0.235,0,0.353,0c0-0.014,0-0.026,0-0.041c0.118,0,0.235,0,0.353,0c0-0.014,0-0.026,0-0.041c0.118,0,0.235,0,0.353,0
	c0-0.014,0-0.026,0-0.041c0.118,0,0.235,0,0.353,0c0-0.014,0-0.026,0-0.041c0.379-0.026,0.758-0.055,1.137-0.082
	c0.442-0.132,1.045-0.073,1.49-0.204c0.131,0,0.261,0,0.392,0c0-0.015,0-0.027,0-0.041c0.13,0,0.261,0,0.392,0
	c0-0.015,0-0.027,0-0.041c0.13,0,0.261,0,0.392,0c0-0.015,0-0.027,0-0.041c0.131,0,0.261,0,0.392,0c0-0.015,0-0.027,0-0.041
	c0.131,0,0.261,0,0.392,0c0-0.015,0-0.027,0-0.041c0.144,0,0.287,0,0.431,0c0-0.015,0-0.027,0-0.041c0.13,0,0.261,0,0.392,0
	c0-0.015,0-0.027,0-0.041c0.144,0,0.288,0,0.431,0c0-0.015,0-0.027,0-0.041c0.131,0,0.262,0,0.392,0c0-0.015,0-0.027,0-0.041
	c0.562-0.041,1.124-0.082,1.686-0.123c0-0.015,0-0.027,0-0.041c0.157,0,0.313,0,0.47,0c0-0.015,0-0.027,0-0.041
	c0.144,0,0.288,0,0.431,0c0-0.015,0-0.027,0-0.041c0.144,0,0.289,0,0.432,0c0-0.015,0-0.027,0-0.041c0.157,0,0.313,0,0.47,0
	c0-0.015,0-0.027,0-0.041c0.144,0,0.288,0,0.431,0c0-0.015,0-0.027,0-0.041c0.157,0,0.314,0,0.471,0c0-0.015,0-0.027,0-0.041
	c0.157,0,0.313,0,0.47,0c0-0.015,0-0.027,0-0.041c0.157,0,0.313,0,0.47,0c0-0.014,0-0.027,0-0.041c0.157,0,0.314,0,0.471,0
	c0-0.014,0-0.027,0-0.041c0.157,0,0.313,0,0.47,0c0-0.014,0-0.027,0-0.041c0.157,0,0.313,0,0.469,0c0,0,0.003-0.034,0.079-0.041
	c0.144,0,0.288,0,0.431,0c0-0.014,0-0.027,0-0.041c0.17,0,0.34,0,0.509,0c0-0.014,0-0.027,0-0.041c0.157,0,0.314,0,0.471,0
	c0,0,0.002-0.034,0.078-0.041c0.144,0,0.288,0,0.431,0c0-0.014,0-0.027,0-0.041c0.537-0.027,1.072-0.055,1.607-0.082
	c0-0.014,0-0.027,0-0.041c0.288-0.014,0.575-0.027,0.862-0.041c0.144,0,0.288,0,0.431,0c0-0.014,0-0.027,0-0.041
	c0.34,0,0.68,0,1.02,0c0.261-0.077,0.693-0.041,1.02-0.041c0.47-0.014,0.94-0.027,1.412-0.041c0.523,0,1.045,0,1.568,0
	c0.28,0,0.646,0.023,0.862-0.041c0.157,0,0.314,0,0.471,0c0.476,0,1.124,0.078,1.528-0.041c0.26,0,0.523,0,0.783,0
	c0.368-0.014,0.732-0.027,1.1-0.041c0-0.014,0-0.027,0-0.041c0.209,0,0.418,0,0.627,0c0-0.014,0-0.027,0-0.041
	c0.327-0.014,0.653-0.027,0.979-0.041c0-0.014,0-0.027,0-0.041c0.145,0,0.287,0,0.432,0c0.398-0.119,0.938-0.087,1.333-0.205
	c0.116,0,0.235,0,0.353,0c0-0.014,0-0.027,0-0.041c0.235-0.014,0.471-0.027,0.706-0.041C52.353,80.546,52.513,80.566,52.579,80.506z
	"/>
<g>
	<g>
		<path fill="#FFFFFF" d="M95.094,126.327c-0.602-0.467-1.212-0.738-1.832-0.816c-0.35-0.038-0.952,0.225-1.806,0.788
			s-1.223,1.117-1.105,1.662c0.271,1.245,1.436,2.256,3.493,3.034c0.154,0.037,0.311-0.021,0.465-0.176
			c0.155-0.155,0.397-0.242,0.729-0.264c0.328-0.021,0.609-0.292,0.844-0.814c0.23-0.526,0.313-1.063,0.232-1.605
			C96.033,127.397,95.695,126.795,95.094,126.327z M101.756,92.641c0.039-0.66-0.311-1.144-1.046-1.455
			c-0.66-0.192-1.32-0.388-1.979-0.582c-0.468-0.154-0.951-0.136-1.455,0.06c-0.504,0.194-0.795,0.522-0.873,0.989
			c-0.154,1.047-1.125,5.468-2.91,13.264c-1.165,5.273-1.745,9.735-1.745,13.38c0,0.813,0.02,1.628,0.059,2.441
			c0.115,1.553,1.164,2.522,3.144,2.91c0.35,0.077,0.729-0.029,1.136-0.32c0.405-0.289,0.608-0.609,0.608-0.96
			c-0.115-3.917,0.582-8.939,2.097-15.066C100.534,100.242,101.523,95.355,101.756,92.641z M48.422,123.905
			c-0.304-0.151-0.606-0.246-0.911-0.284c-0.057-0.007-0.181-0.025-0.371-0.058c-0.133-0.024-0.242-0.037-0.324-0.037
			c-0.177,0-0.338,0.054-0.481,0.16c0,0.031-0.017,0.072-0.043,0.125c-0.028,0.051-0.04,0.088-0.033,0.111
			c0.097,0.209,0.291,0.342,0.588,0.398c0.046,0.811,0.029,1.694-0.047,2.656c-0.082,0.059-0.146,0.109-0.192,0.157
			c-0.049,0.047-0.072,0.101-0.072,0.156c0,0.114,0.066,0.216,0.199,0.304c-0.058,0.412-0.092,0.934-0.104,1.566
			c-0.015,0.525-0.024,1.054-0.038,1.586c0.082,0.171,0.229,0.256,0.438,0.256c0.09,0,0.172-0.021,0.248-0.066
			c0.304-0.177,0.606-0.354,0.911-0.531c0.375-0.229,0.654-0.459,0.846-0.691c0.246-0.305,0.371-0.637,0.371-0.997
			c0-0.468-0.265-0.873-0.789-1.215c-0.103-0.044-0.207-0.091-0.317-0.14c-0.11-0.047-0.176-0.117-0.194-0.213
			c0.322-0.222,0.646-0.444,0.969-0.674c0.336-0.279,0.546-0.589,0.627-0.931c0.037-0.165,0.017-0.367-0.065-0.606
			C49.508,124.606,49.106,124.261,48.422,123.905z M48.356,128.093c0.119,0.146,0.182,0.313,0.182,0.503
			c0,0.063-0.008,0.13-0.021,0.199c-0.051,0.228-0.133,0.407-0.246,0.541c-0.063,0.075-0.176,0.163-0.336,0.262
			c-0.162,0.099-0.281,0.191-0.355,0.279c-0.053-0.164-0.076-0.349-0.076-0.55c0-0.141,0.02-0.348,0.053-0.622
			c0.034-0.275,0.053-0.479,0.053-0.612c0-0.076-0.002-0.146-0.011-0.209c0.046-0.02,0.093-0.027,0.144-0.027
			C47.827,127.856,48.032,127.935,48.356,128.093z M48.621,125.72c-0.146,0.208-0.313,0.357-0.503,0.445
			c-0.014,0.007-0.063,0.043-0.151,0.109c-0.089,0.064-0.155,0.1-0.2,0.1c0.008-0.202,0-0.483-0.019-0.846
			c-0.025-0.394-0.038-0.67-0.038-0.834c0-0.121,0.003-0.234,0.01-0.342c0.031-0.015,0.061-0.021,0.085-0.021
			c0.052,0,0.114,0.023,0.19,0.074c0.107,0.063,0.187,0.104,0.236,0.125c0.349,0.125,0.539,0.308,0.568,0.541
			C48.827,125.296,48.767,125.511,48.621,125.72z M53.319,124.514c-0.229-0.133-0.426-0.198-0.599-0.198
			c-0.045,0-0.082,0.002-0.112,0.01c-0.311,0.074-0.617,0.154-0.921,0.236c-0.354,0.096-0.65,0.202-0.894,0.322
			c-0.202,0.082-0.404,0.165-0.606,0.247c-0.216,0.106-0.326,0.253-0.332,0.437c-0.008,0.196,0.168,0.33,0.521,0.398
			c-0.038,0.551-0.063,0.852-0.076,0.902c-0.013,0.05-0.064,0.1-0.154,0.146c-0.094,0.048-0.144,0.101-0.147,0.156
			c-0.021,0.112,0.06,0.229,0.237,0.353c-0.059,0.438-0.059,0.93,0,1.479c0.019,0.188,0.101,0.358,0.246,0.513
			c0.146,0.151,0.308,0.25,0.482,0.294c0.563,0.146,1.229,0.206,1.994,0.183c0.102-0.008,0.179-0.053,0.23-0.139
			c0.056-0.086,0.072-0.18,0.055-0.279c-0.059-0.306-0.176-0.438-0.354-0.398c-0.037,0-0.086,0.023-0.143,0.07
			c-0.057,0.049-0.11,0.072-0.161,0.072c-0.733,0.029-1.25-0.06-1.547-0.268c-0.051-0.105-0.076-0.253-0.076-0.438
			c0-0.271,0.061-0.643,0.182-1.109c0.176-0.069,0.414-0.107,0.711-0.114c0.354-0.006,0.601-0.024,0.731-0.057
			c0.076,0.007,0.14-0.019,0.188-0.076c0.076-0.082,0.121-0.126,0.133-0.133c0.046-0.025,0.066-0.06,0.066-0.104
			c0-0.037-0.044-0.119-0.134-0.246c-0.126-0.076-0.276-0.113-0.455-0.113c-0.096,0-0.243,0.017-0.444,0.049
			c-0.203,0.029-0.354,0.047-0.446,0.047c-0.134,0-0.25-0.02-0.353-0.059c0.024-0.567,0.065-0.937,0.122-1.102
			c0.234-0.095,0.58-0.205,1.035-0.332c0.456-0.127,0.801-0.236,1.035-0.332c0.044-0.031,0.065-0.072,0.065-0.124
			c0-0.03-0.014-0.082-0.039-0.151C53.34,124.587,53.327,124.539,53.319,124.514z M55.542,123.905
			c-0.305-0.151-0.608-0.246-0.912-0.284c-0.058-0.007-0.181-0.025-0.37-0.058c-0.133-0.024-0.24-0.037-0.322-0.037
			c-0.178,0-0.34,0.054-0.483,0.16c0,0.031-0.015,0.072-0.042,0.125c-0.029,0.051-0.04,0.088-0.033,0.111
			c0.096,0.209,0.291,0.342,0.588,0.398c0.045,0.811,0.028,1.694-0.047,2.656c-0.083,0.059-0.146,0.109-0.193,0.157
			c-0.049,0.047-0.07,0.101-0.07,0.156c0,0.114,0.064,0.216,0.199,0.304c-0.06,0.412-0.094,0.934-0.104,1.566
			c-0.013,0.525-0.024,1.054-0.038,1.586c0.082,0.171,0.229,0.256,0.438,0.256c0.088,0,0.17-0.021,0.246-0.066
			c0.306-0.177,0.608-0.354,0.913-0.531c0.372-0.229,0.654-0.459,0.844-0.691c0.248-0.305,0.371-0.637,0.371-0.997
			c0-0.468-0.264-0.873-0.789-1.215c-0.101-0.044-0.207-0.091-0.315-0.14c-0.11-0.047-0.176-0.117-0.194-0.213
			c0.322-0.222,0.646-0.444,0.969-0.674c0.336-0.279,0.545-0.589,0.627-0.931c0.039-0.165,0.017-0.367-0.065-0.606
			C56.627,124.606,56.226,124.261,55.542,123.905z M55.476,128.093c0.12,0.146,0.182,0.313,0.182,0.503
			c0,0.063-0.008,0.13-0.021,0.199c-0.051,0.228-0.133,0.407-0.246,0.541c-0.063,0.075-0.176,0.163-0.338,0.262
			c-0.162,0.099-0.279,0.191-0.355,0.279c-0.051-0.164-0.075-0.349-0.075-0.55c0-0.141,0.019-0.348,0.053-0.622
			c0.034-0.275,0.054-0.479,0.054-0.612c0-0.076-0.004-0.146-0.012-0.209c0.045-0.02,0.094-0.027,0.145-0.027
			C54.946,127.856,55.152,127.935,55.476,128.093z M55.742,125.72c-0.146,0.208-0.313,0.357-0.504,0.445
			c-0.012,0.007-0.063,0.043-0.151,0.109c-0.088,0.064-0.155,0.1-0.2,0.1c0.007-0.202,0-0.483-0.019-0.846
			c-0.025-0.394-0.038-0.67-0.038-0.834c0-0.121,0.003-0.234,0.01-0.342c0.031-0.015,0.06-0.021,0.085-0.021
			c0.051,0,0.115,0.023,0.19,0.074c0.106,0.063,0.188,0.104,0.238,0.125c0.348,0.125,0.535,0.308,0.567,0.541
			C55.947,125.296,55.887,125.511,55.742,125.72z M59.634,125.528c-0.031-0.258-0.066-0.52-0.104-0.777
			c-0.051-0.305-0.166-0.531-0.342-0.684c-0.07-0.059-0.148-0.086-0.238-0.086c-0.119,0-0.198,0.045-0.236,0.133
			c-0.165,0.397-0.352,0.973-0.561,1.719c-0.246,0.861-0.428,1.449-0.541,1.766c-0.015,0.045-0.071,0.078-0.176,0.1
			c-0.104,0.022-0.173,0.053-0.199,0.086c-0.028,0.035-0.043,0.068-0.043,0.102c0,0.038,0.045,0.094,0.134,0.161
			c0.088,0.069,0.129,0.133,0.122,0.188c-0.021,0.196-0.122,0.525-0.313,0.987c-0.157,0.404-0.229,0.728-0.209,0.968
			c0.015,0.121,0.124,0.215,0.333,0.285c0.164,0.051,0.271,0.02,0.322-0.095c0.104-0.241,0.206-0.592,0.313-1.054
			c0.112-0.5,0.205-0.85,0.274-1.045c0.14-0.121,0.332-0.196,0.579-0.229c0.214-0.021,0.429-0.038,0.646-0.058
			c0.118,0.322,0.225,0.726,0.313,1.205c0.082,0.443,0.277,0.693,0.588,0.75c0.038,0.007,0.111-0.037,0.219-0.133
			c0.108-0.096,0.161-0.207,0.161-0.332c0-0.076-0.019-0.166-0.057-0.267C60.279,128.254,59.951,127.024,59.634,125.528z
			 M58.439,127.438c0.14-0.524,0.303-1.052,0.492-1.576c0.059,0.254,0.117,0.506,0.182,0.761c0.063,0.291,0.104,0.554,0.123,0.786
			C58.805,127.409,58.54,127.419,58.439,127.438z M61.865,126.062c-0.059-0.158-0.086-0.328-0.086-0.513
			c0-0.494,0.172-0.912,0.514-1.254c0.038-0.037,0.076-0.058,0.113-0.058c0.007,0,0.055,0.014,0.143,0.039
			c0.059,0.019,0.111,0.016,0.162-0.012c0.184-0.095,0.275-0.203,0.275-0.332c0-0.068-0.032-0.139-0.098-0.209
			c-0.132-0.145-0.331-0.217-0.597-0.217c-0.14,0-0.282,0.034-0.429,0.104c-0.315,0.151-0.561,0.401-0.729,0.75
			c-0.151,0.306-0.229,0.648-0.229,1.035c0,0.469,0.205,1.094,0.613,1.875c0.408,0.78,0.612,1.377,0.612,1.788
			c0,0.291-0.067,0.576-0.2,0.854c-0.031,0.068-0.095,0.107-0.189,0.113c-0.094,0.006-0.153,0.024-0.18,0.058
			c-0.096,0.106-0.143,0.198-0.143,0.274c0,0.127,0.095,0.23,0.283,0.313c0.052,0.02,0.104,0.027,0.162,0.027
			c0.146,0,0.311-0.065,0.494-0.198c0.228-0.171,0.369-0.312,0.426-0.418c0.172-0.322,0.258-0.658,0.258-1.007
			c0-0.424-0.152-0.939-0.456-1.549C62.131,126.621,61.89,126.131,61.865,126.062z M67.951,123.905
			c-0.305-0.151-0.607-0.246-0.912-0.284c-0.057-0.007-0.18-0.025-0.37-0.058c-0.134-0.024-0.24-0.037-0.322-0.037
			c-0.178,0-0.339,0.054-0.483,0.16c0,0.031-0.016,0.072-0.043,0.125c-0.027,0.051-0.039,0.088-0.032,0.111
			c0.095,0.209,0.291,0.342,0.589,0.398c0.044,0.811,0.027,1.694-0.048,2.656c-0.082,0.059-0.146,0.109-0.194,0.157
			c-0.048,0.047-0.07,0.101-0.07,0.156c0,0.114,0.065,0.216,0.198,0.304c-0.057,0.412-0.092,0.934-0.104,1.566
			c-0.014,0.525-0.024,1.054-0.036,1.586c0.082,0.171,0.228,0.256,0.437,0.256c0.09,0,0.172-0.021,0.246-0.066
			c0.307-0.177,0.608-0.354,0.912-0.531c0.373-0.229,0.655-0.459,0.847-0.691c0.246-0.305,0.369-0.637,0.369-0.997
			c0-0.468-0.263-0.873-0.788-1.215c-0.103-0.044-0.207-0.091-0.318-0.14c-0.109-0.047-0.174-0.117-0.193-0.213
			c0.323-0.222,0.646-0.444,0.97-0.674c0.336-0.279,0.545-0.589,0.627-0.931c0.037-0.165,0.016-0.367-0.065-0.606
			C69.036,124.606,68.636,124.261,67.951,123.905z M67.885,128.093c0.12,0.146,0.18,0.313,0.18,0.503
			c0,0.063-0.006,0.13-0.019,0.199c-0.052,0.228-0.133,0.407-0.247,0.541c-0.063,0.075-0.176,0.163-0.337,0.262
			s-0.28,0.191-0.354,0.279c-0.052-0.164-0.076-0.349-0.076-0.55c0-0.141,0.019-0.348,0.053-0.622
			c0.033-0.275,0.053-0.479,0.053-0.612c0-0.076-0.004-0.146-0.01-0.209c0.044-0.02,0.092-0.027,0.145-0.027
			C67.355,127.856,67.563,127.935,67.885,128.093z M68.15,125.72c-0.146,0.208-0.313,0.357-0.502,0.445
			c-0.014,0.007-0.063,0.043-0.151,0.109c-0.091,0.064-0.155,0.1-0.199,0.1c0.006-0.202,0-0.483-0.021-0.846
			c-0.023-0.394-0.037-0.67-0.037-0.834c0-0.121,0.002-0.234,0.01-0.342c0.031-0.015,0.063-0.021,0.086-0.021
			c0.051,0,0.111,0.023,0.188,0.074c0.107,0.063,0.188,0.104,0.237,0.125c0.349,0.125,0.538,0.308,0.57,0.541
			C68.356,125.296,68.296,125.511,68.15,125.72z M72.851,124.514c-0.229-0.133-0.428-0.198-0.599-0.198
			c-0.044,0-0.082,0.002-0.113,0.01c-0.312,0.074-0.616,0.154-0.921,0.236c-0.354,0.096-0.652,0.202-0.893,0.322
			c-0.203,0.082-0.405,0.165-0.607,0.247c-0.216,0.106-0.326,0.253-0.332,0.437c-0.007,0.196,0.167,0.33,0.521,0.398
			c-0.039,0.551-0.063,0.852-0.076,0.902c-0.014,0.05-0.064,0.1-0.156,0.146s-0.141,0.101-0.146,0.156
			c-0.02,0.112,0.062,0.229,0.236,0.353c-0.057,0.438-0.057,0.93,0,1.479c0.02,0.188,0.102,0.358,0.247,0.513
			c0.146,0.151,0.308,0.25,0.484,0.294c0.563,0.146,1.228,0.206,1.993,0.183c0.102-0.008,0.179-0.053,0.231-0.139
			c0.056-0.086,0.07-0.18,0.054-0.279c-0.059-0.306-0.176-0.438-0.354-0.398c-0.038,0-0.085,0.023-0.143,0.07
			c-0.059,0.049-0.11,0.072-0.162,0.072c-0.733,0.029-1.25-0.06-1.547-0.268c-0.051-0.105-0.076-0.253-0.076-0.438
			c0-0.271,0.061-0.643,0.182-1.109c0.178-0.069,0.414-0.107,0.712-0.114c0.354-0.006,0.599-0.024,0.729-0.057
			c0.076,0.007,0.141-0.019,0.189-0.076c0.075-0.082,0.12-0.126,0.133-0.133c0.045-0.025,0.066-0.06,0.066-0.104
			c0-0.037-0.045-0.119-0.133-0.246c-0.127-0.076-0.279-0.113-0.456-0.113c-0.095,0-0.243,0.017-0.446,0.049
			c-0.201,0.029-0.352,0.047-0.445,0.047c-0.133,0-0.25-0.02-0.352-0.059c0.023-0.567,0.066-0.937,0.123-1.102
			c0.234-0.095,0.579-0.205,1.035-0.332c0.455-0.127,0.8-0.236,1.033-0.332c0.045-0.031,0.065-0.072,0.065-0.124
			c0-0.03-0.013-0.082-0.036-0.151C72.87,124.587,72.856,124.539,72.851,124.514z M77.511,124.837c-0.007-0.014-0.007-0.059,0-0.135
			c0-0.063-0.01-0.094-0.028-0.094c-0.013,0-0.031,0.01-0.058,0.026c-0.12-0.067-0.239-0.104-0.36-0.104
			c-0.15,0-0.26,0.061-0.322,0.181c0.014,0.157,0.021,0.319,0.021,0.483c0,0.424-0.053,1.063-0.155,1.918
			c-0.104,0.854-0.156,1.496-0.156,1.928c0,0.025,0.004,0.051,0.004,0.076c-0.131-0.139-0.264-0.276-0.432-0.43
			c-0.689-0.625-1.036-0.94-1.044-0.949c-0.102-0.082-0.201-0.164-0.305-0.246c-0.133-0.112-0.199-0.213-0.199-0.295
			c0-0.074,0.059-0.146,0.172-0.209c0.277-0.149,0.513-0.358,0.7-0.625c0.223-0.299,0.333-0.596,0.333-0.894
			c0-0.354-0.116-0.685-0.352-0.987c-0.254-0.328-0.551-0.5-0.893-0.513c-0.678-0.03-1.048,0.147-1.111,0.541
			c-0.094,0.589-0.143,1.313-0.143,2.175v1.034c-0.007,0.507-0.021,0.942-0.048,1.31c-0.006,0.045-0.021,0.158-0.047,0.344
			c-0.024,0.156-0.038,0.283-0.038,0.38c0,0.321,0.139,0.517,0.418,0.579c0.044,0.013,0.1,0.003,0.166-0.028
			c0.066-0.03,0.105-0.048,0.118-0.048c0.082-0.311,0.14-0.729,0.171-1.253c0.051-0.696,0.086-1.126,0.104-1.291
			c0.272,0.233,0.688,0.651,1.243,1.253c0.5,0.538,0.918,0.938,1.254,1.195c0.117-0.028,0.207-0.065,0.278-0.105
			c0.045,0.014,0.073,0.037,0.129,0.04c0.189,0.006,0.313-0.079,0.37-0.257c-0.007-0.158-0.01-0.318-0.01-0.482
			c0-0.443,0.044-1.1,0.133-1.967c0.089-0.865,0.133-1.516,0.133-1.943c0-0.196-0.006-0.389-0.019-0.57
			C77.527,124.868,77.518,124.856,77.511,124.837z M74.056,126.61c0.014-0.164,0.014-0.375,0-0.636
			c-0.02-0.342-0.027-0.554-0.027-0.636c0-0.203,0.017-0.383,0.047-0.541c0.039-0.096,0.135-0.143,0.285-0.143
			c0.203,0,0.351,0.054,0.44,0.16c0.091,0.106,0.147,0.229,0.167,0.36c0.006,0.088,0,0.188-0.02,0.306
			C74.879,125.843,74.581,126.22,74.056,126.61z M78.982,126.062c-0.058-0.158-0.086-0.328-0.086-0.513
			c0-0.494,0.172-0.912,0.514-1.254c0.037-0.037,0.076-0.058,0.113-0.058c0.006,0,0.056,0.014,0.145,0.039
			c0.057,0.019,0.109,0.016,0.161-0.012c0.184-0.095,0.274-0.203,0.274-0.332c0-0.068-0.033-0.139-0.096-0.209
			c-0.134-0.146-0.333-0.218-0.6-0.218c-0.139,0-0.28,0.034-0.426,0.104c-0.317,0.15-0.563,0.4-0.731,0.75
			c-0.151,0.305-0.228,0.647-0.228,1.035c0,0.469,0.203,1.094,0.61,1.875c0.408,0.779,0.612,1.377,0.612,1.787
			c0,0.291-0.066,0.576-0.199,0.854c-0.032,0.068-0.098,0.107-0.189,0.113c-0.096,0.006-0.154,0.025-0.181,0.059
			c-0.096,0.105-0.144,0.197-0.144,0.273c0,0.127,0.096,0.231,0.283,0.313c0.051,0.019,0.104,0.028,0.162,0.028
			c0.146,0,0.312-0.066,0.493-0.199c0.228-0.172,0.37-0.311,0.429-0.418c0.17-0.322,0.256-0.658,0.256-1.006
			c0-0.424-0.15-0.94-0.457-1.549C79.248,126.621,79.007,126.131,78.982,126.062z M81.755,124.837c-0.006-0.014-0.006-0.059,0-0.135
			c0-0.063-0.01-0.094-0.027-0.094c-0.014,0-0.033,0.01-0.058,0.026c-0.12-0.067-0.241-0.104-0.361-0.104
			c-0.151,0-0.259,0.061-0.321,0.181c0.014,0.157,0.02,0.319,0.02,0.483c0,0.424-0.052,1.063-0.156,1.918
			c-0.104,0.854-0.156,1.496-0.156,1.928c0,0.246,0.014,0.479,0.039,0.701c0.023,0.223,0.174,0.34,0.444,0.353
			c0.188,0.006,0.313-0.079,0.37-0.257c-0.006-0.158-0.009-0.318-0.009-0.482c0-0.443,0.044-1.1,0.133-1.967
			c0.088-0.865,0.133-1.516,0.133-1.943c0-0.196-0.007-0.389-0.021-0.57C81.771,124.868,81.762,124.856,81.755,124.837z
			 M84.462,128.349c-0.397-0.232-0.795-0.468-1.188-0.701c0.17-0.267,0.561-0.713,1.167-1.34c0.521-0.537,0.866-1.003,1.045-1.396
			c-0.014-0.17-0.144-0.256-0.391-0.256c-0.089,0-0.171,0.018-0.247,0.047c-0.276,0.33-0.56,0.656-0.845,0.979
			c-0.335,0.386-0.636,0.696-0.896,0.931c0.015-0.506-0.026-1.188-0.123-2.051c-0.006-0.076-0.054-0.132-0.143-0.166
			c-0.089-0.035-0.174-0.063-0.256-0.091c-0.083,0.013-0.162,0.025-0.236,0.038c-0.103,0.025-0.146,0.076-0.135,0.152
			c0.089,0.492,0.135,1.074,0.135,1.746c0,0.222-0.008,0.553-0.021,0.992c-0.013,0.438-0.019,0.771-0.019,0.99
			c0,0.614,0.036,1.148,0.111,1.604c0.023,0.164,0.121,0.275,0.285,0.332c0.021,0.045,0.064,0.066,0.145,0.066
			c0.067,0,0.122-0.014,0.159-0.039c0.134-0.057,0.199-0.16,0.199-0.313c0-0.044-0.006-0.117-0.021-0.219
			c-0.013-0.103-0.02-0.178-0.02-0.229c-0.014-0.438-0.027-0.771-0.047-1.006c0.894,0.53,1.552,0.933,1.976,1.194
			c0.038,0.025,0.072,0.039,0.104,0.039s0.078-0.017,0.139-0.049c0.061-0.031,0.109-0.047,0.146-0.047
			c0.02,0,0.041,0.004,0.064,0.01c0.053-0.15,0.076-0.246,0.076-0.285c0-0.057-0.02-0.102-0.059-0.133
			C85.279,128.897,84.904,128.628,84.462,128.349z M3.289,117.114c-0.521-4.608-0.521-9.394-0.87-14.176
			c-0.217-0.436-0.173-1.218-0.173-1.914c-0.479-1.479-0.609-3.349-1.043-4.827c-0.348-1.869-0.261-4.26-1.131-5.435
			c-0.957,0.044-1.304,0.392-2.044,0.696c-0.783,3.261-1.348,6.738-2.174,9.914c-0.696-2.043-1.609-3.784-2.348-5.784V94.98
			c-0.739-1.086-0.914-2.957-2.087-3.521c-0.348,0.436-0.652,0.13-1.174,0.261c-0.13,0.349-0.218,0.826-0.521,1v2
			c-0.392,2.349,0,5.436-0.174,7.958c-0.044,0.652-0.218,1.304-0.261,1.826c0,0.174,0.13,0.35,0.13,0.436
			c0,0.609-0.261,1.565-0.13,2.174c0.261,0.436,0.043,1.522,0.13,2.218c0.218,2.479-0.174,6.349,0,8.828
			c0.305,0.087,0.522-0.438,0.696,0c0.217-0.35,0.522-0.565,0.87-0.522c0.739-2.391,0.522-6.782,0.826-9.175
			c-0.435-2.174-0.13-5.175,0.217-7.35c-0.174-0.738-0.304-1.957-0.13-2.826c0.392,0.826,0.739,1.697,0.913,2.826
			c0.652,1.088,0.827,2.826,1.218,4.263c0.304,0.348,0.521,0.738,0.521,1.393c0.479,0.26,0.435,1.217,1,1.348
			c0.174,0.783,0.696,1.043,1.087,1.564c0.348-0.043,0.695-0.043,0.87,0.174c1.13-0.392,0.348-2.391,0.695-3.695
			c-0.13-1.697,0.392-3.914,0.914-5.306c0.739,5.522,0.696,12.133,1.174,18.002c0.391,0.437,1.042,0.521,1.086,1.394
			c0.217,0,0.435-0.044,0.391,0.261c0.218-0.261,0.739-0.131,1.044-0.261c0.13-0.394,0.348-0.609,0.521-0.87
			C3.462,118.462,2.94,117.767,3.289,117.114z M15.42,112.549c-0.479-2.783-1.043-5.521-1.218-8.653
			c-0.217-0.957-0.435-2-0.435-3.218c-0.348-0.87-0.608-1.825-0.608-3.132c-0.608-1.87-1.087-3.913-1.783-5.696
			c-0.262-0.087-0.565-0.174-0.521-0.607c-0.652-0.348-1,0.564-1.435,0.174c-0.304,0.521-0.652,0.957-1.174,1.217
			c-0.392,2-0.305,4.043-0.522,6.132c-0.174,1.262-0.565,3.479-0.783,4.608c-0.217,1.087-0.261,2.306-0.435,3.349
			c-0.043,0.304-0.261,0.521-0.305,0.783c-0.13,0.739-0.174,2-0.217,2.349c-0.261,3.13,0.087,6.393-0.696,8.739
			c0.783,0.305,1.174,0.043,1.739,0.174c0.217-0.174,0.261-0.563,0.696-0.521c-0.043-0.437,0.13-0.609,0.261-0.87
			c0.13-2.262,0.696-3.913,0.826-6.13c1.174,0.217,1.696,0.13,3,0.087c0.261,2.261,0.565,4.436,1.348,6.043
			c0.957,0.087,1.392,0.783,2.305,0.436c0.13-0.392,0.391-0.652,0.521-1.043C15.813,115.462,15.117,113.854,15.42,112.549z
			 M8.811,108.896c0.392-2.609,1.131-4.827,1.348-7.698c0.087,0.044,0.13,0.088,0.217,0.088c0.348,2.521,0.609,5.131,1,7.61
			C10.637,108.982,9.55,109.07,8.811,108.896z M28.161,106.07c-0.435-0.739-1.043-0.565-1.608-0.914
			c-0.173,0.043-0.26,0.218-0.434,0.262c-1.652-0.174-2.739,0.521-4.045,0.87c0.044,0.348-0.348,0.13-0.261,0.522
			c0.871,0.695,1.61,1.957,3.001,1.478c0,0.608,0.174,1.043,0.043,1.825c0,0.131,0.174,0.088,0.087,0.262
			c0.043,1.914-0.565,3.219-0.913,4.394c-0.217,0.694-0.392,1.694-1.174,1.436c-2-3.436-1.696-9.218-2.13-14.219
			c0.13-1.043,0.087-1.871,0.217-2.914c-0.217-0.303-0.043-1.436,0.174-1.696c-0.348-0.913,0.305-2.043,0.348-3
			c0.565-0.305,0.913-0.913,1.392-1.305c1-0.217,1.479,0.608,1.783,1.349c0.826,0.087,0.783,1.043,1.783,0.913
			c0.305-0.262,0.435-0.739,0.696-1.043c-0.565-2.043-2.652-4.217-4.697-3.262c-0.391-0.086-0.609,0.043-0.913,0
			c0,0.131,0,0.349-0.087,0.349c-0.826,0-1.348,0.522-2.13,0.608c-0.391,0.608-0.652,1.652-0.826,2.479
			c-0.87,4.958-0.348,10.306-0.435,14.872c0.261,0,0.13,0.349,0.261,0.392c-0.174,1.132,0,1.915,0.348,2.523
			c0,0.261,0.087,0.437,0,0.78c0.435,1.957,1.608,3.133,2.479,4.608c0.696,0.522,1.435,0.957,2.349,1.261
			c0.435-0.261,1.13-0.086,1.696-0.129c0.13-0.349,0.391-0.436,0.652-0.564c0.13-0.826,0.782-0.956,0.826-1.913
			c0.217,0.131,0.087-0.306,0.304-0.174c0.043-0.913,0.609-1.608,0.87-2.521c0.391-1.651,0.304-3.479,0.522-5.349
			C28.074,107.722,28.117,106.854,28.161,106.07z M40.206,112.549c-0.479-2.783-1.042-5.521-1.217-8.653
			c-0.218-0.957-0.436-2-0.436-3.218c-0.348-0.87-0.609-1.825-0.609-3.132c-0.608-1.87-1.087-3.913-1.783-5.696
			c-0.261-0.087-0.565-0.174-0.521-0.607c-0.653-0.348-1,0.564-1.436,0.174c-0.304,0.521-0.652,0.957-1.174,1.217
			c-0.392,2-0.304,4.043-0.521,6.132c-0.174,1.262-0.565,3.479-0.783,4.608c-0.217,1.087-0.261,2.306-0.435,3.349
			c-0.043,0.304-0.261,0.521-0.305,0.783c-0.13,0.739-0.174,2-0.217,2.349c-0.262,3.13,0.087,6.393-0.697,8.739
			c0.784,0.305,1.175,0.043,1.74,0.174c0.218-0.174,0.261-0.563,0.696-0.521c-0.043-0.437,0.13-0.609,0.261-0.87
			c0.13-2.262,0.694-3.913,0.825-6.13c1.174,0.217,1.697,0.13,3,0.087c0.261,2.261,0.565,4.436,1.348,6.043
			c0.958,0.087,1.393,0.783,2.305,0.436c0.13-0.392,0.391-0.652,0.522-1.043C40.597,115.462,39.901,113.854,40.206,112.549z
			 M33.595,108.896c0.392-2.609,1.131-4.827,1.348-7.698c0.087,0.044,0.13,0.088,0.217,0.088c0.348,2.521,0.609,5.131,1,7.61
			C35.422,108.982,34.335,109.07,33.595,108.896z M52.294,118.157c0.043-0.348,0.131-0.651,0.218-0.912
			c-0.175-0.739-0.608-1.219-0.782-2c-0.393-0.045-0.607-0.393-0.783-0.739c-1.174-0.739-2.607,0.565-3.869-0.174
			c-0.263,0.435-0.958-0.132-1.046,0.174c0-0.174-0.128-0.174-0.171-0.261c0.827-2.262,1.304-4.915,1.914-7.349
			c0.263,0.129,0.045-0.392,0.306-0.262c-0.043-0.783,0.305-1.043,0.261-1.783c0.262,0.131,0.044-0.393,0.305-0.262
			c0.131-1.608,0.782-2.522,1.043-3.957c1.176-1.522,1.479-3.826,2.262-5.697c0.176-1.348-0.434-1.826-0.607-2.738
			c-0.393-0.305-0.913-0.436-1.13-0.957c-3,0.217-5.174,0.957-8.35,0.869c-0.13,0.652,0.478,1.521,0.696,1.957
			c0.087,0.175,0.043,0.392,0.087,0.436c0.739,1.043,2.87,1.043,4.215,1.262c0.22-0.219,1.001-0.262,1.265-0.132
			c-0.35,1-0.914,1.913-1.308,2.958c-0.086,0.175,0,0.522-0.086,0.696c-0.045,0.13-0.219,0.13-0.306,0.261
			c-0.13,0.392-0.13,0.957-0.261,1.349c-0.044,0.129-0.261,0.174-0.304,0.26c-0.13,0.479-0.13,1.043-0.261,1.565
			c-0.13,0.392-0.391,0.695-0.521,1.087c-0.522,1.914-1.044,3.827-1.392,5.914c-0.261-0.13,0,0.349-0.304,0.261
			c-0.174,2.044-1.305,3.087-0.957,5.523c0.217,0.608,0.391,1.217,0.478,1.956c0.392,0.174,0.217,0.479,0.435,0.695
			c0.521,0.521,1.696,0.131,2.261,0.521c0.087-0.044,0.043-0.261,0.261-0.174c0.217,0.349,0.999,0,1.217,0.349
			C48.075,118.68,50.642,118.723,52.294,118.157z M57.599,97.111c0.348-0.739,0.521-1.696,0.826-2.479
			c-0.218-0.913-0.35-1.913-0.35-3.087c-0.174-0.521-0.694-0.564-0.912-1.043c-1.043,0.043-2.088,0.217-2.522,1.043
			c-1.044-0.174-0.869,1.262-1.261,1.957c0.087,0.957,0.608,1.305,0.651,2.261C55.121,96.372,55.773,97.502,57.599,97.111z
			 M56.687,99.373c-0.479,0.565-1.393,0.565-1.827,1.174c0.174,0.696,0.392,1.522,0.086,2.261
			c1.132,4.218-0.043,10.438,1.306,14.393c0.521,0.132,0.957,0.393,1.175,0.914c0.563-0.174,0.651,0.305,1.176,0.218
			c0.217-0.479,0.433-0.957,0.737-1.349c-0.087-1.738-0.261-3.35-0.174-5.306c-0.044-1.48-0.087-3.48-0.263-5.48
			C58.208,103.765,58.946,99.981,56.687,99.373z M67.47,110.548c0.782,1.566,1.305,3.393,2.262,4.784
			c-0.043,0.348,0.174,0.478,0.088,0.868c0.564,0.479,0.826,1.175,1.131,1.871c0.781-0.219,1.305,0.606,1.869,0.606
			c0.608,0,0.826-0.479,1.217-1c-0.131-0.825-0.26-1.606-0.174-2.606c0.394-0.307,0.437-1.262,0.174-1.739
			c0.35-1-0.217-1.826,0.176-2.958c-0.607-3.521-0.35-7.521-0.436-11.393c0-0.129-0.219-0.086-0.174-0.261
			c-0.175-2.001,0.086-4.436-0.262-6.262c0.13-0.348-0.131-1.262-0.521-1.436c-0.783-0.348-1.694,0.695-2.564,0.695
			c-0.174,0.436-0.13,0.652-0.087,0.913c0.044,0.392,0.131,1.218,0,1.652c-0.306,1.304-0.263,3.696,0,5.044
			c-0.175,0.043-0.175,0.304-0.175,0.608c0.479,2.521,0.132,6.263,0.349,8.74c-1.087-2.305-1.782-5.044-2.521-7.74
			c-0.607-0.435-0.912-1.217-0.957-2.217c-0.262,0-0.174-0.349-0.349-0.349c-0.694-2.13-1.348-4.262-2.043-6.305
			c-0.305-0.174-0.521-0.479-0.87-0.608c-1.174,0.304-2.392,0.479-2.521,1.608c-0.046,0.479,0.304,1,0.348,1.565
			c0.13,1.175,0.087,2.479-0.174,3.479c0.13,2.436,0,5.436,0.261,8.132c0.088,0.913-0.131,2.043,0,3.261
			c0.305,3.131,0.436,6.349,0.262,9.262c0.436,0.521-0.043,1.175,0.174,1.565c0.564-0.174,1.479,0.13,1.393-1.044
			c0.174-0.13,0.219,0,0.436,0c0-1.782,1.131-3.306,0.521-5.087c0.479-1.695-0.563-5.609,0-8.392
			c-0.261-1.176,0.393-2.784,0.088-4.089c0.393,1.262,0.608,2.652,1.35,3.566C66.033,107.287,67.165,108.548,67.47,110.548z
			 M84.994,113.94c0.087-0.521-0.394,0-0.739-0.174c-0.306,0.608-0.87,0.869-1.436,1.174c-0.22,0.826-0.914,1.437-1.783,1.174
			c-0.043-0.563-0.348-0.78-0.608-1.086c-0.652-2.521-1.262-5.565-1.045-8.827c-0.087-0.088-0.304-0.043-0.261-0.262
			c0-0.129,0.218-0.086,0.174-0.261c-0.694-3.001-0.435-7.61,0.739-9.741c0.521,0,0.696-0.348,1.132-0.435
			c0.695,0.174,0.781,1.13,1.652,1.13c0.086,0.521,0.694,0.393,0.738,0.913c0.826,0,0.695-0.13,1.218-0.349
			c0.437-2.129-0.912-2.869-1.437-4.129c0-0.262,0.262-0.217,0.219-0.479l-0.738-1c-2.653-0.304-4.003,0.957-5.566,1.913
			c-0.522,1.564-1.565,3.436-1.218,5.479c0.087,2.783,0,5.131,0.087,7.872c0.435,3.651,0.651,7.608,1.825,10.436
			c0.306,0,0.306,0.348,0.74,0.261c-0.089,0.262,0.086,0.219,0.086,0.436c0.564-0.043,0.781,0.306,1.043,0.651
			c0.521-0.087,1.003,0.261,1.522,0.349c1.044,0.174,1.957-0.174,2.608-0.349c1.043-0.261,2.131-0.217,2.35-1.348
			c0.217-1.218-0.307-2.826-0.696-3.521C85.342,113.767,85.081,113.723,84.994,113.94z"/>
	</g>
</g>
</svg>
