<?xml version="1.0" encoding="utf-8"?>
<!-- Generator: Adobe Illustrator 16.0.3, SVG Export Plug-In . SVG Version: 6.00 Build 0)  -->
<!DOCTYPE svg PUBLIC "-//W3C//DTD SVG 1.1//EN" "http://www.w3.org/Graphics/SVG/1.1/DTD/svg11.dtd">
<svg version="1.1" id="Layer_1" xmlns="http://www.w3.org/2000/svg" xmlns:xlink="http://www.w3.org/1999/xlink" x="0px" y="0px"
	 width="135px" height="60px" viewBox="-22 80.5 135 60" enable-background="new -22 80.5 135 60" xml:space="preserve">
<g>
	<path fill-rule="evenodd" clip-rule="evenodd" fill="#00AFF0" d="M52.575,80.506c0.587,0,1.174,0,1.763,0
		c0.304,0,0.703-0.029,0.941,0.041c0.236,0.07,0.609-0.021,0.823,0.041c0.208,0,0.417,0,0.628,0c0,0.014,0,0.027,0,0.041
		c0.195,0,0.391,0,0.587,0c0,0.014,0,0.027,0,0.041c0.053,0,0.104,0,0.156,0c0.131,0,0.261,0,0.392,0c0,0.014,0,0.027,0,0.041
		c0.17,0,0.34,0,0.509,0c0,0.014,0,0.027,0,0.041c0.17,0,0.34,0,0.51,0c0,0,0.003,0.034,0.078,0.041c0.145,0,0.288,0,0.431,0
		c0,0.014,0,0.027,0,0.041c0.183,0,0.366,0,0.549,0c0,0.014,0,0.027,0,0.041c0.195,0,0.392,0,0.587,0c0,0.014,0,0.027,0,0.041
		c0.21,0,0.42,0,0.628,0c0.074,0.007,0.077,0.041,0.077,0.041c0.289,0,0.575,0,0.862,0c0,0.014,0,0.027,0,0.041
		c0.015,0,0.026,0,0.041,0c0.268,0.046,0.611-0.022,0.823,0.041c0.848,0.027,1.698,0.055,2.547,0.082c0,0.014,0,0.027,0,0.041
		c0.352,0.014,0.706,0.027,1.057,0.041c0.17,0,0.341,0,0.512,0c0,0.014,0,0.027,0,0.041c0.325,0.014,0.652,0.027,0.979,0.041
		c0.143,0,0.287,0,0.431,0c0,0.014,0,0.027,0,0.041c0.223,0,0.444,0,0.665,0c0,0.014,0,0.027,0,0.041c0.223,0,0.444,0,0.668,0
		c0,0.014,0,0.027,0,0.041c0.195,0,0.393,0,0.587,0c0,0.014,0,0.027,0,0.041c0.262,0.014,0.522,0.027,0.783,0.041
		c0.132,0,0.261,0,0.392,0c0,0.014,0,0.027,0,0.04c0.185,0,0.367,0,0.551,0c0,0.014,0,0.027,0,0.041
		c0.508,0.027,1.02,0.055,1.529,0.082c0,0.014,0,0.027,0,0.041c0.156,0,0.313,0,0.469,0c0,0.014,0,0.027,0,0.041
		c0.145,0,0.289,0,0.432,0c0,0.014,0,0.027,0,0.041c0.157,0,0.313,0,0.47,0c0,0.014,0,0.027,0,0.041c0.144,0,0.287,0,0.431,0
		c0,0.014,0,0.027,0,0.041c0.131,0,0.263,0,0.395,0c0,0.014,0,0.027,0,0.041c0.131,0,0.261,0,0.391,0c0,0.014,0,0.027,0,0.041
		c0.132,0,0.261,0,0.392,0c0,0.014,0,0.027,0,0.041c0.131,0,0.262,0,0.394,0c0,0.014,0,0.027,0,0.041c0.13,0,0.262,0,0.393,0
		c0,0.014,0,0.027,0,0.041c0.118,0,0.233,0,0.351,0c0,0.014,0,0.027,0,0.041c0.117,0,0.234,0,0.354,0
		c0.496,0.15,1.149,0.096,1.646,0.246c0.297,0.027,0.602,0.055,0.9,0.082c1.188,0.191,2.377,0.383,3.568,0.574
		c0.34,0.108,0.766,0.175,1.097,0.286c0.065,0,0.13,0,0.196,0c1.279,0.355,2.561,0.711,3.839,1.066
		c0.104,0.014,0.213,0.027,0.316,0.041c0,0.014,0,0.027,0,0.041c0.05,0,0.104,0,0.158,0c0,0.014,0,0.027,0,0.041
		c0.049,0,0.104,0,0.153,0c0,0.014,0,0.027,0,0.041c0.119,0.014,0.236,0.027,0.354,0.041c0,0.014,0,0.027,0,0.041
		c0.119,0.014,0.235,0.027,0.354,0.041c0,0.014,0,0.027,0,0.041c0.614,0.109,1.229,0.219,1.841,0.327
		c0.263,0.014,0.523,0.027,0.785,0.041c0.228,0.067,0.611,0.041,0.902,0.041c0.51,0.001,1.294,0.085,1.725-0.041
		c0.221,0,0.443,0,0.665,0c0-0.014,0-0.027,0-0.041c0.145,0,0.287,0,0.431,0c0.076-0.006,0.081-0.04,0.081-0.04
		c0.167,0,0.337,0,0.509,0c0-0.014,0-0.027,0-0.041c0.145,0,0.286,0,0.431,0c0-0.014,0-0.027,0-0.041c0.155,0,0.312,0,0.471,0
		c0-0.014,0-0.027,0-0.041c0.155,0,0.312,0,0.469,0c0-0.014,0-0.027,0-0.041c0.155,0,0.313,0,0.471,0c0-0.014,0-0.027,0-0.041
		c0.17,0,0.339,0,0.512,0c0-0.014,0-0.027,0-0.041c0.351-0.014,0.702-0.027,1.057-0.041c0.169,0,0.338,0,0.509,0
		c0-0.014,0-0.027,0-0.041c0.186-0.055,0.926,0.001,1.058,0.041c0.146,0,0.29,0,0.433,0c0.267,0,0.57,0.018,0.783,0.082
		c0.196,0.014,0.393,0.027,0.588,0.041c0,0.014,0,0.027,0,0.041c0.079,0,0.157,0,0.236,0c0,0.014,0,0.027,0,0.041
		c0.065,0,0.13,0,0.194,0c0,0.014,0,0.027,0,0.041c0.066,0,0.132,0,0.198,0c0,0.014,0,0.027,0,0.041c0.053,0,0.104,0,0.155,0
		c0,0.013,0,0.026,0,0.04c0.053,0,0.104,0,0.158,0c0,0.014,0,0.027,0,0.041c0.051,0,0.104,0,0.156,0c0,0.014,0,0.027,0,0.041
		c0.052,0,0.105,0,0.155,0c0,0.014,0,0.027,0,0.041c0.039,0,0.082,0,0.119,0c0,0.014,0,0.027,0,0.041c0.038,0,0.078,0,0.115,0
		c0,0.014,0,0.027,0,0.041c0.041,0,0.08,0,0.119,0c0,0.014,0,0.027,0,0.041c0.038,0,0.079,0,0.119,0c0,0.014,0,0.027,0,0.041
		c0.076,0.014,0.155,0.027,0.234,0.041c0,0.014,0,0.027,0,0.041c0.026,0,0.053,0,0.079,0c0,0.014,0,0.027,0,0.041
		c0.036,0,0.076,0,0.116,0c0,0.014,0,0.027,0,0.041c0.025,0,0.05,0,0.078,0c0,0.014,0,0.027,0,0.041c0.04,0,0.079,0,0.116,0
		c0,0.014,0,0.027,0,0.041c0.081,0.027,0.157,0.055,0.235,0.082c0,0.014,0,0.027,0,0.041c0.026,0,0.054,0,0.08,0
		c0,0.014,0,0.027,0,0.041c0.026,0,0.05,0,0.078,0c0,0.014,0,0.027,0,0.041c0.026,0,0.054,0,0.079,0c0,0.014,0,0.027,0,0.041
		c0.023,0,0.05,0,0.078,0c0,0.014,0,0.027,0,0.041c0.025,0,0.054,0,0.076,0c0,0.014,0,0.027,0,0.041c0.026,0,0.055,0,0.08,0
		c0.014,0.027,0.027,0.055,0.041,0.082c0.077,0.027,0.153,0.055,0.233,0.082c0,0.014,0,0.027,0,0.041
		c0.038,0.014,0.077,0.027,0.118,0.041c0.014,0.027,0.027,0.055,0.041,0.082c0.023,0,0.05,0,0.075,0c0,0.014,0,0.027,0,0.041
		c0.041,0.014,0.079,0.027,0.118,0.041c0.014,0.027,0.026,0.055,0.039,0.082c0.029,0,0.05,0,0.077,0
		c0.028,0.041,0.055,0.082,0.082,0.123c0.022,0,0.049,0,0.076,0c0.027,0.041,0.054,0.082,0.076,0.123c0.027,0,0.055,0,0.081,0
		c0.051,0.068,0.104,0.136,0.156,0.204c0.025,0,0.051,0,0.078,0c0.104,0.123,0.212,0.246,0.315,0.369c0.026,0,0.051,0,0.075,0
		c0.054,0.068,0.104,0.137,0.158,0.205c0.027,0.014,0.055,0.027,0.078,0.041c0,0.027,0,0.055,0,0.082
		c0.13,0.123,0.261,0.246,0.392,0.369c0,0.027,0,0.055,0,0.082c0.067,0.055,0.131,0.109,0.197,0.164c0,0.027,0,0.055,0,0.082
		c0.041,0.027,0.078,0.055,0.116,0.082c0,0.027,0,0.055,0,0.082c0.042,0.027,0.08,0.054,0.117,0.081c0,0.027,0,0.055,0,0.082
		c0.042,0.027,0.081,0.055,0.117,0.082c0,0.027,0,0.055,0,0.082c0.041,0.027,0.083,0.055,0.12,0.082c0,0.027,0,0.055,0,0.082
		c0.024,0.014,0.052,0.027,0.078,0.041c0,0.027,0,0.055,0,0.082c0.027,0.014,0.052,0.027,0.077,0.041c0,0.027,0,0.055,0,0.082
		c0.026,0.014,0.053,0.027,0.08,0.041c0,0.027,0,0.055,0,0.082c0.024,0.014,0.05,0.027,0.078,0.041c0,0.027,0,0.055,0,0.082
		c0.026,0.014,0.053,0.027,0.076,0.041c0.013,0.055,0.025,0.109,0.039,0.164c0.029,0.014,0.057,0.027,0.08,0.041
		c0,0.027,0,0.055,0,0.082c0.012,0,0.025,0,0.038,0c0,0.027,0,0.055,0,0.082c0.026,0.014,0.054,0.027,0.08,0.041
		c0,0.027,0,0.055,0,0.082c0.013,0,0.024,0,0.037,0c0,0.027,0,0.054,0,0.081c0.014,0,0.027,0,0.041,0c0,0.027,0,0.055,0,0.082
		c0.013,0,0.025,0,0.04,0c0,0.027,0,0.055,0,0.082c0.023,0.014,0.051,0.027,0.077,0.041c0.027,0.082,0.054,0.164,0.077,0.246
		c0.015,0,0.026,0,0.039,0c0,0.027,0,0.055,0,0.082c0.016,0,0.028,0,0.041,0c0.027,0.082,0.051,0.164,0.077,0.246
		c0.015,0,0.028,0,0.04,0c0,0.041,0,0.082,0,0.123c0.014,0,0.026,0,0.039,0c0,0.027,0,0.055,0,0.082c0.014,0,0.026,0,0.04,0
		c0.025,0.082,0.053,0.164,0.077,0.246c0.014,0,0.026,0,0.039,0c0,0.041,0,0.082,0,0.123c0.012,0,0.027,0,0.043,0
		c0,0.027,0,0.055,0,0.082c0.012,0,0.024,0,0.037,0c0.012,0.068,0.026,0.137,0.038,0.204c0.013,0,0.025,0,0.039,0
		c0,0.041,0,0.082,0,0.123c0.015,0,0.028,0,0.042,0c0,0.027,0,0.055,0,0.082c0.01,0,0.022,0,0.035,0
		c0.027,0.123,0.053,0.246,0.082,0.369c0.123,0.327,0.24,0.72,0.35,1.066c0,0.054,0,0.108,0,0.163c0.015,0,0.029,0,0.04,0
		c0,0.055,0,0.109,0,0.164c0.013,0,0.025,0,0.038,0c0,0.055,0,0.109,0,0.164c0.014,0,0.027,0,0.041,0c0,0.055,0,0.109,0,0.164
		c0.013,0,0.025,0,0.04,0c0.103,0.67,0.207,1.339,0.313,2.009c0.012,0.328,0.026,0.656,0.037,0.983
		c0.118,0.44,0.043,1.237,0.043,1.763c0,0.293,0.02,0.676-0.043,0.902c0,0.15,0,0.301,0,0.451c-0.011,0.204-0.025,0.409-0.037,0.614
		c-0.015,0-0.025,0-0.038,0c-0.026,0.369-0.055,0.738-0.082,1.107c-0.09,0.33-0.102,0.781-0.192,1.106c0,0.082,0,0.164,0,0.246
		c-0.33,1.694-0.653,3.389-0.981,5.083c-0.322,1.032-0.452,2.22-0.781,3.238c-0.069,0.328-0.132,0.656-0.199,0.983
		c-0.013,0-0.025,0-0.036,0c0,0.041,0,0.082,0,0.123c-0.014,0-0.026,0-0.041,0c0,0.055,0,0.109,0,0.164c-0.013,0-0.026,0-0.041,0
		c0,0.055,0,0.109,0,0.164c-0.013,0-0.025,0-0.037,0c0,0.055,0,0.109,0,0.164c-0.014,0-0.025,0-0.037,0
		c-0.014,0.109-0.028,0.219-0.042,0.328c-0.243,0.71-0.386,1.547-0.625,2.255c-0.056,0.259-0.106,0.519-0.16,0.778
		c-0.151,0.447-0.277,0.988-0.432,1.435c0,0.055,0,0.109,0,0.164c-0.011,0-0.024,0-0.037,0c0,0.055,0,0.109,0,0.164
		c-0.012,0-0.025,0-0.038,0c0,0.041,0,0.082,0,0.123c-0.015,0-0.027,0-0.041,0c0,0.055,0,0.109,0,0.164c-0.013,0-0.025,0-0.04,0
		c0,0.041,0,0.082,0,0.123c-0.013,0-0.022,0-0.035,0c-0.016,0.096-0.029,0.191-0.042,0.287c-0.013,0-0.026,0-0.039,0
		c-0.015,0.096-0.027,0.191-0.039,0.287c-0.012,0-0.025,0-0.039,0c-0.014,0.095-0.026,0.19-0.04,0.286c-0.012,0-0.027,0-0.04,0
		c0,0.055,0,0.109,0,0.164c-0.013,0-0.023,0-0.038,0c0,0.041,0,0.082,0,0.123c-0.013,0-0.025,0-0.038,0c0,0.055,0,0.109,0,0.164
		c-0.397,1.141-0.628,2.425-1.019,3.566c-0.014,0.109-0.027,0.219-0.04,0.328c-0.137,0.395-0.256,0.876-0.391,1.271
		c0,0.055,0,0.109,0,0.164c-0.015,0-0.029,0-0.041,0c0,0.041,0,0.082,0,0.123c-0.015,0-0.028,0-0.04,0c0,0.055,0,0.109,0,0.164
		c-0.012,0-0.025,0-0.038,0c0,0.055,0,0.109,0,0.164c-0.204,0.589-0.347,1.294-0.55,1.886c-0.052,0.259-0.103,0.519-0.155,0.778
		c-0.205,0.621-0.338,1.351-0.55,1.968c-0.052,0.26-0.104,0.52-0.157,0.779c-0.013,0-0.026,0-0.038,0
		c-0.039,0.19-0.08,0.382-0.117,0.573c-0.014,0-0.026,0-0.04,0c0,0.041,0,0.082,0,0.123c-0.013,0-0.026,0-0.039,0
		c-0.015,0.096-0.026,0.191-0.04,0.287c-0.012,0-0.025,0-0.037,0c-0.016,0.096-0.028,0.191-0.042,0.287c-0.012,0-0.025,0-0.038,0
		c-0.025,0.137-0.051,0.273-0.078,0.41c-0.015,0-0.027,0-0.041,0c0,0.054,0,0.108,0,0.163c-0.01,0-0.024,0-0.037,0
		c0,0.041,0,0.082,0,0.123c-0.015,0-0.024,0-0.041,0c0,0.041,0,0.082,0,0.123c-0.012,0-0.025,0-0.036,0c0,0.055,0,0.109,0,0.164
		c-0.014,0-0.028,0-0.042,0c-0.011,0.082-0.024,0.164-0.036,0.246c-0.018,0-0.027,0-0.041,0c0,0.041,0,0.082,0,0.123
		c-0.013,0-0.026,0-0.04,0c0,0.041,0,0.082,0,0.123c-0.012,0-0.025,0-0.039,0c0,0.041,0,0.082,0,0.123c-0.012,0-0.026,0-0.039,0
		c0,0.041,0,0.082,0,0.123c-0.014,0-0.025,0-0.038,0c0,0.041,0,0.082,0,0.123c-0.013,0-0.026,0-0.04,0
		c-0.012,0.082-0.025,0.164-0.039,0.246c-0.014,0-0.024,0-0.038,0c-0.014,0.081-0.028,0.163-0.04,0.245c-0.013,0-0.026,0-0.039,0
		c0,0.041,0,0.082,0,0.123c-0.013,0-0.025,0-0.039,0c0,0.041,0,0.082,0,0.123c-0.013,0-0.025,0-0.039,0c0,0.041,0,0.082,0,0.123
		c-0.013,0-0.027,0-0.039,0c0,0.041,0,0.082,0,0.123c-0.015,0-0.027,0-0.04,0c0,0.027,0,0.055,0,0.082c-0.012,0-0.024,0-0.037,0
		c-0.016,0.082-0.026,0.164-0.04,0.246c-0.013,0-0.029,0-0.04,0c0,0.027,0,0.055,0,0.082c-0.014,0-0.026,0-0.039,0
		c-0.012,0.082-0.026,0.164-0.039,0.246c-0.014,0-0.025,0-0.039,0c-0.013,0.068-0.026,0.137-0.04,0.205c-0.013,0-0.026,0-0.04,0
		c0,0.027,0,0.055,0,0.082c-0.012,0-0.024,0-0.038,0c0,0.041,0,0.082,0,0.123c-0.014,0-0.027,0-0.039,0c0,0.026,0,0.054,0,0.081
		c-0.013,0-0.024,0-0.04,0c0,0.041,0,0.082,0,0.123c-0.013,0-0.025,0-0.039,0c0,0.027,0,0.055,0,0.082c-0.013,0-0.025,0-0.04,0
		c0,0.041,0,0.082,0,0.123c-0.013,0-0.025,0-0.037,0c-0.014,0.055-0.027,0.109-0.04,0.164c-0.012,0-0.025,0-0.039,0
		c0,0.041,0,0.082,0,0.123c-0.015,0-0.026,0-0.04,0c-0.013,0.055-0.026,0.109-0.039,0.164c-0.012,0-0.023,0-0.037,0
		c0,0.041,0,0.082,0,0.123c-0.015,0-0.028,0-0.041,0c0,0.027,0,0.055,0,0.082c-0.011,0-0.024,0-0.04,0
		c-0.023,0.082-0.05,0.164-0.077,0.246c-0.014,0-0.024,0-0.039,0c0,0.041,0,0.082,0,0.123c-0.014,0-0.026,0-0.038,0
		c0,0.027,0,0.055,0,0.082c-0.014,0-0.028,0-0.041,0c0,0.027,0,0.055,0,0.082c-0.014,0-0.027,0-0.038,0c0,0.027,0,0.055,0,0.082
		c-0.015,0-0.028,0-0.039,0c-0.025,0.081-0.052,0.163-0.08,0.245c-0.011,0-0.025,0-0.038,0c-0.038,0.123-0.078,0.246-0.118,0.369
		c-0.025,0.014-0.051,0.027-0.079,0.041c0,0.027,0,0.055,0,0.082c-0.013,0-0.025,0-0.037,0c0,0.027,0,0.055,0,0.082
		c-0.013,0-0.027,0-0.041,0c0,0.027,0,0.055,0,0.082c-0.011,0-0.023,0-0.038,0c0,0.027,0,0.055,0,0.082
		c-0.026,0.014-0.053,0.027-0.079,0.041c-0.013,0.055-0.025,0.109-0.038,0.164c-0.027,0.014-0.052,0.027-0.079,0.041
		c0,0.027,0,0.055,0,0.082c-0.027,0.014-0.051,0.027-0.079,0.041c0,0.027,0,0.055,0,0.082c-0.038,0.027-0.078,0.055-0.117,0.082
		c0,0.027,0,0.055,0,0.082c-0.038,0.027-0.078,0.055-0.116,0.082c0,0.027,0,0.055,0,0.082c-0.094,0.081-0.184,0.163-0.273,0.245
		c-0.026,0.041-0.054,0.082-0.08,0.123c-0.026,0-0.051,0-0.079,0c-0.026,0.041-0.053,0.082-0.079,0.123c-0.022,0-0.052,0-0.077,0
		c-0.014,0.027-0.027,0.055-0.039,0.082c-0.026,0-0.05,0-0.077,0c0,0.014,0,0.027,0,0.041c-0.079,0.027-0.158,0.055-0.234,0.082
		c0,0.014,0,0.027,0,0.041c-0.042,0-0.079,0-0.118,0c0,0.014,0,0.027,0,0.041c-0.055,0-0.106,0-0.158,0c0,0.014,0,0.027,0,0.041
		c-0.176,0.055-0.936-0.003-1.06-0.041c-0.09,0-0.181,0-0.274,0c0-0.014,0-0.027,0-0.041c-0.064,0-0.131,0-0.196,0
		c0-0.014,0-0.027,0-0.041c-0.064,0-0.131,0-0.194,0c-0.591-0.2-1.227-0.37-1.763-0.615c-0.08-0.014-0.157-0.027-0.237-0.041
		c0-0.014,0-0.026,0-0.04c-0.038,0-0.076,0-0.118,0c0-0.014,0-0.027,0-0.041c-0.037,0-0.075,0-0.117,0c0-0.014,0-0.027,0-0.041
		c-0.039,0-0.075,0-0.117,0c0-0.014,0-0.027,0-0.041c-0.026,0-0.053,0-0.077,0c0-0.014,0-0.027,0-0.041
		c-0.116-0.027-0.237-0.055-0.354-0.082c-0.438-0.184-0.938-0.334-1.41-0.492c-0.131-0.014-0.262-0.027-0.394-0.041
		c-0.285-0.095-0.653-0.153-0.938-0.246c-0.132-0.014-0.263-0.027-0.393-0.041c-0.358-0.118-0.817-0.169-1.175-0.287
		c-0.131-0.014-0.261-0.027-0.391-0.041c-0.361-0.118-0.817-0.169-1.177-0.287c-0.132-0.014-0.262-0.027-0.392-0.04
		c-0.371-0.121-0.85-0.171-1.217-0.287c-0.144-0.014-0.287-0.027-0.43-0.041c-0.471-0.151-1.061-0.18-1.53-0.328
		c-0.155-0.014-0.313-0.027-0.47-0.041c-0.697-0.219-1.568-0.197-2.273-0.41c-0.195-0.014-0.393-0.027-0.589-0.041
		c-0.467-0.142-1.096-0.105-1.565-0.246c-0.133,0-0.263,0-0.395,0c0-0.014,0-0.027,0-0.041c-0.114,0-0.232,0-0.352,0
		c0-0.014,0-0.027,0-0.041c-0.142,0-0.286,0-0.433,0c0-0.014,0-0.027,0-0.041c-0.145,0-0.288,0-0.433,0c0-0.014,0-0.027,0-0.041
		c-0.141,0-0.284,0-0.43,0c-0.01,0-0.023,0-0.037,0c0-0.014,0-0.027,0-0.041c-0.199,0-0.391,0-0.589,0c0-0.014,0-0.027,0-0.041
		c-0.168,0-0.342,0-0.51,0c-0.418,0-0.983-0.061-1.331,0.041c-0.223,0-0.445,0-0.668,0c0,0.014,0,0.027,0,0.041
		c-0.171,0-0.339,0-0.51,0c0,0.014,0,0.027,0,0.041c-0.156,0-0.313,0-0.469,0c0,0.014,0,0.027,0,0.041c-0.155,0-0.313,0-0.473,0
		c0,0.014,0,0.027,0,0.041c-0.144,0-0.285,0-0.43,0c0,0.014,0,0.027,0,0.041c-0.156,0-0.313,0-0.472,0c0,0.014,0,0.027,0,0.041
		c-0.183,0-0.364,0-0.549,0c0,0.014,0,0.027,0,0.041c-1.346,0.027-2.69,0.055-4.035,0.082c-0.404,0.119-1.054,0.041-1.53,0.041
		c-0.156,0-0.313,0-0.469,0c0,0.014,0,0.027,0,0.041c-0.706,0-1.412,0-2.116,0c-0.196,0-0.395,0-0.589,0c0,0.014,0,0.027,0,0.041
		c-1.098,0-2.195,0-3.292,0c-1.777-0.014-3.555-0.027-5.331-0.041c0-0.014,0-0.027,0-0.041c-0.235,0-0.47,0-0.706,0
		c-0.248,0-0.495,0-0.744,0c0-0.014,0-0.027,0-0.041c-0.065,0-0.13,0-0.195,0c-0.306-0.004-0.702,0.03-0.942-0.041
		c-0.313,0-0.626,0-0.939,0c-0.232-0.068-0.627,0.029-0.863-0.041c0-0.014,0-0.027,0-0.041c-0.274,0-0.549,0-0.823,0
		c0-0.014,0-0.027,0-0.041c-0.013,0-0.026,0-0.039,0c-0.26,0-0.522,0-0.784,0c0-0.014,0-0.027,0-0.041
		c-0.366-0.014-0.732-0.027-1.097-0.041c-0.17,0-0.34,0-0.51,0c0-0.014,0-0.027,0-0.041c-0.339-0.014-0.678-0.027-1.019-0.041
		c-0.17,0-0.339,0-0.509,0c-0.19-0.056-0.53,0.022-0.745-0.041c-0.19-0.056-0.53,0.023-0.745-0.041c0-0.014,0-0.027,0-0.041
		c-0.234,0-0.47,0-0.705,0c0-0.014,0-0.027,0-0.04c-0.235,0-0.471,0-0.706,0c0-0.014,0-0.027,0-0.041
		c-0.326-0.014-0.653-0.027-0.979-0.041c-0.143,0-0.288,0-0.431,0c0-0.014,0-0.027,0-0.041c-0.902-0.041-1.804-0.082-2.706-0.123
		c0-0.014,0-0.027,0-0.041c-0.287-0.014-0.574-0.027-0.862-0.041c-0.144,0-0.288,0-0.431,0c0-0.014,0-0.027,0-0.041
		c-0.223,0-0.445,0-0.666,0c0-0.014,0-0.027,0-0.041c-0.289-0.014-0.577-0.027-0.864-0.041c-0.143,0-0.287,0-0.43,0
		c0-0.014,0-0.027,0-0.041c-0.273-0.014-0.549-0.027-0.823-0.041c-0.144,0-0.287,0-0.431,0c0-0.014,0-0.027,0-0.041
		c-0.275-0.014-0.549-0.027-0.823-0.041c-0.144,0-0.288,0-0.431,0c0-0.014,0-0.027,0-0.041c-0.209,0-0.419,0-0.628,0
		c0-0.014,0-0.027,0-0.041c-0.195,0-0.391,0-0.588,0c0-0.014,0-0.027,0-0.041c-0.274-0.014-0.549-0.027-0.823-0.041
		c-0.145,0-0.287,0-0.431,0c0-0.014,0-0.027,0-0.041c-0.196,0-0.393,0-0.588,0c0-0.014,0-0.027,0-0.041
		c-0.811-0.041-1.621-0.082-2.429-0.123c0-0.014,0-0.027,0-0.041c-0.276-0.014-0.55-0.027-0.825-0.041c-0.13,0-0.26,0-0.391,0
		c0-0.014,0-0.027,0-0.041c-0.184,0-0.367,0-0.55,0c0-0.014,0-0.027,0-0.041c-0.052,0-0.103,0-0.156,0c-0.13,0-0.261,0-0.392,0
		c0-0.014,0-0.027,0-0.041c-0.17,0-0.34,0-0.51,0c0-0.014,0-0.027,0-0.041c-0.17,0-0.339,0-0.509,0c0-0.014,0-0.027,0-0.041
		c-0.158,0-0.314,0-0.472,0c0-0.014,0-0.027,0-0.041c-0.155,0-0.312,0-0.469,0c0-0.014,0-0.027,0-0.041c-0.157,0-0.315,0-0.471,0
		c0-0.014,0-0.027,0-0.041c-0.469-0.027-0.941-0.055-1.411-0.082c0-0.014,0-0.027,0-0.041c-0.157,0-0.314,0-0.47,0
		c0-0.014,0-0.027,0-0.041c-0.157,0-0.314,0-0.47,0c0-0.014,0-0.027,0-0.041c-0.171,0-0.341,0-0.51,0c0-0.014,0-0.027,0-0.041
		c-0.169,0-0.339,0-0.509,0c0-0.014,0-0.027,0-0.041c-0.171,0-0.34,0-0.509,0c0-0.014,0-0.027,0-0.04c-0.131,0-0.262,0-0.393,0
		c-0.04,0-0.079,0-0.118,0c0-0.014,0-0.027,0-0.041c-0.195,0-0.391,0-0.588,0c0-0.014,0-0.027,0-0.041
		c-0.417-0.014-0.836-0.027-1.254-0.041c-0.191-0.057-0.529,0.021-0.745-0.041c0-0.014,0-0.027,0-0.041c-0.313,0-0.627,0-0.938,0
		c0-0.014,0-0.027,0-0.041c-0.172,0-0.342,0-0.511,0c-0.301,0-0.601,0-0.901,0c-0.352-0.103-0.914-0.041-1.333-0.041
		c-0.246,0-0.562-0.013-0.744,0.041c-0.432,0-0.863,0-1.294,0c0,0.014,0,0.027,0,0.041c-0.497,0.014-0.992,0.027-1.489,0.041
		c0,0.014,0,0.027,0,0.041c-0.261,0.014-0.523,0.027-0.785,0.041c-0.131,0-0.261,0-0.391,0c0,0.014,0,0.027,0,0.041
		c-0.184,0-0.366,0-0.55,0c-0.053,0.016,0.016,0.031-0.04,0.041c-0.143,0-0.287,0-0.431,0c0,0.013,0,0.026,0,0.04
		c-0.156,0-0.314,0-0.47,0c0,0.014,0,0.027,0,0.041c-0.144,0-0.288,0-0.431,0c0,0.014,0,0.027,0,0.041c-0.145,0-0.288,0-0.432,0
		c0,0.014,0,0.027,0,0.041c-0.143,0-0.287,0-0.431,0c0,0.014,0,0.027,0,0.041c-0.13,0-0.261,0-0.391,0c0,0.014,0,0.027,0,0.041
		c-0.367,0.027-0.732,0.055-1.098,0.082c0,0.014,0,0.027,0,0.041c-0.118,0-0.235,0-0.354,0c0,0.014,0,0.027,0,0.041
		c-0.104,0-0.209,0-0.313,0c0,0.014,0,0.027,0,0.041c-0.118,0-0.236,0-0.354,0c-0.639,0.193-1.481,0.137-2.115,0.328
		c-0.289,0.027-0.574,0.055-0.863,0.082c0,0.014,0,0.027,0,0.041c-0.091,0-0.182,0-0.274,0c0,0.014,0,0.027,0,0.041
		c-0.092,0-0.183,0-0.273,0c0,0.014,0,0.027,0,0.041c-0.092,0-0.184,0-0.275,0c-0.628,0.193-1.414,0.174-2.038,0.369
		c-0.249,0.027-0.497,0.055-0.745,0.082c0,0.014,0,0.027,0,0.041c-0.157,0.014-0.313,0.027-0.469,0.041
		c-0.633,0.198-1.411,0.211-2.04,0.409c-0.155,0.014-0.313,0.027-0.47,0.041c-0.528,0.17-1.198,0.197-1.724,0.369
		c-0.144,0.014-0.288,0.027-0.432,0.041c-0.445,0.143-1.006,0.188-1.451,0.328c-0.077,0-0.157,0-0.235,0
		c-0.431,0.139-0.979,0.19-1.411,0.328c-0.079,0-0.157,0-0.236,0c0,0.014,0,0.027,0,0.041c-0.064,0-0.13,0-0.196,0
		c0,0.014,0,0.027,0,0.041c-0.064,0-0.13,0-0.196,0c0,0.014,0,0.027,0,0.041c-0.065,0-0.131,0-0.197,0c0,0.014,0,0.027,0,0.041
		c-0.065,0-0.131,0-0.196,0c-0.818,0.277-1.755,0.4-2.547,0.696c-0.105,0.014-0.208,0.027-0.313,0.041c0,0.014,0,0.027,0,0.041
		c-0.052,0-0.104,0-0.156,0c0,0.014,0,0.027,0,0.041c-0.04,0-0.079,0-0.119,0c0,0.014,0,0.027,0,0.041
		c-0.143,0.027-0.287,0.055-0.431,0.082c0,0.014,0,0.027,0,0.041c-0.104,0.014-0.209,0.027-0.313,0.041c0,0.014,0,0.027,0,0.041
		c-0.039,0-0.079,0-0.117,0c0,0.014,0,0.027,0,0.041c-0.144,0.027-0.289,0.055-0.432,0.082c0,0.014,0,0.027,0,0.041
		c-0.104,0.014-0.208,0.027-0.313,0.041c-0.484,0.181-1.017,0.331-1.529,0.492c-0.079,0-0.158,0-0.235,0c0,0.014,0,0.027,0,0.041
		c-0.256,0.076-0.625-0.028-0.783-0.082c-0.053,0-0.106,0-0.158,0c0-0.014,0-0.027,0-0.041c-0.026,0-0.053,0-0.079,0
		c0-0.014,0-0.027,0-0.041c-0.039,0-0.078,0-0.118,0c-0.278-0.13-0.503-0.4-0.706-0.615c-0.039-0.027-0.079-0.055-0.118-0.082
		c0-0.027,0-0.055,0-0.082c-0.039-0.027-0.078-0.055-0.118-0.082c0-0.027,0-0.055,0-0.082c-0.025-0.014-0.053-0.027-0.079-0.041
		c-0.012-0.055-0.025-0.109-0.039-0.164c-0.013,0-0.026,0-0.039,0c-0.027-0.082-0.052-0.164-0.079-0.245c-0.014,0-0.026,0-0.038,0
		c0-0.041,0-0.082,0-0.123c-0.013,0-0.027,0-0.041,0c0-0.027,0-0.055,0-0.082c-0.013,0-0.024,0-0.038,0c0-0.041,0-0.082,0-0.123
		c-0.014,0-0.027,0-0.041,0c0-0.041,0-0.082,0-0.123c-0.011,0-0.024,0-0.039,0c0-0.041,0-0.082,0-0.123c-0.013,0-0.026,0-0.037,0
		c0-0.041,0-0.082,0-0.123c-0.014,0-0.028,0-0.042,0c-0.051-0.232-0.103-0.465-0.155-0.697c-0.013,0-0.027,0-0.04,0
		c0-0.041,0-0.082,0-0.123c-0.013,0-0.024,0-0.038,0c0-0.041,0-0.082,0-0.123c-0.014,0-0.028,0-0.04,0c0-0.041,0-0.082,0-0.122
		c-0.013,0-0.025,0-0.039,0c-0.014-0.096-0.026-0.191-0.039-0.287c-0.013,0-0.027,0-0.041,0c-0.013-0.109-0.026-0.219-0.038-0.328
		c-0.015,0-0.028,0-0.041,0c-0.024-0.164-0.053-0.328-0.078-0.492c-0.012,0-0.026,0-0.04,0c0-0.068,0-0.137,0-0.205
		c-0.014,0-0.027,0-0.038,0c0-0.068,0-0.137,0-0.205c-0.014,0-0.027,0-0.041,0c0-0.068,0-0.137,0-0.204c-0.014,0-0.025,0-0.04,0
		c0-0.068,0-0.137,0-0.205c-0.013,0-0.026,0-0.039,0c0-0.082,0-0.164,0-0.246c-0.096-0.338-0.101-0.801-0.195-1.148
		c0-0.122,0-0.245,0-0.368c-0.013,0-0.027,0-0.041,0c0-0.137,0-0.273,0-0.41c-0.012,0-0.025,0-0.038,0c0-0.164,0-0.328,0-0.492
		c-0.014,0-0.026,0-0.039,0c0-0.232,0-0.465,0-0.696c-0.112-0.42-0.04-1.178-0.04-1.681c0-0.293-0.021-0.676,0.04-0.902
		c0-0.232,0-0.465,0-0.696c0.013,0,0.025,0,0.039,0c0-0.15,0-0.301,0-0.451c0.122-0.45,0.074-1.065,0.197-1.517
		c0-0.15,0-0.301,0-0.451c0.012,0,0.024,0,0.038,0c0.012-0.328,0.028-0.656,0.04-0.983c0.013,0,0.026,0,0.039,0
		c0-0.178,0-0.355,0-0.533c0.014,0,0.026,0,0.04,0c0-0.178,0-0.355,0-0.533c0.013,0,0.026,0,0.041,0
		c0.011-0.26,0.024-0.52,0.038-0.778c0-0.137,0-0.273,0-0.41c0.013,0,0.028,0,0.04,0c0-0.178,0-0.355,0-0.533
		c0.012,0,0.025,0,0.039,0c0.04-0.683,0.08-1.366,0.118-2.05c0.014,0,0.028,0,0.041,0c0-0.137,0-0.272,0-0.409
		c0.012,0,0.025,0,0.039,0c0-0.137,0-0.273,0-0.41c0.014,0,0.026,0,0.039,0c0-0.123,0-0.246,0-0.369c0.012,0,0.025,0,0.04,0
		c0-0.109,0-0.219,0-0.328c0.077-0.274,0.081-0.671,0.156-0.942c0-0.096,0-0.191,0-0.287c0.012,0,0.026,0,0.041,0
		c0.013-0.164,0.024-0.328,0.037-0.492c0.159-0.543,0.194-1.19,0.354-1.722c0-0.068,0-0.137,0-0.205
		c0.071-0.234,0.126-0.546,0.195-0.778c0-0.068,0-0.137,0-0.205c0.301-0.97,0.422-2.093,0.745-3.033c0-0.055,0-0.109,0-0.164
		c0.013,0,0.026,0,0.039,0c0-0.055,0-0.109,0-0.164c0.013,0,0.026,0,0.04,0c0-0.055,0-0.109,0-0.164c0.012,0,0.025,0,0.039,0
		c0-0.055,0-0.109,0-0.164c0.014,0,0.026,0,0.039,0c0-0.041,0-0.082,0-0.123c0.013,0,0.026,0,0.04,0c0-0.055,0-0.109,0-0.164
		c0.013,0,0.025,0,0.039,0c0-0.055,0-0.109,0-0.164c0.013,0,0.027,0,0.039,0c0.013-0.096,0.025-0.191,0.04-0.286
		c0.013,0,0.026,0,0.039,0c0.013-0.109,0.026-0.219,0.04-0.328c0.246-0.715,0.42-1.545,0.665-2.255c0-0.055,0-0.109,0-0.164
		c0.014,0,0.027,0,0.04,0c0-0.041,0-0.082,0-0.123c0.014,0,0.025,0,0.04,0c0-0.055,0-0.109,0-0.164
		c0.251-0.721,0.458-1.536,0.706-2.254c0.051-0.232,0.104-0.465,0.156-0.697c0.508-1.461,0.905-3.049,1.411-4.509
		c0.013-0.096,0.026-0.191,0.04-0.287c0.275-0.729,0.49-1.549,0.783-2.255c0.027-0.123,0.053-0.246,0.079-0.369
		c0.013,0,0.026,0,0.039,0c0-0.027,0-0.055,0-0.082c0.014,0,0.026,0,0.04,0c0.026-0.123,0.053-0.246,0.078-0.368
		c0.013,0,0.026,0,0.04,0c0-0.027,0-0.055,0-0.082c0.013,0,0.026,0,0.039,0c0.026-0.123,0.053-0.246,0.079-0.369
		c0.013,0,0.026,0,0.039,0c0-0.027,0-0.055,0-0.082c0.014,0,0.027,0,0.04,0c0.014-0.082,0.026-0.164,0.039-0.246
		c0.014,0,0.026,0,0.04,0c0-0.027,0-0.055,0-0.082c0.013,0,0.026,0,0.039,0c0.013-0.082,0.026-0.164,0.04-0.246
		c0.013,0,0.026,0,0.04,0c0-0.027,0-0.055,0-0.082c0.013,0,0.026,0,0.039,0c0.013-0.082,0.026-0.164,0.04-0.246
		c0.012,0,0.025,0,0.038,0c0-0.027,0-0.055,0-0.082c0.013,0,0.027,0,0.04,0c0-0.041,0-0.082,0-0.123c0.013,0,0.026,0,0.04,0
		c0-0.04,0-0.081,0-0.122c0.35-0.841,0.653-1.761,0.98-2.624c0.066-0.246,0.131-0.492,0.196-0.737c0.013,0,0.026,0,0.038,0
		c0-0.027,0-0.055,0-0.082c0.015,0,0.028,0,0.04,0c0.026-0.123,0.053-0.246,0.078-0.369c0.014,0,0.027,0,0.041,0
		c0.012-0.055,0.025-0.109,0.039-0.164c0.014,0,0.026,0,0.039,0c0.04-0.123,0.079-0.246,0.118-0.369
		c0.026-0.014,0.052-0.027,0.079-0.041c0.013-0.055,0.027-0.109,0.04-0.164c0.026-0.014,0.053-0.027,0.078-0.041
		c0-0.027,0-0.055,0-0.082c0.04-0.027,0.079-0.055,0.119-0.081c0-0.027,0-0.055,0-0.082c0.09-0.082,0.182-0.164,0.273-0.246
		c0.053-0.068,0.105-0.137,0.157-0.205c0.026,0,0.052,0,0.079,0c0.013-0.027,0.025-0.055,0.039-0.082c0.027,0,0.053,0,0.079,0
		c0.013-0.027,0.026-0.055,0.04-0.082c0.078-0.027,0.155-0.055,0.234-0.082c0-0.014,0-0.027,0-0.041
		c0.079-0.027,0.158-0.055,0.235-0.082c0-0.014,0-0.027,0-0.041c0.04,0,0.079,0,0.119,0c0-0.014,0-0.027,0-0.041
		c0.025,0,0.052,0,0.077,0c0-0.014,0-0.027,0-0.041c0.34-0.096,0.68-0.191,1.02-0.287c0.078,0,0.157,0,0.234,0
		c0-0.014,0-0.027,0-0.041c0.078,0,0.157,0,0.235,0c0-0.014,0-0.027,0-0.041c0.092,0,0.182,0,0.274,0c0-0.014,0-0.027,0-0.041
		c0.118,0,0.235,0,0.353,0c0-0.014,0-0.027,0-0.041c0.393-0.027,0.784-0.055,1.175-0.082c1.177-0.204,2.352-0.409,3.528-0.614
		c0.091,0,0.183,0,0.274,0c0.229-0.07,0.559-0.096,0.785-0.164c0.09,0,0.182,0,0.275,0c0.326-0.101,0.769-0.105,1.096-0.205
		c0.654-0.082,1.307-0.164,1.96-0.246c0.415-0.127,0.958-0.12,1.373-0.246c0.104,0,0.208,0,0.312,0
		c0.241-0.072,0.585-0.091,0.824-0.164c0.092,0,0.183,0,0.275,0c0-0.014,0-0.027,0-0.041c0.092,0,0.184,0,0.274,0
		c0-0.014,0-0.027,0-0.041c0.091,0,0.184,0,0.273,0c0-0.014,0-0.027,0-0.041c0.093,0,0.184,0,0.274,0
		c0.571-0.176,1.308-0.152,1.882-0.327c0.183-0.014,0.366-0.027,0.55-0.041c0-0.014,0-0.027,0-0.041c0.089,0,0.182,0,0.274,0
		c0-0.014,0-0.027,0-0.041c0.091,0,0.183,0,0.273,0c0-0.014,0-0.027,0-0.041c0.092,0,0.184,0,0.274,0c0-0.014,0-0.027,0-0.041
		c0.196-0.014,0.393-0.027,0.589-0.041c0.52-0.16,1.202-0.129,1.725-0.287c0.197-0.014,0.392-0.027,0.588-0.041
		c0.546-0.167,1.254-0.122,1.803-0.287c0.208-0.014,0.418-0.027,0.627-0.041c0-0.014,0-0.027,0-0.041c0.104,0,0.21,0,0.313,0
		c0-0.014,0-0.027,0-0.041c0.104,0,0.21,0,0.313,0c0.485-0.146,1.12-0.1,1.607-0.246c0.209-0.014,0.419-0.027,0.628-0.041
		c0-0.014,0-0.027,0-0.041c0.34-0.027,0.679-0.055,1.019-0.082c0.504-0.151,1.177-0.094,1.685-0.245c0.118,0,0.236,0,0.354,0
		c0-0.014,0-0.027,0-0.041c0.116,0,0.234,0,0.353,0c0-0.014,0-0.027,0-0.041c0.117,0,0.235,0,0.353,0c0-0.014,0-0.027,0-0.041
		c0.117,0,0.235,0,0.353,0c0-0.014,0-0.027,0-0.041c0.117,0,0.235,0,0.353,0c0-0.014,0-0.027,0-0.041c0.116,0,0.235,0,0.352,0
		c0-0.014,0-0.027,0-0.041c0.119,0,0.236,0,0.353,0c0-0.014,0-0.027,0-0.041c0.378-0.027,0.758-0.055,1.137-0.082
		c0.443-0.133,1.045-0.073,1.49-0.205c0.131,0,0.262,0,0.392,0c0-0.014,0-0.027,0-0.041c0.13,0,0.261,0,0.392,0
		c0-0.014,0-0.027,0-0.041c0.131,0,0.262,0,0.392,0c0-0.014,0-0.027,0-0.041c0.131,0,0.262,0,0.394,0c0-0.014,0-0.027,0-0.041
		c0.13,0,0.261,0,0.391,0c0-0.014,0-0.027,0-0.041c0.144,0,0.29,0,0.432,0c0-0.014,0-0.027,0-0.041c0.131,0,0.261,0,0.392,0
		c0-0.014,0-0.027,0-0.041c0.143,0,0.287,0,0.431,0c0-0.014,0-0.027,0-0.041c0.13,0,0.26,0,0.392,0c0-0.014,0-0.027,0-0.041
		c0.562-0.041,1.125-0.082,1.685-0.123c0-0.014,0-0.027,0-0.041c0.158,0,0.313,0,0.471,0c0-0.014,0-0.027,0-0.041
		c0.143,0,0.287,0,0.431,0c0-0.014,0-0.027,0-0.041c0.145,0,0.288,0,0.431,0c0-0.014,0-0.027,0-0.041c0.156,0,0.314,0,0.47,0
		c0-0.014,0-0.027,0-0.041c0.143,0,0.287,0,0.432,0c0-0.014,0-0.027,0-0.041c0.156,0,0.313,0,0.47,0c0-0.014,0-0.027,0-0.041
		c0.157,0,0.314,0,0.471,0c0-0.014,0-0.027,0-0.041c0.155,0,0.313,0,0.469,0c0-0.014,0-0.027,0-0.041c0.157,0,0.313,0,0.47,0
		c0-0.014,0-0.027,0-0.041c0.157,0,0.314,0,0.471,0c0-0.014,0-0.027,0-0.041c0.156,0,0.313,0,0.47,0c0,0,0.002-0.034,0.079-0.041
		c0.143,0,0.287,0,0.431,0c0-0.014,0-0.027,0-0.041c0.168,0,0.339,0,0.508,0c0-0.013,0-0.026,0-0.04c0.158,0,0.315,0,0.472,0
		c0,0,0.003-0.034,0.078-0.041c0.145,0,0.29,0,0.432,0c0-0.014,0-0.027,0-0.041c0.535-0.027,1.071-0.055,1.608-0.082
		c0-0.014,0-0.027,0-0.041c0.287-0.014,0.575-0.027,0.861-0.041c0.144,0,0.29,0,0.432,0c0-0.014,0-0.027,0-0.041
		c0.339,0,0.68,0,1.018,0c0.261-0.077,0.693-0.041,1.02-0.041c0.47-0.014,0.941-0.027,1.411-0.041c0.523,0,1.045,0,1.568,0
		c0.279,0,0.646,0.022,0.862-0.041c0.157,0,0.314,0,0.47,0c0.477,0,1.125,0.078,1.528-0.041c0.262,0,0.523,0,0.785,0
		c0.367-0.014,0.732-0.027,1.097-0.041c0-0.014,0-0.027,0-0.041c0.209,0,0.418,0,0.627,0c0-0.014,0-0.027,0-0.041
		c0.327-0.014,0.653-0.027,0.98-0.041c0-0.014,0-0.027,0-0.041c0.143,0,0.287,0,0.432,0c0.4-0.119,0.937-0.087,1.332-0.205
		c0.118,0,0.235,0,0.353,0c0-0.014,0-0.027,0-0.041c0.235-0.014,0.471-0.027,0.706-0.041C52.346,80.546,52.507,80.567,52.575,80.506
		z"/>
	<g>
		<g>
			<path fill="#FFFFFF" d="M103.998,93.138c0.038-0.659-0.311-1.144-1.048-1.453c-0.66-0.194-1.319-0.389-1.979-0.582
				c-0.466-0.155-0.949-0.137-1.456,0.058c-0.502,0.194-0.794,0.524-0.871,0.989c-0.155,1.047-1.123,5.468-2.909,13.263
				c-1.164,5.274-1.746,9.733-1.746,13.379c0,0.813,0.02,1.628,0.06,2.442c0.114,1.551,1.164,2.521,3.141,2.908
				c0.35,0.078,0.729-0.028,1.134-0.319c0.409-0.291,0.612-0.611,0.612-0.96c-0.116-3.916,0.58-8.938,2.094-15.065
				C102.777,100.738,103.766,95.853,103.998,93.138z M97.334,126.821c-0.598-0.467-1.21-0.739-1.831-0.817
				c-0.351-0.038-0.949,0.224-1.805,0.788c-0.854,0.564-1.221,1.117-1.105,1.662c0.272,1.245,1.436,2.256,3.493,3.034
				c0.155,0.038,0.311-0.02,0.465-0.175c0.154-0.156,0.396-0.243,0.728-0.263c0.326-0.02,0.612-0.292,0.841-0.816
				c0.235-0.526,0.314-1.061,0.235-1.605C98.275,127.891,97.937,127.288,97.334,126.821z M50.667,124.399
				c-0.304-0.151-0.607-0.247-0.911-0.285c-0.058-0.006-0.181-0.024-0.371-0.057c-0.132-0.025-0.24-0.038-0.323-0.038
				c-0.176,0-0.338,0.054-0.483,0.161c0,0.032-0.014,0.073-0.043,0.124c-0.027,0.051-0.039,0.089-0.032,0.114
				c0.094,0.208,0.291,0.341,0.588,0.398c0.044,0.81,0.027,1.695-0.047,2.657c-0.083,0.058-0.147,0.109-0.195,0.157
				c-0.047,0.047-0.072,0.1-0.072,0.156c0,0.114,0.067,0.216,0.199,0.304c-0.057,0.412-0.091,0.934-0.104,1.566
				c-0.014,0.525-0.025,1.054-0.039,1.586c0.082,0.171,0.228,0.256,0.437,0.256c0.088,0,0.171-0.022,0.247-0.066
				c0.304-0.177,0.607-0.354,0.911-0.531c0.375-0.229,0.656-0.459,0.845-0.693c0.249-0.304,0.372-0.636,0.372-0.997
				c0-0.468-0.263-0.873-0.788-1.215c-0.103-0.044-0.208-0.09-0.318-0.138c-0.111-0.047-0.176-0.118-0.194-0.214
				c0.322-0.221,0.645-0.445,0.969-0.674c0.334-0.278,0.543-0.588,0.625-0.93c0.039-0.165,0.016-0.367-0.067-0.607
				C51.752,125.099,51.351,124.754,50.667,124.399z M50.601,128.586c0.12,0.146,0.18,0.313,0.18,0.503
				c0,0.063-0.006,0.13-0.019,0.199c-0.05,0.228-0.133,0.408-0.246,0.541c-0.065,0.076-0.177,0.163-0.338,0.262
				c-0.161,0.098-0.28,0.191-0.355,0.279c-0.051-0.164-0.076-0.348-0.076-0.55c0-0.14,0.017-0.347,0.052-0.622
				c0.034-0.275,0.052-0.479,0.052-0.612c0-0.076-0.003-0.146-0.009-0.209c0.043-0.019,0.091-0.028,0.142-0.028
				C50.072,128.349,50.278,128.428,50.601,128.586z M50.866,126.213c-0.146,0.209-0.313,0.357-0.503,0.445
				c-0.013,0.007-0.063,0.043-0.151,0.109c-0.089,0.066-0.156,0.1-0.2,0.1c0.007-0.202,0-0.483-0.018-0.845
				c-0.026-0.392-0.039-0.671-0.039-0.835c0-0.12,0.002-0.234,0.01-0.342c0.031-0.013,0.06-0.02,0.084-0.02
				c0.051,0,0.115,0.025,0.19,0.076c0.108,0.063,0.187,0.104,0.238,0.124c0.348,0.126,0.538,0.307,0.57,0.541
				C51.072,125.789,51.011,126.004,50.866,126.213z M55.565,125.007c-0.228-0.133-0.428-0.199-0.597-0.199
				c-0.045,0-0.083,0.003-0.114,0.01c-0.311,0.076-0.618,0.155-0.921,0.237c-0.354,0.095-0.652,0.202-0.891,0.322
				c-0.203,0.082-0.405,0.165-0.608,0.247c-0.216,0.107-0.326,0.253-0.333,0.437c-0.006,0.196,0.167,0.329,0.522,0.398
				c-0.037,0.551-0.063,0.852-0.076,0.902s-0.064,0.1-0.155,0.147c-0.092,0.047-0.141,0.1-0.148,0.156
				c-0.02,0.114,0.06,0.231,0.236,0.352c-0.057,0.437-0.057,0.93,0,1.48c0.021,0.189,0.103,0.36,0.247,0.513
				c0.146,0.151,0.309,0.25,0.486,0.294c0.563,0.146,1.228,0.206,1.992,0.181c0.102-0.007,0.179-0.052,0.233-0.138
				c0.054-0.085,0.072-0.179,0.053-0.28c-0.057-0.304-0.175-0.437-0.352-0.398c-0.037,0-0.085,0.023-0.142,0.071
				s-0.11,0.071-0.16,0.071c-0.735,0.031-1.251-0.058-1.548-0.266c-0.049-0.107-0.075-0.253-0.075-0.438
				c0-0.271,0.059-0.642,0.18-1.11c0.177-0.069,0.414-0.107,0.711-0.114c0.355-0.006,0.6-0.024,0.732-0.057
				c0.076,0.007,0.139-0.019,0.19-0.076c0.076-0.082,0.119-0.126,0.133-0.133c0.043-0.025,0.066-0.06,0.066-0.104
				c0-0.038-0.045-0.12-0.133-0.246c-0.127-0.076-0.28-0.114-0.456-0.114c-0.096,0-0.244,0.016-0.447,0.048
				c-0.202,0.031-0.351,0.047-0.446,0.047c-0.133,0-0.251-0.019-0.352-0.057c0.025-0.569,0.066-0.937,0.124-1.102
				c0.233-0.095,0.579-0.205,1.034-0.332c0.456-0.126,0.801-0.237,1.035-0.332c0.045-0.032,0.066-0.073,0.066-0.124
				c0-0.031-0.013-0.082-0.038-0.151C55.587,125.08,55.572,125.032,55.565,125.007z M57.787,124.399
				c-0.304-0.151-0.608-0.247-0.911-0.285c-0.058-0.006-0.181-0.024-0.371-0.057c-0.134-0.025-0.241-0.038-0.323-0.038
				c-0.177,0-0.338,0.054-0.484,0.161c0,0.032-0.013,0.073-0.042,0.124s-0.039,0.089-0.033,0.114
				c0.094,0.208,0.291,0.341,0.589,0.398c0.043,0.81,0.028,1.695-0.049,2.657c-0.081,0.058-0.146,0.109-0.194,0.157
				c-0.047,0.047-0.071,0.1-0.071,0.156c0,0.114,0.067,0.216,0.2,0.304c-0.058,0.412-0.092,0.934-0.105,1.566
				c-0.012,0.525-0.025,1.054-0.038,1.586c0.082,0.171,0.228,0.256,0.437,0.256c0.089,0,0.171-0.022,0.247-0.066
				c0.304-0.177,0.608-0.354,0.912-0.531c0.374-0.229,0.655-0.459,0.845-0.693c0.248-0.304,0.37-0.636,0.37-0.997
				c0-0.468-0.263-0.873-0.789-1.215c-0.101-0.044-0.206-0.09-0.317-0.138c-0.112-0.047-0.176-0.118-0.195-0.214
				c0.323-0.221,0.646-0.445,0.969-0.674c0.334-0.278,0.545-0.588,0.625-0.93c0.039-0.165,0.016-0.367-0.066-0.607
				C58.873,125.099,58.47,124.754,57.787,124.399z M57.721,128.586c0.12,0.146,0.18,0.313,0.18,0.503
				c0,0.063-0.006,0.13-0.018,0.199c-0.051,0.228-0.133,0.408-0.247,0.541c-0.063,0.076-0.175,0.163-0.337,0.262
				c-0.162,0.098-0.281,0.191-0.356,0.279c-0.051-0.164-0.076-0.348-0.076-0.55c0-0.14,0.017-0.347,0.051-0.622
				c0.035-0.275,0.053-0.479,0.053-0.612c0-0.076-0.002-0.146-0.009-0.209c0.045-0.019,0.092-0.028,0.143-0.028
				C57.192,128.349,57.398,128.428,57.721,128.586z M57.986,126.213c-0.146,0.209-0.313,0.357-0.503,0.445
				c-0.012,0.007-0.063,0.043-0.152,0.109c-0.089,0.066-0.155,0.1-0.199,0.1c0.006-0.202,0-0.483-0.02-0.845
				c-0.024-0.392-0.037-0.671-0.037-0.835c0-0.12,0.002-0.234,0.008-0.342c0.032-0.013,0.061-0.02,0.086-0.02
				c0.05,0,0.114,0.025,0.19,0.076c0.108,0.063,0.186,0.104,0.238,0.124c0.348,0.126,0.538,0.307,0.57,0.541
				C58.191,125.789,58.132,126.004,57.986,126.213z M61.878,126.022c-0.031-0.259-0.067-0.519-0.105-0.778
				c-0.05-0.304-0.163-0.531-0.342-0.684c-0.07-0.057-0.147-0.085-0.236-0.085c-0.121,0-0.2,0.044-0.238,0.133
				c-0.164,0.398-0.351,0.972-0.56,1.718c-0.247,0.861-0.428,1.449-0.542,1.766c-0.013,0.045-0.071,0.078-0.176,0.1
				c-0.104,0.022-0.17,0.051-0.199,0.086c-0.028,0.035-0.042,0.068-0.042,0.1c0,0.038,0.043,0.092,0.132,0.161
				c0.087,0.07,0.129,0.133,0.123,0.19c-0.018,0.196-0.123,0.525-0.313,0.987c-0.158,0.404-0.229,0.728-0.209,0.968
				c0.013,0.12,0.125,0.215,0.333,0.285c0.164,0.051,0.271,0.019,0.322-0.095c0.101-0.241,0.206-0.592,0.313-1.054
				c0.114-0.5,0.206-0.849,0.276-1.045c0.139-0.12,0.332-0.196,0.579-0.228c0.217-0.02,0.43-0.038,0.645-0.057
				c0.12,0.322,0.226,0.725,0.313,1.205c0.083,0.443,0.279,0.693,0.589,0.75c0.037,0.006,0.11-0.038,0.219-0.133
				c0.108-0.095,0.161-0.206,0.161-0.332c0-0.076-0.019-0.165-0.056-0.266C62.524,128.747,62.195,127.517,61.878,126.022z
				 M60.681,127.931c0.141-0.525,0.305-1.051,0.494-1.575c0.057,0.253,0.118,0.506,0.181,0.759c0.064,0.291,0.105,0.554,0.125,0.788
				C61.05,127.902,60.784,127.912,60.681,127.931z M64.109,126.555c-0.056-0.158-0.085-0.329-0.085-0.513
				c0-0.494,0.171-0.911,0.512-1.253c0.039-0.038,0.077-0.058,0.116-0.058c0.005,0,0.053,0.013,0.141,0.038
				c0.058,0.02,0.112,0.016,0.164-0.01c0.183-0.095,0.275-0.205,0.275-0.332c0-0.069-0.032-0.139-0.096-0.209
				c-0.133-0.146-0.333-0.218-0.599-0.218c-0.138,0-0.28,0.034-0.427,0.104c-0.315,0.151-0.559,0.401-0.731,0.75
				c-0.151,0.304-0.227,0.648-0.227,1.034c0,0.469,0.204,1.094,0.613,1.875c0.407,0.781,0.612,1.378,0.612,1.789
				c0,0.291-0.066,0.576-0.199,0.854c-0.031,0.069-0.095,0.107-0.19,0.114c-0.095,0.006-0.154,0.025-0.18,0.057
				c-0.096,0.107-0.142,0.199-0.142,0.275c0,0.127,0.093,0.231,0.284,0.313c0.05,0.019,0.105,0.028,0.161,0.028
				c0.146,0,0.31-0.066,0.493-0.199c0.229-0.171,0.371-0.311,0.428-0.418c0.17-0.322,0.256-0.658,0.256-1.006
				c0-0.424-0.152-0.94-0.455-1.548C64.375,127.114,64.135,126.624,64.109,126.555z M70.196,124.399
				c-0.306-0.151-0.611-0.247-0.913-0.285c-0.055-0.006-0.18-0.024-0.372-0.057c-0.133-0.025-0.239-0.038-0.32-0.038
				c-0.179,0-0.341,0.054-0.486,0.161c0,0.032-0.012,0.073-0.042,0.124c-0.027,0.051-0.039,0.089-0.032,0.114
				c0.095,0.208,0.29,0.341,0.589,0.398c0.043,0.81,0.027,1.695-0.048,2.657c-0.083,0.058-0.146,0.109-0.195,0.157
				c-0.047,0.047-0.07,0.1-0.07,0.156c0,0.114,0.065,0.216,0.199,0.304c-0.056,0.412-0.093,0.934-0.105,1.566
				c-0.013,0.525-0.024,1.054-0.038,1.586c0.083,0.171,0.229,0.256,0.438,0.256c0.088,0,0.171-0.022,0.246-0.066
				c0.306-0.177,0.609-0.354,0.912-0.531c0.375-0.229,0.655-0.459,0.845-0.693c0.247-0.304,0.369-0.636,0.369-0.997
				c0-0.468-0.263-0.873-0.787-1.215c-0.102-0.044-0.206-0.09-0.315-0.138c-0.112-0.047-0.178-0.118-0.197-0.214
				c0.325-0.221,0.646-0.445,0.971-0.674c0.331-0.278,0.544-0.588,0.624-0.93c0.041-0.165,0.018-0.367-0.065-0.607
				C71.281,125.099,70.879,124.754,70.196,124.399z M70.129,128.586c0.12,0.146,0.18,0.313,0.18,0.503
				c0,0.063-0.006,0.13-0.02,0.199c-0.053,0.228-0.133,0.408-0.245,0.541c-0.065,0.076-0.176,0.163-0.338,0.262
				c-0.161,0.098-0.28,0.191-0.355,0.279c-0.053-0.164-0.077-0.348-0.077-0.55c0-0.14,0.018-0.347,0.051-0.622
				c0.037-0.275,0.053-0.479,0.053-0.612c0-0.076-0.003-0.146-0.008-0.209c0.044-0.019,0.091-0.028,0.142-0.028
				C69.599,128.349,69.807,128.428,70.129,128.586z M70.393,126.213c-0.144,0.209-0.313,0.357-0.502,0.445
				c-0.014,0.007-0.064,0.043-0.15,0.109c-0.09,0.066-0.157,0.1-0.198,0.1c0.003-0.202,0-0.483-0.02-0.845
				c-0.027-0.392-0.039-0.671-0.039-0.835c0-0.12,0.003-0.234,0.009-0.342c0.032-0.013,0.061-0.02,0.084-0.02
				c0.052,0,0.115,0.025,0.191,0.076c0.108,0.063,0.187,0.104,0.236,0.124c0.348,0.126,0.538,0.307,0.572,0.541
				C70.601,125.789,70.539,126.004,70.393,126.213z M75.093,125.007c-0.227-0.133-0.427-0.199-0.599-0.199
				c-0.043,0-0.082,0.003-0.114,0.01c-0.311,0.076-0.615,0.155-0.92,0.237c-0.354,0.095-0.651,0.202-0.893,0.322
				c-0.205,0.082-0.405,0.165-0.608,0.247c-0.214,0.107-0.325,0.253-0.329,0.437c-0.008,0.196,0.168,0.329,0.52,0.398
				c-0.038,0.551-0.063,0.852-0.075,0.902s-0.064,0.1-0.156,0.147c-0.094,0.047-0.142,0.1-0.148,0.156
				c-0.017,0.114,0.06,0.231,0.238,0.352c-0.056,0.437-0.056,0.93,0,1.48c0.018,0.189,0.1,0.36,0.246,0.513
				c0.145,0.151,0.308,0.25,0.486,0.294c0.561,0.146,1.227,0.206,1.993,0.181c0.101-0.007,0.178-0.052,0.232-0.138
				c0.054-0.085,0.07-0.179,0.052-0.28c-0.057-0.304-0.174-0.437-0.352-0.398c-0.038,0-0.085,0.023-0.142,0.071
				c-0.059,0.048-0.112,0.071-0.163,0.071c-0.732,0.031-1.246-0.058-1.547-0.266c-0.052-0.107-0.074-0.253-0.074-0.438
				c0-0.271,0.057-0.642,0.179-1.11c0.177-0.069,0.415-0.107,0.713-0.114c0.354-0.006,0.597-0.024,0.729-0.057
				c0.078,0.007,0.142-0.019,0.189-0.076c0.077-0.082,0.121-0.126,0.134-0.133c0.045-0.025,0.067-0.06,0.067-0.104
				c0-0.038-0.045-0.12-0.133-0.246c-0.126-0.076-0.281-0.114-0.457-0.114c-0.094,0-0.244,0.016-0.446,0.048
				c-0.199,0.031-0.35,0.047-0.444,0.047c-0.133,0-0.249-0.019-0.353-0.057c0.025-0.569,0.068-0.937,0.122-1.102
				c0.235-0.095,0.581-0.205,1.035-0.332c0.457-0.126,0.803-0.237,1.036-0.332c0.046-0.032,0.067-0.073,0.067-0.124
				c0-0.031-0.015-0.082-0.039-0.151C75.115,125.08,75.101,125.032,75.093,125.007z M79.755,125.33
				c-0.006-0.013-0.006-0.058,0-0.133c0-0.063-0.008-0.096-0.026-0.096c-0.015,0-0.037,0.01-0.061,0.029
				c-0.12-0.07-0.241-0.104-0.36-0.104c-0.151,0-0.26,0.06-0.323,0.18c0.014,0.158,0.019,0.32,0.019,0.484
				c0,0.424-0.05,1.063-0.155,1.918c-0.106,0.854-0.155,1.496-0.155,1.927c0,0.028,0.004,0.052,0.004,0.08
				c-0.13-0.14-0.263-0.28-0.432-0.432c-0.69-0.626-1.04-0.942-1.047-0.949c-0.1-0.082-0.2-0.164-0.302-0.247
				c-0.133-0.113-0.199-0.212-0.199-0.294c0-0.076,0.057-0.146,0.171-0.209c0.28-0.151,0.513-0.36,0.703-0.626
				c0.222-0.298,0.333-0.595,0.333-0.893c0-0.354-0.116-0.684-0.353-0.987c-0.254-0.329-0.55-0.5-0.893-0.513
				c-0.677-0.031-1.047,0.148-1.113,0.541c-0.094,0.589-0.139,1.313-0.139,2.174v1.035c-0.008,0.506-0.022,0.942-0.048,1.31
				c-0.007,0.045-0.022,0.158-0.05,0.342c-0.024,0.158-0.036,0.285-0.036,0.38c0,0.322,0.138,0.516,0.415,0.579
				c0.048,0.013,0.102,0.003,0.17-0.028c0.063-0.032,0.104-0.048,0.115-0.048c0.082-0.31,0.141-0.728,0.174-1.253
				c0.05-0.696,0.085-1.126,0.104-1.291c0.272,0.234,0.686,0.652,1.242,1.253c0.5,0.538,0.92,0.937,1.254,1.196
				c0.118-0.029,0.207-0.066,0.279-0.106c0.046,0.012,0.073,0.037,0.129,0.04c0.19,0.006,0.315-0.079,0.37-0.257
				c-0.007-0.158-0.011-0.319-0.011-0.483c0-0.443,0.045-1.099,0.134-1.966c0.091-0.866,0.132-1.516,0.132-1.945
				c0-0.196-0.005-0.387-0.019-0.57C79.771,125.361,79.762,125.349,79.755,125.33z M76.299,127.104c0.012-0.164,0.012-0.376,0-0.636
				c-0.019-0.342-0.028-0.554-0.028-0.636c0-0.202,0.017-0.383,0.048-0.541c0.037-0.095,0.132-0.143,0.283-0.143
				c0.205,0,0.35,0.054,0.442,0.161c0.091,0.107,0.147,0.229,0.166,0.361c0.005,0.088,0,0.189-0.019,0.304
				C77.122,126.336,76.823,126.713,76.299,127.104z M81.227,126.555c-0.056-0.158-0.087-0.329-0.087-0.513
				c0-0.494,0.172-0.911,0.512-1.253c0.042-0.038,0.078-0.058,0.115-0.058c0.005,0,0.056,0.013,0.143,0.038
				c0.058,0.02,0.11,0.016,0.162-0.01c0.183-0.095,0.276-0.205,0.276-0.332c0-0.069-0.034-0.139-0.098-0.209
				c-0.132-0.146-0.332-0.218-0.599-0.218c-0.138,0-0.28,0.034-0.425,0.104c-0.316,0.151-0.562,0.401-0.732,0.75
				c-0.151,0.304-0.226,0.648-0.226,1.034c0,0.469,0.2,1.094,0.61,1.875s0.613,1.378,0.613,1.789c0,0.291-0.064,0.576-0.198,0.854
				c-0.036,0.069-0.096,0.107-0.192,0.114c-0.097,0.006-0.154,0.025-0.18,0.057c-0.094,0.107-0.143,0.199-0.143,0.275
				c0,0.127,0.093,0.231,0.285,0.313c0.049,0.019,0.106,0.028,0.162,0.028c0.145,0,0.309-0.066,0.493-0.199
				c0.229-0.171,0.371-0.311,0.427-0.418c0.17-0.322,0.255-0.658,0.255-1.006c0-0.424-0.151-0.94-0.452-1.548
				C81.492,127.114,81.25,126.624,81.227,126.555z M83.997,125.33c-0.007-0.013-0.007-0.058,0-0.133c0-0.063-0.01-0.096-0.028-0.096
				c-0.013,0-0.03,0.01-0.058,0.029c-0.118-0.07-0.239-0.104-0.36-0.104c-0.15,0-0.259,0.06-0.319,0.18
				c0.01,0.158,0.016,0.32,0.016,0.484c0,0.424-0.052,1.063-0.155,1.918c-0.105,0.854-0.158,1.496-0.158,1.927
				c0,0.247,0.014,0.48,0.039,0.702c0.027,0.222,0.175,0.339,0.445,0.352c0.19,0.006,0.313-0.079,0.371-0.257
				c-0.007-0.158-0.011-0.319-0.011-0.483c0-0.443,0.045-1.099,0.133-1.966c0.089-0.866,0.134-1.516,0.134-1.945
				c0-0.196-0.008-0.387-0.019-0.57C84.013,125.361,84.005,125.349,83.997,125.33z M86.703,128.842
				c-0.397-0.233-0.793-0.468-1.186-0.702c0.169-0.266,0.559-0.712,1.168-1.339c0.519-0.537,0.865-1.003,1.044-1.396
				c-0.013-0.171-0.144-0.256-0.391-0.256c-0.089,0-0.17,0.016-0.247,0.048c-0.276,0.329-0.56,0.654-0.844,0.978
				c-0.336,0.386-0.632,0.696-0.892,0.93c0.013-0.506-0.03-1.189-0.124-2.05c-0.008-0.076-0.055-0.132-0.142-0.166
				c-0.089-0.035-0.173-0.065-0.257-0.091c-0.082,0.013-0.164,0.025-0.238,0.038c-0.101,0.025-0.144,0.076-0.133,0.152
				c0.088,0.493,0.133,1.076,0.133,1.746c0,0.222-0.005,0.553-0.017,0.992c-0.017,0.44-0.021,0.771-0.021,0.992
				c0,0.614,0.038,1.148,0.112,1.604c0.027,0.164,0.122,0.275,0.287,0.332c0.019,0.044,0.066,0.066,0.142,0.066
				c0.07,0,0.124-0.013,0.162-0.038c0.133-0.057,0.198-0.161,0.198-0.313c0-0.044-0.005-0.117-0.019-0.218
				c-0.014-0.102-0.018-0.178-0.018-0.229c-0.013-0.437-0.029-0.771-0.048-1.006c0.893,0.531,1.551,0.931,1.973,1.196
				c0.04,0.025,0.074,0.038,0.106,0.038c0.03,0,0.076-0.016,0.139-0.048c0.058-0.031,0.108-0.047,0.145-0.047
				c0.02,0,0.043,0.003,0.067,0.009c0.051-0.151,0.075-0.246,0.075-0.284c0-0.058-0.018-0.102-0.057-0.133
				C87.521,129.39,87.147,129.121,86.703,128.842z M5.537,117.609c-0.521-4.608-0.521-9.392-0.87-14.174
				c-0.217-0.435-0.174-1.218-0.174-1.913c-0.477-1.479-0.607-3.348-1.044-4.826c-0.347-1.87-0.26-4.261-1.13-5.435
				c-0.957,0.043-1.304,0.391-2.043,0.695c-0.782,3.261-1.348,6.739-2.174,9.913c-0.695-2.043-1.61-3.782-2.348-5.782v-0.609
				c-0.739-1.087-0.913-2.956-2.087-3.521c-0.347,0.435-0.652,0.131-1.173,0.261c-0.13,0.348-0.218,0.826-0.521,1v2
				c-0.392,2.348,0,5.435-0.175,7.957c-0.043,0.652-0.217,1.304-0.26,1.826c0,0.174,0.129,0.348,0.129,0.435
				c0,0.608-0.26,1.565-0.129,2.174c0.26,0.435,0.042,1.521,0.129,2.218c0.217,2.478-0.174,6.348,0,8.826
				c0.305,0.087,0.522-0.436,0.696,0c0.217-0.348,0.521-0.565,0.87-0.522c0.738-2.391,0.521-6.782,0.825-9.174
				c-0.434-2.174-0.13-5.174,0.219-7.348c-0.175-0.739-0.306-1.957-0.131-2.826c0.391,0.826,0.739,1.695,0.913,2.826
				c0.653,1.087,0.826,2.826,1.218,4.261c0.304,0.348,0.522,0.739,0.522,1.392c0.478,0.261,0.434,1.217,1,1.348
				c0.173,0.782,0.695,1.044,1.086,1.565c0.348-0.044,0.696-0.044,0.87,0.174c1.13-0.392,0.347-2.392,0.695-3.695
				c-0.13-1.696,0.393-3.913,0.914-5.305c0.738,5.521,0.696,12.131,1.174,18c0.392,0.435,1.043,0.521,1.088,1.392
				c0.217,0,0.434-0.044,0.392,0.261c0.216-0.261,0.739-0.131,1.042-0.261c0.13-0.392,0.348-0.609,0.522-0.87
				C5.711,118.957,5.189,118.262,5.537,117.609z M17.669,113.044c-0.479-2.782-1.044-5.521-1.219-8.652
				c-0.218-0.956-0.434-2-0.434-3.217c-0.347-0.87-0.608-1.826-0.608-3.131c-0.608-1.869-1.088-3.913-1.783-5.695
				c-0.261-0.087-0.566-0.174-0.522-0.609c-0.652-0.348-1.001,0.565-1.435,0.174c-0.306,0.522-0.652,0.957-1.175,1.218
				c-0.391,2-0.304,4.044-0.522,6.131c-0.173,1.261-0.564,3.479-0.781,4.608c-0.218,1.087-0.262,2.305-0.436,3.348
				c-0.044,0.305-0.261,0.522-0.305,0.783c-0.13,0.739-0.173,2-0.216,2.348c-0.261,3.131,0.086,6.392-0.696,8.739
				c0.782,0.305,1.173,0.043,1.74,0.174c0.217-0.174,0.261-0.565,0.694-0.521c-0.042-0.435,0.131-0.609,0.262-0.87
				c0.131-2.261,0.695-3.913,0.826-6.13c1.174,0.217,1.696,0.13,3,0.087c0.261,2.261,0.565,4.435,1.349,6.043
				c0.955,0.087,1.391,0.783,2.303,0.436c0.13-0.392,0.392-0.652,0.522-1.044C18.06,115.957,17.363,114.349,17.669,113.044z
				 M11.059,109.392c0.392-2.608,1.131-4.826,1.348-7.695c0.086,0.044,0.13,0.087,0.217,0.087c0.349,2.521,0.61,5.131,1.001,7.608
				C12.885,109.479,11.798,109.566,11.059,109.392z M30.408,106.565c-0.435-0.738-1.045-0.564-1.608-0.912
				c-0.176,0.043-0.261,0.217-0.436,0.261c-1.652-0.174-2.739,0.521-4.044,0.869c0.044,0.348-0.348,0.131-0.26,0.521
				c0.868,0.696,1.608,1.957,3,1.479c0,0.608,0.173,1.044,0.042,1.826c0,0.131,0.174,0.087,0.087,0.261
				c0.043,1.913-0.565,3.218-0.913,4.392c-0.217,0.695-0.39,1.695-1.173,1.435c-2.001-3.435-1.697-9.218-2.132-14.218
				c0.131-1.043,0.087-1.869,0.218-2.913c-0.218-0.304-0.043-1.435,0.174-1.695c-0.348-0.913,0.304-2.044,0.349-3
				c0.564-0.305,0.913-0.913,1.391-1.305c0.999-0.217,1.478,0.609,1.783,1.349c0.827,0.087,0.783,1.043,1.784,0.912
				c0.302-0.261,0.433-0.738,0.693-1.043c-0.563-2.044-2.651-4.218-4.695-3.261c-0.392-0.087-0.607,0.043-0.913,0
				c0,0.13,0,0.348-0.088,0.348c-0.825,0-1.347,0.521-2.129,0.608c-0.391,0.609-0.652,1.652-0.827,2.479
				c-0.869,4.957-0.348,10.305-0.436,14.87c0.261,0,0.13,0.348,0.261,0.391c-0.173,1.131,0,1.913,0.35,2.522
				c0,0.261,0.086,0.435,0,0.782c0.435,1.957,1.608,3.131,2.478,4.608c0.697,0.522,1.435,0.957,2.348,1.262
				c0.436-0.262,1.131-0.087,1.697-0.131c0.13-0.348,0.391-0.435,0.651-0.565c0.131-0.826,0.782-0.956,0.827-1.913
				c0.217,0.131,0.086-0.304,0.304-0.174c0.042-0.913,0.608-1.608,0.869-2.521c0.392-1.652,0.305-3.479,0.523-5.348
				C30.321,108.218,30.364,107.349,30.408,106.565z M42.451,113.044c-0.477-2.782-1.043-5.521-1.216-8.652
				c-0.219-0.956-0.435-2-0.435-3.217c-0.348-0.87-0.608-1.826-0.608-3.131c-0.609-1.869-1.087-3.913-1.782-5.695
				c-0.261-0.087-0.566-0.174-0.522-0.609c-0.652-0.348-1,0.565-1.435,0.174c-0.305,0.522-0.652,0.957-1.174,1.218
				c-0.392,2-0.304,4.044-0.522,6.131c-0.173,1.261-0.564,3.479-0.782,4.608c-0.218,1.087-0.261,2.305-0.435,3.348
				c-0.044,0.305-0.26,0.522-0.305,0.783c-0.129,0.739-0.173,2-0.216,2.348c-0.261,3.131,0.086,6.392-0.697,8.739
				c0.783,0.305,1.173,0.043,1.741,0.174c0.215-0.174,0.26-0.565,0.694-0.521c-0.043-0.435,0.13-0.609,0.261-0.87
				c0.13-2.261,0.697-3.913,0.827-6.13c1.173,0.217,1.694,0.13,3,0.087c0.262,2.261,0.565,4.435,1.349,6.043
				c0.956,0.087,1.391,0.783,2.305,0.436c0.13-0.392,0.391-0.652,0.521-1.044C42.843,115.957,42.147,114.349,42.451,113.044z
				 M35.843,109.392c0.391-2.608,1.129-4.826,1.347-7.695c0.087,0.044,0.131,0.087,0.216,0.087c0.35,2.521,0.61,5.131,1.002,7.608
				C37.667,109.479,36.581,109.566,35.843,109.392z M54.539,118.653c0.044-0.348,0.13-0.652,0.217-0.913
				c-0.173-0.739-0.609-1.218-0.783-2c-0.392-0.044-0.608-0.392-0.783-0.739c-1.173-0.739-2.609,0.565-3.869-0.174
				c-0.261,0.435-0.956-0.131-1.044,0.174c0-0.174-0.13-0.174-0.173-0.261c0.826-2.261,1.304-4.913,1.914-7.349
				c0.26,0.131,0.043-0.391,0.303-0.261c-0.043-0.782,0.305-1.043,0.26-1.782c0.262,0.13,0.044-0.392,0.305-0.261
				c0.13-1.609,0.782-2.522,1.043-3.957c1.175-1.521,1.479-3.826,2.263-5.695c0.173-1.348-0.436-1.826-0.61-2.739
				c-0.392-0.305-0.914-0.435-1.129-0.957c-3.002,0.218-5.176,0.957-8.35,0.87c-0.131,0.652,0.479,1.521,0.697,1.956
				c0.085,0.174,0.043,0.392,0.085,0.436c0.74,1.043,2.871,1.043,4.218,1.261c0.219-0.218,1-0.261,1.262-0.131
				c-0.347,1-0.914,1.913-1.305,2.957c-0.087,0.174,0,0.521-0.087,0.695c-0.043,0.131-0.217,0.131-0.304,0.261
				c-0.13,0.392-0.13,0.957-0.261,1.348c-0.042,0.131-0.261,0.174-0.304,0.261c-0.13,0.479-0.13,1.044-0.261,1.565
				c-0.131,0.392-0.392,0.696-0.522,1.087c-0.521,1.913-1.044,3.826-1.392,5.913c-0.26-0.13,0,0.349-0.304,0.262
				c-0.174,2.043-1.305,3.087-0.955,5.521c0.215,0.608,0.389,1.217,0.476,1.956c0.392,0.174,0.219,0.479,0.436,0.696
				c0.521,0.521,1.695,0.13,2.262,0.521c0.087-0.044,0.042-0.261,0.261-0.174c0.217,0.348,0.999,0,1.217,0.348
				C50.321,119.175,52.887,119.219,54.539,118.653z M59.843,97.609c0.348-0.739,0.521-1.695,0.826-2.479
				c-0.218-0.913-0.348-1.913-0.348-3.087c-0.174-0.521-0.695-0.565-0.913-1.043c-1.043,0.043-2.088,0.217-2.522,1.043
				c-1.043-0.174-0.868,1.261-1.261,1.957c0.087,0.956,0.609,1.304,0.653,2.261C57.365,96.87,58.017,98.001,59.843,97.609z
				 M58.929,99.87c-0.478,0.565-1.391,0.565-1.825,1.174c0.174,0.696,0.392,1.521,0.088,2.261
				c1.129,4.218-0.045,10.436,1.303,14.392c0.522,0.131,0.956,0.392,1.174,0.913c0.566-0.174,0.652,0.305,1.174,0.218
				c0.217-0.479,0.436-0.957,0.738-1.348c-0.088-1.739-0.261-3.349-0.172-5.305c-0.045-1.479-0.089-3.479-0.261-5.479
				C60.452,104.262,61.19,100.479,58.929,99.87z M69.711,111.044c0.784,1.565,1.305,3.392,2.262,4.783
				c-0.039,0.348,0.175,0.479,0.09,0.869c0.563,0.479,0.825,1.174,1.13,1.87c0.782-0.218,1.303,0.608,1.867,0.608
				c0.612,0,0.829-0.479,1.22-1c-0.13-0.826-0.261-1.608-0.175-2.608c0.392-0.305,0.435-1.262,0.175-1.739
				c0.347-1-0.217-1.826,0.174-2.957c-0.61-3.521-0.349-7.521-0.435-11.392c0-0.13-0.217-0.087-0.176-0.261
				c-0.171-2,0.088-4.435-0.26-6.261c0.129-0.348-0.131-1.261-0.523-1.435c-0.781-0.348-1.693,0.695-2.565,0.695
				c-0.169,0.435-0.131,0.652-0.087,0.913c0.047,0.392,0.132,1.218,0,1.652c-0.305,1.305-0.26,3.695,0,5.044
				c-0.173,0.043-0.173,0.304-0.173,0.608c0.481,2.521,0.129,6.261,0.352,8.739c-1.089-2.305-1.785-5.044-2.523-7.739
				c-0.611-0.435-0.915-1.218-0.957-2.218c-0.26,0-0.175-0.348-0.35-0.348c-0.695-2.131-1.348-4.261-2.043-6.305
				c-0.306-0.174-0.521-0.478-0.869-0.608c-1.175,0.305-2.392,0.479-2.523,1.608c-0.043,0.479,0.305,1,0.349,1.565
				c0.13,1.174,0.087,2.479-0.174,3.479c0.13,2.435,0,5.435,0.262,8.131c0.085,0.913-0.131,2.043,0,3.261
				c0.304,3.13,0.435,6.348,0.26,9.261c0.436,0.521-0.044,1.174,0.175,1.565c0.564-0.174,1.477,0.13,1.391-1.044
				c0.172-0.13,0.217,0,0.434,0c0-1.782,1.131-3.304,0.521-5.087c0.479-1.695-0.563-5.608,0-8.392
				c-0.259-1.174,0.393-2.782,0.089-4.087c0.39,1.261,0.609,2.652,1.347,3.565C68.278,107.783,69.408,109.044,69.711,111.044z
				 M87.234,114.436c0.088-0.521-0.392,0-0.737-0.174c-0.306,0.608-0.87,0.869-1.436,1.174c-0.217,0.826-0.914,1.435-1.783,1.174
				c-0.044-0.565-0.349-0.782-0.609-1.087c-0.651-2.521-1.26-5.565-1.043-8.826c-0.088-0.087-0.304-0.043-0.261-0.261
				c0-0.131,0.218-0.087,0.173-0.261c-0.694-3-0.433-7.609,0.74-9.739c0.521,0,0.695-0.348,1.131-0.435
				c0.697,0.174,0.785,1.13,1.652,1.13c0.088,0.521,0.695,0.392,0.739,0.913c0.828,0,0.696-0.13,1.218-0.348
				c0.436-2.131-0.913-2.87-1.437-4.131c0-0.261,0.262-0.217,0.219-0.478l-0.739-1c-2.652-0.305-4,0.956-5.565,1.913
				c-0.521,1.564-1.563,3.435-1.219,5.478c0.088,2.783,0,5.131,0.088,7.87c0.434,3.652,0.652,7.608,1.825,10.435
				c0.307,0,0.307,0.348,0.741,0.261c-0.088,0.262,0.087,0.218,0.087,0.436c0.564-0.044,0.783,0.304,1.043,0.651
				c0.522-0.087,0.999,0.262,1.522,0.349c1.043,0.174,1.957-0.174,2.607-0.349c1.043-0.261,2.132-0.217,2.349-1.348
				c0.219-1.217-0.304-2.826-0.694-3.521C87.584,114.262,87.322,114.218,87.234,114.436z"/>
		</g>
	</g>
</g>
</svg>
