<?xml version="1.0" encoding="utf-8"?>
<!-- Generator: Adobe Illustrator 16.0.3, SVG Export Plug-In . SVG Version: 6.00 Build 0)  -->
<!DOCTYPE svg PUBLIC "-//W3C//DTD SVG 1.1//EN" "http://www.w3.org/Graphics/SVG/1.1/DTD/svg11.dtd">
<svg version="1.1" id="Layer_1" xmlns="http://www.w3.org/2000/svg" xmlns:xlink="http://www.w3.org/1999/xlink" x="0px" y="0px"
	 width="135px" height="60px" viewBox="0 0 135 60" enable-background="new 0 0 135 60" xml:space="preserve">
<path fill="#00AFF0" d="M74.574,0.006c0.588,0,1.176,0,1.764,0c0.303,0,0.702-0.029,0.939,0.041c0.238,0.07,0.611-0.022,0.824,0.041
	c0.209,0,0.418,0,0.627,0c0,0.014,0,0.027,0,0.041c0.195,0,0.393,0,0.588,0c0,0.014,0,0.027,0,0.041c0.053,0,0.104,0,0.156,0
	c0.131,0,0.262,0,0.393,0c0,0.014,0,0.027,0,0.041c0.17,0,0.34,0,0.51,0c0,0.014,0,0.027,0,0.041c0.17,0,0.34,0,0.51,0
	c0,0,0.004,0.034,0.078,0.041c0.145,0,0.287,0,0.432,0c0,0.014,0,0.027,0,0.041c0.184,0,0.365,0,0.549,0c0,0.014,0,0.027,0,0.041
	c0.195,0,0.393,0,0.589,0c0,0.014,0,0.027,0,0.041c0.209,0,0.418,0,0.627,0c0.075,0.007,0.077,0.041,0.077,0.041
	c0.287,0,0.576,0,0.863,0c0,0.014,0,0.027,0,0.041c0.012,0,0.025,0,0.039,0c0.268,0.046,0.609-0.022,0.822,0.041
	c0.85,0.027,1.699,0.055,2.548,0.082c0,0.014,0,0.027,0,0.041c0.353,0.014,0.706,0.027,1.06,0.041c0.17,0,0.34,0,0.51,0
	c0,0.014,0,0.027,0,0.041c0.326,0.014,0.652,0.027,0.979,0.041c0.145,0,0.287,0,0.432,0c0,0.014,0,0.027,0,0.041
	c0.223,0,0.443,0,0.666,0c0,0.014,0,0.027,0,0.041c0.223,0,0.445,0,0.666,0c0,0.014,0,0.027,0,0.041c0.197,0,0.393,0,0.589,0
	c0,0.014,0,0.027,0,0.041c0.262,0.014,0.522,0.027,0.784,0.041c0.131,0,0.261,0,0.392,0c0,0.014,0,0.027,0,0.041
	c0.183,0,0.366,0,0.549,0c0,0.014,0,0.027,0,0.041c0.511,0.027,1.021,0.055,1.528,0.082c0,0.014,0,0.027,0,0.041
	c0.156,0,0.314,0,0.471,0c0,0.014,0,0.027,0,0.041c0.145,0,0.287,0,0.432,0c0,0.013,0,0.027,0,0.041c0.156,0,0.313,0,0.471,0
	c0,0.014,0,0.027,0,0.041c0.145,0,0.288,0,0.432,0c0,0.014,0,0.027,0,0.041c0.131,0,0.262,0,0.393,0c0,0.014,0,0.027,0,0.041
	c0.131,0,0.262,0,0.392,0c0,0.014,0,0.027,0,0.041c0.131,0,0.263,0,0.394,0c0,0.014,0,0.027,0,0.041c0.131,0,0.26,0,0.392,0
	c0,0.014,0,0.027,0,0.041c0.131,0,0.262,0,0.394,0c0,0.014,0,0.027,0,0.041c0.116,0,0.233,0,0.353,0c0,0.014,0,0.027,0,0.041
	c0.116,0,0.235,0,0.353,0c0.497,0.15,1.15,0.096,1.646,0.246c0.3,0.027,0.601,0.055,0.9,0.082c1.188,0.191,2.379,0.382,3.566,0.574
	c0.341,0.109,0.768,0.176,1.098,0.287c0.065,0,0.131,0,0.196,0c1.28,0.355,2.562,0.71,3.841,1.065
	c0.104,0.014,0.209,0.027,0.313,0.041c0,0.014,0,0.027,0,0.041c0.054,0,0.104,0,0.158,0c0,0.014,0,0.027,0,0.041
	c0.051,0,0.104,0,0.155,0c0,0.014,0,0.027,0,0.041c0.118,0.014,0.235,0.027,0.354,0.041c0,0.014,0,0.027,0,0.041
	c0.117,0.014,0.234,0.027,0.353,0.041c0,0.014,0,0.027,0,0.041c0.614,0.109,1.229,0.219,1.843,0.328
	c0.262,0.014,0.521,0.027,0.783,0.041c0.229,0.067,0.61,0.041,0.901,0.041c0.512,0,1.297,0.084,1.725-0.041c0.224,0,0.444,0,0.666,0
	c0-0.014,0-0.027,0-0.041c0.146,0,0.288,0,0.433,0c0.074-0.007,0.078-0.041,0.078-0.041c0.17,0,0.34,0,0.51,0
	c0-0.014,0-0.027,0-0.041c0.144,0,0.287,0,0.431,0c0-0.014,0-0.027,0-0.041c0.157,0,0.313,0,0.472,0c0-0.014,0-0.027,0-0.041
	c0.156,0,0.313,0,0.471,0c0-0.014,0-0.027,0-0.041c0.156,0,0.313,0,0.47,0c0-0.014,0-0.027,0-0.041c0.17,0,0.34,0,0.51,0
	c0-0.014,0-0.027,0-0.041c0.353-0.014,0.706-0.027,1.06-0.041c0.17,0,0.34,0,0.51,0c0-0.014,0-0.027,0-0.041
	c0.185-0.054,0.925,0.001,1.058,0.041c0.146,0,0.288,0,0.433,0c0.268,0,0.569,0.019,0.783,0.082
	c0.195,0.014,0.393,0.027,0.588,0.041c0,0.014,0,0.027,0,0.041c0.078,0,0.156,0,0.235,0c0,0.014,0,0.027,0,0.041
	c0.063,0,0.13,0,0.195,0c0,0.014,0,0.027,0,0.041c0.065,0,0.131,0,0.196,0c0,0.014,0,0.027,0,0.041c0.052,0,0.104,0,0.155,0
	c0,0.014,0,0.027,0,0.041c0.054,0,0.104,0,0.157,0c0,0.014,0,0.027,0,0.041c0.053,0,0.104,0,0.157,0c0,0.014,0,0.027,0,0.041
	c0.052,0,0.104,0,0.155,0c0,0.014,0,0.027,0,0.041c0.039,0,0.078,0,0.117,0c0,0.014,0,0.027,0,0.041c0.041,0,0.079,0,0.118,0
	c0,0.014,0,0.027,0,0.041c0.039,0,0.078,0,0.117,0c0,0.014,0,0.027,0,0.041c0.039,0,0.079,0,0.118,0c0,0.014,0,0.027,0,0.041
	c0.078,0.014,0.156,0.027,0.234,0.041c0,0.014,0,0.027,0,0.041c0.025,0,0.053,0,0.078,0c0,0.014,0,0.027,0,0.041
	c0.039,0,0.078,0,0.117,0c0,0.014,0,0.027,0,0.041c0.026,0,0.053,0,0.079,0c0,0.014,0,0.027,0,0.041c0.039,0,0.078,0,0.117,0
	c0,0.014,0,0.027,0,0.041c0.077,0.027,0.155,0.055,0.235,0.082c0,0.014,0,0.027,0,0.041c0.024,0,0.051,0,0.078,0
	c0,0.014,0,0.027,0,0.041c0.025,0,0.053,0,0.077,0c0,0.014,0,0.027,0,0.041c0.026,0,0.054,0,0.079,0c0,0.014,0,0.027,0,0.041
	c0.025,0,0.053,0,0.078,0c0,0.014,0,0.027,0,0.041c0.025,0,0.052,0,0.078,0c0,0.014,0,0.027,0,0.041c0.025,0,0.053,0,0.078,0
	c0.014,0.027,0.025,0.055,0.039,0.082c0.078,0.027,0.156,0.055,0.234,0.082c0,0.014,0,0.027,0,0.041
	c0.039,0.014,0.079,0.027,0.118,0.041c0.013,0.027,0.024,0.055,0.039,0.082c0.026,0,0.052,0,0.078,0c0,0.014,0,0.027,0,0.041
	c0.039,0.014,0.078,0.027,0.118,0.041c0.013,0.027,0.025,0.055,0.039,0.082c0.025,0,0.052,0,0.078,0
	c0.025,0.041,0.052,0.082,0.078,0.123c0.025,0,0.053,0,0.078,0c0.025,0.041,0.053,0.082,0.078,0.123c0.026,0,0.053,0,0.078,0
	c0.053,0.068,0.104,0.137,0.157,0.205c0.024,0,0.052,0,0.078,0c0.104,0.123,0.209,0.246,0.313,0.369c0.025,0,0.051,0,0.077,0
	c0.054,0.068,0.104,0.137,0.157,0.205c0.025,0.014,0.052,0.027,0.078,0.041c0,0.027,0,0.055,0,0.082
	c0.131,0.123,0.262,0.246,0.392,0.369c0,0.027,0,0.055,0,0.082c0.065,0.055,0.132,0.109,0.196,0.164c0,0.027,0,0.055,0,0.082
	c0.039,0.027,0.078,0.055,0.117,0.082c0,0.027,0,0.055,0,0.082c0.039,0.027,0.078,0.055,0.117,0.082c0,0.027,0,0.055,0,0.082
	c0.039,0.027,0.078,0.055,0.117,0.082c0,0.027,0,0.054,0,0.082c0.039,0.027,0.079,0.055,0.118,0.082c0,0.027,0,0.055,0,0.082
	c0.025,0.014,0.052,0.027,0.078,0.041c0,0.027,0,0.055,0,0.082c0.026,0.014,0.054,0.027,0.078,0.041c0,0.027,0,0.055,0,0.082
	c0.026,0.014,0.053,0.027,0.079,0.041c0,0.027,0,0.055,0,0.082c0.025,0.014,0.052,0.027,0.078,0.041c0,0.027,0,0.055,0,0.082
	c0.025,0.014,0.052,0.027,0.078,0.041c0.013,0.055,0.025,0.109,0.039,0.164c0.025,0.014,0.053,0.027,0.078,0.041
	c0,0.027,0,0.055,0,0.082c0.014,0,0.025,0,0.039,0c0,0.027,0,0.055,0,0.082c0.025,0.014,0.053,0.027,0.078,0.041
	c0,0.027,0,0.055,0,0.082c0.014,0,0.026,0,0.039,0c0,0.027,0,0.055,0,0.082c0.014,0,0.026,0,0.039,0c0,0.027,0,0.055,0,0.082
	c0.014,0,0.025,0,0.039,0c0,0.027,0,0.055,0,0.082c0.025,0.014,0.053,0.027,0.079,0.041c0.024,0.082,0.052,0.164,0.078,0.246
	c0.013,0,0.026,0,0.038,0c0,0.027,0,0.055,0,0.082c0.014,0,0.027,0,0.039,0c0.027,0.082,0.054,0.164,0.078,0.246
	c0.015,0,0.026,0,0.041,0c0,0.041,0,0.082,0,0.123c0.013,0,0.024,0,0.039,0c0,0.027,0,0.055,0,0.082c0.012,0,0.024,0,0.039,0
	c0.025,0.082,0.051,0.164,0.077,0.246c0.013,0,0.026,0,0.039,0c0,0.041,0,0.082,0,0.123c0.015,0,0.026,0,0.039,0
	c0,0.027,0,0.055,0,0.082c0.015,0,0.026,0,0.04,0c0.014,0.068,0.025,0.137,0.039,0.205c0.014,0,0.025,0,0.039,0
	c0,0.041,0,0.082,0,0.123c0.013,0,0.025,0,0.039,0c0,0.027,0,0.055,0,0.082c0.013,0,0.025,0,0.039,0
	c0.025,0.123,0.053,0.246,0.078,0.369c0.123,0.328,0.24,0.719,0.354,1.066c0,0.055,0,0.109,0,0.164c0.014,0,0.025,0,0.039,0
	c0,0.055,0,0.109,0,0.164c0.014,0,0.025,0,0.039,0c0,0.055,0,0.109,0,0.164c0.014,0,0.025,0,0.039,0c0,0.055,0,0.109,0,0.164
	c0.014,0,0.025,0,0.039,0c0.104,0.669,0.209,1.339,0.313,2.009c0.015,0.328,0.026,0.656,0.039,0.984
	c0.117,0.44,0.039,1.237,0.039,1.763c0.002,0.292,0.022,0.675-0.039,0.902c0,0.15,0,0.301,0,0.451
	c-0.013,0.205-0.024,0.41-0.039,0.615c-0.013,0-0.025,0-0.039,0c-0.025,0.369-0.051,0.738-0.078,1.106
	c-0.092,0.33-0.104,0.782-0.195,1.107c0,0.082,0,0.164,0,0.246c-0.326,1.694-0.652,3.389-0.979,5.083
	c-0.322,1.033-0.453,2.22-0.785,3.238c-0.064,0.328-0.131,0.656-0.195,0.982c-0.014,0-0.025,0-0.039,0c0,0.041,0,0.082,0,0.123
	c-0.014,0-0.025,0-0.039,0c0,0.056,0,0.109,0,0.164c-0.014,0-0.025,0-0.039,0c0,0.056,0,0.109,0,0.164c-0.014,0-0.025,0-0.039,0
	c0,0.055,0,0.109,0,0.164c-0.014,0-0.025,0-0.039,0c-0.014,0.109-0.025,0.219-0.039,0.328c-0.244,0.71-0.386,1.547-0.628,2.254
	c-0.052,0.26-0.104,0.521-0.155,0.779c-0.154,0.447-0.278,0.988-0.433,1.436c0,0.055,0,0.108,0,0.164c-0.013,0-0.026,0-0.039,0
	c0,0.055,0,0.108,0,0.164c-0.013,0-0.026,0-0.039,0c0,0.041,0,0.082,0,0.122c-0.013,0-0.026,0-0.038,0c0,0.056,0,0.109,0,0.164
	c-0.015,0-0.027,0-0.039,0c0,0.041,0,0.082,0,0.123c-0.015,0-0.027,0-0.039,0c-0.015,0.097-0.026,0.191-0.041,0.287
	c-0.013,0-0.024,0-0.039,0c-0.013,0.097-0.024,0.19-0.039,0.286c-0.012,0-0.025,0-0.039,0c-0.012,0.096-0.025,0.191-0.039,0.287
	c-0.014,0-0.025,0-0.038,0c0,0.055,0,0.109,0,0.164c-0.015,0-0.026,0-0.039,0c0,0.041,0,0.082,0,0.123c-0.015,0-0.026,0-0.04,0
	c0,0.055,0,0.109,0,0.164c-0.395,1.141-0.628,2.424-1.02,3.565c-0.013,0.109-0.025,0.22-0.039,0.328
	c-0.137,0.396-0.256,0.876-0.393,1.271c0,0.056,0,0.109,0,0.164c-0.013,0-0.025,0-0.039,0c0,0.041,0,0.082,0,0.123
	c-0.013,0-0.025,0-0.039,0c0,0.056,0,0.109,0,0.164c-0.013,0-0.025,0-0.039,0c0,0.055,0,0.109,0,0.164
	c-0.203,0.59-0.346,1.295-0.549,1.887c-0.052,0.259-0.104,0.519-0.156,0.777c-0.203,0.621-0.338,1.352-0.549,1.969
	c-0.053,0.26-0.104,0.52-0.156,0.778c-0.014,0-0.026,0-0.039,0c-0.039,0.19-0.078,0.382-0.117,0.573c-0.014,0-0.026,0-0.041,0
	c0,0.041,0,0.082,0,0.123c-0.012,0-0.024,0-0.038,0c-0.013,0.096-0.025,0.191-0.039,0.287c-0.013,0-0.026,0-0.039,0
	c-0.013,0.096-0.026,0.191-0.039,0.287c-0.015,0-0.026,0-0.039,0c-0.026,0.137-0.054,0.272-0.079,0.41c-0.013,0-0.025,0-0.039,0
	c0,0.054,0,0.107,0,0.162c-0.013,0-0.025,0-0.039,0c0,0.041,0,0.082,0,0.123c-0.013,0-0.025,0-0.039,0c0,0.041,0,0.082,0,0.123
	c-0.013,0-0.025,0-0.039,0c0,0.055,0,0.109,0,0.164c-0.013,0-0.025,0-0.039,0c-0.014,0.082-0.025,0.164-0.039,0.246
	c-0.014,0-0.025,0-0.039,0c0,0.041,0,0.082,0,0.123c-0.014,0-0.025,0-0.039,0c0,0.041,0,0.082,0,0.123c-0.014,0-0.025,0-0.039,0
	c0,0.041,0,0.082,0,0.123c-0.014,0-0.026,0-0.039,0c0,0.041,0,0.082,0,0.123c-0.014,0-0.026,0-0.039,0c0,0.041,0,0.082,0,0.123
	c-0.014,0-0.026,0-0.039,0c-0.014,0.082-0.026,0.164-0.039,0.246c-0.014,0-0.026,0-0.039,0c-0.014,0.081-0.025,0.163-0.04,0.244
	c-0.013,0-0.024,0-0.039,0c0,0.041,0,0.082,0,0.123c-0.013,0-0.024,0-0.039,0c0,0.041,0,0.082,0,0.123c-0.013,0-0.026,0-0.039,0
	c0,0.041,0,0.082,0,0.123c-0.013,0-0.026,0-0.039,0c0,0.041,0,0.082,0,0.123c-0.014,0-0.026,0-0.038,0c0,0.027,0,0.056,0,0.082
	c-0.015,0-0.027,0-0.039,0c-0.015,0.082-0.027,0.164-0.041,0.246c-0.013,0-0.024,0-0.039,0c0,0.027,0,0.056,0,0.082
	c-0.013,0-0.024,0-0.039,0c-0.013,0.082-0.025,0.164-0.039,0.246c-0.012,0-0.025,0-0.039,0c-0.012,0.068-0.025,0.137-0.039,0.205
	c-0.014,0-0.025,0-0.038,0c0,0.027,0,0.055,0,0.082c-0.015,0-0.026,0-0.04,0c0,0.041,0,0.082,0,0.123c-0.014,0-0.025,0-0.039,0
	c0,0.026,0,0.055,0,0.081c-0.014,0-0.025,0-0.039,0c0,0.041,0,0.082,0,0.123c-0.014,0-0.025,0-0.039,0c0,0.026,0,0.056,0,0.082
	c-0.014,0-0.025,0-0.039,0c0,0.041,0,0.082,0,0.123c-0.013,0-0.025,0-0.039,0c-0.014,0.056-0.025,0.108-0.039,0.164
	c-0.014,0-0.025,0-0.039,0c0,0.041,0,0.082,0,0.123c-0.014,0-0.025,0-0.039,0c-0.014,0.055-0.025,0.108-0.039,0.164
	c-0.014,0-0.025,0-0.039,0c0,0.041,0,0.082,0,0.122c-0.014,0-0.026,0-0.039,0c0,0.027,0,0.056,0,0.082c-0.014,0-0.026,0-0.039,0
	c-0.026,0.082-0.053,0.164-0.078,0.246c-0.014,0-0.026,0-0.041,0c0,0.041,0,0.082,0,0.123c-0.012,0-0.024,0-0.038,0
	c0,0.027,0,0.056,0,0.082c-0.013,0-0.025,0-0.039,0c0,0.027,0,0.056,0,0.082c-0.013,0-0.026,0-0.039,0c0,0.027,0,0.056,0,0.082
	c-0.013,0-0.026,0-0.039,0c-0.026,0.082-0.054,0.164-0.078,0.246c-0.014,0-0.026,0-0.04,0c-0.039,0.123-0.078,0.245-0.117,0.368
	c-0.025,0.015-0.052,0.027-0.078,0.041c0,0.027,0,0.056,0,0.082c-0.014,0-0.025,0-0.039,0c0,0.027,0,0.056,0,0.082
	c-0.014,0-0.025,0-0.039,0c0,0.027,0,0.056,0,0.082c-0.014,0-0.025,0-0.039,0c0,0.027,0,0.056,0,0.082
	c-0.025,0.015-0.053,0.026-0.078,0.041c-0.014,0.056-0.026,0.108-0.039,0.164c-0.026,0.015-0.053,0.026-0.078,0.041
	c0,0.026,0,0.056,0,0.082c-0.025,0.014-0.053,0.026-0.079,0.041c0,0.026,0,0.055,0,0.082c-0.039,0.026-0.078,0.055-0.117,0.082
	c0,0.026,0,0.055,0,0.082c-0.038,0.026-0.077,0.055-0.116,0.082c0,0.026,0,0.055,0,0.082c-0.093,0.081-0.185,0.163-0.274,0.245
	c-0.026,0.041-0.054,0.082-0.079,0.123c-0.025,0-0.053,0-0.078,0c-0.025,0.041-0.052,0.082-0.078,0.123c-0.025,0-0.053,0-0.078,0
	c-0.014,0.026-0.025,0.055-0.039,0.082c-0.025,0-0.053,0-0.078,0c0,0.014,0,0.026,0,0.041c-0.078,0.026-0.158,0.055-0.235,0.082
	c0,0.014,0,0.026,0,0.041c-0.039,0-0.078,0-0.117,0c0,0.014,0,0.026,0,0.041c-0.053,0-0.104,0-0.157,0c0,0.014,0,0.026,0,0.041
	c-0.175,0.055-0.933-0.004-1.058-0.041c-0.093,0-0.185,0-0.274,0c0-0.015,0-0.027,0-0.041c-0.064,0-0.131,0-0.195,0
	c0-0.015,0-0.027,0-0.041c-0.065,0-0.131,0-0.196,0c-0.591-0.201-1.226-0.371-1.765-0.615c-0.078-0.014-0.155-0.027-0.234-0.041
	c0-0.014,0-0.026,0-0.04c-0.039,0-0.078,0-0.117,0c0-0.015,0-0.027,0-0.041c-0.039,0-0.078,0-0.117,0c0-0.015,0-0.027,0-0.041
	c-0.039,0-0.078,0-0.117,0c0-0.015,0-0.027,0-0.041c-0.026,0-0.053,0-0.078,0c0-0.015,0-0.027,0-0.041
	c-0.118-0.027-0.235-0.056-0.354-0.082c-0.439-0.185-0.939-0.334-1.411-0.492c-0.131-0.015-0.262-0.026-0.393-0.041
	c-0.287-0.095-0.656-0.153-0.94-0.246c-0.131-0.014-0.262-0.026-0.392-0.041c-0.359-0.118-0.815-0.169-1.177-0.286
	c-0.131-0.015-0.262-0.027-0.393-0.041c-0.357-0.119-0.816-0.17-1.176-0.287c-0.131-0.015-0.262-0.027-0.393-0.041
	c-0.367-0.121-0.848-0.17-1.215-0.287c-0.145-0.014-0.287-0.026-0.432-0.041c-0.469-0.15-1.061-0.18-1.527-0.328
	c-0.158-0.014-0.313-0.026-0.472-0.041c-0.696-0.219-1.567-0.196-2.272-0.409c-0.195-0.015-0.393-0.027-0.588-0.041
	c-0.468-0.142-1.096-0.104-1.567-0.246c-0.132,0-0.263,0-0.394,0c0-0.015,0-0.026,0-0.041c-0.117,0-0.234,0-0.353,0
	c0-0.015,0-0.026,0-0.041c-0.144,0-0.287,0-0.431,0c0-0.015,0-0.026,0-0.041c-0.146,0-0.289,0-0.433,0c0-0.015,0-0.026,0-0.041
	c-0.144,0-0.286,0-0.432,0c-0.013,0-0.025,0-0.039,0c0-0.015,0-0.026,0-0.041c-0.195,0-0.392,0-0.588,0c0-0.014,0-0.026,0-0.041
	c-0.171,0-0.341,0-0.509,0c-0.42,0-0.984-0.062-1.334,0.041c-0.223,0-0.443,0-0.666,0c0,0.015,0,0.026,0,0.041
	c-0.17,0-0.34,0-0.51,0c0,0.015,0,0.026,0,0.041c-0.156,0-0.313,0-0.471,0c0,0.015,0,0.026,0,0.041c-0.156,0-0.313,0-0.47,0
	c0,0.015,0,0.026,0,0.041c-0.146,0-0.288,0-0.433,0c0,0.015,0,0.026,0,0.041c-0.156,0-0.313,0-0.471,0c0,0.015,0,0.026,0,0.041
	c-0.184,0-0.365,0-0.549,0c0,0.015,0,0.026,0,0.041c-1.346,0.026-2.691,0.056-4.037,0.082c-0.404,0.119-1.052,0.041-1.527,0.041
	c-0.156,0-0.313,0-0.472,0c0,0.014,0,0.026,0,0.041c-0.705,0-1.411,0-2.116,0c-0.195,0-0.392,0-0.588,0c0,0.014,0,0.026,0,0.041
	c-1.098,0-2.195,0-3.292,0c-1.776-0.015-3.555-0.027-5.331-0.041c0-0.015,0-0.027,0-0.041c-0.234,0-0.471,0-0.706,0
	c-0.247,0-0.495,0-0.743,0c0-0.015,0-0.026,0-0.041c-0.065,0-0.132,0-0.197,0c-0.303-0.004-0.699,0.03-0.939-0.041
	c-0.313,0-0.627,0-0.939,0c-0.231-0.067-0.627,0.028-0.862-0.041c0-0.015,0-0.026,0-0.041c-0.274,0-0.55,0-0.823,0
	c0-0.015,0-0.026,0-0.041c-0.014,0-0.025,0-0.039,0c-0.262,0-0.523,0-0.783,0c0-0.015,0-0.026,0-0.041
	c-0.367-0.015-0.731-0.026-1.099-0.041c-0.17,0-0.34,0-0.51,0c0-0.015,0-0.026,0-0.041c-0.339-0.015-0.679-0.026-1.019-0.041
	c-0.171,0-0.341,0-0.511,0c-0.19-0.056-0.53,0.022-0.745-0.041c-0.189-0.056-0.529,0.022-0.744-0.041c0-0.014,0-0.026,0-0.041
	c-0.235,0-0.471,0-0.706,0c0-0.014,0-0.026,0-0.04c-0.235,0-0.471,0-0.706,0c0-0.014,0-0.027,0-0.041
	c-0.327-0.014-0.653-0.027-0.98-0.041c-0.144,0-0.288,0-0.431,0c0-0.014,0-0.027,0-0.041c-0.901-0.041-1.803-0.082-2.705-0.123
	c0-0.014,0-0.027,0-0.041c-0.288-0.014-0.575-0.027-0.862-0.041c-0.144,0-0.288,0-0.431,0c0-0.014,0-0.027,0-0.041
	c-0.222,0-0.444,0-0.667,0c0-0.014,0-0.027,0-0.041c-0.287-0.014-0.575-0.027-0.862-0.041c-0.144,0-0.287,0-0.431,0
	c0-0.014,0-0.027,0-0.041c-0.274-0.014-0.549-0.027-0.823-0.041c-0.144,0-0.288,0-0.431,0c0-0.014,0-0.027,0-0.041
	c-0.274-0.014-0.549-0.027-0.823-0.041c-0.144,0-0.288,0-0.431,0c0-0.014,0-0.026,0-0.041c-0.209,0-0.418,0-0.627,0
	c0-0.014,0-0.026,0-0.041c-0.196,0-0.392,0-0.588,0c0-0.014,0-0.026,0-0.041c-0.274-0.014-0.549-0.026-0.823-0.041
	c-0.144,0-0.288,0-0.431,0c0-0.014,0-0.026,0-0.041c-0.196,0-0.392,0-0.588,0c0-0.014,0-0.026,0-0.041
	c-0.81-0.041-1.621-0.082-2.431-0.123c0-0.014,0-0.026,0-0.041c-0.274-0.014-0.548-0.026-0.823-0.041c-0.131,0-0.261,0-0.392,0
	c0-0.014,0-0.026,0-0.041c-0.183,0-0.366,0-0.549,0c0-0.014,0-0.026,0-0.041c-0.052,0-0.104,0-0.157,0c-0.13,0-0.261,0-0.392,0
	c0-0.014,0-0.026,0-0.041c-0.169,0-0.339,0-0.509,0c0-0.014,0-0.026,0-0.041c-0.17,0-0.34,0-0.51,0c0-0.014,0-0.026,0-0.041
	c-0.157,0-0.313,0-0.47,0c0-0.014,0-0.026,0-0.041c-0.157,0-0.313,0-0.47,0c0-0.014,0-0.026,0-0.041c-0.157,0-0.313,0-0.471,0
	c0-0.014,0-0.026,0-0.041c-0.47-0.026-0.94-0.055-1.411-0.082c0-0.014,0-0.026,0-0.041c-0.157,0-0.314,0-0.471,0
	c0-0.014,0-0.026,0-0.04c-0.157,0-0.313,0-0.47,0c0-0.015,0-0.027,0-0.041c-0.17,0-0.34,0-0.51,0c0-0.015,0-0.027,0-0.041
	c-0.169,0-0.339,0-0.509,0c0-0.015,0-0.027,0-0.041c-0.17,0-0.34,0-0.51,0c0-0.015,0-0.027,0-0.04c-0.13,0-0.261,0-0.392,0
	c-0.04,0-0.079,0-0.118,0c0-0.014,0-0.027,0-0.041c-0.196,0-0.392,0-0.588,0c0-0.014,0-0.027,0-0.041
	c-0.418-0.014-0.836-0.027-1.254-0.041c-0.191-0.057-0.529,0.021-0.745-0.041c0-0.014,0-0.027,0-0.041c-0.313,0-0.627,0-0.941,0
	c0-0.014,0-0.027,0-0.041c-0.17,0-0.339,0-0.509,0c-0.301,0-0.601,0-0.902,0c-0.35-0.104-0.914-0.041-1.333-0.041
	c-0.245,0-0.561-0.014-0.745,0.041c-0.431,0-0.862,0-1.293,0c0,0.014,0,0.027,0,0.041c-0.497,0.014-0.993,0.027-1.49,0.041
	c0,0.014,0,0.027,0,0.041c-0.261,0.014-0.521,0.027-0.784,0.041c-0.13,0-0.261,0-0.392,0c0,0.014,0,0.027,0,0.041
	c-0.183,0-0.366,0-0.549,0c-0.053,0.016,0.016,0.031-0.039,0.041c-0.144,0-0.287,0-0.431,0c0,0.013,0,0.025,0,0.04
	c-0.157,0-0.313,0-0.47,0c0,0.014,0,0.026,0,0.041c-0.144,0-0.288,0-0.431,0c0,0.014,0,0.026,0,0.041c-0.144,0-0.288,0-0.431,0
	c0,0.014,0,0.026,0,0.041c-0.144,0-0.288,0-0.431,0c0,0.014,0,0.026,0,0.04c-0.131,0-0.261,0-0.392,0c0,0.015,0,0.027,0,0.041
	c-0.366,0.027-0.731,0.056-1.097,0.082c0,0.015,0,0.027,0,0.041c-0.118,0-0.235,0-0.353,0c0,0.015,0,0.027,0,0.041
	c-0.104,0-0.209,0-0.313,0c0,0.015,0,0.027,0,0.041c-0.118,0-0.235,0-0.353,0c-0.639,0.193-1.481,0.138-2.116,0.328
	c-0.288,0.027-0.575,0.056-0.862,0.082c0,0.015,0,0.027,0,0.041c-0.092,0-0.183,0-0.274,0c0,0.015,0,0.027,0,0.041
	c-0.092,0-0.183,0-0.274,0c0,0.015,0,0.027,0,0.041c-0.091,0-0.183,0-0.274,0c-0.628,0.193-1.414,0.174-2.038,0.369
	c-0.249,0.027-0.497,0.055-0.745,0.082c0,0.014,0,0.027,0,0.041c-0.157,0.014-0.314,0.027-0.471,0.041
	c-0.631,0.198-1.41,0.211-2.038,0.409c-0.157,0.015-0.313,0.026-0.47,0.041c-0.528,0.17-1.197,0.197-1.725,0.369
	c-0.144,0.014-0.288,0.026-0.431,0.041c-0.445,0.144-1.006,0.188-1.45,0.327c-0.079,0-0.157,0-0.235,0
	c-0.431,0.14-0.979,0.191-1.411,0.328c-0.078,0-0.157,0-0.235,0c0,0.015,0,0.027,0,0.041c-0.065,0-0.13,0-0.196,0
	c0,0.015,0,0.027,0,0.041c-0.065,0-0.13,0-0.196,0c0,0.015,0,0.027,0,0.041c-0.065,0-0.131,0-0.196,0c0,0.015,0,0.027,0,0.041
	c-0.065,0-0.13,0-0.196,0c-0.82,0.277-1.755,0.4-2.548,0.696c-0.104,0.015-0.209,0.027-0.313,0.041c0,0.015,0,0.027,0,0.041
	c-0.052,0-0.104,0-0.157,0c0,0.015,0,0.027,0,0.041c-0.039,0-0.078,0-0.118,0c0,0.015,0,0.027,0,0.041
	c-0.144,0.027-0.287,0.056-0.431,0.082c0,0.015,0,0.027,0,0.041c-0.104,0.015-0.209,0.027-0.313,0.041c0,0.015,0,0.027,0,0.041
	c-0.039,0-0.079,0-0.118,0c0,0.015,0,0.027,0,0.041c-0.144,0.027-0.287,0.056-0.431,0.082c0,0.015,0,0.026,0,0.041
	c-0.104,0.015-0.209,0.026-0.313,0.041c-0.484,0.181-1.017,0.331-1.529,0.492c-0.078,0-0.157,0-0.235,0c0,0.014,0,0.026,0,0.041
	c-0.256,0.075-0.626-0.028-0.784-0.082c-0.052,0-0.104,0-0.157,0c0-0.015,0-0.027,0-0.041c-0.026,0-0.052,0-0.078,0
	c0-0.015,0-0.027,0-0.041c-0.04,0-0.079,0-0.118,0c-0.278-0.13-0.503-0.399-0.706-0.615c-0.039-0.026-0.079-0.055-0.118-0.082
	c0-0.026,0-0.055,0-0.082c-0.039-0.026-0.079-0.055-0.118-0.082c0-0.026,0-0.055,0-0.082c-0.026-0.014-0.052-0.026-0.078-0.041
	c-0.013-0.055-0.026-0.108-0.04-0.163c-0.013,0-0.026,0-0.039,0c-0.026-0.082-0.052-0.164-0.078-0.246c-0.013,0-0.026,0-0.04,0
	c0-0.041,0-0.082,0-0.123c-0.013,0-0.026,0-0.039,0c0-0.026,0-0.055,0-0.082c-0.013,0-0.026,0-0.039,0c0-0.041,0-0.082,0-0.123
	c-0.013,0-0.026,0-0.04,0c0-0.041,0-0.082,0-0.123c-0.013,0-0.026,0-0.039,0c0-0.041,0-0.082,0-0.123c-0.013,0-0.026,0-0.039,0
	c0-0.041,0-0.082,0-0.123c-0.013,0-0.026,0-0.039,0c-0.052-0.231-0.104-0.465-0.157-0.696c-0.013,0-0.026,0-0.04,0
	c0-0.041,0-0.082,0-0.123c-0.013,0-0.026,0-0.039,0c0-0.041,0-0.082,0-0.123c-0.013,0-0.026,0-0.039,0c0-0.041,0-0.082,0-0.122
	c-0.013,0-0.026,0-0.04,0c-0.013-0.096-0.026-0.191-0.039-0.287c-0.013,0-0.026,0-0.039,0c-0.013-0.109-0.026-0.219-0.039-0.328
	c-0.013,0-0.026,0-0.04,0c-0.026-0.164-0.052-0.328-0.078-0.492c-0.013,0-0.026,0-0.039,0c0-0.067,0-0.137,0-0.205
	c-0.013,0-0.026,0-0.04,0c0-0.067,0-0.137,0-0.204c-0.013,0-0.026,0-0.039,0c0-0.068,0-0.138,0-0.204c-0.013,0-0.026,0-0.039,0
	c0-0.068,0-0.137,0-0.205c-0.013,0-0.026,0-0.04,0c0-0.082,0-0.164,0-0.246c-0.095-0.337-0.1-0.8-0.195-1.146
	c0-0.123,0-0.246,0-0.369c-0.013,0-0.026,0-0.039,0c0-0.137,0-0.272,0-0.409c-0.013,0-0.026,0-0.039,0c0-0.164,0-0.328,0-0.492
	c-0.013,0-0.026,0-0.04,0c0-0.231,0-0.465,0-0.696c-0.112-0.42-0.039-1.178-0.039-1.681c0-0.293-0.021-0.677,0.039-0.901
	c0-0.232,0-0.466,0-0.697c0.013,0,0.026,0,0.04,0c0-0.149,0-0.301,0-0.45c0.122-0.45,0.074-1.065,0.196-1.517
	c0-0.15,0-0.302,0-0.451c0.013,0,0.026,0,0.039,0c0.013-0.328,0.026-0.656,0.039-0.984c0.013,0,0.026,0,0.04,0
	c0-0.178,0-0.354,0-0.532c0.013,0,0.026,0,0.039,0c0-0.178,0-0.354,0-0.532c0.013,0,0.026,0,0.039,0
	c0.013-0.261,0.026-0.521,0.04-0.779c0-0.137,0-0.272,0-0.409c0.013,0,0.026,0,0.039,0c0-0.179,0-0.354,0-0.533
	c0.013,0,0.026,0,0.039,0c0.039-0.683,0.079-1.366,0.118-2.05c0.013,0,0.026,0,0.039,0c0-0.137,0-0.273,0-0.409
	c0.013,0,0.026,0,0.039,0c0-0.137,0-0.272,0-0.41c0.013,0,0.026,0,0.04,0c0-0.123,0-0.245,0-0.368c0.013,0,0.026,0,0.039,0
	c0-0.109,0-0.22,0-0.328c0.077-0.274,0.081-0.672,0.157-0.942c0-0.097,0-0.19,0-0.287c0.013,0,0.026,0,0.039,0
	c0.013-0.164,0.026-0.328,0.04-0.492c0.157-0.543,0.194-1.19,0.353-1.722c0-0.068,0-0.137,0-0.205
	c0.071-0.234,0.126-0.546,0.196-0.778c0-0.067,0-0.137,0-0.204c0.301-0.972,0.423-2.094,0.745-3.035c0-0.055,0-0.109,0-0.164
	c0.013,0,0.026,0,0.039,0c0-0.055,0-0.109,0-0.164c0.013,0,0.026,0,0.039,0c0-0.055,0-0.109,0-0.164c0.013,0,0.026,0,0.039,0
	c0-0.055,0-0.109,0-0.164c0.013,0,0.026,0,0.04,0c0-0.041,0-0.082,0-0.123c0.013,0,0.026,0,0.039,0c0-0.055,0-0.109,0-0.164
	c0.013,0,0.026,0,0.039,0c0-0.055,0-0.109,0-0.164c0.013,0,0.026,0,0.04,0c0.013-0.096,0.026-0.191,0.039-0.287
	c0.013,0,0.026,0,0.039,0c0.013-0.109,0.026-0.219,0.039-0.328c0.247-0.714,0.421-1.545,0.667-2.255c0-0.055,0-0.109,0-0.164
	c0.013,0,0.026,0,0.039,0c0-0.041,0-0.082,0-0.123c0.013,0,0.026,0,0.04,0c0-0.054,0-0.109,0-0.164
	c0.25-0.721,0.457-1.537,0.705-2.255c0.052-0.232,0.105-0.464,0.157-0.697c0.509-1.46,0.906-3.048,1.411-4.509
	c0.013-0.096,0.026-0.191,0.04-0.287c0.276-0.729,0.489-1.549,0.784-2.255c0.026-0.123,0.052-0.246,0.079-0.369
	c0.013,0,0.026,0,0.039,0c0-0.027,0-0.055,0-0.082c0.013,0,0.026,0,0.039,0c0.026-0.123,0.052-0.246,0.079-0.369
	c0.013,0,0.026,0,0.039,0c0-0.027,0-0.055,0-0.082c0.013,0,0.026,0,0.039,0c0.026-0.123,0.052-0.246,0.079-0.369
	c0.013,0,0.026,0,0.039,0c0-0.027,0-0.055,0-0.082c0.013,0,0.026,0,0.04,0c0.013-0.082,0.026-0.164,0.039-0.246
	c0.013,0,0.026,0,0.039,0c0-0.027,0-0.055,0-0.082c0.013,0,0.026,0,0.039,0c0.013-0.082,0.026-0.164,0.04-0.246
	c0.013,0,0.026,0,0.039,0c0-0.027,0-0.054,0-0.082c0.013,0,0.026,0,0.039,0c0.007-0.083,0.02-0.165,0.033-0.248
	c0.013,0,0.026,0,0.04,0c0-0.027,0-0.055,0-0.082c0.013,0,0.026,0,0.039,0c0-0.041,0-0.082,0-0.123c0.013,0,0.026,0,0.039,0
	c0-0.041,0-0.082,0-0.123c0.351-0.84,0.652-1.76,0.98-2.624C8.555,9.802,8.621,9.556,8.686,9.31c0.013,0,0.026,0,0.04,0
	c0-0.027,0-0.055,0-0.082c0.013,0,0.026,0,0.039,0C8.79,9.106,8.816,8.983,8.842,8.86c0.013,0,0.026,0,0.04,0
	c0.013-0.055,0.026-0.109,0.039-0.164c0.013,0,0.026,0,0.039,0C9,8.573,9.039,8.45,9.078,8.327C9.104,8.313,9.13,8.3,9.156,8.286
	c0.013-0.055,0.026-0.109,0.039-0.164c0.026-0.014,0.052-0.027,0.079-0.041c0-0.027,0-0.055,0-0.082
	c0.039-0.027,0.078-0.055,0.117-0.082c0-0.027,0-0.055,0-0.082c0.092-0.082,0.183-0.164,0.274-0.246
	C9.718,7.521,9.77,7.453,9.822,7.384c0.026,0,0.052,0,0.079,0C9.914,7.357,9.927,7.33,9.94,7.302c0.026,0,0.052,0,0.079,0
	c0.013-0.027,0.026-0.054,0.039-0.082c0.078-0.027,0.157-0.055,0.235-0.082c0-0.014,0-0.027,0-0.041
	c0.078-0.027,0.157-0.055,0.235-0.082c0-0.014,0-0.027,0-0.041c0.039,0,0.079,0,0.118,0c0-0.014,0-0.027,0-0.041
	c0.026,0,0.052,0,0.079,0c0-0.014,0-0.027,0-0.041c0.339-0.096,0.679-0.191,1.019-0.287c0.078,0,0.157,0,0.235,0
	c0-0.014,0-0.027,0-0.041c0.079,0,0.157,0,0.235,0c0-0.014,0-0.027,0-0.041c0.091,0,0.183,0,0.274,0c0-0.014,0-0.027,0-0.041
	c0.118,0,0.235,0,0.353,0c0-0.014,0-0.027,0-0.041c0.392-0.027,0.784-0.054,1.176-0.082c1.176-0.205,2.352-0.41,3.527-0.615
	c0.091,0,0.183,0,0.274,0c0.228-0.07,0.56-0.095,0.784-0.164c0.091,0,0.183,0,0.274,0c0.327-0.1,0.771-0.105,1.098-0.205
	c0.653-0.082,1.307-0.164,1.96-0.246c0.414-0.127,0.957-0.121,1.372-0.246c0.104,0,0.209,0,0.313,0
	c0.24-0.073,0.584-0.091,0.823-0.164c0.092,0,0.183,0,0.274,0c0-0.013,0-0.027,0-0.041c0.091,0,0.183,0,0.274,0
	c0-0.014,0-0.027,0-0.041c0.091,0,0.183,0,0.274,0c0-0.014,0-0.027,0-0.041c0.091,0,0.183,0,0.274,0
	c0.57-0.177,1.306-0.153,1.881-0.328c0.183-0.014,0.366-0.027,0.549-0.041c0-0.014,0-0.027,0-0.041c0.091,0,0.183,0,0.274,0
	c0-0.014,0-0.027,0-0.041c0.091,0,0.183,0,0.274,0c0-0.014,0-0.027,0-0.041c0.091,0,0.183,0,0.274,0c0-0.014,0-0.027,0-0.041
	c0.196-0.014,0.392-0.027,0.588-0.041c0.52-0.16,1.202-0.129,1.725-0.287c0.196-0.014,0.392-0.027,0.588-0.041
	c0.547-0.167,1.254-0.122,1.803-0.287c0.209-0.014,0.418-0.027,0.627-0.041c0-0.014,0-0.027,0-0.041c0.104,0,0.209,0,0.313,0
	c0-0.014,0-0.027,0-0.041c0.104,0,0.209,0,0.313,0c0.484-0.146,1.119-0.1,1.607-0.246c0.209-0.014,0.418-0.027,0.627-0.041
	c0-0.014,0-0.027,0-0.041C37.32,2.929,37.66,2.901,38,2.874c0.505-0.152,1.178-0.095,1.686-0.246c0.117,0,0.235,0,0.353,0
	c0-0.014,0-0.027,0-0.041c0.118,0,0.235,0,0.353,0c0-0.014,0-0.027,0-0.041c0.118,0,0.235,0,0.353,0c0-0.014,0-0.027,0-0.041
	c0.118,0,0.235,0,0.353,0c0-0.014,0-0.027,0-0.041c0.118,0,0.235,0,0.353,0c0-0.014,0-0.027,0-0.041c0.118,0,0.235,0,0.353,0
	c0-0.014,0-0.027,0-0.041c0.118,0,0.235,0,0.353,0c0-0.014,0-0.027,0-0.041c0.379-0.027,0.758-0.055,1.137-0.082
	c0.442-0.132,1.045-0.073,1.489-0.205c0.131,0,0.261,0,0.392,0c0-0.014,0-0.027,0-0.041c0.13,0,0.261,0,0.392,0
	c0-0.014,0-0.027,0-0.041c0.13,0,0.261,0,0.392,0c0-0.014,0-0.027,0-0.041c0.131,0,0.261,0,0.392,0c0-0.014,0-0.027,0-0.041
	c0.131,0,0.261,0,0.392,0c0-0.014,0-0.027,0-0.041c0.144,0,0.287,0,0.431,0c0-0.014,0-0.027,0-0.041c0.13,0,0.261,0,0.392,0
	c0-0.014,0-0.027,0-0.041c0.144,0,0.288,0,0.431,0c0-0.014,0-0.027,0-0.041c0.131,0,0.262,0,0.392,0c0-0.014,0-0.027,0-0.041
	c0.562-0.041,1.124-0.082,1.686-0.123c0-0.014,0-0.027,0-0.041c0.157,0,0.313,0,0.47,0c0-0.014,0-0.027,0-0.041
	c0.144,0,0.288,0,0.431,0c0-0.014,0-0.027,0-0.041c0.144,0,0.288,0,0.431,0c0-0.014,0-0.027,0-0.041c0.157,0,0.313,0,0.47,0
	c0-0.014,0-0.027,0-0.041c0.144,0,0.288,0,0.431,0c0-0.014,0-0.027,0-0.041c0.157,0,0.314,0,0.471,0c0-0.014,0-0.027,0-0.041
	c0.157,0,0.313,0,0.47,0c0-0.014,0-0.027,0-0.041c0.157,0,0.313,0,0.47,0c0-0.014,0-0.027,0-0.041c0.157,0,0.314,0,0.471,0
	c0-0.014,0-0.027,0-0.041c0.157,0,0.313,0,0.47,0c0-0.014,0-0.027,0-0.041c0.157,0,0.313,0,0.47,0c0,0,0.003-0.034,0.079-0.041
	c0.144,0,0.288,0,0.431,0c0-0.014,0-0.027,0-0.041c0.17,0,0.34,0,0.509,0c0-0.014,0-0.027,0-0.041c0.157,0,0.314,0,0.471,0
	c0,0,0.002-0.034,0.078-0.041c0.144,0,0.288,0,0.431,0c0-0.014,0-0.027,0-0.041c0.536-0.027,1.071-0.055,1.607-0.082
	c0-0.014,0-0.027,0-0.041c0.288-0.014,0.575-0.027,0.862-0.041c0.144,0,0.288,0,0.431,0c0-0.014,0-0.027,0-0.041
	c0.34,0,0.68,0,1.019,0c0.261-0.077,0.693-0.041,1.02-0.041c0.47-0.014,0.94-0.027,1.411-0.041c0.523,0,1.045,0,1.568,0
	c0.28,0,0.646,0.023,0.862-0.041c0.157,0,0.314,0,0.471,0c0.476,0,1.124,0.078,1.528-0.041c0.261,0,0.523,0,0.783,0
	c0.367-0.014,0.732-0.027,1.099-0.041c0-0.014,0-0.027,0-0.041c0.209,0,0.418,0,0.627,0c0-0.014,0-0.027,0-0.041
	c0.327-0.014,0.653-0.027,0.979-0.041c0-0.014,0-0.027,0-0.041c0.145,0,0.287,0,0.432,0c0.398-0.119,0.938-0.087,1.333-0.205
	c0.116,0,0.235,0,0.353,0c0-0.014,0-0.027,0-0.041c0.235-0.014,0.471-0.027,0.706-0.041C74.348,0.046,74.508,0.067,74.574,0.006z"/>
<g>
	<g>
		<path fill="#FFFFFF" d="M117.086,45.82c-0.602-0.467-1.212-0.738-1.832-0.816c-0.35-0.038-0.951,0.225-1.805,0.788
			s-1.223,1.117-1.105,1.662c0.271,1.245,1.436,2.256,3.492,3.034c0.154,0.037,0.311-0.021,0.465-0.176
			c0.155-0.155,0.397-0.242,0.729-0.263c0.328-0.021,0.609-0.292,0.843-0.815c0.231-0.526,0.312-1.062,0.233-1.605
			C118.025,46.891,117.688,46.288,117.086,45.82z M123.748,12.138c0.039-0.659-0.311-1.143-1.047-1.454
			c-0.66-0.193-1.319-0.388-1.979-0.582c-0.467-0.155-0.951-0.136-1.455,0.059c-0.504,0.195-0.795,0.523-0.873,0.989
			c-0.154,1.047-1.125,5.468-2.91,13.262c-1.164,5.274-1.744,9.734-1.744,13.379c0,0.813,0.02,1.628,0.059,2.441
			c0.115,1.552,1.163,2.521,3.143,2.908c0.349,0.078,0.728-0.029,1.135-0.32c0.406-0.289,0.609-0.609,0.609-0.959
			c-0.115-3.916,0.582-8.938,2.096-15.064C122.525,19.739,123.516,14.853,123.748,12.138z M70.417,43.398
			c-0.304-0.151-0.606-0.246-0.911-0.284c-0.057-0.007-0.181-0.025-0.37-0.058c-0.133-0.024-0.241-0.037-0.323-0.037
			c-0.177,0-0.338,0.054-0.482,0.16c0,0.032-0.016,0.073-0.043,0.125c-0.028,0.051-0.04,0.088-0.033,0.112
			c0.096,0.209,0.291,0.342,0.588,0.399c0.045,0.81,0.029,1.694-0.047,2.656c-0.082,0.059-0.146,0.109-0.193,0.157
			c-0.049,0.047-0.072,0.101-0.072,0.156c0,0.114,0.066,0.216,0.199,0.304c-0.057,0.412-0.092,0.934-0.104,1.566
			c-0.014,0.525-0.025,1.054-0.038,1.586c0.082,0.171,0.228,0.256,0.437,0.256c0.09,0,0.172-0.021,0.248-0.066
			c0.304-0.177,0.606-0.354,0.91-0.531c0.375-0.229,0.655-0.459,0.846-0.692c0.246-0.304,0.371-0.636,0.371-0.997
			c0-0.468-0.264-0.873-0.789-1.215c-0.102-0.044-0.207-0.09-0.317-0.139c-0.11-0.047-0.176-0.117-0.194-0.213
			c0.322-0.222,0.646-0.445,0.969-0.674c0.336-0.279,0.545-0.589,0.627-0.931c0.037-0.165,0.016-0.367-0.066-0.606
			C71.503,44.1,71.102,43.754,70.417,43.398z M70.352,47.586c0.119,0.146,0.181,0.313,0.181,0.503c0,0.063-0.007,0.13-0.021,0.199
			c-0.051,0.228-0.133,0.407-0.246,0.541c-0.063,0.075-0.176,0.163-0.336,0.262c-0.162,0.099-0.281,0.191-0.356,0.279
			c-0.052-0.164-0.076-0.349-0.076-0.55c0-0.141,0.019-0.348,0.053-0.622c0.034-0.275,0.052-0.479,0.052-0.612
			c0-0.076-0.002-0.146-0.01-0.209c0.045-0.02,0.092-0.027,0.143-0.027C69.822,47.35,70.027,47.428,70.352,47.586z M70.616,45.213
			c-0.146,0.208-0.313,0.357-0.503,0.445c-0.014,0.007-0.063,0.043-0.151,0.109c-0.089,0.065-0.155,0.1-0.2,0.1
			c0.008-0.202,0-0.483-0.019-0.846c-0.025-0.393-0.038-0.67-0.038-0.834c0-0.121,0.003-0.234,0.01-0.342
			c0.031-0.014,0.061-0.021,0.085-0.021c0.052,0,0.114,0.024,0.19,0.075c0.107,0.063,0.187,0.104,0.236,0.125
			c0.349,0.125,0.539,0.307,0.569,0.541C70.822,44.789,70.762,45.004,70.616,45.213z M75.314,44.007
			c-0.228-0.133-0.426-0.198-0.598-0.198c-0.045,0-0.082,0.002-0.113,0.01c-0.311,0.074-0.617,0.154-0.922,0.236
			c-0.354,0.096-0.65,0.202-0.893,0.322c-0.202,0.082-0.404,0.165-0.607,0.247c-0.215,0.106-0.326,0.253-0.332,0.437
			c-0.007,0.196,0.168,0.33,0.522,0.398c-0.038,0.551-0.063,0.852-0.076,0.902c-0.013,0.05-0.065,0.1-0.155,0.146
			c-0.093,0.047-0.143,0.1-0.147,0.156c-0.021,0.113,0.06,0.23,0.237,0.352c-0.058,0.438-0.058,0.93,0,1.48
			c0.019,0.189,0.101,0.359,0.246,0.513c0.146,0.151,0.308,0.25,0.483,0.294c0.563,0.146,1.229,0.206,1.994,0.182
			c0.101-0.008,0.179-0.053,0.231-0.139c0.055-0.085,0.071-0.179,0.054-0.279c-0.058-0.305-0.175-0.438-0.353-0.398
			c-0.037,0-0.086,0.023-0.143,0.07c-0.057,0.049-0.11,0.072-0.161,0.072c-0.733,0.03-1.25-0.059-1.548-0.267
			c-0.051-0.106-0.076-0.253-0.076-0.438c0-0.271,0.061-0.642,0.182-1.109c0.176-0.069,0.414-0.107,0.711-0.114
			c0.354-0.006,0.6-0.024,0.731-0.057c0.076,0.007,0.14-0.019,0.188-0.076c0.076-0.082,0.121-0.126,0.134-0.133
			c0.045-0.025,0.065-0.06,0.065-0.104c0-0.037-0.043-0.119-0.133-0.246c-0.126-0.076-0.277-0.113-0.455-0.113
			c-0.096,0-0.244,0.016-0.445,0.048c-0.203,0.03-0.353,0.047-0.446,0.047c-0.134,0-0.25-0.019-0.353-0.058
			c0.025-0.568,0.066-0.937,0.123-1.102c0.234-0.095,0.58-0.205,1.035-0.332c0.456-0.127,0.801-0.236,1.035-0.332
			c0.044-0.031,0.066-0.072,0.066-0.124c0-0.03-0.014-0.082-0.039-0.151C75.335,44.08,75.322,44.032,75.314,44.007z M77.537,43.398
			c-0.305-0.151-0.607-0.246-0.911-0.284c-0.058-0.007-0.181-0.025-0.37-0.058c-0.133-0.024-0.24-0.037-0.322-0.037
			c-0.178,0-0.34,0.054-0.484,0.16c0,0.032-0.014,0.073-0.042,0.125c-0.029,0.051-0.04,0.088-0.033,0.112
			c0.095,0.209,0.291,0.342,0.588,0.399c0.045,0.81,0.028,1.694-0.047,2.656c-0.083,0.059-0.147,0.109-0.194,0.157
			c-0.048,0.047-0.07,0.101-0.07,0.156c0,0.114,0.065,0.216,0.199,0.304c-0.059,0.412-0.093,0.934-0.104,1.566
			c-0.013,0.525-0.024,1.054-0.038,1.586c0.082,0.171,0.229,0.256,0.438,0.256c0.088,0,0.17-0.021,0.246-0.066
			c0.305-0.177,0.607-0.354,0.911-0.531c0.373-0.229,0.655-0.459,0.845-0.692c0.248-0.304,0.371-0.636,0.371-0.997
			c0-0.468-0.264-0.873-0.789-1.215c-0.101-0.044-0.207-0.09-0.316-0.139c-0.111-0.047-0.176-0.117-0.194-0.213
			c0.322-0.222,0.646-0.445,0.968-0.674c0.336-0.279,0.545-0.589,0.627-0.931c0.039-0.165,0.017-0.367-0.065-0.606
			C78.622,44.1,78.221,43.754,77.537,43.398z M77.471,47.586c0.12,0.146,0.182,0.313,0.182,0.503c0,0.063-0.008,0.13-0.021,0.199
			c-0.051,0.228-0.133,0.407-0.246,0.541c-0.063,0.075-0.176,0.163-0.338,0.262c-0.161,0.099-0.278,0.191-0.354,0.279
			c-0.051-0.164-0.076-0.349-0.076-0.55c0-0.141,0.018-0.348,0.053-0.622c0.034-0.275,0.053-0.479,0.053-0.612
			c0-0.076-0.004-0.146-0.011-0.209c0.045-0.02,0.093-0.027,0.144-0.027C76.941,47.35,77.146,47.428,77.471,47.586z M77.736,45.213
			c-0.146,0.208-0.313,0.357-0.504,0.445c-0.012,0.007-0.063,0.043-0.151,0.109c-0.088,0.065-0.154,0.1-0.199,0.1
			c0.007-0.202,0-0.483-0.019-0.846c-0.025-0.393-0.038-0.67-0.038-0.834c0-0.121,0.003-0.234,0.01-0.342
			c0.031-0.014,0.06-0.021,0.085-0.021c0.051,0,0.114,0.024,0.189,0.075c0.107,0.063,0.188,0.104,0.238,0.125
			c0.348,0.125,0.536,0.307,0.568,0.541C77.941,44.789,77.882,45.004,77.736,45.213z M81.629,45.021
			c-0.031-0.258-0.066-0.519-0.104-0.777c-0.051-0.305-0.166-0.531-0.342-0.684c-0.069-0.058-0.148-0.086-0.238-0.086
			c-0.119,0-0.198,0.045-0.236,0.133c-0.165,0.398-0.352,0.973-0.561,1.719c-0.246,0.861-0.428,1.449-0.541,1.766
			c-0.014,0.045-0.071,0.078-0.176,0.1c-0.104,0.022-0.172,0.052-0.199,0.086c-0.028,0.035-0.043,0.068-0.043,0.101
			c0,0.038,0.045,0.093,0.134,0.161c0.088,0.07,0.129,0.133,0.122,0.189c-0.02,0.196-0.122,0.525-0.313,0.987
			c-0.158,0.404-0.229,0.728-0.209,0.968c0.014,0.121,0.124,0.215,0.333,0.285c0.164,0.051,0.271,0.02,0.322-0.095
			c0.103-0.241,0.206-0.592,0.313-1.054c0.112-0.5,0.205-0.85,0.274-1.045c0.14-0.121,0.332-0.196,0.579-0.229
			c0.215-0.02,0.43-0.038,0.646-0.057c0.119,0.322,0.225,0.725,0.313,1.205c0.082,0.443,0.277,0.693,0.588,0.75
			c0.038,0.006,0.111-0.038,0.219-0.133c0.108-0.096,0.161-0.207,0.161-0.332c0-0.076-0.019-0.166-0.057-0.267
			C82.273,47.747,81.945,46.518,81.629,45.021z M80.434,46.932c0.139-0.525,0.303-1.052,0.492-1.576
			c0.059,0.254,0.117,0.506,0.182,0.76c0.063,0.291,0.104,0.554,0.123,0.787C80.8,46.902,80.534,46.912,80.434,46.932z
			 M83.859,45.555c-0.058-0.158-0.086-0.328-0.086-0.513c0-0.494,0.172-0.912,0.514-1.254c0.038-0.037,0.076-0.058,0.113-0.058
			c0.007,0,0.055,0.014,0.143,0.039c0.059,0.019,0.111,0.016,0.162-0.011c0.184-0.095,0.275-0.204,0.275-0.332
			c0-0.069-0.032-0.139-0.097-0.209C84.751,43.072,84.552,43,84.286,43c-0.14,0-0.282,0.034-0.429,0.104
			c-0.315,0.151-0.56,0.401-0.729,0.75c-0.151,0.305-0.229,0.648-0.229,1.035c0,0.469,0.205,1.094,0.613,1.875
			c0.408,0.78,0.612,1.377,0.612,1.788c0,0.291-0.067,0.576-0.2,0.854c-0.031,0.068-0.095,0.107-0.189,0.113
			c-0.094,0.006-0.154,0.025-0.18,0.058c-0.096,0.106-0.143,0.198-0.143,0.274c0,0.127,0.095,0.231,0.283,0.313
			c0.052,0.019,0.104,0.028,0.162,0.028c0.146,0,0.311-0.066,0.494-0.199c0.228-0.171,0.369-0.311,0.426-0.418
			c0.172-0.322,0.258-0.658,0.258-1.006c0-0.424-0.152-0.94-0.456-1.549C84.126,46.114,83.885,45.624,83.859,45.555z M89.945,43.398
			c-0.305-0.151-0.607-0.246-0.912-0.284c-0.057-0.007-0.18-0.025-0.37-0.058c-0.134-0.024-0.24-0.037-0.322-0.037
			c-0.178,0-0.339,0.054-0.483,0.16c0,0.032-0.016,0.073-0.043,0.125c-0.028,0.051-0.039,0.088-0.033,0.112
			c0.095,0.209,0.291,0.342,0.589,0.399c0.044,0.81,0.028,1.694-0.048,2.656c-0.082,0.059-0.146,0.109-0.194,0.157
			c-0.048,0.047-0.071,0.101-0.071,0.156c0,0.114,0.066,0.216,0.199,0.304c-0.057,0.412-0.092,0.934-0.104,1.566
			c-0.014,0.525-0.025,1.054-0.037,1.586c0.082,0.171,0.228,0.256,0.437,0.256c0.089,0,0.171-0.021,0.246-0.066
			c0.306-0.177,0.608-0.354,0.912-0.531c0.373-0.229,0.654-0.459,0.845-0.692c0.247-0.304,0.37-0.636,0.37-0.997
			c0-0.468-0.263-0.873-0.788-1.215c-0.102-0.044-0.207-0.09-0.318-0.139c-0.109-0.047-0.174-0.117-0.193-0.213
			c0.323-0.222,0.646-0.445,0.969-0.674c0.336-0.279,0.545-0.589,0.627-0.931c0.037-0.165,0.016-0.367-0.066-0.606
			C91.029,44.1,90.629,43.754,89.945,43.398z M89.879,47.586c0.12,0.146,0.18,0.313,0.18,0.503c0,0.063-0.006,0.13-0.019,0.199
			c-0.051,0.228-0.133,0.407-0.247,0.541c-0.063,0.075-0.176,0.163-0.337,0.262s-0.28,0.191-0.354,0.279
			c-0.052-0.164-0.076-0.349-0.076-0.55c0-0.141,0.018-0.348,0.052-0.622c0.034-0.275,0.053-0.479,0.053-0.612
			c0-0.076-0.004-0.146-0.01-0.209c0.044-0.02,0.092-0.027,0.144-0.027C89.35,47.35,89.557,47.428,89.879,47.586z M90.145,45.213
			c-0.146,0.208-0.313,0.357-0.502,0.445c-0.014,0.007-0.063,0.043-0.152,0.109c-0.09,0.065-0.155,0.1-0.199,0.1
			c0.006-0.202,0-0.483-0.02-0.846c-0.024-0.393-0.037-0.67-0.037-0.834c0-0.121,0.002-0.234,0.009-0.342
			c0.032-0.014,0.062-0.021,0.086-0.021c0.051,0,0.112,0.024,0.188,0.075c0.107,0.063,0.188,0.104,0.237,0.125
			c0.349,0.125,0.538,0.307,0.57,0.541C90.35,44.789,90.29,45.004,90.145,45.213z M94.844,44.007
			c-0.229-0.133-0.428-0.198-0.599-0.198c-0.044,0-0.082,0.002-0.113,0.01c-0.312,0.074-0.616,0.154-0.921,0.236
			c-0.354,0.096-0.652,0.202-0.893,0.322c-0.203,0.082-0.405,0.165-0.607,0.247c-0.216,0.106-0.326,0.253-0.332,0.437
			c-0.007,0.196,0.167,0.33,0.521,0.398c-0.039,0.551-0.063,0.852-0.076,0.902c-0.014,0.05-0.064,0.1-0.156,0.146
			s-0.141,0.1-0.146,0.156c-0.02,0.113,0.061,0.23,0.236,0.352c-0.057,0.438-0.057,0.93,0,1.48c0.02,0.189,0.102,0.359,0.247,0.513
			c0.146,0.151,0.308,0.25,0.484,0.294c0.563,0.146,1.228,0.206,1.993,0.182c0.102-0.008,0.179-0.053,0.232-0.139
			c0.055-0.085,0.07-0.179,0.053-0.279c-0.058-0.305-0.175-0.438-0.353-0.398c-0.038,0-0.085,0.023-0.142,0.07
			c-0.059,0.049-0.111,0.072-0.162,0.072c-0.734,0.03-1.25-0.059-1.547-0.267c-0.051-0.106-0.076-0.253-0.076-0.438
			c0-0.271,0.06-0.642,0.181-1.109c0.177-0.069,0.414-0.107,0.712-0.114c0.354-0.006,0.598-0.024,0.73-0.057
			c0.076,0.007,0.14-0.019,0.189-0.076c0.075-0.082,0.12-0.126,0.133-0.133c0.045-0.025,0.066-0.06,0.066-0.104
			c0-0.037-0.045-0.119-0.133-0.246c-0.127-0.076-0.279-0.113-0.456-0.113c-0.095,0-0.243,0.016-0.446,0.048
			c-0.201,0.03-0.351,0.047-0.445,0.047c-0.133,0-0.25-0.019-0.352-0.058c0.023-0.568,0.066-0.937,0.123-1.102
			c0.234-0.095,0.579-0.205,1.035-0.332c0.455-0.127,0.8-0.236,1.033-0.332c0.045-0.031,0.066-0.072,0.066-0.124
			c0-0.03-0.013-0.082-0.037-0.151C94.863,44.08,94.85,44.032,94.844,44.007z M99.505,44.33c-0.007-0.014-0.007-0.059,0-0.135
			c0-0.063-0.01-0.094-0.028-0.094c-0.013,0-0.031,0.01-0.058,0.027c-0.12-0.068-0.239-0.104-0.36-0.104
			c-0.151,0-0.26,0.06-0.322,0.18c0.013,0.158,0.02,0.32,0.02,0.484c0,0.424-0.053,1.063-0.156,1.918
			c-0.104,0.854-0.156,1.496-0.156,1.927c0,0.026,0.004,0.051,0.004,0.077c-0.131-0.139-0.264-0.277-0.432-0.43
			c-0.689-0.625-1.037-0.941-1.045-0.949c-0.101-0.082-0.201-0.164-0.304-0.246c-0.133-0.113-0.199-0.213-0.199-0.295
			c0-0.075,0.058-0.146,0.171-0.209c0.278-0.15,0.514-0.359,0.702-0.625c0.222-0.299,0.333-0.596,0.333-0.894
			c0-0.354-0.117-0.685-0.352-0.987c-0.254-0.328-0.551-0.5-0.893-0.513c-0.678-0.03-1.048,0.147-1.111,0.541
			c-0.094,0.589-0.143,1.313-0.143,2.175v1.034c-0.007,0.507-0.021,0.942-0.048,1.31c-0.006,0.045-0.021,0.158-0.047,0.343
			c-0.024,0.157-0.038,0.284-0.038,0.38c0,0.322,0.139,0.516,0.418,0.579c0.044,0.013,0.1,0.003,0.166-0.028
			s0.105-0.048,0.118-0.048c0.082-0.31,0.14-0.728,0.171-1.253c0.051-0.696,0.086-1.126,0.104-1.291
			c0.272,0.234,0.688,0.652,1.244,1.253c0.5,0.538,0.918,0.937,1.254,1.196c0.117-0.029,0.207-0.066,0.278-0.106
			c0.045,0.013,0.073,0.037,0.129,0.04c0.189,0.006,0.313-0.079,0.37-0.257c-0.007-0.158-0.01-0.319-0.01-0.483
			c0-0.443,0.044-1.099,0.133-1.966c0.089-0.866,0.133-1.516,0.133-1.944c0-0.196-0.006-0.388-0.019-0.57
			C99.521,44.361,99.512,44.35,99.505,44.33z M96.049,46.104c0.014-0.164,0.014-0.375,0-0.636c-0.02-0.342-0.027-0.554-0.027-0.636
			c0-0.203,0.016-0.383,0.047-0.541c0.039-0.096,0.134-0.143,0.285-0.143c0.203,0,0.35,0.054,0.44,0.16
			c0.091,0.107,0.147,0.229,0.167,0.361c0.006,0.088,0,0.189-0.02,0.305C96.872,45.336,96.574,45.713,96.049,46.104z
			 M100.977,45.555c-0.058-0.158-0.086-0.328-0.086-0.513c0-0.494,0.172-0.912,0.514-1.254c0.037-0.037,0.076-0.058,0.113-0.058
			c0.006,0,0.055,0.014,0.144,0.039c0.057,0.019,0.11,0.016,0.161-0.011c0.184-0.095,0.275-0.204,0.275-0.332
			c0-0.069-0.033-0.139-0.096-0.209c-0.134-0.146-0.333-0.218-0.6-0.218c-0.139,0-0.28,0.034-0.426,0.104
			c-0.317,0.151-0.562,0.401-0.731,0.75c-0.151,0.305-0.228,0.648-0.228,1.035c0,0.469,0.203,1.094,0.611,1.875
			c0.408,0.78,0.612,1.377,0.612,1.788c0,0.291-0.066,0.576-0.199,0.854c-0.032,0.068-0.097,0.107-0.19,0.113
			c-0.095,0.006-0.154,0.025-0.18,0.058c-0.096,0.106-0.143,0.198-0.143,0.274c0,0.127,0.095,0.231,0.283,0.313
			c0.051,0.019,0.104,0.028,0.162,0.028c0.146,0,0.311-0.066,0.493-0.199c0.228-0.171,0.37-0.311,0.429-0.418
			c0.17-0.322,0.256-0.658,0.256-1.006c0-0.424-0.151-0.94-0.457-1.549C101.242,46.114,101.001,45.624,100.977,45.555z
			 M103.748,44.33c-0.006-0.014-0.006-0.059,0-0.135c0-0.063-0.01-0.094-0.027-0.094c-0.014,0-0.033,0.01-0.058,0.027
			c-0.12-0.068-0.241-0.104-0.361-0.104c-0.151,0-0.259,0.06-0.321,0.18c0.013,0.158,0.019,0.32,0.019,0.484
			c0,0.424-0.052,1.063-0.156,1.918c-0.104,0.854-0.157,1.496-0.157,1.927c0,0.247,0.014,0.479,0.039,0.702
			c0.024,0.222,0.174,0.339,0.445,0.352c0.189,0.006,0.313-0.079,0.37-0.257c-0.006-0.158-0.009-0.319-0.009-0.483
			c0-0.443,0.044-1.099,0.133-1.966c0.088-0.866,0.133-1.516,0.133-1.944c0-0.196-0.007-0.388-0.02-0.57
			C103.764,44.361,103.755,44.35,103.748,44.33z M106.454,47.842c-0.397-0.232-0.795-0.468-1.187-0.701
			c0.17-0.267,0.56-0.713,1.166-1.34c0.521-0.537,0.867-1.003,1.045-1.396c-0.013-0.17-0.143-0.256-0.39-0.256
			c-0.089,0-0.171,0.017-0.247,0.047c-0.277,0.33-0.56,0.656-0.845,0.979c-0.335,0.386-0.634,0.696-0.894,0.931
			c0.014-0.506-0.027-1.189-0.123-2.051c-0.006-0.076-0.054-0.132-0.143-0.166c-0.089-0.035-0.174-0.064-0.256-0.091
			c-0.083,0.013-0.162,0.025-0.236,0.038c-0.103,0.025-0.146,0.076-0.135,0.152c0.089,0.492,0.135,1.074,0.135,1.746
			c0,0.222-0.008,0.553-0.021,0.992s-0.019,0.771-0.019,0.991c0,0.614,0.037,1.148,0.112,1.604c0.024,0.164,0.121,0.275,0.285,0.332
			c0.021,0.044,0.065,0.066,0.144,0.066c0.068,0,0.123-0.014,0.16-0.039c0.133-0.057,0.199-0.16,0.199-0.313
			c0-0.044-0.006-0.117-0.02-0.219c-0.013-0.102-0.02-0.178-0.02-0.229c-0.013-0.438-0.027-0.771-0.047-1.006
			c0.893,0.531,1.551,0.932,1.975,1.195c0.038,0.025,0.072,0.039,0.104,0.039c0.03,0,0.077-0.017,0.138-0.049
			c0.061-0.031,0.109-0.047,0.146-0.047c0.02,0,0.041,0.004,0.065,0.01c0.052-0.151,0.076-0.246,0.076-0.285
			c0-0.057-0.019-0.102-0.058-0.133C107.271,48.391,106.896,48.121,106.454,47.842z M25.287,36.609
			c-0.521-4.608-0.521-9.392-0.87-14.174C24.2,22,24.244,21.218,24.244,20.522c-0.479-1.479-0.609-3.348-1.043-4.826
			c-0.348-1.87-0.261-4.261-1.131-5.435c-0.957,0.043-1.304,0.392-2.043,0.696c-0.783,3.261-1.348,6.739-2.174,9.913
			c-0.696-2.043-1.609-3.783-2.348-5.783v-0.608c-0.739-1.087-0.913-2.957-2.087-3.522c-0.348,0.435-0.652,0.13-1.174,0.261
			c-0.13,0.348-0.217,0.826-0.521,1v2c-0.392,2.348,0,5.435-0.174,7.957c-0.044,0.652-0.218,1.304-0.261,1.826
			c0,0.174,0.13,0.348,0.13,0.435c0,0.609-0.261,1.565-0.13,2.174c0.261,0.435,0.043,1.522,0.13,2.217
			c0.218,2.478-0.174,6.348,0,8.827c0.305,0.087,0.522-0.437,0.696,0c0.217-0.35,0.522-0.565,0.87-0.522
			c0.739-2.391,0.522-6.782,0.826-9.174c-0.435-2.174-0.13-5.174,0.217-7.348c-0.174-0.739-0.304-1.957-0.13-2.826
			c0.392,0.826,0.739,1.696,0.913,2.826c0.652,1.087,0.826,2.826,1.218,4.261c0.304,0.348,0.521,0.739,0.521,1.392
			c0.479,0.261,0.435,1.217,1,1.348c0.174,0.783,0.696,1.043,1.087,1.565c0.348-0.043,0.695-0.043,0.87,0.174
			c1.13-0.392,0.348-2.391,0.695-3.696c-0.13-1.696,0.392-3.913,0.913-5.304c0.739,5.521,0.696,12.13,1.174,18
			c0.391,0.436,1.043,0.521,1.087,1.393c0.217,0,0.435-0.044,0.391,0.261c0.218-0.261,0.739-0.131,1.044-0.261
			c0.13-0.393,0.348-0.609,0.521-0.87C25.461,37.957,24.939,37.262,25.287,36.609z M37.418,32.044
			c-0.479-2.782-1.043-5.521-1.218-8.652c-0.217-0.957-0.435-2-0.435-3.217c-0.348-0.87-0.609-1.826-0.609-3.131
			c-0.608-1.87-1.087-3.913-1.783-5.696c-0.261-0.087-0.565-0.174-0.521-0.608c-0.652-0.348-1,0.565-1.435,0.174
			c-0.304,0.522-0.652,0.957-1.174,1.217c-0.392,2-0.305,4.043-0.522,6.131c-0.174,1.261-0.565,3.478-0.783,4.608
			c-0.217,1.087-0.261,2.305-0.435,3.348c-0.043,0.304-0.261,0.521-0.305,0.783c-0.13,0.739-0.174,2-0.217,2.348
			c-0.261,3.129,0.087,6.392-0.696,8.739c0.783,0.305,1.174,0.043,1.739,0.174c0.217-0.174,0.261-0.564,0.696-0.521
			c-0.043-0.437,0.13-0.609,0.261-0.87c0.13-2.262,0.696-3.913,0.826-6.13c1.174,0.217,1.696,0.13,3,0.087
			c0.261,2.261,0.565,4.436,1.348,6.043c0.957,0.087,1.392,0.783,2.305,0.436c0.13-0.392,0.391-0.652,0.521-1.043
			C37.81,34.957,37.114,33.35,37.418,32.044z M30.809,28.392c0.392-2.609,1.131-4.826,1.348-7.696
			c0.087,0.043,0.13,0.087,0.217,0.087c0.348,2.522,0.609,5.13,1,7.609C32.635,28.479,31.548,28.566,30.809,28.392z M50.158,25.566
			c-0.435-0.739-1.043-0.565-1.608-0.913c-0.174,0.043-0.261,0.217-0.435,0.261c-1.652-0.174-2.739,0.522-4.044,0.87
			c0.044,0.348-0.348,0.13-0.261,0.522c0.87,0.696,1.609,1.957,3,1.478c0,0.609,0.174,1.043,0.043,1.826
			c0,0.13,0.174,0.087,0.087,0.261c0.043,1.913-0.565,3.218-0.913,4.393c-0.217,0.694-0.392,1.694-1.174,1.435
			c-2-3.435-1.696-9.217-2.13-14.217c0.13-1.043,0.087-1.87,0.217-2.913c-0.217-0.304-0.043-1.435,0.174-1.696
			c-0.348-0.913,0.305-2.043,0.348-3c0.565-0.304,0.913-0.913,1.391-1.304c1-0.217,1.479,0.608,1.783,1.348
			c0.826,0.087,0.783,1.043,1.783,0.913c0.305-0.261,0.435-0.739,0.696-1.043c-0.565-2.043-2.652-4.217-4.696-3.261
			c-0.391-0.087-0.609,0.043-0.913,0c0,0.13,0,0.348-0.087,0.348c-0.826,0-1.348,0.522-2.131,0.609
			c-0.391,0.608-0.652,1.652-0.826,2.478c-0.87,4.957-0.348,10.305-0.435,14.87c0.261,0,0.13,0.348,0.261,0.392
			c-0.174,1.13,0,1.913,0.348,2.522c0,0.261,0.087,0.436,0,0.781c0.435,1.957,1.608,3.132,2.479,4.608
			c0.696,0.522,1.435,0.957,2.348,1.261c0.435-0.261,1.13-0.086,1.696-0.129c0.13-0.349,0.391-0.436,0.652-0.565
			c0.13-0.826,0.783-0.956,0.826-1.913c0.217,0.131,0.087-0.305,0.304-0.174c0.043-0.913,0.609-1.608,0.87-2.521
			c0.391-1.652,0.304-3.479,0.522-5.348C50.071,27.218,50.114,26.349,50.158,25.566z M62.202,32.044
			c-0.479-2.782-1.043-5.521-1.217-8.652c-0.218-0.957-0.435-2-0.435-3.217c-0.348-0.87-0.609-1.826-0.609-3.131
			c-0.608-1.87-1.087-3.913-1.783-5.696c-0.261-0.087-0.565-0.174-0.521-0.608c-0.652-0.348-1,0.565-1.435,0.174
			c-0.304,0.522-0.652,0.957-1.174,1.217c-0.392,2-0.305,4.043-0.522,6.131c-0.174,1.261-0.565,3.478-0.783,4.608
			c-0.217,1.087-0.261,2.305-0.435,3.348c-0.043,0.304-0.261,0.521-0.305,0.783c-0.13,0.739-0.174,2-0.217,2.348
			c-0.261,3.129,0.087,6.392-0.696,8.739c0.783,0.305,1.174,0.043,1.739,0.174c0.218-0.174,0.261-0.564,0.696-0.521
			c-0.043-0.437,0.13-0.609,0.261-0.87c0.13-2.262,0.695-3.913,0.826-6.13c1.174,0.217,1.696,0.13,3,0.087
			c0.261,2.261,0.565,4.436,1.348,6.043c0.957,0.087,1.392,0.783,2.305,0.436c0.13-0.392,0.391-0.652,0.522-1.043
			C62.593,34.957,61.897,33.35,62.202,32.044z M55.592,28.392c0.392-2.609,1.131-4.826,1.348-7.696
			c0.087,0.043,0.13,0.087,0.217,0.087c0.348,2.522,0.609,5.13,1,7.609C57.418,28.479,56.332,28.566,55.592,28.392z M74.289,37.652
			c0.043-0.348,0.131-0.651,0.218-0.912c-0.175-0.739-0.608-1.219-0.782-2c-0.393-0.045-0.608-0.393-0.783-0.739
			c-1.174-0.739-2.608,0.565-3.869-0.174c-0.262,0.435-0.957-0.132-1.045,0.174c0-0.174-0.129-0.174-0.172-0.261
			c0.827-2.262,1.304-4.914,1.913-7.348c0.263,0.13,0.045-0.391,0.306-0.261c-0.043-0.783,0.305-1.043,0.261-1.783
			c0.262,0.13,0.044-0.392,0.305-0.261c0.131-1.609,0.782-2.522,1.043-3.957c1.176-1.522,1.479-3.826,2.262-5.696
			c0.175-1.348-0.435-1.826-0.608-2.739c-0.392-0.304-0.913-0.435-1.13-0.957c-3,0.217-5.174,0.957-8.349,0.87
			c-0.13,0.652,0.478,1.521,0.696,1.957c0.087,0.174,0.043,0.391,0.087,0.435c0.739,1.043,2.87,1.043,4.216,1.261
			c0.219-0.218,1-0.261,1.263-0.131c-0.349,1-0.913,1.913-1.306,2.957c-0.086,0.174,0,0.522-0.086,0.696
			c-0.045,0.13-0.219,0.13-0.306,0.261c-0.13,0.392-0.13,0.957-0.261,1.348c-0.044,0.13-0.261,0.174-0.304,0.261
			c-0.13,0.479-0.13,1.043-0.261,1.565c-0.13,0.391-0.391,0.695-0.521,1.087c-0.522,1.913-1.044,3.826-1.392,5.913
			c-0.261-0.13,0,0.348-0.304,0.261c-0.174,2.042-1.305,3.085-0.957,5.522c0.217,0.608,0.391,1.217,0.478,1.956
			c0.392,0.174,0.217,0.479,0.435,0.695c0.521,0.521,1.696,0.131,2.261,0.521c0.087-0.044,0.043-0.261,0.261-0.174
			c0.217,0.348,1,0,1.217,0.348C70.07,38.175,72.637,38.218,74.289,37.652z M79.594,16.609c0.348-0.739,0.521-1.696,0.826-2.479
			c-0.218-0.913-0.35-1.913-0.35-3.087c-0.174-0.521-0.694-0.565-0.912-1.043c-1.043,0.043-2.088,0.217-2.521,1.043
			c-1.044-0.174-0.869,1.261-1.261,1.957c0.087,0.957,0.608,1.305,0.651,2.261C77.115,15.87,77.768,17,79.594,16.609z M78.682,18.87
			c-0.479,0.565-1.393,0.565-1.826,1.174c0.174,0.696,0.391,1.522,0.086,2.261c1.131,4.217-0.043,10.435,1.305,14.39
			c0.521,0.132,0.957,0.393,1.175,0.914c0.563-0.174,0.651,0.305,1.175,0.218c0.217-0.479,0.434-0.957,0.738-1.349
			c-0.087-1.738-0.261-3.349-0.174-5.305c-0.044-1.479-0.087-3.479-0.262-5.479C80.202,23.262,80.941,19.479,78.682,18.87z
			 M89.464,30.044c0.782,1.565,1.304,3.392,2.261,4.783c-0.043,0.348,0.174,0.478,0.088,0.868c0.564,0.479,0.826,1.175,1.131,1.871
			c0.781-0.219,1.304,0.607,1.869,0.607c0.608,0,0.826-0.479,1.217-1c-0.131-0.826-0.26-1.607-0.174-2.607
			c0.393-0.306,0.436-1.262,0.174-1.739c0.349-1-0.217-1.826,0.175-2.957c-0.608-3.521-0.349-7.521-0.435-11.391
			c0-0.13-0.219-0.087-0.174-0.261c-0.175-2,0.086-4.435-0.262-6.261c0.13-0.348-0.131-1.261-0.521-1.435
			c-0.783-0.348-1.695,0.695-2.565,0.695c-0.174,0.435-0.13,0.652-0.087,0.913c0.044,0.392,0.131,1.218,0,1.652
			c-0.305,1.304-0.262,3.696,0,5.043c-0.174,0.043-0.174,0.304-0.174,0.609c0.479,2.521,0.131,6.261,0.348,8.739
			c-1.087-2.305-1.782-5.043-2.521-7.739c-0.607-0.435-0.912-1.217-0.957-2.217c-0.261,0-0.174-0.348-0.348-0.348
			c-0.695-2.13-1.348-4.261-2.043-6.304c-0.305-0.174-0.521-0.479-0.87-0.609c-1.174,0.304-2.392,0.479-2.521,1.609
			c-0.045,0.478,0.304,1,0.348,1.565c0.13,1.174,0.087,2.479-0.174,3.479c0.13,2.435,0,5.435,0.261,8.13
			c0.087,0.913-0.131,2.043,0,3.261c0.304,3.13,0.435,6.348,0.261,9.261c0.436,0.521-0.043,1.175,0.174,1.565
			c0.565-0.174,1.479,0.13,1.393-1.044c0.174-0.13,0.219,0,0.436,0c0-1.782,1.131-3.306,0.521-5.087
			c0.479-1.695-0.563-5.608,0-8.391c-0.261-1.174,0.392-2.783,0.088-4.087c0.392,1.261,0.608,2.652,1.349,3.565
			C88.027,26.783,89.159,28.044,89.464,30.044z M106.986,33.436c0.087-0.521-0.393,0-0.739-0.174
			c-0.306,0.608-0.869,0.869-1.435,1.174c-0.219,0.826-0.914,1.436-1.783,1.174c-0.043-0.564-0.348-0.781-0.608-1.086
			c-0.651-2.521-1.261-5.565-1.044-8.827c-0.087-0.087-0.304-0.043-0.261-0.261c0-0.13,0.218-0.087,0.174-0.261
			c-0.694-3-0.435-7.609,0.739-9.739c0.521,0,0.695-0.348,1.131-0.435c0.695,0.174,0.781,1.13,1.652,1.13
			c0.086,0.522,0.694,0.392,0.738,0.913c0.826,0,0.695-0.13,1.217-0.348c0.437-2.13-0.912-2.87-1.435-4.13
			c0-0.261,0.261-0.217,0.218-0.479l-0.738-1c-2.652-0.304-4.002,0.957-5.565,1.913c-0.522,1.565-1.565,3.435-1.218,5.479
			c0.087,2.783,0,5.13,0.087,7.87c0.435,3.652,0.651,7.608,1.825,10.435c0.306,0,0.306,0.348,0.74,0.261
			c-0.088,0.262,0.086,0.219,0.086,0.436c0.565-0.043,0.782,0.305,1.043,0.651c0.522-0.087,1.002,0.261,1.522,0.349
			c1.044,0.174,1.957-0.174,2.608-0.349c1.043-0.261,2.131-0.217,2.349-1.348c0.217-1.218-0.306-2.826-0.696-3.521
			C107.334,33.262,107.073,33.218,106.986,33.436z"/>
	</g>
</g>
</svg>
