<?xml version="1.0" encoding="utf-8"?>
<!-- Generator: Adobe Illustrator 16.0.3, SVG Export Plug-In . SVG Version: 6.00 Build 0)  -->
<!DOCTYPE svg PUBLIC "-//W3C//DTD SVG 1.1//EN" "http://www.w3.org/Graphics/SVG/1.1/DTD/svg11.dtd">
<svg version="1.1" id="Layer_1" xmlns="http://www.w3.org/2000/svg" xmlns:xlink="http://www.w3.org/1999/xlink" x="0px" y="0px"
	 width="135px" height="60px" viewBox="-1182 1280.5 135 60" enable-background="new -1182 1280.5 135 60" xml:space="preserve">
<g>
	<path fill="#00AFF0" d="M-1107.419,1280.506c0.587,0,1.174,0,1.763,0c0.304,0,0.703-0.029,0.941,0.041
		c0.236,0.07,0.609-0.021,0.823,0.041c0.208,0,0.417,0,0.628,0c0,0.014,0,0.027,0,0.041c0.195,0,0.391,0,0.587,0
		c0,0.014,0,0.027,0,0.041c0.053,0,0.104,0,0.156,0c0.131,0,0.261,0,0.392,0c0,0.014,0,0.027,0,0.041c0.17,0,0.34,0,0.509,0
		c0,0.014,0,0.027,0,0.041c0.17,0,0.34,0,0.51,0c0,0,0.003,0.034,0.078,0.041c0.145,0,0.288,0,0.431,0c0,0.014,0,0.027,0,0.041
		c0.183,0,0.365,0,0.548,0c0,0.014,0,0.027,0,0.041c0.195,0,0.392,0,0.587,0c0,0.014,0,0.027,0,0.041c0.21,0,0.42,0,0.628,0
		c0.074,0.007,0.077,0.041,0.077,0.041c0.289,0,0.575,0,0.862,0c0,0.014,0,0.027,0,0.041c0.015,0,0.026,0,0.041,0
		c0.268,0.046,0.611-0.021,0.823,0.041c0.848,0.027,1.698,0.055,2.547,0.082c0,0.014,0,0.027,0,0.041
		c0.352,0.014,0.706,0.027,1.057,0.041c0.17,0,0.341,0,0.512,0c0,0.014,0,0.027,0,0.041c0.325,0.014,0.652,0.027,0.979,0.041
		c0.144,0,0.287,0,0.432,0c0,0.014,0,0.027,0,0.041c0.223,0,0.443,0,0.664,0c0,0.014,0,0.027,0,0.041c0.224,0,0.444,0,0.668,0
		c0,0.014,0,0.027,0,0.041c0.195,0,0.394,0,0.588,0c0,0.014,0,0.027,0,0.041c0.262,0.014,0.521,0.027,0.783,0.041
		c0.131,0,0.261,0,0.392,0c0,0.014,0,0.027,0,0.04c0.185,0,0.367,0,0.551,0c0,0.014,0,0.026,0,0.041
		c0.509,0.026,1.021,0.055,1.529,0.081c0,0.015,0,0.027,0,0.041c0.155,0,0.313,0,0.469,0c0,0.015,0,0.027,0,0.041
		c0.146,0,0.289,0,0.433,0c0,0.015,0,0.027,0,0.041c0.156,0,0.313,0,0.47,0c0,0.015,0,0.027,0,0.041c0.144,0,0.286,0,0.431,0
		c0,0.015,0,0.027,0,0.041c0.131,0,0.264,0,0.395,0c0,0.015,0,0.027,0,0.041c0.132,0,0.262,0,0.392,0c0,0.015,0,0.027,0,0.041
		c0.132,0,0.261,0,0.392,0c0,0.015,0,0.027,0,0.041c0.131,0,0.262,0,0.395,0c0,0.015,0,0.027,0,0.041c0.13,0,0.262,0,0.393,0
		c0,0.015,0,0.027,0,0.041c0.118,0,0.233,0,0.352,0c0,0.015,0,0.027,0,0.041c0.117,0,0.233,0,0.354,0
		c0.496,0.15,1.149,0.097,1.646,0.246c0.297,0.027,0.602,0.056,0.899,0.082c1.188,0.191,2.378,0.383,3.568,0.575
		c0.34,0.108,0.766,0.176,1.097,0.286c0.065,0,0.131,0,0.196,0c1.278,0.354,2.562,0.711,3.839,1.065
		c0.104,0.015,0.213,0.027,0.316,0.041c0,0.015,0,0.027,0,0.041c0.05,0,0.104,0,0.158,0c0,0.015,0,0.027,0,0.041
		c0.049,0,0.104,0,0.152,0c0,0.015,0,0.027,0,0.041c0.119,0.015,0.236,0.027,0.354,0.041c0,0.015,0,0.027,0,0.041
		c0.119,0.015,0.235,0.027,0.354,0.041c0,0.015,0,0.027,0,0.041c0.614,0.109,1.229,0.22,1.841,0.328
		c0.264,0.014,0.523,0.026,0.785,0.041c0.229,0.066,0.611,0.04,0.902,0.04c0.51,0.001,1.294,0.085,1.725-0.04
		c0.221,0,0.443,0,0.665,0c0-0.015,0-0.027,0-0.041c0.146,0,0.287,0,0.431,0c0.076-0.007,0.082-0.041,0.082-0.041
		c0.166,0,0.336,0,0.508,0c0-0.014,0-0.026,0-0.041c0.146,0,0.287,0,0.432,0c0-0.014,0-0.026,0-0.041c0.155,0,0.313,0,0.471,0
		c0-0.014,0-0.026,0-0.041c0.155,0,0.313,0,0.469,0c0-0.014,0-0.026,0-0.041c0.155,0,0.313,0,0.472,0c0-0.014,0-0.026,0-0.041
		c0.17,0,0.339,0,0.512,0c0-0.014,0-0.026,0-0.041c0.351-0.014,0.702-0.026,1.058-0.041c0.168,0,0.338,0,0.509,0
		c0-0.014,0-0.026,0-0.041c0.186-0.055,0.926,0.002,1.058,0.041c0.146,0,0.29,0,0.434,0c0.267,0,0.569,0.019,0.782,0.082
		c0.196,0.015,0.394,0.027,0.589,0.041c0,0.015,0,0.027,0,0.041c0.078,0,0.156,0,0.235,0c0,0.015,0,0.027,0,0.041
		c0.065,0,0.13,0,0.194,0c0,0.015,0,0.027,0,0.041c0.066,0,0.132,0,0.197,0c0,0.015,0,0.027,0,0.041c0.054,0,0.104,0,0.155,0
		c0,0.014,0,0.026,0,0.041c0.054,0,0.104,0,0.158,0c0,0.014,0,0.026,0,0.041c0.051,0,0.104,0,0.156,0c0,0.014,0,0.026,0,0.04
		c0.052,0,0.104,0,0.155,0c0,0.015,0,0.027,0,0.041c0.039,0,0.082,0,0.118,0c0,0.015,0,0.027,0,0.041c0.038,0,0.078,0,0.115,0
		c0,0.015,0,0.027,0,0.041c0.041,0,0.08,0,0.119,0c0,0.015,0,0.027,0,0.041c0.038,0,0.079,0,0.119,0c0,0.015,0,0.027,0,0.041
		c0.075,0.015,0.155,0.027,0.233,0.041c0,0.015,0,0.027,0,0.041c0.026,0,0.053,0,0.079,0c0,0.015,0,0.027,0,0.041
		c0.036,0,0.076,0,0.116,0c0,0.015,0,0.027,0,0.041c0.025,0,0.05,0,0.078,0c0,0.015,0,0.027,0,0.041c0.04,0,0.079,0,0.116,0
		c0,0.015,0,0.027,0,0.041c0.081,0.027,0.157,0.056,0.235,0.082c0,0.015,0,0.027,0,0.041c0.025,0,0.053,0,0.079,0
		c0,0.015,0,0.027,0,0.041c0.026,0,0.05,0,0.078,0c0,0.015,0,0.027,0,0.041c0.026,0,0.054,0,0.079,0c0,0.015,0,0.027,0,0.041
		c0.023,0,0.05,0,0.078,0c0,0.015,0,0.027,0,0.041c0.025,0,0.054,0,0.076,0c0,0.015,0,0.026,0,0.041c0.025,0,0.055,0,0.08,0
		c0.014,0.026,0.027,0.056,0.041,0.082c0.076,0.026,0.152,0.055,0.232,0.082c0,0.014,0,0.026,0,0.041
		c0.038,0.014,0.077,0.026,0.118,0.041c0.015,0.026,0.027,0.055,0.041,0.082c0.022,0,0.05,0,0.075,0c0,0.014,0,0.026,0,0.041
		c0.041,0.014,0.079,0.026,0.118,0.041c0.014,0.026,0.026,0.055,0.038,0.082c0.029,0,0.051,0,0.078,0
		c0.027,0.041,0.055,0.082,0.082,0.123c0.021,0,0.049,0,0.075,0c0.027,0.041,0.054,0.082,0.076,0.123c0.027,0,0.056,0,0.081,0
		c0.051,0.067,0.104,0.136,0.156,0.204c0.025,0,0.051,0,0.078,0c0.104,0.123,0.212,0.246,0.314,0.369c0.026,0,0.051,0,0.075,0
		c0.054,0.067,0.104,0.137,0.158,0.205c0.026,0.014,0.055,0.026,0.078,0.041c0,0.026,0,0.055,0,0.082
		c0.13,0.123,0.261,0.246,0.392,0.369c0,0.027,0,0.056,0,0.082c0.067,0.056,0.131,0.109,0.197,0.164c0,0.027,0,0.056,0,0.082
		c0.041,0.027,0.078,0.056,0.115,0.082c0,0.027,0,0.056,0,0.082c0.043,0.026,0.08,0.054,0.117,0.081c0,0.027,0,0.055,0,0.082
		c0.043,0.027,0.082,0.055,0.117,0.082c0,0.027,0,0.055,0,0.082c0.041,0.027,0.083,0.055,0.12,0.082c0,0.027,0,0.055,0,0.082
		c0.024,0.014,0.052,0.027,0.078,0.041c0,0.027,0,0.055,0,0.082c0.026,0.014,0.052,0.027,0.077,0.041c0,0.027,0,0.055,0,0.082
		c0.025,0.014,0.053,0.027,0.08,0.041c0,0.027,0,0.055,0,0.082c0.023,0.014,0.05,0.027,0.078,0.041c0,0.026,0,0.055,0,0.082
		c0.025,0.014,0.053,0.026,0.076,0.041c0.013,0.055,0.024,0.108,0.039,0.164c0.028,0.014,0.057,0.026,0.079,0.041
		c0,0.026,0,0.055,0,0.082c0.013,0,0.025,0,0.038,0c0,0.026,0,0.055,0,0.082c0.026,0.014,0.055,0.026,0.08,0.041
		c0,0.026,0,0.055,0,0.082c0.014,0,0.024,0,0.037,0c0,0.026,0,0.054,0,0.08c0.014,0,0.027,0,0.041,0c0,0.027,0,0.056,0,0.082
		c0.014,0,0.025,0,0.04,0c0,0.027,0,0.055,0,0.082c0.022,0.014,0.051,0.027,0.077,0.041c0.027,0.082,0.054,0.164,0.076,0.246
		c0.016,0,0.026,0,0.039,0c0,0.027,0,0.055,0,0.082c0.017,0,0.028,0,0.041,0c0.027,0.082,0.052,0.164,0.078,0.246
		c0.015,0,0.027,0,0.039,0c0,0.041,0,0.082,0,0.123c0.015,0,0.026,0,0.039,0c0,0.027,0,0.055,0,0.082c0.015,0,0.026,0,0.04,0
		c0.025,0.082,0.054,0.164,0.077,0.246c0.014,0,0.026,0,0.039,0c0,0.041,0,0.082,0,0.123c0.012,0,0.027,0,0.043,0
		c0,0.027,0,0.055,0,0.082c0.012,0,0.024,0,0.037,0c0.012,0.068,0.025,0.137,0.038,0.204c0.013,0,0.024,0,0.039,0
		c0,0.041,0,0.082,0,0.122c0.015,0,0.028,0,0.042,0c0,0.027,0,0.056,0,0.082c0.01,0,0.021,0,0.035,0
		c0.027,0.123,0.053,0.246,0.082,0.369c0.123,0.329,0.24,0.722,0.35,1.067c0,0.055,0,0.108,0,0.163c0.016,0,0.029,0,0.04,0
		c0,0.056,0,0.108,0,0.164c0.013,0,0.024,0,0.038,0c0,0.055,0,0.108,0,0.164c0.014,0,0.027,0,0.041,0c0,0.055,0,0.108,0,0.164
		c0.013,0,0.025,0,0.04,0c0.103,0.67,0.207,1.339,0.313,2.009c0.012,0.328,0.025,0.656,0.037,0.982
		c0.117,0.441,0.043,1.239,0.043,1.765c0,0.293,0.02,0.676-0.043,0.902c0,0.149,0,0.301,0,0.451
		c-0.012,0.203-0.025,0.408-0.037,0.613c-0.016,0-0.025,0-0.039,0c-0.025,0.369-0.055,0.738-0.082,1.108
		c-0.09,0.33-0.102,0.781-0.191,1.105c0,0.082,0,0.164,0,0.246c-0.33,1.694-0.653,3.39-0.98,5.084
		c-0.322,1.032-0.453,2.22-0.781,3.239c-0.069,0.328-0.133,0.655-0.199,0.983c-0.014,0-0.025,0-0.036,0c0,0.041,0,0.082,0,0.123
		c-0.015,0-0.026,0-0.041,0c0,0.055,0,0.108,0,0.164c-0.013,0-0.026,0-0.041,0c0,0.055,0,0.108,0,0.163c-0.013,0-0.024,0-0.037,0
		c0,0.056,0,0.109,0,0.164c-0.014,0-0.024,0-0.037,0c-0.014,0.109-0.028,0.22-0.042,0.328c-0.242,0.71-0.386,1.547-0.625,2.255
		c-0.056,0.261-0.105,0.521-0.16,0.779c-0.15,0.446-0.276,0.987-0.432,1.435c0,0.055,0,0.109,0,0.164c-0.011,0-0.023,0-0.037,0
		c0,0.055,0,0.109,0,0.164c-0.012,0-0.025,0-0.038,0c0,0.041,0,0.082,0,0.123c-0.015,0-0.026,0-0.041,0c0,0.055,0,0.109,0,0.164
		c-0.013,0-0.024,0-0.04,0c0,0.041,0,0.082,0,0.123c-0.013,0-0.021,0-0.035,0c-0.016,0.096-0.028,0.191-0.041,0.287
		c-0.014,0-0.026,0-0.039,0c-0.016,0.096-0.027,0.191-0.039,0.287c-0.013,0-0.025,0-0.039,0c-0.015,0.095-0.026,0.189-0.041,0.286
		c-0.012,0-0.026,0-0.039,0c0,0.055,0,0.108,0,0.163c-0.014,0-0.023,0-0.038,0c0,0.041,0,0.082,0,0.123c-0.013,0-0.025,0-0.038,0
		c0,0.056,0,0.109,0,0.164c-0.396,1.143-0.628,2.427-1.02,3.567c-0.014,0.109-0.026,0.219-0.039,0.328
		c-0.138,0.395-0.256,0.876-0.392,1.271c0,0.055,0,0.108,0,0.164c-0.015,0-0.028,0-0.041,0c0,0.042,0,0.083,0,0.124
		c-0.015,0-0.028,0-0.04,0c0,0.055,0,0.108,0,0.164c-0.012,0-0.025,0-0.038,0c0,0.055,0,0.108,0,0.163
		c-0.204,0.589-0.347,1.294-0.55,1.886c-0.052,0.26-0.104,0.52-0.155,0.778c-0.204,0.621-0.338,1.351-0.549,1.969
		c-0.052,0.26-0.104,0.521-0.156,0.779c-0.014,0-0.026,0-0.039,0c-0.039,0.19-0.08,0.382-0.117,0.573c-0.014,0-0.025,0-0.039,0
		c0,0.041,0,0.082,0,0.123c-0.014,0-0.026,0-0.039,0c-0.016,0.096-0.026,0.19-0.04,0.287c-0.013,0-0.025,0-0.037,0
		c-0.017,0.096-0.028,0.19-0.042,0.286c-0.012,0-0.025,0-0.038,0c-0.024,0.138-0.051,0.273-0.078,0.41c-0.015,0-0.026,0-0.041,0
		c0,0.055,0,0.108,0,0.164c-0.01,0-0.024,0-0.037,0c0,0.041,0,0.082,0,0.123c-0.015,0-0.024,0-0.041,0c0,0.04,0,0.081,0,0.122
		c-0.012,0-0.024,0-0.036,0c0,0.056,0,0.109,0,0.164c-0.014,0-0.027,0-0.041,0c-0.012,0.082-0.024,0.164-0.037,0.246
		c-0.018,0-0.026,0-0.041,0c0,0.041,0,0.082,0,0.123c-0.013,0-0.025,0-0.039,0c0,0.041,0,0.082,0,0.123c-0.013,0-0.025,0-0.039,0
		c0,0.041,0,0.082,0,0.123c-0.013,0-0.026,0-0.039,0c0,0.041,0,0.082,0,0.123c-0.015,0-0.025,0-0.038,0c0,0.041,0,0.082,0,0.123
		c-0.013,0-0.026,0-0.04,0c-0.012,0.082-0.025,0.164-0.039,0.246c-0.014,0-0.024,0-0.038,0c-0.015,0.081-0.028,0.163-0.04,0.246
		c-0.014,0-0.025,0-0.039,0c0,0.041,0,0.082,0,0.123c-0.013,0-0.025,0-0.039,0c0,0.041,0,0.082,0,0.123c-0.013,0-0.025,0-0.039,0
		c0,0.041,0,0.082,0,0.123c-0.013,0-0.027,0-0.039,0c0,0.041,0,0.082,0,0.123c-0.015,0-0.027,0-0.04,0c0,0.026,0,0.055,0,0.082
		c-0.012,0-0.024,0-0.036,0c-0.017,0.082-0.026,0.164-0.041,0.246c-0.013,0-0.028,0-0.039,0c0,0.026,0,0.055,0,0.082
		c-0.015,0-0.026,0-0.039,0c-0.013,0.081-0.026,0.163-0.039,0.245c-0.015,0-0.025,0-0.039,0c-0.014,0.068-0.026,0.138-0.041,0.205
		c-0.012,0-0.025,0-0.039,0c0,0.027,0,0.056,0,0.082c-0.012,0-0.024,0-0.038,0c0,0.041,0,0.082,0,0.123c-0.015,0-0.027,0-0.039,0
		c0,0.026,0,0.054,0,0.081c-0.013,0-0.024,0-0.04,0c0,0.041,0,0.082,0,0.123c-0.014,0-0.025,0-0.039,0c0,0.027,0,0.055,0,0.082
		c-0.014,0-0.025,0-0.04,0c0,0.041,0,0.082,0,0.123c-0.013,0-0.024,0-0.037,0c-0.014,0.055-0.026,0.109-0.04,0.164
		c-0.012,0-0.025,0-0.039,0c0,0.041,0,0.082,0,0.123c-0.015,0-0.025,0-0.04,0c-0.013,0.055-0.026,0.109-0.039,0.164
		c-0.012,0-0.022,0-0.036,0c0,0.041,0,0.082,0,0.123c-0.016,0-0.028,0-0.041,0c0,0.026,0,0.055,0,0.082c-0.012,0-0.024,0-0.041,0
		c-0.022,0.082-0.05,0.164-0.076,0.246c-0.015,0-0.024,0-0.039,0c0,0.041,0,0.082,0,0.123c-0.014,0-0.026,0-0.038,0
		c0,0.026,0,0.055,0,0.082c-0.015,0-0.028,0-0.041,0c0,0.026,0,0.055,0,0.082c-0.015,0-0.027,0-0.038,0c0,0.026,0,0.055,0,0.082
		c-0.016,0-0.028,0-0.039,0c-0.025,0.08-0.053,0.162-0.08,0.244c-0.011,0-0.025,0-0.038,0c-0.038,0.123-0.078,0.246-0.118,0.369
		c-0.025,0.014-0.051,0.027-0.078,0.041c0,0.027,0,0.055,0,0.082c-0.014,0-0.025,0-0.037,0c0,0.027,0,0.055,0,0.082
		c-0.014,0-0.027,0-0.041,0c0,0.027,0,0.055,0,0.082c-0.012,0-0.023,0-0.039,0c0,0.027,0,0.055,0,0.082
		c-0.025,0.014-0.053,0.027-0.078,0.041c-0.014,0.055-0.025,0.109-0.038,0.164c-0.027,0.014-0.052,0.027-0.079,0.041
		c0,0.027,0,0.055,0,0.082c-0.027,0.014-0.051,0.027-0.079,0.041c0,0.027,0,0.055,0,0.082c-0.038,0.027-0.078,0.056-0.117,0.083
		c0,0.027,0,0.055,0,0.082c-0.038,0.027-0.078,0.055-0.116,0.082c0,0.027,0,0.055,0,0.082c-0.094,0.08-0.184,0.162-0.272,0.244
		c-0.026,0.041-0.054,0.082-0.08,0.123c-0.026,0-0.052,0-0.079,0c-0.025,0.041-0.053,0.082-0.079,0.123c-0.022,0-0.052,0-0.077,0
		c-0.014,0.027-0.027,0.056-0.039,0.082c-0.025,0-0.05,0-0.076,0c0,0.015,0,0.027,0,0.041c-0.08,0.027-0.158,0.056-0.234,0.082
		c0,0.015,0,0.027,0,0.041c-0.042,0-0.079,0-0.118,0c0,0.015,0,0.027,0,0.041c-0.055,0-0.106,0-0.158,0c0,0.015,0,0.027,0,0.041
		c-0.176,0.055-0.936-0.003-1.06-0.041c-0.09,0-0.182,0-0.274,0c0-0.014,0-0.026,0-0.041c-0.063,0-0.131,0-0.196,0
		c0-0.014,0-0.026,0-0.041c-0.063,0-0.131,0-0.193,0c-0.592-0.199-1.227-0.369-1.764-0.615c-0.08-0.014-0.156-0.026-0.236-0.041
		c0-0.014,0-0.025,0-0.039c-0.038,0-0.076,0-0.118,0c0-0.014,0-0.027,0-0.041c-0.037,0-0.075,0-0.117,0c0-0.014,0-0.027,0-0.041
		c-0.039,0-0.075,0-0.116,0c0-0.014,0-0.027,0-0.041c-0.026,0-0.054,0-0.078,0c0-0.014,0-0.027,0-0.041
		c-0.115-0.027-0.236-0.055-0.354-0.082c-0.438-0.185-0.938-0.335-1.41-0.493c-0.131-0.014-0.262-0.027-0.394-0.041
		c-0.285-0.095-0.653-0.152-0.938-0.246c-0.132-0.014-0.263-0.027-0.393-0.041c-0.358-0.118-0.817-0.169-1.176-0.287
		c-0.131-0.014-0.26-0.027-0.391-0.041c-0.361-0.117-0.816-0.169-1.177-0.287c-0.132-0.014-0.262-0.026-0.392-0.039
		c-0.371-0.121-0.851-0.172-1.217-0.287c-0.145-0.015-0.287-0.027-0.431-0.041c-0.471-0.151-1.062-0.181-1.53-0.328
		c-0.154-0.015-0.313-0.027-0.47-0.041c-0.696-0.219-1.567-0.197-2.272-0.41c-0.195-0.014-0.394-0.027-0.59-0.041
		c-0.467-0.143-1.095-0.105-1.564-0.246c-0.133,0-0.264,0-0.395,0c0-0.014,0-0.027,0-0.041c-0.115,0-0.232,0-0.353,0
		c0-0.014,0-0.027,0-0.041c-0.142,0-0.286,0-0.433,0c0-0.014,0-0.027,0-0.041c-0.146,0-0.289,0-0.434,0c0-0.014,0-0.027,0-0.041
		c-0.141,0-0.284,0-0.43,0c-0.01,0-0.023,0-0.037,0c0-0.014,0-0.027,0-0.041c-0.199,0-0.391,0-0.589,0c0-0.014,0-0.027,0-0.041
		c-0.168,0-0.343,0-0.511,0c-0.418,0-0.982-0.061-1.33,0.041c-0.224,0-0.445,0-0.668,0c0,0.014,0,0.027,0,0.041
		c-0.172,0-0.34,0-0.511,0c0,0.014,0,0.027,0,0.041c-0.155,0-0.313,0-0.469,0c0,0.014,0,0.027,0,0.041c-0.155,0-0.313,0-0.473,0
		c0,0.014,0,0.027,0,0.041c-0.145,0-0.285,0-0.431,0c0,0.014,0,0.027,0,0.041c-0.156,0-0.313,0-0.472,0c0,0.014,0,0.027,0,0.041
		c-0.183,0-0.364,0-0.549,0c0,0.014,0,0.027,0,0.041c-1.347,0.027-2.69,0.055-4.035,0.082c-0.403,0.119-1.054,0.041-1.53,0.041
		c-0.156,0-0.313,0-0.469,0c0,0.014,0,0.027,0,0.041c-0.706,0-1.412,0-2.116,0c-0.196,0-0.395,0-0.589,0c0,0.014,0,0.027,0,0.041
		c-1.098,0-2.195,0-3.292,0c-1.777-0.014-3.554-0.027-5.331-0.041c0-0.014,0-0.027,0-0.041c-0.235,0-0.47,0-0.706,0
		c-0.248,0-0.495,0-0.744,0c0-0.014,0-0.027,0-0.041c-0.065,0-0.13,0-0.195,0c-0.306-0.004-0.702,0.029-0.942-0.041
		c-0.313,0-0.626,0-0.939,0c-0.232-0.068-0.627,0.029-0.863-0.041c0-0.014,0-0.027,0-0.041c-0.274,0-0.549,0-0.823,0
		c0-0.014,0-0.027,0-0.041c-0.013,0-0.026,0-0.039,0c-0.26,0-0.522,0-0.784,0c0-0.014,0-0.027,0-0.041
		c-0.366-0.014-0.732-0.027-1.097-0.041c-0.17,0-0.34,0-0.51,0c0-0.014,0-0.027,0-0.041c-0.339-0.014-0.678-0.027-1.019-0.041
		c-0.17,0-0.339,0-0.509,0c-0.19-0.057-0.53,0.021-0.745-0.041c-0.19-0.057-0.53,0.023-0.745-0.041c0-0.014,0-0.027,0-0.041
		c-0.234,0-0.47,0-0.705,0c0-0.014,0-0.027,0-0.04c-0.235,0-0.471,0-0.706,0c0-0.014,0-0.026,0-0.041
		c-0.326-0.014-0.653-0.026-0.979-0.041c-0.143,0-0.288,0-0.431,0c0-0.014,0-0.026,0-0.041c-0.902-0.041-1.804-0.082-2.706-0.123
		c0-0.014,0-0.026,0-0.041c-0.287-0.014-0.574-0.026-0.862-0.041c-0.144,0-0.288,0-0.431,0c0-0.014,0-0.026,0-0.041
		c-0.223,0-0.445,0-0.666,0c0-0.014,0-0.026,0-0.041c-0.289-0.014-0.577-0.026-0.864-0.041c-0.143,0-0.287,0-0.43,0
		c0-0.014,0-0.026,0-0.041c-0.273-0.014-0.549-0.026-0.823-0.041c-0.144,0-0.287,0-0.431,0c0-0.014,0-0.026,0-0.041
		c-0.275-0.014-0.549-0.026-0.823-0.041c-0.144,0-0.288,0-0.431,0c0-0.014,0-0.026,0-0.04c-0.209,0-0.419,0-0.628,0
		c0-0.015,0-0.027,0-0.041c-0.195,0-0.391,0-0.588,0c0-0.015,0-0.027,0-0.041c-0.274-0.015-0.549-0.027-0.823-0.041
		c-0.145,0-0.287,0-0.431,0c0-0.015,0-0.027,0-0.041c-0.196,0-0.393,0-0.588,0c0-0.015,0-0.027,0-0.041
		c-0.811-0.041-1.621-0.082-2.429-0.123c0-0.015,0-0.027,0-0.041c-0.276-0.015-0.55-0.027-0.825-0.041c-0.13,0-0.26,0-0.391,0
		c0-0.015,0-0.027,0-0.041c-0.184,0-0.367,0-0.55,0c0-0.015,0-0.027,0-0.041c-0.052,0-0.103,0-0.156,0c-0.13,0-0.261,0-0.392,0
		c0-0.015,0-0.027,0-0.041c-0.17,0-0.34,0-0.51,0c0-0.015,0-0.027,0-0.041c-0.17,0-0.339,0-0.509,0c0-0.015,0-0.027,0-0.041
		c-0.158,0-0.314,0-0.472,0c0-0.015,0-0.027,0-0.041c-0.155,0-0.312,0-0.469,0c0-0.015,0-0.027,0-0.041c-0.157,0-0.315,0-0.471,0
		c0-0.015,0-0.027,0-0.041c-0.469-0.027-0.941-0.056-1.411-0.082c0-0.015,0-0.027,0-0.041c-0.157,0-0.314,0-0.47,0
		c0-0.015,0-0.027,0-0.041c-0.157,0-0.314,0-0.47,0c0-0.015,0-0.028,0-0.042c-0.171,0-0.341,0-0.51,0c0-0.014,0-0.027,0-0.041
		c-0.169,0-0.339,0-0.509,0c0-0.014,0-0.027,0-0.041c-0.171,0-0.34,0-0.509,0c0-0.014,0-0.027,0-0.04c-0.131,0-0.262,0-0.393,0
		c-0.04,0-0.079,0-0.118,0c0-0.015,0-0.027,0-0.041c-0.195,0-0.391,0-0.588,0c0-0.015,0-0.027,0-0.041
		c-0.417-0.015-0.836-0.027-1.254-0.041c-0.191-0.058-0.529,0.021-0.745-0.041c0-0.015,0-0.027,0-0.041c-0.313,0-0.627,0-0.938,0
		c0-0.015,0-0.027,0-0.041c-0.172,0-0.342,0-0.511,0c-0.301,0-0.601,0-0.901,0c-0.352-0.103-0.914-0.041-1.333-0.041
		c-0.246,0-0.562-0.013-0.744,0.041c-0.431,0-0.862,0-1.293,0c0,0.014,0,0.026,0,0.041c-0.497,0.014-0.992,0.026-1.489,0.041
		c0,0.014,0,0.026,0,0.041c-0.261,0.014-0.523,0.026-0.785,0.041c-0.131,0-0.261,0-0.391,0c0,0.014,0,0.026,0,0.041
		c-0.184,0-0.366,0-0.55,0c-0.053,0.016,0.016,0.03-0.04,0.041c-0.143,0-0.287,0-0.431,0c0,0.013,0,0.026,0,0.04
		c-0.156,0-0.314,0-0.47,0c0,0.014,0,0.027,0,0.041c-0.144,0-0.288,0-0.431,0c0,0.014,0,0.027,0,0.041c-0.145,0-0.288,0-0.432,0
		c0,0.014,0,0.027,0,0.042c-0.143,0-0.287,0-0.431,0c0,0.014,0,0.026,0,0.041c-0.13,0-0.261,0-0.391,0c0,0.014,0,0.026,0,0.041
		c-0.367,0.026-0.732,0.055-1.098,0.082c0,0.014,0,0.026,0,0.041c-0.118,0-0.235,0-0.354,0c0,0.014,0,0.026,0,0.041
		c-0.104,0-0.209,0-0.313,0c0,0.014,0,0.026,0,0.041c-0.118,0-0.236,0-0.354,0c-0.639,0.192-1.481,0.137-2.115,0.328
		c-0.289,0.026-0.574,0.055-0.863,0.082c0,0.014,0,0.026,0,0.041c-0.091,0-0.182,0-0.274,0c0,0.014,0,0.026,0,0.041
		c-0.092,0-0.183,0-0.273,0c0,0.014,0,0.026,0,0.041c-0.092,0-0.184,0-0.275,0c-0.628,0.192-1.414,0.174-2.038,0.368
		c-0.249,0.027-0.497,0.056-0.745,0.082c0,0.015,0,0.027,0,0.041c-0.157,0.015-0.313,0.027-0.469,0.041
		c-0.633,0.198-1.411,0.211-2.04,0.409c-0.155,0.014-0.313,0.027-0.47,0.041c-0.528,0.17-1.198,0.197-1.724,0.369
		c-0.144,0.014-0.288,0.027-0.432,0.041c-0.445,0.143-1.006,0.188-1.451,0.328c-0.077,0-0.157,0-0.235,0
		c-0.431,0.139-0.979,0.189-1.411,0.328c-0.079,0-0.157,0-0.236,0c0,0.014,0,0.026,0,0.041c-0.064,0-0.13,0-0.196,0
		c0,0.014,0,0.026,0,0.041c-0.064,0-0.13,0-0.196,0c0,0.014,0,0.026,0,0.041c-0.065,0-0.131,0-0.197,0c0,0.014,0,0.026,0,0.041
		c-0.065,0-0.131,0-0.196,0c-0.818,0.276-1.755,0.399-2.547,0.695c-0.105,0.014-0.208,0.027-0.313,0.041c0,0.014,0,0.027,0,0.041
		c-0.052,0-0.104,0-0.156,0c0,0.014,0,0.027,0,0.041c-0.04,0-0.079,0-0.119,0c0,0.014,0,0.027,0,0.041
		c-0.143,0.027-0.287,0.055-0.431,0.082c0,0.014,0,0.027,0,0.041c-0.104,0.014-0.209,0.027-0.313,0.041c0,0.014,0,0.027,0,0.041
		c-0.039,0-0.079,0-0.117,0c0,0.014,0,0.027,0,0.041c-0.144,0.027-0.289,0.055-0.432,0.082c0,0.014,0,0.027,0,0.041
		c-0.104,0.014-0.208,0.027-0.313,0.041c-0.484,0.181-1.017,0.331-1.529,0.493c-0.079,0-0.158,0-0.235,0c0,0.014,0,0.027,0,0.041
		c-0.256,0.076-0.625-0.028-0.783-0.082c-0.053,0-0.106,0-0.158,0c0-0.014,0-0.027,0-0.042c-0.026,0-0.053,0-0.079,0
		c0-0.014,0-0.027,0-0.041c-0.039,0-0.078,0-0.118,0c-0.278-0.13-0.503-0.4-0.706-0.615c-0.039-0.027-0.079-0.055-0.118-0.082
		c0-0.027,0-0.055,0-0.082c-0.039-0.027-0.078-0.055-0.118-0.082c0-0.027,0-0.055,0-0.082c-0.025-0.014-0.053-0.027-0.079-0.041
		c-0.012-0.055-0.025-0.109-0.039-0.164c-0.013,0-0.026,0-0.039,0c-0.027-0.082-0.052-0.164-0.079-0.244c-0.014,0-0.026,0-0.038,0
		c0-0.041,0-0.082,0-0.123c-0.013,0-0.027,0-0.041,0c0-0.027,0-0.056,0-0.082c-0.013,0-0.024,0-0.038,0c0-0.041,0-0.082,0-0.123
		c-0.014,0-0.027,0-0.041,0c0-0.041,0-0.082,0-0.123c-0.011,0-0.024,0-0.039,0c0-0.041,0-0.082,0-0.123c-0.013,0-0.026,0-0.037,0
		c0-0.041,0-0.082,0-0.123c-0.014,0-0.028,0-0.042,0c-0.051-0.232-0.103-0.465-0.155-0.697c-0.013,0-0.027,0-0.04,0
		c0-0.041,0-0.082,0-0.123c-0.013,0-0.024,0-0.038,0c0-0.041,0-0.082,0-0.123c-0.014,0-0.028,0-0.04,0c0-0.041,0-0.082,0-0.122
		c-0.013,0-0.025,0-0.039,0c-0.014-0.096-0.026-0.19-0.039-0.287c-0.013,0-0.027,0-0.041,0c-0.013-0.108-0.026-0.219-0.038-0.327
		c-0.015,0-0.028,0-0.041,0c-0.024-0.164-0.053-0.328-0.078-0.492c-0.012,0-0.026,0-0.04,0c0-0.068,0-0.138,0-0.205
		c-0.014,0-0.027,0-0.038,0c0-0.068,0-0.138,0-0.205c-0.014,0-0.027,0-0.041,0c0-0.069,0-0.138,0-0.205c-0.014,0-0.025,0-0.04,0
		c0-0.068,0-0.138,0-0.205c-0.013,0-0.026,0-0.039,0c0-0.082,0-0.164,0-0.246c-0.096-0.338-0.101-0.801-0.195-1.147
		c0-0.123,0-0.246,0-0.369c-0.013,0-0.027,0-0.041,0c0-0.137,0-0.272,0-0.409c-0.012,0-0.025,0-0.038,0c0-0.164,0-0.328,0-0.492
		c-0.014,0-0.026,0-0.039,0c0-0.231,0-0.465,0-0.696c-0.112-0.42-0.04-1.179-0.04-1.682c0-0.293-0.021-0.677,0.04-0.902
		c0-0.231,0-0.465,0-0.696c0.013,0,0.025,0,0.039,0c0-0.149,0-0.301,0-0.45c0.122-0.45,0.074-1.065,0.197-1.518
		c0-0.149,0-0.301,0-0.451c0.012,0,0.024,0,0.038,0c0.012-0.328,0.028-0.656,0.04-0.983c0.013,0,0.026,0,0.039,0
		c0-0.179,0-0.354,0-0.533c0.014,0,0.026,0,0.04,0c0-0.178,0-0.354,0-0.533c0.013,0,0.026,0,0.041,0
		c0.011-0.26,0.024-0.52,0.038-0.778c0-0.137,0-0.272,0-0.409c0.013,0,0.028,0,0.04,0c0-0.179,0-0.355,0-0.533
		c0.012,0,0.025,0,0.039,0c0.04-0.683,0.08-1.367,0.118-2.051c0.014,0,0.028,0,0.041,0c0-0.137,0-0.272,0-0.409
		c0.012,0,0.025,0,0.039,0c0-0.137,0-0.272,0-0.41c0.014,0,0.026,0,0.039,0c0-0.123,0-0.246,0-0.369c0.012,0,0.025,0,0.04,0
		c0-0.108,0-0.219,0-0.327c0.077-0.274,0.081-0.672,0.156-0.942c0-0.097,0-0.191,0-0.287c0.012,0,0.026,0,0.041,0
		c0.013-0.164,0.024-0.328,0.037-0.492c0.159-0.544,0.194-1.191,0.354-1.723c0-0.068,0-0.137,0-0.205
		c0.071-0.234,0.126-0.546,0.195-0.778c0-0.067,0-0.137,0-0.205c0.301-0.97,0.422-2.093,0.745-3.033c0-0.056,0-0.109,0-0.164
		c0.013,0,0.026,0,0.039,0c0-0.056,0-0.109,0-0.164c0.013,0,0.026,0,0.04,0c0-0.056,0-0.109,0-0.164c0.012,0,0.025,0,0.039,0
		c0-0.055,0-0.109,0-0.164c0.014,0,0.026,0,0.039,0c0-0.041,0-0.082,0-0.123c0.013,0,0.026,0,0.04,0c0-0.055,0-0.109,0-0.164
		c0.013,0,0.025,0,0.039,0c0-0.055,0-0.109,0-0.164c0.013,0,0.027,0,0.039,0c0.013-0.096,0.025-0.191,0.04-0.286
		c0.013,0,0.026,0,0.039,0c0.013-0.108,0.026-0.219,0.04-0.328c0.246-0.715,0.42-1.545,0.665-2.256c0-0.055,0-0.109,0-0.164
		c0.014,0,0.027,0,0.04,0c0-0.041,0-0.082,0-0.123c0.014,0,0.025,0,0.04,0c0-0.055,0-0.109,0-0.164
		c0.251-0.721,0.458-1.535,0.706-2.254c0.051-0.232,0.104-0.465,0.156-0.697c0.508-1.462,0.905-3.05,1.411-4.51
		c0.013-0.096,0.026-0.19,0.04-0.287c0.275-0.729,0.49-1.55,0.783-2.256c0.027-0.123,0.053-0.246,0.079-0.369
		c0.013,0,0.026,0,0.039,0c0-0.027,0-0.055,0-0.082c0.014,0,0.026,0,0.04,0c0.026-0.123,0.053-0.246,0.078-0.367
		c0.013,0,0.026,0,0.04,0c0-0.027,0-0.056,0-0.082c0.013,0,0.026,0,0.039,0c0.026-0.123,0.053-0.246,0.079-0.369
		c0.013,0,0.026,0,0.039,0c0-0.027,0-0.055,0-0.082c0.014,0,0.027,0,0.04,0c0.014-0.082,0.026-0.164,0.039-0.246
		c0.014,0,0.026,0,0.04,0c0-0.027,0-0.055,0-0.082c0.013,0,0.026,0,0.039,0c0.013-0.082,0.026-0.164,0.04-0.246
		c0.013,0,0.026,0,0.04,0c0-0.027,0-0.055,0-0.082c0.013,0,0.026,0,0.039,0c0.013-0.082,0.026-0.164,0.04-0.246
		c0.012,0,0.025,0,0.038,0c0-0.027,0-0.055,0-0.082c0.013,0,0.027,0,0.04,0c0-0.041,0-0.082,0-0.123c0.013,0,0.026,0,0.04,0
		c0-0.04,0-0.081,0-0.122c0.35-0.841,0.653-1.762,0.98-2.625c0.066-0.246,0.131-0.492,0.196-0.736c0.013,0,0.026,0,0.038,0
		c0-0.027,0-0.056,0-0.082c0.015,0,0.028,0,0.04,0c0.026-0.123,0.053-0.246,0.078-0.369c0.014,0,0.027,0,0.041,0
		c0.012-0.055,0.025-0.109,0.039-0.164c0.014,0,0.026,0,0.039,0c0.04-0.123,0.079-0.246,0.118-0.369
		c0.026-0.014,0.052-0.027,0.079-0.041c0.013-0.055,0.027-0.109,0.04-0.164c0.026-0.014,0.053-0.027,0.078-0.041
		c0-0.027,0-0.055,0-0.082c0.04-0.027,0.079-0.055,0.119-0.081c0-0.026,0-0.055,0-0.082c0.09-0.082,0.182-0.164,0.273-0.246
		c0.053-0.067,0.105-0.137,0.157-0.205c0.026,0,0.052,0,0.079,0c0.013-0.026,0.025-0.055,0.039-0.081c0.027,0,0.053,0,0.079,0
		c0.013-0.027,0.026-0.056,0.04-0.082c0.078-0.027,0.155-0.056,0.234-0.082c0-0.015,0-0.027,0-0.041
		c0.079-0.027,0.158-0.057,0.235-0.083c0-0.015,0-0.027,0-0.041c0.04,0,0.079,0,0.119,0c0-0.015,0-0.027,0-0.041
		c0.025,0,0.052,0,0.077,0c0-0.015,0-0.027,0-0.041c0.34-0.097,0.68-0.191,1.02-0.287c0.078,0,0.157,0,0.234,0
		c0-0.015,0-0.027,0-0.041c0.078,0,0.157,0,0.235,0c0-0.015,0-0.027,0-0.041c0.092,0,0.182,0,0.274,0c0-0.015,0-0.027,0-0.041
		c0.118,0,0.235,0,0.353,0c0-0.015,0-0.027,0-0.041c0.393-0.027,0.784-0.055,1.175-0.082c1.177-0.204,2.352-0.409,3.528-0.614
		c0.091,0,0.183,0,0.274,0c0.229-0.07,0.559-0.097,0.785-0.164c0.09,0,0.182,0,0.275,0c0.326-0.101,0.769-0.104,1.096-0.205
		c0.654-0.082,1.307-0.164,1.96-0.246c0.415-0.127,0.958-0.12,1.373-0.246c0.104,0,0.208,0,0.312,0
		c0.241-0.071,0.585-0.091,0.824-0.163c0.092,0,0.183,0,0.275,0c0-0.015,0-0.027,0-0.041c0.092,0,0.184,0,0.274,0
		c0-0.015,0-0.027,0-0.041c0.091,0,0.184,0,0.273,0c0-0.015,0-0.027,0-0.041c0.093,0,0.184,0,0.274,0
		c0.571-0.177,1.308-0.152,1.882-0.328c0.183-0.014,0.366-0.026,0.55-0.041c0-0.014,0-0.026,0-0.041c0.089,0,0.182,0,0.274,0
		c0-0.014,0-0.026,0-0.041c0.091,0,0.183,0,0.273,0c0-0.014,0-0.026,0-0.041c0.092,0,0.184,0,0.274,0c0-0.014,0-0.026,0-0.041
		c0.196-0.014,0.393-0.026,0.589-0.041c0.52-0.159,1.202-0.129,1.725-0.286c0.197-0.015,0.392-0.027,0.588-0.041
		c0.546-0.167,1.254-0.122,1.803-0.287c0.208-0.015,0.418-0.027,0.627-0.041c0-0.015,0-0.027,0-0.041c0.104,0,0.21,0,0.313,0
		c0-0.015,0-0.027,0-0.041c0.104,0,0.21,0,0.313,0c0.484-0.146,1.12-0.101,1.606-0.246c0.209-0.015,0.419-0.026,0.628-0.041
		c0-0.014,0-0.026,0-0.041c0.34-0.026,0.679-0.055,1.019-0.082c0.504-0.151,1.177-0.094,1.685-0.245c0.118,0,0.236,0,0.354,0
		c0-0.014,0-0.027,0-0.041c0.116,0,0.234,0,0.353,0c0-0.014,0-0.027,0-0.041c0.117,0,0.235,0,0.353,0c0-0.014,0-0.027,0-0.041
		c0.117,0,0.235,0,0.353,0c0-0.014,0-0.027,0-0.041c0.117,0,0.235,0,0.353,0c0-0.014,0-0.027,0-0.041c0.116,0,0.235,0,0.352,0
		c0-0.014,0-0.027,0-0.041c0.119,0,0.236,0,0.353,0c0-0.014,0-0.027,0-0.042c0.378-0.027,0.758-0.055,1.137-0.082
		c0.443-0.133,1.045-0.072,1.49-0.205c0.131,0,0.262,0,0.392,0c0-0.014,0-0.026,0-0.041c0.13,0,0.261,0,0.392,0
		c0-0.014,0-0.026,0-0.041c0.131,0,0.262,0,0.392,0c0-0.014,0-0.026,0-0.041c0.131,0,0.262,0,0.394,0c0-0.014,0-0.026,0-0.041
		c0.13,0,0.261,0,0.391,0c0-0.014,0-0.026,0-0.041c0.144,0,0.29,0,0.432,0c0-0.014,0-0.026,0-0.041c0.131,0,0.261,0,0.392,0
		c0-0.014,0-0.026,0-0.041c0.143,0,0.287,0,0.431,0c0-0.014,0-0.026,0-0.041c0.13,0,0.26,0,0.392,0c0-0.014,0-0.026,0-0.041
		c0.562-0.041,1.125-0.082,1.685-0.123c0-0.014,0-0.026,0-0.041c0.158,0,0.313,0,0.471,0c0-0.014,0-0.026,0-0.041
		c0.143,0,0.287,0,0.431,0c0-0.014,0-0.026,0-0.041c0.145,0,0.288,0,0.431,0c0-0.014,0-0.026,0-0.041c0.156,0,0.314,0,0.47,0
		c0-0.014,0-0.026,0-0.041c0.143,0,0.287,0,0.432,0c0-0.014,0-0.026,0-0.04c0.156,0,0.313,0,0.47,0c0-0.015,0-0.027,0-0.041
		c0.157,0,0.314,0,0.471,0c0-0.015,0-0.027,0-0.041c0.155,0,0.313,0,0.469,0c0-0.015,0-0.027,0-0.041c0.157,0,0.313,0,0.47,0
		c0-0.015,0-0.027,0-0.041c0.157,0,0.313,0,0.471,0c0-0.015,0-0.027,0-0.041c0.156,0,0.313,0,0.47,0c0,0,0.002-0.034,0.079-0.041
		c0.143,0,0.287,0,0.431,0c0-0.015,0-0.027,0-0.041c0.168,0,0.339,0,0.508,0c0-0.013,0-0.026,0-0.04c0.158,0,0.315,0,0.472,0
		c0,0,0.003-0.034,0.078-0.041c0.145,0,0.29,0,0.432,0c0-0.014,0-0.027,0-0.041c0.535-0.027,1.071-0.055,1.607-0.082
		c0-0.014,0-0.027,0-0.041c0.287-0.014,0.575-0.027,0.861-0.041c0.144,0,0.29,0,0.432,0c0-0.014,0-0.027,0-0.041
		c0.339,0,0.68,0,1.018,0c0.261-0.077,0.693-0.041,1.02-0.041c0.47-0.014,0.941-0.027,1.411-0.041c0.523,0,1.045,0,1.568,0
		c0.279,0,0.646,0.021,0.862-0.041c0.157,0,0.314,0,0.47,0c0.477,0,1.125,0.078,1.528-0.041c0.262,0,0.523,0,0.785,0
		c0.367-0.014,0.732-0.027,1.097-0.041c0-0.014,0-0.027,0-0.041c0.209,0,0.418,0,0.627,0c0-0.014,0-0.027,0-0.041
		c0.327-0.014,0.653-0.027,0.98-0.041c0-0.014,0-0.027,0-0.041c0.143,0,0.287,0,0.432,0c0.4-0.119,0.937-0.087,1.332-0.205
		c0.118,0,0.235,0,0.353,0c0-0.014,0-0.027,0-0.041c0.235-0.014,0.471-0.027,0.706-0.041
		C-1107.648,1280.546-1107.488,1280.566-1107.419,1280.506z"/>
	<g>
		<g>
			<path fill="#FFFFFF" d="M-1055.998,1293.141c0.038-0.659-0.311-1.145-1.048-1.453c-0.66-0.194-1.319-0.39-1.979-0.582
				c-0.466-0.155-0.949-0.138-1.455,0.058c-0.502,0.194-0.795,0.524-0.871,0.989c-0.155,1.048-1.123,5.47-2.91,13.266
				c-1.163,5.275-1.745,9.735-1.745,13.382c0,0.813,0.02,1.628,0.06,2.443c0.114,1.551,1.164,2.521,3.141,2.908
				c0.351,0.077,0.729-0.028,1.135-0.319c0.408-0.291,0.611-0.611,0.611-0.96c-0.115-3.917,0.58-8.94,2.095-15.068
				C-1057.218,1300.742-1056.23,1295.856-1055.998,1293.141z M-1062.662,1326.831c-0.598-0.468-1.21-0.739-1.831-0.817
				c-0.351-0.038-0.949,0.225-1.805,0.788c-0.854,0.563-1.222,1.117-1.105,1.662c0.272,1.245,1.437,2.257,3.493,3.035
				c0.155,0.037,0.311-0.021,0.465-0.176s0.396-0.242,0.729-0.263c0.326-0.02,0.611-0.292,0.841-0.815
				c0.235-0.527,0.313-1.063,0.235-1.606C-1061.72,1327.9-1062.058,1327.298-1062.662,1326.831z M-1109.328,1324.407
				c-0.304-0.15-0.607-0.246-0.911-0.284c-0.058-0.007-0.181-0.024-0.371-0.058c-0.132-0.024-0.24-0.037-0.323-0.037
				c-0.176,0-0.338,0.054-0.483,0.16c0,0.032-0.014,0.073-0.043,0.124c-0.027,0.052-0.039,0.089-0.032,0.114
				c0.094,0.208,0.291,0.341,0.588,0.398c0.044,0.811,0.027,1.695-0.047,2.657c-0.083,0.059-0.147,0.109-0.195,0.157
				c-0.047,0.047-0.072,0.101-0.072,0.156c0,0.114,0.067,0.216,0.199,0.304c-0.057,0.412-0.091,0.934-0.104,1.566
				c-0.014,0.526-0.025,1.055-0.039,1.587c0.082,0.171,0.228,0.256,0.437,0.256c0.088,0,0.171-0.021,0.247-0.066
				c0.304-0.177,0.607-0.354,0.911-0.531c0.375-0.229,0.656-0.459,0.845-0.692c0.249-0.305,0.372-0.637,0.372-0.998
				c0-0.468-0.263-0.873-0.788-1.215c-0.103-0.044-0.208-0.09-0.318-0.139c-0.111-0.047-0.176-0.117-0.194-0.213
				c0.322-0.222,0.645-0.445,0.969-0.675c0.334-0.278,0.543-0.588,0.625-0.93c0.039-0.165,0.016-0.367-0.067-0.606
				C-1108.243,1325.108-1108.644,1324.763-1109.328,1324.407z M-1109.394,1328.596c0.12,0.146,0.18,0.313,0.18,0.503
				c0,0.063-0.006,0.13-0.019,0.199c-0.05,0.228-0.133,0.408-0.246,0.541c-0.065,0.076-0.177,0.164-0.338,0.263
				c-0.161,0.099-0.28,0.191-0.354,0.279c-0.051-0.164-0.076-0.349-0.076-0.551c0-0.141,0.017-0.348,0.052-0.622
				c0.034-0.275,0.052-0.479,0.052-0.612c0-0.076-0.003-0.146-0.009-0.209c0.043-0.02,0.091-0.027,0.142-0.027
				C-1109.922,1328.359-1109.717,1328.438-1109.394,1328.596z M-1109.128,1326.223c-0.146,0.209-0.313,0.357-0.503,0.445
				c-0.013,0.007-0.063,0.043-0.151,0.109c-0.089,0.065-0.156,0.1-0.2,0.1c0.007-0.202,0-0.483-0.018-0.846
				c-0.026-0.392-0.039-0.67-0.039-0.835c0-0.121,0.002-0.234,0.01-0.343c0.031-0.013,0.06-0.02,0.084-0.02
				c0.051,0,0.115,0.024,0.19,0.075c0.108,0.063,0.187,0.104,0.238,0.125c0.348,0.125,0.538,0.308,0.57,0.542
				C-1108.922,1325.799-1108.984,1326.014-1109.128,1326.223z M-1104.43,1325.016c-0.228-0.133-0.428-0.198-0.597-0.198
				c-0.045,0-0.083,0.002-0.114,0.01c-0.311,0.076-0.618,0.154-0.921,0.236c-0.354,0.096-0.652,0.203-0.891,0.323
				c-0.203,0.082-0.405,0.165-0.608,0.247c-0.216,0.106-0.326,0.253-0.333,0.437c-0.006,0.196,0.167,0.33,0.522,0.398
				c-0.037,0.551-0.063,0.852-0.076,0.902c-0.013,0.05-0.064,0.1-0.155,0.146c-0.092,0.047-0.141,0.1-0.148,0.156
				c-0.02,0.113,0.06,0.23,0.236,0.352c-0.057,0.438-0.057,0.931,0,1.48c0.021,0.189,0.103,0.359,0.247,0.514
				c0.146,0.151,0.309,0.25,0.486,0.294c0.563,0.146,1.228,0.206,1.992,0.182c0.102-0.008,0.179-0.053,0.233-0.139
				c0.054-0.085,0.072-0.179,0.053-0.279c-0.057-0.306-0.175-0.438-0.352-0.399c-0.037,0-0.085,0.023-0.142,0.071
				s-0.11,0.071-0.16,0.071c-0.735,0.03-1.251-0.059-1.548-0.267c-0.049-0.106-0.075-0.253-0.075-0.438
				c0-0.271,0.059-0.642,0.18-1.109c0.177-0.069,0.414-0.107,0.711-0.114c0.355-0.006,0.6-0.024,0.732-0.057
				c0.076,0.007,0.139-0.019,0.19-0.076c0.076-0.082,0.119-0.126,0.133-0.133c0.043-0.025,0.066-0.06,0.066-0.104
				c0-0.037-0.045-0.119-0.133-0.246c-0.127-0.076-0.28-0.113-0.456-0.113c-0.096,0-0.244,0.016-0.447,0.048
				c-0.202,0.03-0.351,0.047-0.446,0.047c-0.133,0-0.251-0.019-0.352-0.058c0.025-0.568,0.066-0.937,0.124-1.102
				c0.233-0.095,0.579-0.205,1.034-0.332c0.456-0.126,0.801-0.236,1.035-0.332c0.045-0.031,0.066-0.072,0.066-0.124
				c0-0.03-0.013-0.083-0.038-0.152C-1104.408,1325.089-1104.422,1325.041-1104.43,1325.016z M-1102.208,1324.407
				c-0.304-0.15-0.608-0.246-0.911-0.284c-0.058-0.007-0.181-0.024-0.371-0.058c-0.134-0.024-0.241-0.037-0.323-0.037
				c-0.177,0-0.338,0.054-0.484,0.16c0,0.032-0.013,0.073-0.042,0.124c-0.029,0.052-0.039,0.089-0.033,0.114
				c0.094,0.208,0.291,0.341,0.589,0.398c0.043,0.811,0.028,1.695-0.049,2.657c-0.081,0.059-0.146,0.109-0.194,0.157
				c-0.047,0.047-0.071,0.101-0.071,0.156c0,0.114,0.067,0.216,0.2,0.304c-0.058,0.412-0.092,0.934-0.105,1.566
				c-0.012,0.526-0.025,1.055-0.038,1.587c0.082,0.171,0.228,0.256,0.437,0.256c0.089,0,0.171-0.021,0.247-0.066
				c0.304-0.177,0.608-0.354,0.912-0.531c0.374-0.229,0.655-0.459,0.845-0.692c0.248-0.305,0.37-0.637,0.37-0.998
				c0-0.468-0.263-0.873-0.789-1.215c-0.101-0.044-0.206-0.09-0.317-0.139c-0.112-0.047-0.176-0.117-0.195-0.213
				c0.323-0.222,0.646-0.445,0.969-0.675c0.334-0.278,0.545-0.588,0.625-0.93c0.039-0.165,0.016-0.367-0.066-0.606
				C-1101.122,1325.108-1101.525,1324.763-1102.208,1324.407z M-1102.273,1328.596c0.12,0.146,0.18,0.313,0.18,0.503
				c0,0.063-0.006,0.13-0.018,0.199c-0.051,0.228-0.133,0.408-0.247,0.541c-0.063,0.076-0.175,0.164-0.337,0.263
				c-0.162,0.099-0.281,0.191-0.356,0.279c-0.051-0.164-0.076-0.349-0.076-0.551c0-0.141,0.017-0.348,0.051-0.622
				c0.035-0.275,0.053-0.479,0.053-0.612c0-0.076-0.002-0.146-0.009-0.209c0.045-0.02,0.092-0.027,0.143-0.027
				C-1102.803,1328.359-1102.597,1328.438-1102.273,1328.596z M-1102.009,1326.223c-0.146,0.209-0.313,0.357-0.503,0.445
				c-0.012,0.007-0.063,0.043-0.152,0.109c-0.089,0.065-0.155,0.1-0.199,0.1c0.006-0.202,0-0.483-0.02-0.846
				c-0.024-0.392-0.037-0.67-0.037-0.835c0-0.121,0.002-0.234,0.008-0.343c0.032-0.013,0.061-0.02,0.086-0.02
				c0.05,0,0.114,0.024,0.19,0.075c0.108,0.063,0.186,0.104,0.238,0.125c0.348,0.125,0.538,0.308,0.57,0.542
				C-1101.804,1325.799-1101.863,1326.014-1102.009,1326.223z M-1098.117,1326.031c-0.031-0.259-0.067-0.519-0.105-0.777
				c-0.05-0.306-0.163-0.532-0.342-0.685c-0.07-0.058-0.147-0.086-0.236-0.086c-0.121,0-0.2,0.045-0.238,0.133
				c-0.164,0.398-0.351,0.974-0.56,1.72c-0.247,0.861-0.428,1.449-0.542,1.766c-0.014,0.045-0.071,0.078-0.176,0.1
				c-0.104,0.022-0.171,0.052-0.199,0.087c-0.028,0.034-0.042,0.067-0.042,0.1c0,0.038,0.043,0.092,0.132,0.161
				c0.087,0.07,0.129,0.133,0.123,0.189c-0.019,0.196-0.123,0.525-0.313,0.987c-0.158,0.405-0.229,0.729-0.209,0.969
				c0.013,0.12,0.125,0.215,0.333,0.285c0.164,0.051,0.271,0.02,0.322-0.095c0.101-0.241,0.206-0.592,0.313-1.055
				c0.114-0.5,0.206-0.85,0.276-1.045c0.139-0.12,0.332-0.196,0.579-0.229c0.217-0.02,0.43-0.038,0.645-0.057
				c0.12,0.322,0.226,0.725,0.313,1.205c0.083,0.444,0.279,0.694,0.589,0.751c0.037,0.006,0.11-0.038,0.219-0.133
				c0.108-0.096,0.161-0.207,0.161-0.332c0-0.077-0.019-0.167-0.056-0.268C-1097.471,1328.757-1097.8,1327.527-1098.117,1326.031z
				 M-1099.314,1327.941c0.141-0.525,0.305-1.052,0.494-1.576c0.057,0.254,0.118,0.507,0.181,0.76
				c0.064,0.291,0.105,0.554,0.125,0.787C-1098.945,1327.912-1099.211,1327.922-1099.314,1327.941z M-1095.886,1326.564
				c-0.056-0.158-0.085-0.328-0.085-0.513c0-0.494,0.171-0.912,0.512-1.254c0.039-0.038,0.077-0.059,0.116-0.059
				c0.005,0,0.053,0.014,0.141,0.039c0.058,0.02,0.112,0.016,0.164-0.011c0.183-0.095,0.275-0.205,0.275-0.332
				c0-0.069-0.032-0.139-0.096-0.209c-0.133-0.146-0.333-0.218-0.599-0.218c-0.138,0-0.28,0.034-0.427,0.104
				c-0.315,0.151-0.559,0.401-0.731,0.75c-0.151,0.305-0.227,0.649-0.227,1.035c0,0.47,0.204,1.095,0.613,1.875
				c0.407,0.781,0.612,1.378,0.612,1.789c0,0.291-0.066,0.577-0.199,0.855c-0.031,0.068-0.095,0.106-0.19,0.113
				c-0.095,0.006-0.154,0.025-0.18,0.058c-0.096,0.106-0.142,0.198-0.142,0.274c0,0.127,0.093,0.231,0.284,0.313
				c0.05,0.019,0.105,0.028,0.161,0.028c0.146,0,0.31-0.066,0.493-0.199c0.229-0.171,0.371-0.311,0.428-0.418
				c0.17-0.322,0.256-0.659,0.256-1.007c0-0.424-0.152-0.94-0.455-1.549C-1095.62,1327.124-1095.86,1326.634-1095.886,1326.564z
				 M-1089.8,1324.407c-0.305-0.15-0.61-0.246-0.912-0.284c-0.055-0.007-0.18-0.024-0.372-0.058
				c-0.134-0.024-0.239-0.037-0.32-0.037c-0.179,0-0.341,0.054-0.485,0.16c0,0.032-0.013,0.073-0.043,0.124
				c-0.026,0.052-0.039,0.089-0.031,0.114c0.095,0.208,0.289,0.341,0.589,0.398c0.043,0.811,0.026,1.695-0.048,2.657
				c-0.083,0.059-0.146,0.109-0.195,0.157c-0.047,0.047-0.07,0.101-0.07,0.156c0,0.114,0.065,0.216,0.199,0.304
				c-0.056,0.412-0.093,0.934-0.105,1.566c-0.012,0.526-0.023,1.055-0.037,1.587c0.082,0.171,0.229,0.256,0.438,0.256
				c0.088,0,0.172-0.021,0.246-0.066c0.307-0.177,0.609-0.354,0.912-0.531c0.375-0.229,0.655-0.459,0.846-0.692
				c0.246-0.305,0.368-0.637,0.368-0.998c0-0.468-0.263-0.873-0.787-1.215c-0.102-0.044-0.206-0.09-0.315-0.139
				c-0.111-0.047-0.178-0.117-0.196-0.213c0.325-0.222,0.646-0.445,0.971-0.675c0.331-0.278,0.544-0.588,0.624-0.93
				c0.041-0.165,0.018-0.367-0.064-0.606C-1088.714,1325.108-1089.116,1324.763-1089.8,1324.407z M-1089.866,1328.596
				c0.12,0.146,0.18,0.313,0.18,0.503c0,0.063-0.006,0.13-0.02,0.199c-0.053,0.228-0.133,0.408-0.245,0.541
				c-0.065,0.076-0.176,0.164-0.338,0.263c-0.161,0.099-0.28,0.191-0.354,0.279c-0.054-0.164-0.078-0.349-0.078-0.551
				c0-0.141,0.019-0.348,0.052-0.622c0.036-0.275,0.053-0.479,0.053-0.612c0-0.076-0.003-0.146-0.008-0.209
				c0.044-0.02,0.091-0.027,0.142-0.027C-1090.396,1328.359-1090.188,1328.438-1089.866,1328.596z M-1089.603,1326.223
				c-0.144,0.209-0.313,0.357-0.502,0.445c-0.014,0.007-0.063,0.043-0.149,0.109c-0.091,0.065-0.157,0.1-0.198,0.1
				c0.003-0.202,0-0.483-0.02-0.846c-0.027-0.392-0.039-0.67-0.039-0.835c0-0.121,0.002-0.234,0.009-0.343
				c0.032-0.013,0.062-0.02,0.084-0.02c0.052,0,0.114,0.024,0.19,0.075c0.108,0.063,0.188,0.104,0.236,0.125
				c0.348,0.125,0.538,0.308,0.572,0.542C-1089.394,1325.799-1089.456,1326.014-1089.603,1326.223z M-1084.902,1325.016
				c-0.227-0.133-0.427-0.198-0.599-0.198c-0.043,0-0.082,0.002-0.114,0.01c-0.312,0.076-0.614,0.154-0.92,0.236
				c-0.354,0.096-0.651,0.203-0.894,0.323c-0.204,0.082-0.404,0.165-0.607,0.247c-0.214,0.106-0.325,0.253-0.329,0.437
				c-0.008,0.196,0.168,0.33,0.521,0.398c-0.038,0.551-0.063,0.852-0.075,0.902c-0.013,0.05-0.064,0.1-0.156,0.146
				c-0.094,0.047-0.142,0.1-0.147,0.156c-0.018,0.113,0.06,0.23,0.237,0.352c-0.056,0.438-0.056,0.931,0,1.48
				c0.019,0.189,0.101,0.359,0.246,0.514c0.146,0.151,0.308,0.25,0.486,0.294c0.561,0.146,1.227,0.206,1.993,0.182
				c0.101-0.008,0.178-0.053,0.231-0.139c0.054-0.085,0.07-0.179,0.052-0.279c-0.057-0.306-0.174-0.438-0.352-0.399
				c-0.038,0-0.085,0.023-0.143,0.071c-0.059,0.048-0.111,0.071-0.162,0.071c-0.732,0.03-1.246-0.059-1.547-0.267
				c-0.053-0.106-0.074-0.253-0.074-0.438c0-0.271,0.057-0.642,0.179-1.109c0.177-0.069,0.415-0.107,0.713-0.114
				c0.354-0.006,0.597-0.024,0.729-0.057c0.078,0.007,0.142-0.019,0.188-0.076c0.077-0.082,0.121-0.126,0.134-0.133
				c0.045-0.025,0.067-0.06,0.067-0.104c0-0.037-0.045-0.119-0.133-0.246c-0.126-0.076-0.281-0.113-0.457-0.113
				c-0.095,0-0.244,0.016-0.446,0.048c-0.199,0.03-0.35,0.047-0.443,0.047c-0.133,0-0.25-0.019-0.354-0.058
				c0.025-0.568,0.068-0.937,0.122-1.102c0.235-0.095,0.581-0.205,1.035-0.332c0.457-0.126,0.803-0.236,1.036-0.332
				c0.046-0.031,0.066-0.072,0.066-0.124c0-0.03-0.015-0.083-0.039-0.152C-1084.88,1325.089-1084.894,1325.041-1084.902,1325.016z
				 M-1080.24,1325.34c-0.006-0.014-0.006-0.059,0-0.134c0-0.063-0.008-0.096-0.026-0.096c-0.015,0-0.037,0.01-0.061,0.028
				c-0.12-0.069-0.241-0.104-0.359-0.104c-0.151,0-0.261,0.061-0.324,0.181c0.015,0.159,0.02,0.32,0.02,0.484
				c0,0.425-0.05,1.063-0.154,1.918c-0.106,0.854-0.156,1.496-0.156,1.928c0,0.027,0.005,0.052,0.005,0.08
				c-0.13-0.141-0.263-0.28-0.433-0.432c-0.689-0.627-1.039-0.942-1.047-0.949c-0.1-0.082-0.199-0.164-0.302-0.248
				c-0.133-0.112-0.199-0.211-0.199-0.293c0-0.076,0.058-0.146,0.171-0.209c0.28-0.151,0.514-0.36,0.703-0.627
				c0.223-0.297,0.333-0.595,0.333-0.893c0-0.354-0.116-0.684-0.353-0.987c-0.254-0.33-0.551-0.5-0.894-0.514
				c-0.677-0.031-1.047,0.148-1.112,0.541c-0.094,0.59-0.14,1.313-0.14,2.175v1.035c-0.008,0.506-0.021,0.942-0.048,1.311
				c-0.007,0.045-0.021,0.158-0.05,0.342c-0.024,0.159-0.036,0.286-0.036,0.381c0,0.321,0.139,0.516,0.415,0.579
				c0.048,0.013,0.103,0.003,0.17-0.028c0.063-0.032,0.104-0.048,0.115-0.048c0.082-0.311,0.141-0.729,0.174-1.254
				c0.05-0.696,0.085-1.126,0.104-1.291c0.271,0.233,0.686,0.651,1.241,1.253c0.5,0.539,0.921,0.938,1.255,1.197
				c0.117-0.029,0.207-0.066,0.278-0.106c0.046,0.012,0.073,0.037,0.129,0.04c0.19,0.006,0.315-0.079,0.37-0.257
				c-0.007-0.158-0.011-0.319-0.011-0.483c0-0.443,0.045-1.1,0.134-1.967c0.091-0.865,0.132-1.516,0.132-1.945
				c0-0.195-0.005-0.387-0.019-0.569C-1080.224,1325.371-1080.233,1325.359-1080.24,1325.34z M-1083.696,1327.113
				c0.012-0.164,0.012-0.375,0-0.636c-0.019-0.342-0.027-0.554-0.027-0.636c0-0.202,0.017-0.383,0.047-0.541
				c0.037-0.096,0.133-0.144,0.283-0.144c0.205,0,0.351,0.054,0.442,0.161c0.091,0.107,0.147,0.229,0.166,0.361
				c0.005,0.088,0,0.189-0.019,0.305C-1082.873,1326.346-1083.172,1326.723-1083.696,1327.113z M-1078.769,1326.564
				c-0.056-0.158-0.086-0.328-0.086-0.513c0-0.494,0.172-0.912,0.512-1.254c0.041-0.038,0.078-0.059,0.115-0.059
				c0.004,0,0.056,0.014,0.143,0.039c0.058,0.02,0.109,0.016,0.162-0.011c0.183-0.095,0.275-0.205,0.275-0.332
				c0-0.069-0.033-0.139-0.098-0.209c-0.132-0.146-0.332-0.218-0.6-0.218c-0.138,0-0.279,0.034-0.424,0.104
				c-0.316,0.151-0.563,0.401-0.732,0.75c-0.151,0.305-0.227,0.649-0.227,1.035c0,0.47,0.2,1.095,0.61,1.875
				c0.41,0.781,0.613,1.378,0.613,1.789c0,0.291-0.064,0.577-0.198,0.855c-0.036,0.068-0.096,0.106-0.191,0.113
				c-0.098,0.006-0.154,0.025-0.181,0.058c-0.094,0.106-0.144,0.198-0.144,0.274c0,0.127,0.094,0.231,0.285,0.313
				c0.05,0.019,0.106,0.028,0.162,0.028c0.146,0,0.31-0.066,0.493-0.199c0.229-0.171,0.371-0.311,0.427-0.418
				c0.17-0.322,0.256-0.659,0.256-1.007c0-0.424-0.151-0.94-0.452-1.549C-1078.503,1327.124-1078.745,1326.634-1078.769,1326.564z
				 M-1075.999,1325.34c-0.007-0.014-0.007-0.059,0-0.134c0-0.063-0.01-0.096-0.028-0.096c-0.013,0-0.029,0.01-0.058,0.028
				c-0.118-0.069-0.239-0.104-0.36-0.104c-0.15,0-0.259,0.061-0.318,0.181c0.01,0.159,0.016,0.32,0.016,0.484
				c0,0.425-0.051,1.063-0.155,1.918c-0.104,0.854-0.157,1.496-0.157,1.928c0,0.247,0.014,0.481,0.039,0.703
				c0.026,0.222,0.174,0.339,0.444,0.352c0.19,0.006,0.313-0.079,0.371-0.257c-0.007-0.158-0.011-0.319-0.011-0.483
				c0-0.443,0.045-1.1,0.133-1.967c0.089-0.865,0.134-1.516,0.134-1.945c0-0.195-0.008-0.387-0.019-0.569
				C-1075.983,1325.371-1075.991,1325.359-1075.999,1325.34z M-1073.292,1328.852c-0.396-0.232-0.793-0.468-1.186-0.701
				c0.168-0.267,0.559-0.713,1.168-1.34c0.519-0.537,0.864-1.003,1.043-1.396c-0.013-0.171-0.144-0.258-0.391-0.258
				c-0.089,0-0.17,0.017-0.247,0.049c-0.276,0.329-0.56,0.655-0.844,0.979c-0.336,0.386-0.632,0.696-0.892,0.931
				c0.013-0.506-0.03-1.189-0.125-2.052c-0.008-0.076-0.055-0.132-0.142-0.166c-0.089-0.035-0.173-0.064-0.257-0.091
				c-0.082,0.013-0.164,0.025-0.238,0.038c-0.101,0.025-0.144,0.076-0.133,0.152c0.088,0.493,0.133,1.077,0.133,1.747
				c0,0.222-0.005,0.553-0.017,0.992c-0.017,0.439-0.021,0.771-0.021,0.991c0,0.614,0.037,1.148,0.111,1.605
				c0.027,0.164,0.122,0.274,0.287,0.332c0.02,0.044,0.066,0.065,0.143,0.065c0.069,0,0.123-0.013,0.161-0.038
				c0.134-0.057,0.198-0.16,0.198-0.313c0-0.044-0.005-0.117-0.02-0.219c-0.014-0.102-0.018-0.178-0.018-0.229
				c-0.013-0.438-0.029-0.771-0.048-1.006c0.894,0.531,1.551,0.931,1.973,1.196c0.04,0.025,0.074,0.039,0.106,0.039
				c0.029,0,0.076-0.017,0.139-0.049c0.059-0.031,0.108-0.047,0.145-0.047c0.021,0,0.043,0.004,0.067,0.01
				c0.052-0.152,0.075-0.247,0.075-0.285c0-0.059-0.018-0.103-0.057-0.134C-1072.474,1329.4-1072.849,1329.131-1073.292,1328.852z
				 M-1154.457,1317.617c-0.521-4.609-0.521-9.395-0.87-14.177c-0.217-0.436-0.174-1.219-0.174-1.915
				c-0.477-1.479-0.607-3.348-1.044-4.826c-0.347-1.87-0.26-4.261-1.13-5.437c-0.957,0.043-1.304,0.392-2.043,0.695
				c-0.782,3.262-1.348,6.741-2.174,9.916c-0.695-2.044-1.61-3.783-2.348-5.784v-0.608c-0.739-1.088-0.913-2.957-2.087-3.522
				c-0.347,0.437-0.652,0.131-1.173,0.261c-0.13,0.35-0.218,0.827-0.521,1.001v2c-0.392,2.35,0,5.436-0.175,7.959
				c-0.043,0.652-0.217,1.304-0.26,1.826c0,0.174,0.129,0.349,0.129,0.435c0,0.608-0.26,1.566-0.129,2.175
				c0.26,0.436,0.042,1.521,0.129,2.219c0.217,2.479-0.174,6.35,0,8.828c0.305,0.087,0.522-0.437,0.696,0
				c0.217-0.348,0.521-0.565,0.87-0.522c0.738-2.392,0.521-6.783,0.825-9.176c-0.434-2.174-0.13-5.175,0.219-7.351
				c-0.175-0.738-0.306-1.957-0.131-2.825c0.391,0.825,0.739,1.694,0.913,2.825c0.653,1.089,0.826,2.827,1.218,4.263
				c0.304,0.348,0.522,0.739,0.522,1.394c0.478,0.26,0.434,1.217,1,1.348c0.173,0.781,0.695,1.044,1.086,1.564
				c0.348-0.044,0.696-0.044,0.87,0.174c1.13-0.392,0.347-2.392,0.695-3.694c-0.13-1.697,0.393-3.914,0.914-5.308
				c0.738,5.523,0.696,12.134,1.174,18.004c0.392,0.436,1.043,0.521,1.088,1.394c0.217,0,0.434-0.044,0.392,0.261
				c0.216-0.261,0.739-0.131,1.042-0.261c0.13-0.394,0.348-0.61,0.522-0.871C-1154.283,1318.965-1154.805,1318.27-1154.457,1317.617
				z M-1142.325,1313.051c-0.479-2.783-1.044-5.521-1.219-8.653c-0.218-0.957-0.434-2-0.434-3.219
				c-0.347-0.87-0.608-1.825-0.608-3.131c-0.608-1.87-1.088-3.914-1.783-5.695c-0.261-0.089-0.565-0.176-0.522-0.61
				c-0.651-0.348-1,0.565-1.435,0.174c-0.306,0.522-0.652,0.958-1.175,1.219c-0.391,2-0.304,4.045-0.522,6.132
				c-0.173,1.261-0.564,3.48-0.781,4.609c-0.218,1.087-0.262,2.305-0.436,3.349c-0.044,0.305-0.261,0.522-0.305,0.783
				c-0.13,0.739-0.173,2-0.216,2.348c-0.261,3.132,0.086,6.395-0.696,8.741c0.782,0.306,1.173,0.043,1.74,0.174
				c0.217-0.174,0.261-0.564,0.694-0.521c-0.042-0.436,0.131-0.609,0.262-0.87c0.131-2.262,0.695-3.914,0.826-6.131
				c1.174,0.217,1.696,0.13,3,0.087c0.261,2.261,0.565,4.436,1.349,6.044c0.955,0.087,1.391,0.783,2.303,0.437
				c0.13-0.393,0.392-0.652,0.522-1.045C-1141.934,1315.965-1142.631,1314.356-1142.325,1313.051z M-1148.935,1309.398
				c0.392-2.608,1.131-4.827,1.348-7.696c0.086,0.044,0.13,0.087,0.217,0.087c0.349,2.521,0.609,5.132,1,7.609
				C-1147.109,1309.484-1148.196,1309.572-1148.935,1309.398z M-1129.586,1306.57c-0.435-0.738-1.045-0.564-1.608-0.913
				c-0.176,0.044-0.261,0.218-0.436,0.262c-1.652-0.174-2.739,0.522-4.044,0.87c0.044,0.348-0.348,0.131-0.26,0.521
				c0.868,0.696,1.608,1.957,3,1.479c0,0.607,0.173,1.044,0.042,1.826c0,0.131,0.174,0.087,0.087,0.261
				c0.043,1.914-0.565,3.219-0.913,4.393c-0.217,0.696-0.39,1.696-1.173,1.437c-2.001-3.437-1.697-9.221-2.132-14.222
				c0.131-1.044,0.087-1.87,0.218-2.913c-0.218-0.305-0.043-1.436,0.174-1.695c-0.348-0.914,0.304-2.045,0.349-3.001
				c0.564-0.305,0.913-0.913,1.391-1.305c0.999-0.217,1.478,0.608,1.783,1.349c0.827,0.087,0.783,1.043,1.784,0.912
				c0.302-0.261,0.433-0.738,0.693-1.043c-0.563-2.044-2.651-4.219-4.695-3.262c-0.392-0.088-0.607,0.043-0.913,0
				c0,0.129,0,0.348-0.088,0.348c-0.825,0-1.347,0.522-2.129,0.608c-0.391,0.609-0.652,1.652-0.827,2.479
				c-0.869,4.958-0.348,10.307-0.436,14.873c0.261,0,0.13,0.348,0.261,0.391c-0.173,1.132,0,1.914,0.35,2.523
				c0,0.261,0.086,0.435,0,0.782c0.435,1.957,1.608,3.132,2.479,4.608c0.697,0.521,1.435,0.957,2.348,1.262
				c0.436-0.262,1.131-0.086,1.697-0.131c0.13-0.348,0.391-0.435,0.651-0.564c0.131-0.826,0.782-0.956,0.827-1.913
				c0.217,0.131,0.086-0.304,0.304-0.175c0.042-0.913,0.608-1.608,0.869-2.521c0.392-1.651,0.305-3.48,0.523-5.349
				C-1129.673,1308.224-1129.63,1307.355-1129.586,1306.57z M-1117.543,1313.051c-0.477-2.783-1.043-5.521-1.216-8.653
				c-0.219-0.957-0.435-2-0.435-3.219c-0.348-0.87-0.608-1.825-0.608-3.131c-0.609-1.87-1.087-3.914-1.782-5.695
				c-0.261-0.089-0.566-0.176-0.522-0.61c-0.652-0.348-1,0.565-1.435,0.174c-0.305,0.522-0.652,0.958-1.174,1.219
				c-0.392,2-0.304,4.045-0.522,6.132c-0.173,1.261-0.564,3.48-0.782,4.609c-0.218,1.087-0.261,2.305-0.435,3.349
				c-0.044,0.305-0.26,0.522-0.305,0.783c-0.129,0.739-0.173,2-0.216,2.348c-0.261,3.132,0.086,6.395-0.697,8.741
				c0.783,0.306,1.173,0.043,1.741,0.174c0.215-0.174,0.26-0.564,0.694-0.521c-0.043-0.436,0.13-0.609,0.261-0.87
				c0.13-2.262,0.697-3.914,0.827-6.131c1.173,0.217,1.694,0.13,3,0.087c0.262,2.261,0.565,4.436,1.349,6.044
				c0.956,0.087,1.391,0.783,2.305,0.437c0.13-0.393,0.391-0.652,0.521-1.045
				C-1117.152,1315.965-1117.848,1314.356-1117.543,1313.051z M-1124.151,1309.398c0.391-2.608,1.129-4.827,1.347-7.696
				c0.087,0.044,0.131,0.087,0.216,0.087c0.35,2.521,0.61,5.132,1.002,7.609
				C-1122.328,1309.484-1123.414,1309.572-1124.151,1309.398z M-1105.456,1318.66c0.044-0.348,0.13-0.651,0.217-0.912
				c-0.173-0.739-0.609-1.219-0.783-2.001c-0.392-0.044-0.608-0.393-0.783-0.739c-1.173-0.739-2.609,0.565-3.869-0.174
				c-0.261,0.435-0.956-0.131-1.044,0.174c0-0.174-0.13-0.174-0.173-0.261c0.826-2.262,1.304-4.914,1.914-7.351
				c0.26,0.131,0.043-0.391,0.303-0.261c-0.043-0.783,0.305-1.044,0.26-1.783c0.262,0.131,0.044-0.392,0.305-0.261
				c0.13-1.608,0.782-2.522,1.043-3.958c1.175-1.521,1.479-3.826,2.263-5.695c0.173-1.349-0.436-1.826-0.61-2.739
				c-0.392-0.306-0.914-0.437-1.129-0.958c-3.002,0.218-5.176,0.958-8.35,0.871c-0.131,0.651,0.479,1.521,0.697,1.955
				c0.085,0.175,0.043,0.393,0.085,0.437c0.74,1.043,2.871,1.043,4.218,1.261c0.219-0.218,1-0.261,1.262-0.131
				c-0.347,1.001-0.914,1.914-1.305,2.958c-0.087,0.174,0,0.521-0.087,0.695c-0.043,0.131-0.217,0.131-0.304,0.261
				c-0.13,0.392-0.13,0.957-0.261,1.349c-0.042,0.131-0.261,0.174-0.304,0.26c-0.13,0.48-0.13,1.046-0.261,1.566
				c-0.131,0.392-0.392,0.696-0.522,1.087c-0.521,1.913-1.044,3.827-1.392,5.914c-0.26-0.13,0,0.349-0.304,0.263
				c-0.174,2.044-1.305,3.087-0.955,5.522c0.215,0.608,0.389,1.217,0.476,1.956c0.392,0.174,0.219,0.479,0.436,0.695
				c0.521,0.521,1.695,0.131,2.262,0.521c0.087-0.044,0.042-0.261,0.261-0.174c0.217,0.348,0.999,0,1.217,0.348
				C-1109.674,1319.183-1107.107,1319.227-1105.456,1318.66z M-1100.152,1297.613c0.348-0.74,0.521-1.696,0.826-2.48
				c-0.218-0.913-0.348-1.913-0.348-3.088c-0.174-0.521-0.695-0.564-0.912-1.043c-1.043,0.043-2.088,0.217-2.522,1.043
				c-1.043-0.174-0.868,1.262-1.261,1.958c0.087,0.956,0.609,1.304,0.653,2.261
				C-1102.629,1296.873-1101.978,1298.005-1100.152,1297.613z M-1101.065,1299.874c-0.478,0.565-1.391,0.565-1.825,1.174
				c0.174,0.697,0.392,1.521,0.088,2.262c1.129,4.22-0.045,10.438,1.303,14.396c0.522,0.131,0.956,0.392,1.173,0.912
				c0.566-0.174,0.652,0.306,1.174,0.219c0.217-0.479,0.436-0.957,0.738-1.348c-0.088-1.74-0.261-3.351-0.172-5.307
				c-0.045-1.479-0.089-3.479-0.261-5.479C-1099.543,1304.267-1098.805,1300.482-1101.065,1299.874z M-1090.284,1311.05
				c0.784,1.566,1.305,3.393,2.262,4.785c-0.039,0.348,0.176,0.479,0.09,0.869c0.563,0.479,0.825,1.174,1.131,1.87
				c0.781-0.219,1.303,0.607,1.867,0.607c0.611,0,0.828-0.479,1.22-1c-0.13-0.826-0.261-1.607-0.175-2.608
				c0.392-0.306,0.435-1.263,0.175-1.739c0.347-1-0.218-1.826,0.174-2.958c-0.61-3.521-0.349-7.521-0.435-11.394
				c0-0.131-0.218-0.088-0.177-0.262c-0.171-2,0.089-4.436-0.26-6.262c0.129-0.349-0.131-1.262-0.522-1.436
				c-0.781-0.349-1.693,0.694-2.565,0.694c-0.169,0.436-0.131,0.653-0.087,0.914c0.047,0.393,0.132,1.219,0,1.652
				c-0.305,1.305-0.26,3.696,0,5.045c-0.174,0.043-0.174,0.304-0.174,0.608c0.481,2.521,0.13,6.262,0.353,8.74
				c-1.089-2.305-1.785-5.045-2.522-7.74c-0.611-0.436-0.916-1.219-0.957-2.219c-0.26,0-0.176-0.348-0.351-0.348
				c-0.694-2.132-1.348-4.263-2.043-6.306c-0.306-0.175-0.521-0.479-0.869-0.609c-1.175,0.305-2.392,0.48-2.523,1.609
				c-0.043,0.479,0.305,1,0.349,1.564c0.13,1.174,0.087,2.479-0.174,3.479c0.13,2.436,0,5.437,0.262,8.134
				c0.085,0.913-0.131,2.043,0,3.261c0.304,3.131,0.435,6.35,0.26,9.263c0.436,0.521-0.044,1.175,0.175,1.566
				c0.564-0.174,1.477,0.13,1.391-1.045c0.172-0.13,0.217,0,0.434,0c0-1.782,1.131-3.304,0.521-5.088
				c0.479-1.695-0.563-5.609,0-8.395c-0.259-1.174,0.393-2.781,0.089-4.087c0.39,1.261,0.609,2.652,1.347,3.565
				C-1091.718,1307.789-1090.587,1309.05-1090.284,1311.05z M-1072.761,1314.442c0.088-0.521-0.393,0-0.737-0.174
				c-0.306,0.608-0.87,0.869-1.437,1.174c-0.217,0.827-0.914,1.437-1.783,1.175c-0.043-0.564-0.348-0.781-0.608-1.087
				c-0.651-2.521-1.26-5.566-1.043-8.827c-0.088-0.088-0.304-0.043-0.261-0.262c0-0.132,0.218-0.087,0.173-0.262
				c-0.694-3-0.433-7.609,0.739-9.741c0.521,0,0.695-0.348,1.131-0.435c0.696,0.174,0.784,1.131,1.651,1.131
				c0.088,0.521,0.695,0.393,0.739,0.913c0.828,0,0.696-0.13,1.218-0.348c0.437-2.133-0.912-2.871-1.437-4.133
				c0-0.261,0.262-0.217,0.219-0.478l-0.739-1.001c-2.651-0.305-4,0.957-5.564,1.914c-0.521,1.564-1.563,3.437-1.219,5.479
				c0.088,2.783,0,5.132,0.088,7.871c0.434,3.652,0.652,7.609,1.824,10.438c0.308,0,0.308,0.348,0.742,0.261
				c-0.089,0.263,0.086,0.218,0.086,0.437c0.564-0.045,0.783,0.304,1.043,0.65c0.522-0.087,1,0.262,1.522,0.35
				c1.043,0.174,1.957-0.174,2.606-0.35c1.043-0.261,2.133-0.217,2.35-1.348c0.219-1.217-0.305-2.827-0.694-3.522
				C-1072.412,1314.269-1072.673,1314.225-1072.761,1314.442z"/>
		</g>
	</g>
</g>
</svg>
