<?xml version="1.0" encoding="utf-8"?>
<!-- Generator: Adobe Illustrator 16.0.3, SVG Export Plug-In . SVG Version: 6.00 Build 0)  -->
<!DOCTYPE svg PUBLIC "-//W3C//DTD SVG 1.1//EN" "http://www.w3.org/Graphics/SVG/1.1/DTD/svg11.dtd">
<svg version="1.1" id="Layer_1" xmlns="http://www.w3.org/2000/svg" xmlns:xlink="http://www.w3.org/1999/xlink" x="0px" y="0px"
	 width="180px" height="100px" viewBox="0 0 180 100" enable-background="new 0 0 180 100" xml:space="preserve">
<g>
	<g>
		<path fill="#FFFFFF" d="M169.336,57.49c-0.962-0.749-1.939-1.187-2.932-1.312c-0.56-0.062-1.521,0.359-2.888,1.265
			c-1.365,0.905-1.954,1.794-1.768,2.668c0.434,1.998,2.296,3.621,5.586,4.87c0.248,0.062,0.497-0.033,0.745-0.281
			c0.248-0.25,0.635-0.392,1.163-0.422c0.527-0.032,0.977-0.469,1.35-1.311c0.372-0.843,0.496-1.702,0.373-2.575
			C170.841,59.207,170.298,58.24,169.336,57.49z M179.995,3.433c0.062-1.057-0.496-1.835-1.676-2.333
			c-1.055-0.311-2.11-0.622-3.165-0.934c-0.745-0.249-1.521-0.218-2.327,0.094c-0.808,0.312-1.272,0.84-1.396,1.587
			c-0.249,1.681-1.8,8.775-4.655,21.284c-1.862,8.465-2.793,15.622-2.793,21.472c0,1.306,0.031,2.614,0.094,3.92
			c0.186,2.489,1.861,4.046,5.027,4.668c0.558,0.124,1.163-0.046,1.814-0.514c0.651-0.466,0.978-0.979,0.978-1.541
			c-0.187-6.284,0.932-14.344,3.352-24.177C178.04,15.631,179.622,7.79,179.995,3.433z M94.667,53.604
			c-0.486-0.244-0.973-0.396-1.459-0.456c-0.091-0.011-0.288-0.041-0.592-0.093c-0.213-0.04-0.385-0.061-0.517-0.061
			c-0.283,0-0.542,0.086-0.774,0.259c0,0.051-0.022,0.117-0.068,0.199c-0.046,0.081-0.063,0.142-0.054,0.182
			c0.152,0.335,0.466,0.549,0.942,0.641c0.07,1.3,0.045,2.722-0.076,4.265c-0.132,0.093-0.235,0.176-0.312,0.252
			s-0.113,0.16-0.113,0.252c0,0.183,0.105,0.345,0.318,0.487c-0.091,0.661-0.146,1.498-0.167,2.514
			c-0.021,0.843-0.04,1.691-0.061,2.544C91.867,64.862,92.1,65,92.434,65c0.142,0,0.273-0.036,0.396-0.107
			c0.485-0.284,0.972-0.569,1.458-0.853c0.598-0.366,1.048-0.737,1.352-1.112c0.396-0.487,0.593-1.021,0.593-1.6
			c0-0.751-0.421-1.401-1.261-1.95c-0.162-0.071-0.332-0.145-0.509-0.222c-0.178-0.075-0.281-0.189-0.312-0.343
			c0.517-0.354,1.033-0.716,1.549-1.081c0.537-0.446,0.871-0.944,1.003-1.493c0.061-0.265,0.025-0.589-0.106-0.975
			C96.403,54.727,95.761,54.173,94.667,53.604z M94.561,60.322c0.192,0.234,0.288,0.503,0.288,0.809c0,0.101-0.01,0.207-0.03,0.319
			c-0.081,0.365-0.213,0.655-0.395,0.868c-0.102,0.122-0.281,0.262-0.539,0.419c-0.259,0.157-0.448,0.307-0.57,0.449
			c-0.081-0.265-0.121-0.559-0.121-0.884c0-0.224,0.027-0.557,0.083-0.998s0.084-0.769,0.084-0.982c0-0.121-0.005-0.233-0.016-0.335
			c0.071-0.03,0.147-0.046,0.229-0.046C93.715,59.941,94.044,60.068,94.561,60.322z M94.985,56.514
			c-0.232,0.335-0.501,0.574-0.805,0.716c-0.021,0.01-0.102,0.069-0.243,0.176s-0.248,0.159-0.319,0.159
			c0.011-0.325,0-0.776-0.03-1.355c-0.04-0.63-0.061-1.076-0.061-1.341c0-0.193,0.005-0.375,0.016-0.549
			c0.05-0.02,0.096-0.03,0.137-0.03c0.081,0,0.182,0.041,0.304,0.123c0.172,0.101,0.298,0.167,0.38,0.197
			c0.557,0.203,0.86,0.493,0.911,0.868C95.314,55.833,95.219,56.179,94.985,56.514z M102.504,54.579
			c-0.364-0.214-0.684-0.32-0.957-0.32c-0.07,0-0.131,0.005-0.182,0.016c-0.496,0.122-0.987,0.249-1.474,0.38
			c-0.567,0.153-1.043,0.325-1.428,0.519c-0.324,0.132-0.648,0.265-0.972,0.396c-0.345,0.173-0.522,0.405-0.532,0.7
			c-0.01,0.315,0.269,0.528,0.836,0.64c-0.062,0.884-0.102,1.367-0.122,1.448s-0.104,0.159-0.25,0.236
			c-0.147,0.076-0.226,0.159-0.236,0.251c-0.03,0.183,0.097,0.371,0.38,0.563c-0.091,0.7-0.091,1.493,0,2.377
			c0.03,0.305,0.162,0.578,0.396,0.822c0.232,0.244,0.491,0.401,0.774,0.473c0.901,0.233,1.965,0.33,3.189,0.289
			c0.162-0.011,0.286-0.084,0.372-0.221c0.086-0.138,0.114-0.286,0.084-0.449c-0.091-0.487-0.278-0.701-0.563-0.641
			c-0.061,0-0.137,0.039-0.228,0.115s-0.177,0.114-0.258,0.114c-1.175,0.051-2-0.092-2.477-0.427
			c-0.081-0.173-0.121-0.405-0.121-0.7c0-0.438,0.096-1.032,0.289-1.783c0.283-0.111,0.663-0.172,1.139-0.184
			c0.567-0.01,0.957-0.04,1.17-0.091c0.121,0.01,0.223-0.03,0.304-0.121c0.121-0.133,0.192-0.204,0.213-0.214
			c0.07-0.041,0.105-0.097,0.105-0.167c0-0.063-0.07-0.193-0.212-0.397c-0.203-0.121-0.446-0.182-0.729-0.182
			c-0.151,0-0.39,0.025-0.714,0.075c-0.324,0.051-0.562,0.076-0.714,0.076c-0.213,0-0.4-0.03-0.562-0.091
			c0.04-0.914,0.105-1.504,0.197-1.767c0.374-0.153,0.927-0.331,1.655-0.534c0.729-0.203,1.281-0.381,1.655-0.533
			c0.071-0.051,0.106-0.116,0.106-0.197c0-0.052-0.021-0.133-0.061-0.244C102.54,54.695,102.515,54.619,102.504,54.579z
			 M106.059,53.604c-0.486-0.244-0.972-0.396-1.458-0.456c-0.092-0.011-0.289-0.041-0.593-0.093
			c-0.213-0.04-0.385-0.061-0.517-0.061c-0.283,0-0.541,0.086-0.774,0.259c0,0.051-0.022,0.117-0.068,0.199
			c-0.046,0.081-0.063,0.142-0.053,0.182c0.151,0.335,0.466,0.549,0.941,0.641c0.07,1.3,0.046,2.722-0.076,4.265
			c-0.132,0.093-0.235,0.176-0.312,0.252c-0.075,0.076-0.113,0.16-0.113,0.252c0,0.183,0.106,0.345,0.318,0.487
			c-0.091,0.661-0.146,1.498-0.167,2.514c-0.021,0.843-0.04,1.691-0.061,2.544c0.132,0.274,0.364,0.412,0.699,0.412
			c0.142,0,0.273-0.036,0.395-0.107c0.486-0.284,0.972-0.569,1.458-0.853c0.598-0.366,1.048-0.737,1.352-1.112
			c0.396-0.487,0.593-1.021,0.593-1.6c0-0.751-0.42-1.401-1.261-1.95c-0.162-0.071-0.332-0.145-0.509-0.222
			c-0.178-0.075-0.281-0.189-0.312-0.343c0.517-0.354,1.033-0.716,1.55-1.081c0.536-0.446,0.87-0.944,1.002-1.493
			c0.061-0.265,0.025-0.589-0.106-0.975C107.795,54.727,107.152,54.173,106.059,53.604z M105.952,60.322
			c0.192,0.234,0.289,0.503,0.289,0.809c0,0.101-0.011,0.207-0.03,0.319c-0.082,0.365-0.213,0.655-0.396,0.868
			c-0.102,0.122-0.281,0.262-0.539,0.419s-0.448,0.307-0.569,0.449c-0.081-0.265-0.122-0.559-0.122-0.884
			c0-0.224,0.028-0.557,0.084-0.998s0.083-0.769,0.083-0.982c0-0.121-0.005-0.233-0.015-0.335c0.07-0.03,0.146-0.046,0.228-0.046
			C105.106,59.941,105.436,60.068,105.952,60.322z M106.378,56.514c-0.233,0.335-0.502,0.574-0.806,0.716
			c-0.021,0.01-0.101,0.069-0.243,0.176c-0.142,0.106-0.248,0.159-0.318,0.159c0.01-0.325,0-0.776-0.03-1.355
			c-0.041-0.63-0.062-1.076-0.062-1.341c0-0.193,0.006-0.375,0.016-0.549c0.051-0.02,0.096-0.03,0.137-0.03
			c0.081,0,0.183,0.041,0.304,0.123c0.172,0.101,0.299,0.167,0.38,0.197c0.557,0.203,0.86,0.493,0.911,0.868
			C106.706,55.833,106.61,56.179,106.378,56.514z M112.605,56.209c-0.051-0.416-0.106-0.832-0.167-1.25
			c-0.082-0.486-0.264-0.853-0.547-1.096c-0.112-0.092-0.238-0.138-0.38-0.138c-0.192,0-0.319,0.071-0.38,0.213
			c-0.264,0.641-0.563,1.56-0.896,2.759c-0.395,1.381-0.684,2.325-0.865,2.833c-0.021,0.071-0.114,0.125-0.281,0.16
			s-0.273,0.081-0.319,0.137c-0.045,0.057-0.068,0.109-0.068,0.16c0,0.061,0.071,0.146,0.213,0.259s0.207,0.213,0.197,0.306
			c-0.03,0.314-0.197,0.842-0.501,1.584c-0.253,0.65-0.364,1.167-0.334,1.553c0.02,0.193,0.197,0.347,0.531,0.458
			c0.264,0.081,0.436,0.03,0.517-0.152c0.162-0.387,0.329-0.95,0.501-1.691c0.183-0.802,0.329-1.36,0.44-1.676
			c0.223-0.193,0.532-0.314,0.927-0.365c0.345-0.03,0.688-0.061,1.033-0.091c0.192,0.517,0.359,1.162,0.501,1.935
			c0.132,0.711,0.445,1.111,0.941,1.203c0.062,0.01,0.178-0.062,0.35-0.213c0.172-0.153,0.259-0.33,0.259-0.533
			c0-0.122-0.031-0.265-0.092-0.427C113.638,60.582,113.111,58.606,112.605,56.209z M110.691,59.271
			c0.223-0.844,0.486-1.687,0.79-2.529c0.091,0.406,0.187,0.813,0.288,1.219c0.102,0.467,0.167,0.889,0.197,1.265
			C111.278,59.226,110.854,59.241,110.691,59.271z M116.175,57.063c-0.092-0.254-0.137-0.528-0.137-0.823
			c0-0.792,0.273-1.462,0.82-2.011c0.061-0.061,0.121-0.091,0.182-0.091c0.011,0,0.086,0.02,0.229,0.061
			c0.091,0.03,0.177,0.025,0.258-0.016c0.294-0.152,0.44-0.33,0.44-0.533c0-0.111-0.051-0.224-0.151-0.335
			c-0.213-0.234-0.532-0.351-0.957-0.351c-0.223,0-0.451,0.056-0.684,0.168c-0.507,0.243-0.896,0.646-1.17,1.203
			c-0.243,0.487-0.364,1.042-0.364,1.661c0,0.752,0.326,1.754,0.979,3.009s0.979,2.212,0.979,2.872c0,0.467-0.106,0.924-0.318,1.37
			c-0.051,0.111-0.152,0.174-0.304,0.184c-0.152,0.01-0.249,0.04-0.289,0.091c-0.151,0.174-0.228,0.32-0.228,0.441
			c0,0.204,0.151,0.371,0.455,0.504c0.081,0.03,0.167,0.045,0.259,0.045c0.232,0,0.496-0.105,0.79-0.319
			c0.364-0.274,0.592-0.497,0.684-0.671c0.272-0.518,0.409-1.056,0.409-1.614c0-0.681-0.242-1.509-0.729-2.483
			C116.6,57.961,116.215,57.174,116.175,57.063z M125.911,53.604c-0.486-0.244-0.973-0.396-1.459-0.456
			c-0.091-0.011-0.288-0.041-0.592-0.093c-0.213-0.04-0.385-0.061-0.517-0.061c-0.283,0-0.542,0.086-0.774,0.259
			c0,0.051-0.023,0.117-0.068,0.199c-0.046,0.081-0.063,0.142-0.054,0.182c0.152,0.335,0.466,0.549,0.942,0.641
			c0.07,1.3,0.045,2.722-0.076,4.265c-0.132,0.093-0.235,0.176-0.312,0.252s-0.114,0.16-0.114,0.252
			c0,0.183,0.106,0.345,0.319,0.487c-0.091,0.661-0.146,1.498-0.167,2.514c-0.021,0.843-0.041,1.691-0.061,2.544
			c0.131,0.274,0.364,0.412,0.698,0.412c0.142,0,0.273-0.036,0.396-0.107c0.485-0.284,0.972-0.569,1.458-0.853
			c0.598-0.366,1.048-0.737,1.352-1.112c0.396-0.487,0.593-1.021,0.593-1.6c0-0.751-0.421-1.401-1.261-1.95
			c-0.162-0.071-0.332-0.145-0.509-0.222c-0.178-0.075-0.281-0.189-0.312-0.343c0.517-0.354,1.032-0.716,1.549-1.081
			c0.537-0.446,0.871-0.944,1.003-1.493c0.061-0.265,0.025-0.589-0.106-0.975C127.647,54.727,127.005,54.173,125.911,53.604z
			 M125.805,60.322c0.192,0.234,0.288,0.503,0.288,0.809c0,0.101-0.01,0.207-0.03,0.319c-0.081,0.365-0.213,0.655-0.395,0.868
			c-0.102,0.122-0.281,0.262-0.539,0.419c-0.259,0.157-0.448,0.307-0.57,0.449c-0.081-0.265-0.121-0.559-0.121-0.884
			c0-0.224,0.027-0.557,0.083-0.998s0.084-0.769,0.084-0.982c0-0.121-0.005-0.233-0.016-0.335c0.071-0.03,0.147-0.046,0.229-0.046
			C124.959,59.941,125.288,60.068,125.805,60.322z M126.229,56.514c-0.232,0.335-0.501,0.574-0.805,0.716
			c-0.021,0.01-0.102,0.069-0.243,0.176s-0.248,0.159-0.319,0.159c0.011-0.325,0-0.776-0.03-1.355
			c-0.04-0.63-0.061-1.076-0.061-1.341c0-0.193,0.005-0.375,0.016-0.549c0.05-0.02,0.096-0.03,0.137-0.03
			c0.08,0,0.182,0.041,0.304,0.123c0.172,0.101,0.298,0.167,0.38,0.197c0.557,0.203,0.86,0.493,0.911,0.868
			C126.559,55.833,126.463,56.179,126.229,56.514z M133.748,54.579c-0.364-0.214-0.684-0.32-0.957-0.32
			c-0.07,0-0.131,0.005-0.182,0.016c-0.496,0.122-0.987,0.249-1.474,0.38c-0.567,0.153-1.043,0.325-1.428,0.519
			c-0.324,0.132-0.648,0.265-0.972,0.396c-0.345,0.173-0.522,0.405-0.532,0.7c-0.01,0.315,0.269,0.528,0.836,0.64
			c-0.062,0.884-0.102,1.367-0.122,1.448s-0.104,0.159-0.25,0.236c-0.147,0.076-0.226,0.159-0.236,0.251
			c-0.03,0.183,0.097,0.371,0.38,0.563c-0.091,0.7-0.091,1.493,0,2.377c0.03,0.305,0.162,0.578,0.396,0.822
			c0.232,0.244,0.491,0.401,0.774,0.473c0.901,0.233,1.965,0.33,3.189,0.289c0.162-0.011,0.286-0.084,0.372-0.221
			c0.086-0.138,0.114-0.286,0.084-0.449c-0.091-0.487-0.278-0.701-0.563-0.641c-0.061,0-0.137,0.039-0.228,0.115
			s-0.177,0.114-0.258,0.114c-1.175,0.051-2-0.092-2.477-0.427c-0.081-0.173-0.121-0.405-0.121-0.7c0-0.438,0.096-1.032,0.288-1.783
			c0.284-0.111,0.664-0.172,1.14-0.184c0.567-0.01,0.957-0.04,1.17-0.091c0.121,0.01,0.223-0.03,0.304-0.121
			c0.121-0.133,0.192-0.204,0.213-0.214c0.07-0.041,0.105-0.097,0.105-0.167c0-0.063-0.07-0.193-0.212-0.397
			c-0.203-0.121-0.446-0.182-0.729-0.182c-0.151,0-0.39,0.025-0.714,0.075c-0.324,0.051-0.562,0.076-0.714,0.076
			c-0.213,0-0.4-0.03-0.563-0.091c0.041-0.914,0.106-1.504,0.198-1.767c0.374-0.153,0.926-0.331,1.655-0.534
			s1.281-0.381,1.655-0.533c0.071-0.051,0.106-0.116,0.106-0.197c0-0.052-0.021-0.133-0.061-0.244
			C133.784,54.695,133.759,54.619,133.748,54.579z M141.206,55.097c-0.01-0.02-0.01-0.092,0-0.213c0-0.102-0.015-0.152-0.045-0.152
			c-0.021,0-0.051,0.016-0.092,0.046c-0.192-0.112-0.385-0.168-0.577-0.168c-0.243,0-0.415,0.096-0.517,0.289
			c0.021,0.255,0.03,0.514,0.03,0.777c0,0.681-0.083,1.706-0.25,3.077s-0.251,2.403-0.251,3.094c0,0.039,0.006,0.072,0.006,0.111
			c-0.204-0.217-0.428-0.44-0.689-0.676c-1.104-1.005-1.66-1.514-1.671-1.523c-0.162-0.132-0.324-0.265-0.485-0.396
			c-0.213-0.183-0.319-0.34-0.319-0.472c0-0.122,0.091-0.233,0.273-0.336c0.445-0.243,0.82-0.578,1.124-1.005
			c0.354-0.478,0.531-0.955,0.531-1.433c0-0.568-0.188-1.097-0.562-1.584c-0.405-0.528-0.881-0.803-1.428-0.823
			c-1.084-0.051-1.676,0.239-1.777,0.869c-0.152,0.944-0.228,2.107-0.228,3.488v1.661c-0.011,0.813-0.036,1.514-0.076,2.103
			c-0.011,0.071-0.036,0.253-0.076,0.548c-0.04,0.254-0.061,0.458-0.061,0.609c0,0.519,0.223,0.828,0.668,0.93
			c0.071,0.02,0.16,0.005,0.267-0.046c0.105-0.051,0.169-0.076,0.189-0.076c0.132-0.498,0.223-1.168,0.273-2.011
			c0.081-1.117,0.137-1.808,0.167-2.072c0.436,0.376,1.099,1.046,1.99,2.011c0.8,0.864,1.468,1.504,2.005,1.92
			c0.166-0.042,0.293-0.093,0.402-0.147c0.075,0.021,0.156,0.036,0.25,0.041c0.304,0.01,0.502-0.127,0.593-0.411
			c-0.01-0.254-0.016-0.513-0.016-0.777c0-0.711,0.071-1.762,0.213-3.154c0.142-1.391,0.213-2.432,0.213-3.122
			c0-0.314-0.011-0.62-0.03-0.914C141.231,55.147,141.216,55.128,141.206,55.097z M135.678,57.946c0.02-0.265,0.02-0.604,0-1.021
			c-0.03-0.548-0.046-0.888-0.046-1.021c0-0.325,0.025-0.614,0.076-0.868c0.061-0.152,0.213-0.229,0.455-0.229
			c0.324,0,0.56,0.086,0.707,0.259c0.146,0.173,0.235,0.366,0.266,0.578c0.01,0.144,0,0.305-0.03,0.488
			C136.994,56.712,136.518,57.316,135.678,57.946z M143.561,57.063c-0.091-0.254-0.137-0.528-0.137-0.823
			c0-0.792,0.273-1.462,0.82-2.011c0.061-0.061,0.121-0.091,0.183-0.091c0.01,0,0.086,0.02,0.228,0.061
			c0.091,0.03,0.177,0.025,0.258-0.016c0.294-0.152,0.44-0.33,0.44-0.533c0-0.111-0.051-0.224-0.151-0.335
			c-0.213-0.234-0.531-0.351-0.957-0.351c-0.223,0-0.451,0.056-0.684,0.168c-0.507,0.243-0.896,0.646-1.17,1.203
			c-0.242,0.487-0.364,1.042-0.364,1.661c0,0.752,0.327,1.754,0.979,3.009c0.653,1.255,0.98,2.212,0.98,2.872
			c0,0.467-0.106,0.924-0.319,1.37c-0.051,0.111-0.152,0.174-0.304,0.184c-0.152,0.01-0.248,0.04-0.289,0.091
			c-0.151,0.174-0.228,0.32-0.228,0.441c0,0.204,0.152,0.371,0.456,0.504c0.08,0.03,0.167,0.045,0.258,0.045
			c0.232,0,0.496-0.105,0.79-0.319c0.364-0.274,0.592-0.497,0.684-0.671c0.273-0.518,0.41-1.056,0.41-1.614
			c0-0.681-0.243-1.509-0.729-2.483C143.986,57.961,143.601,57.174,143.561,57.063z M147.996,55.097
			c-0.011-0.02-0.011-0.092,0-0.213c0-0.102-0.016-0.152-0.046-0.152c-0.021,0-0.051,0.016-0.091,0.046
			c-0.193-0.112-0.385-0.168-0.577-0.168c-0.243,0-0.416,0.096-0.517,0.289c0.02,0.255,0.03,0.514,0.03,0.777
			c0,0.681-0.084,1.706-0.251,3.077s-0.25,2.403-0.25,3.094c0,0.396,0.02,0.771,0.061,1.127c0.04,0.354,0.278,0.543,0.714,0.563
			c0.304,0.01,0.501-0.127,0.593-0.411c-0.011-0.254-0.016-0.513-0.016-0.777c0-0.711,0.07-1.762,0.213-3.154
			c0.142-1.391,0.212-2.432,0.212-3.122c0-0.314-0.01-0.62-0.03-0.914C148.021,55.147,148.006,55.128,147.996,55.097z
			 M152.324,60.733c-0.638-0.375-1.271-0.751-1.898-1.127c0.273-0.427,0.896-1.143,1.868-2.148c0.83-0.863,1.388-1.609,1.671-2.239
			c-0.021-0.274-0.228-0.411-0.622-0.411c-0.143,0-0.273,0.025-0.396,0.076c-0.445,0.528-0.896,1.051-1.352,1.569
			c-0.537,0.619-1.013,1.116-1.428,1.493c0.02-0.813-0.046-1.909-0.197-3.292c-0.011-0.121-0.087-0.21-0.229-0.266
			c-0.142-0.057-0.278-0.104-0.41-0.146c-0.132,0.021-0.258,0.041-0.38,0.062c-0.162,0.04-0.232,0.122-0.212,0.243
			c0.142,0.792,0.212,1.727,0.212,2.804c0,0.355-0.01,0.886-0.03,1.593c-0.021,0.705-0.03,1.236-0.03,1.592
			c0,0.985,0.061,1.843,0.183,2.574c0.04,0.265,0.192,0.442,0.455,0.533c0.031,0.071,0.106,0.107,0.229,0.107
			c0.111,0,0.197-0.021,0.258-0.063c0.213-0.091,0.319-0.258,0.319-0.502c0-0.07-0.011-0.188-0.03-0.35
			c-0.021-0.163-0.03-0.285-0.03-0.366c-0.021-0.7-0.046-1.239-0.076-1.614c1.428,0.853,2.48,1.492,3.159,1.919
			c0.061,0.041,0.116,0.062,0.167,0.062s0.124-0.025,0.221-0.076c0.096-0.052,0.175-0.077,0.235-0.077
			c0.03,0,0.065,0.005,0.106,0.016c0.081-0.243,0.121-0.396,0.121-0.457c0-0.091-0.03-0.163-0.091-0.214
			C153.631,61.612,153.033,61.182,152.324,60.733z M22.46,42.707c-0.835-7.396-0.835-15.072-1.392-22.748
			c-0.348-0.698-0.278-1.954-0.278-3.07c-0.765-2.373-0.974-5.373-1.669-7.745c-0.557-3-0.417-6.838-1.809-8.722
			c-1.53,0.07-2.087,0.628-3.27,1.117c-1.252,5.233-2.157,10.815-3.479,15.909c-1.113-3.28-2.574-6.071-3.757-9.281V7.19
			C5.624,5.445,5.346,2.445,3.467,1.538C2.911,2.235,2.424,1.747,1.589,1.956C1.38,2.515,1.241,3.282,0.754,3.561v3.21
			c-0.626,3.768,0,8.723-0.278,12.77c-0.07,1.046-0.348,2.093-0.417,2.931c0,0.279,0.209,0.558,0.209,0.698
			c0,0.977-0.417,2.512-0.209,3.489c0.417,0.698,0.07,2.442,0.209,3.559c0.348,3.978-0.278,10.188,0,14.166
			c0.487,0.14,0.834-0.698,1.113,0c0.348-0.559,0.835-0.907,1.392-0.838c1.183-3.838,0.834-10.885,1.322-14.723
			c-0.696-3.489-0.209-8.304,0.348-11.793c-0.278-1.186-0.487-3.14-0.208-4.536c0.626,1.326,1.183,2.722,1.461,4.536
			c1.043,1.745,1.322,4.536,1.948,6.838c0.487,0.558,0.835,1.186,0.835,2.233c0.765,0.418,0.696,1.954,1.6,2.163
			c0.278,1.256,1.113,1.675,1.739,2.512c0.557-0.07,1.113-0.07,1.391,0.279c1.809-0.628,0.557-3.838,1.113-5.931
			c-0.208-2.721,0.626-6.28,1.461-8.513c1.183,8.862,1.113,19.468,1.878,28.888c0.626,0.698,1.669,0.837,1.739,2.232
			c0.348,0,0.696-0.069,0.626,0.419c0.348-0.419,1.183-0.209,1.669-0.419c0.209-0.627,0.557-0.977,0.835-1.395
			C22.738,44.87,21.903,43.754,22.46,42.707z M41.87,35.38c-0.766-4.466-1.67-8.862-1.948-13.886
			c-0.348-1.536-0.695-3.21-0.695-5.164c-0.557-1.396-0.974-2.93-0.974-5.024c-0.974-3-1.739-6.28-2.853-9.141
			c-0.417-0.14-0.904-0.279-0.834-0.978c-1.044-0.558-1.601,0.907-2.296,0.279c-0.487,0.837-1.044,1.536-1.878,1.954
			c-0.626,3.21-0.487,6.49-0.835,9.839c-0.278,2.023-0.904,5.582-1.252,7.396c-0.348,1.745-0.417,3.698-0.696,5.373
			c-0.07,0.488-0.417,0.837-0.487,1.256c-0.209,1.186-0.278,3.21-0.348,3.769c-0.417,5.024,0.139,10.257-1.113,14.025
			c1.252,0.489,1.878,0.07,2.782,0.279c0.348-0.279,0.418-0.907,1.113-0.837c-0.069-0.698,0.209-0.978,0.417-1.396
			c0.208-3.628,1.113-6.28,1.322-9.839c1.878,0.349,2.713,0.209,4.8,0.14c0.417,3.629,0.904,7.118,2.157,9.699
			c1.53,0.14,2.226,1.256,3.687,0.698c0.209-0.628,0.626-1.046,0.835-1.674C42.496,40.055,41.382,37.474,41.87,35.38z
			 M31.295,29.519c0.626-4.187,1.809-7.745,2.157-12.351c0.139,0.07,0.208,0.14,0.348,0.14c0.557,4.047,0.974,8.234,1.6,12.211
			C34.217,29.658,32.478,29.798,31.295,29.519z M62.252,24.983c-0.696-1.187-1.67-0.907-2.574-1.465
			c-0.278,0.069-0.417,0.349-0.695,0.418c-2.644-0.279-4.383,0.837-6.47,1.396c0.07,0.558-0.557,0.209-0.417,0.837
			c1.392,1.116,2.574,3.14,4.8,2.373c0,0.977,0.278,1.674,0.07,2.931c0,0.209,0.278,0.14,0.139,0.418
			c0.069,3.07-0.904,5.164-1.461,7.048c-0.348,1.116-0.626,2.721-1.878,2.302c-3.2-5.512-2.713-14.792-3.409-22.817
			c0.208-1.675,0.139-3.001,0.348-4.675c-0.348-0.488-0.07-2.303,0.278-2.721c-0.557-1.465,0.487-3.28,0.557-4.815
			C52.443,5.725,53,4.748,53.765,4.12c1.6-0.349,2.365,0.977,2.852,2.163c1.322,0.14,1.252,1.675,2.853,1.465
			c0.487-0.418,0.696-1.186,1.113-1.675c-0.904-3.28-4.243-6.768-7.513-5.233c-0.626-0.14-0.974,0.07-1.461,0
			c0,0.209,0,0.559-0.139,0.559c-1.322,0-2.157,0.837-3.409,0.977c-0.626,0.977-1.044,2.651-1.322,3.978
			c-1.391,7.955-0.556,16.538-0.695,23.864c0.417,0,0.208,0.559,0.417,0.628c-0.278,1.815,0,3.07,0.556,4.047
			c0,0.419,0.14,0.698,0,1.256c0.696,3.14,2.574,5.024,3.966,7.396c1.113,0.838,2.296,1.535,3.757,2.024
			c0.695-0.419,1.809-0.14,2.713-0.209c0.208-0.559,0.626-0.698,1.043-0.907c0.209-1.326,1.252-1.535,1.322-3.07
			c0.348,0.209,0.139-0.489,0.487-0.279c0.069-1.465,0.974-2.582,1.391-4.047c0.626-2.652,0.487-5.583,0.835-8.583
			C62.113,27.635,62.183,26.239,62.252,24.983z M81.522,35.38c-0.765-4.466-1.669-8.862-1.948-13.886
			c-0.348-1.536-0.696-3.21-0.696-5.164c-0.557-1.396-0.974-2.93-0.974-5.024c-0.974-3-1.739-6.28-2.852-9.141
			c-0.417-0.14-0.904-0.279-0.835-0.978c-1.043-0.558-1.6,0.907-2.296,0.279c-0.487,0.837-1.043,1.536-1.878,1.954
			c-0.626,3.21-0.487,6.49-0.835,9.839c-0.278,2.023-0.904,5.582-1.252,7.396c-0.348,1.745-0.417,3.698-0.696,5.373
			c-0.069,0.488-0.417,0.837-0.487,1.256c-0.208,1.186-0.278,3.21-0.348,3.769c-0.417,5.024,0.139,10.257-1.113,14.025
			c1.252,0.489,1.878,0.07,2.783,0.279c0.348-0.279,0.417-0.907,1.113-0.837c-0.069-0.698,0.208-0.978,0.417-1.396
			c0.208-3.628,1.113-6.28,1.322-9.839c1.878,0.349,2.713,0.209,4.8,0.14c0.417,3.629,0.904,7.118,2.156,9.699
			c1.531,0.14,2.227,1.256,3.688,0.698c0.208-0.628,0.626-1.046,0.835-1.674C82.148,40.055,81.035,37.474,81.522,35.38z
			 M70.948,29.519c0.626-4.187,1.809-7.745,2.157-12.351c0.139,0.07,0.208,0.14,0.348,0.14c0.557,4.047,0.974,8.234,1.6,12.211
			C73.87,29.658,72.13,29.798,70.948,29.519z M100.861,44.382c0.069-0.559,0.209-1.047,0.348-1.466
			c-0.278-1.186-0.974-1.954-1.252-3.21c-0.626-0.069-0.974-0.627-1.252-1.186c-1.879-1.186-4.175,0.907-6.191-0.279
			c-0.418,0.698-1.531-0.209-1.67,0.279c0-0.279-0.209-0.279-0.278-0.419c1.321-3.628,2.087-7.885,3.061-11.792
			c0.418,0.209,0.07-0.628,0.487-0.419c-0.069-1.256,0.487-1.675,0.417-2.861c0.418,0.209,0.07-0.627,0.487-0.418
			c0.209-2.582,1.252-4.047,1.67-6.35c1.878-2.442,2.365-6.141,3.617-9.141c0.278-2.163-0.695-2.93-0.974-4.396
			c-0.626-0.489-1.461-0.698-1.809-1.536c-4.801,0.35-8.279,1.536-13.357,1.396c-0.208,1.047,0.765,2.442,1.113,3.14
			c0.139,0.279,0.069,0.628,0.139,0.698c1.183,1.674,4.591,1.674,6.748,2.023c0.349-0.349,1.601-0.418,2.018-0.209
			c-0.557,1.605-1.461,3.07-2.087,4.745c-0.139,0.279,0,0.837-0.139,1.117c-0.07,0.209-0.348,0.209-0.487,0.418
			c-0.209,0.628-0.209,1.536-0.417,2.164c-0.07,0.209-0.418,0.279-0.487,0.419c-0.208,0.767-0.208,1.674-0.417,2.512
			c-0.209,0.628-0.626,1.116-0.835,1.744c-0.835,3.07-1.669,6.141-2.226,9.49c-0.417-0.209,0,0.559-0.487,0.419
			c-0.278,3.279-2.087,4.955-1.531,8.862c0.348,0.977,0.626,1.954,0.765,3.14c0.626,0.279,0.348,0.767,0.696,1.117
			c0.835,0.837,2.713,0.209,3.618,0.837c0.139-0.07,0.069-0.419,0.417-0.279c0.348,0.558,1.6,0,1.948,0.558
			C94.113,45.219,98.218,45.289,100.861,44.382z M109.349,10.609c0.557-1.186,0.835-2.721,1.322-3.978
			c-0.349-1.465-0.557-3.07-0.557-4.954c-0.278-0.837-1.113-0.907-1.461-1.675c-1.67,0.07-3.34,0.349-4.035,1.675
			c-1.67-0.279-1.392,2.023-2.018,3.14c0.139,1.535,0.974,2.093,1.043,3.628C105.383,9.423,106.427,11.237,109.349,10.609z
			 M107.888,14.237c-0.766,0.907-2.227,0.907-2.922,1.884c0.278,1.117,0.626,2.443,0.139,3.629
			c1.81,6.768-0.069,16.747,2.088,23.096c0.834,0.209,1.53,0.628,1.878,1.465c0.904-0.279,1.044,0.488,1.878,0.349
			c0.349-0.768,0.696-1.535,1.184-2.163c-0.14-2.792-0.418-5.373-0.278-8.513c-0.07-2.373-0.14-5.583-0.418-8.792
			C110.322,21.285,111.505,15.214,107.888,14.237z M125.141,32.17c1.252,2.512,2.087,5.442,3.617,7.675
			c-0.069,0.559,0.278,0.768,0.14,1.396c0.904,0.768,1.321,1.884,1.809,3.001c1.252-0.349,2.087,0.977,2.991,0.977
			c0.975,0,1.322-0.768,1.948-1.605c-0.209-1.325-0.417-2.582-0.278-4.187c0.626-0.488,0.695-2.024,0.278-2.792
			c0.557-1.604-0.348-2.93,0.278-4.745c-0.974-5.652-0.557-12.071-0.695-18.282c0-0.209-0.349-0.14-0.278-0.419
			c-0.278-3.209,0.139-7.117-0.418-10.047c0.209-0.559-0.209-2.024-0.835-2.303c-1.252-0.558-2.713,1.116-4.104,1.116
			c-0.278,0.698-0.209,1.047-0.139,1.465c0.069,0.628,0.208,1.955,0,2.652c-0.487,2.093-0.418,5.931,0,8.094
			c-0.278,0.07-0.278,0.488-0.278,0.977c0.765,4.048,0.208,10.048,0.557,14.026c-1.739-3.698-2.853-8.095-4.035-12.421
			c-0.975-0.697-1.461-1.954-1.53-3.559c-0.418,0-0.278-0.558-0.557-0.558c-1.113-3.419-2.157-6.839-3.271-10.118
			c-0.486-0.279-0.834-0.768-1.391-0.977c-1.879,0.488-3.826,0.767-4.035,2.582c-0.069,0.767,0.487,1.605,0.557,2.512
			c0.209,1.884,0.139,3.978-0.278,5.583c0.209,3.907,0,8.723,0.417,13.048c0.14,1.466-0.208,3.28,0,5.233
			c0.487,5.024,0.696,10.188,0.418,14.863c0.695,0.837-0.069,1.884,0.278,2.512c0.904-0.279,2.365,0.21,2.226-1.674
			c0.278-0.209,0.348,0,0.696,0c0-2.861,1.809-5.303,0.834-8.164c0.766-2.721-0.903-9.001,0-13.467
			c-0.417-1.884,0.627-4.466,0.14-6.559c0.626,2.024,0.974,4.256,2.156,5.722C122.845,26.937,124.653,28.961,125.141,32.17z
			 M153.177,37.613c0.139-0.837-0.626,0-1.183-0.279c-0.487,0.977-1.392,1.396-2.296,1.884c-0.348,1.326-1.461,2.303-2.853,1.884
			c-0.069-0.907-0.557-1.256-0.974-1.745c-1.044-4.047-2.018-8.932-1.67-14.165c-0.139-0.14-0.487-0.069-0.417-0.419
			c0-0.209,0.348-0.139,0.278-0.418c-1.113-4.815-0.696-12.211,1.183-15.631c0.834,0,1.112-0.558,1.809-0.697
			c1.112,0.279,1.252,1.814,2.644,1.814c0.139,0.837,1.113,0.628,1.183,1.465c1.321,0,1.113-0.209,1.948-0.558
			c0.695-3.419-1.461-4.605-2.296-6.629c0-0.419,0.417-0.349,0.348-0.768l-1.183-1.605c-4.244-0.488-6.4,1.535-8.905,3.07
			c-0.835,2.512-2.504,5.512-1.947,8.792c0.139,4.466,0,8.234,0.139,12.63c0.696,5.861,1.044,12.211,2.922,16.747
			c0.487,0,0.487,0.558,1.183,0.419c-0.139,0.418,0.14,0.349,0.14,0.698c0.904-0.07,1.252,0.488,1.669,1.046
			c0.835-0.139,1.601,0.419,2.436,0.559c1.669,0.279,3.13-0.279,4.174-0.559c1.67-0.418,3.409-0.349,3.757-2.163
			c0.348-1.954-0.487-4.535-1.113-5.652C153.733,37.334,153.315,37.264,153.177,37.613z"/>
	</g>
</g>
</svg>
