<?xml version="1.0" encoding="utf-8"?>
<!-- Generator: Adobe Illustrator 16.0.3, SVG Export Plug-In . SVG Version: 6.00 Build 0)  -->
<!DOCTYPE svg PUBLIC "-//W3C//DTD SVG 1.1//EN" "http://www.w3.org/Graphics/SVG/1.1/DTD/svg11.dtd">
<svg version="1.1" id="Layer_1" xmlns="http://www.w3.org/2000/svg" xmlns:xlink="http://www.w3.org/1999/xlink" x="0px" y="0px"
	 width="180px" height="100px" viewBox="0.5 100.5 180 100" enable-background="new 0.5 100.5 180 100" xml:space="preserve">
<g>
	<g>
		<path fill="#FFFFFF" d="M169.837,157.989c-0.962-0.749-1.939-1.188-2.932-1.313c-0.561-0.062-1.521,0.359-2.889,1.266
			c-1.365,0.904-1.953,1.793-1.768,2.668c0.434,1.998,2.296,3.621,5.586,4.869c0.248,0.063,0.497-0.032,0.745-0.28
			c0.248-0.25,0.635-0.392,1.163-0.423c0.527-0.031,0.977-0.469,1.35-1.311c0.372-0.843,0.496-1.701,0.373-2.574
			C171.342,159.706,170.799,158.739,169.837,157.989z M180.496,103.934c0.062-1.058-0.496-1.836-1.677-2.334
			c-1.055-0.311-2.109-0.621-3.164-0.934c-0.745-0.249-1.521-0.218-2.327,0.094c-0.808,0.313-1.272,0.84-1.396,1.588
			c-0.25,1.68-1.801,8.774-4.656,21.283c-1.861,8.464-2.793,15.621-2.793,21.472c0,1.306,0.031,2.613,0.095,3.92
			c0.187,2.488,1.86,4.045,5.026,4.668c0.559,0.123,1.164-0.047,1.814-0.515c0.65-0.466,0.979-0.979,0.979-1.541
			c-0.188-6.284,0.932-14.344,3.352-24.176C178.541,116.131,180.123,108.29,180.496,103.934z M95.168,154.103
			c-0.485-0.244-0.974-0.396-1.459-0.455c-0.091-0.012-0.288-0.041-0.592-0.094c-0.214-0.039-0.386-0.061-0.517-0.061
			c-0.283,0-0.543,0.086-0.774,0.259c0,0.052-0.022,0.117-0.068,0.199c-0.046,0.081-0.063,0.142-0.054,0.182
			c0.152,0.335,0.466,0.55,0.941,0.642c0.07,1.3,0.045,2.722-0.076,4.265c-0.131,0.093-0.234,0.176-0.312,0.252
			s-0.112,0.16-0.112,0.252c0,0.183,0.104,0.345,0.317,0.487c-0.091,0.66-0.146,1.498-0.167,2.514
			c-0.021,0.844-0.04,1.691-0.061,2.544c0.133,0.272,0.365,0.411,0.699,0.411c0.143,0,0.273-0.036,0.396-0.107
			c0.484-0.283,0.972-0.568,1.458-0.853c0.599-0.366,1.048-0.737,1.353-1.112c0.396-0.486,0.592-1.021,0.592-1.6
			c0-0.751-0.42-1.401-1.26-1.95c-0.162-0.071-0.332-0.146-0.51-0.222c-0.178-0.075-0.281-0.189-0.313-0.344
			c0.518-0.354,1.033-0.715,1.55-1.08c0.536-0.446,0.87-0.944,1.003-1.493c0.061-0.265,0.025-0.589-0.105-0.976
			C96.903,155.226,96.263,154.672,95.168,154.103z M95.062,160.821c0.192,0.234,0.289,0.503,0.289,0.809
			c0,0.102-0.011,0.207-0.031,0.319c-0.08,0.364-0.213,0.655-0.395,0.868c-0.102,0.121-0.281,0.262-0.539,0.418
			c-0.259,0.158-0.447,0.308-0.57,0.449c-0.08-0.265-0.121-0.559-0.121-0.884c0-0.224,0.027-0.557,0.084-0.997
			c0.056-0.441,0.084-0.77,0.084-0.982c0-0.121-0.006-0.233-0.016-0.336c0.07-0.029,0.146-0.045,0.229-0.045
			C94.216,160.44,94.545,160.567,95.062,160.821z M95.485,157.013c-0.231,0.336-0.5,0.574-0.805,0.717
			c-0.021,0.01-0.102,0.068-0.242,0.176c-0.142,0.107-0.248,0.158-0.319,0.158c0.011-0.324,0-0.775-0.03-1.354
			c-0.04-0.63-0.061-1.076-0.061-1.341c0-0.193,0.005-0.375,0.016-0.549c0.05-0.021,0.096-0.03,0.137-0.03
			c0.082,0,0.182,0.041,0.305,0.123c0.172,0.101,0.298,0.167,0.38,0.196c0.557,0.203,0.86,0.494,0.911,0.869
			C95.815,156.332,95.72,156.679,95.485,157.013z M103.005,155.078c-0.363-0.214-0.684-0.32-0.957-0.32
			c-0.07,0-0.131,0.005-0.182,0.017c-0.496,0.121-0.987,0.248-1.475,0.379c-0.566,0.154-1.043,0.326-1.428,0.52
			c-0.324,0.133-0.648,0.266-0.972,0.396c-0.345,0.173-0.522,0.404-0.532,0.699c-0.01,0.315,0.27,0.528,0.836,0.641
			c-0.063,0.884-0.102,1.367-0.122,1.447c-0.021,0.082-0.104,0.16-0.25,0.236c-0.147,0.076-0.226,0.159-0.235,0.252
			c-0.03,0.182,0.097,0.37,0.379,0.563c-0.09,0.699-0.09,1.492,0,2.377c0.031,0.305,0.162,0.578,0.396,0.822
			c0.232,0.244,0.491,0.4,0.773,0.473c0.902,0.232,1.966,0.33,3.189,0.289c0.162-0.012,0.286-0.084,0.372-0.221
			c0.086-0.139,0.114-0.287,0.084-0.449c-0.091-0.487-0.278-0.701-0.563-0.641c-0.061,0-0.137,0.039-0.228,0.114
			c-0.091,0.076-0.177,0.114-0.258,0.114c-1.175,0.051-2-0.092-2.478-0.428c-0.08-0.172-0.121-0.404-0.121-0.699
			c0-0.438,0.097-1.032,0.289-1.783c0.283-0.111,0.664-0.172,1.14-0.184c0.567-0.01,0.957-0.041,1.17-0.092
			c0.121,0.01,0.224-0.029,0.304-0.121c0.121-0.133,0.192-0.203,0.213-0.213c0.07-0.041,0.105-0.098,0.105-0.168
			c0-0.063-0.07-0.192-0.212-0.396c-0.203-0.121-0.446-0.182-0.729-0.182c-0.15,0-0.39,0.024-0.714,0.074
			c-0.323,0.051-0.562,0.076-0.714,0.076c-0.213,0-0.4-0.029-0.563-0.091c0.041-0.914,0.105-1.504,0.197-1.767
			c0.375-0.153,0.928-0.332,1.655-0.535c0.729-0.202,1.281-0.381,1.655-0.532c0.07-0.052,0.105-0.116,0.105-0.197
			c0-0.052-0.021-0.133-0.061-0.243C103.041,155.194,103.017,155.118,103.005,155.078z M106.56,154.103
			c-0.485-0.244-0.972-0.396-1.457-0.455c-0.093-0.012-0.289-0.041-0.594-0.094c-0.213-0.039-0.385-0.061-0.517-0.061
			c-0.283,0-0.541,0.086-0.774,0.259c0,0.052-0.021,0.117-0.068,0.199c-0.045,0.081-0.063,0.142-0.053,0.182
			c0.151,0.335,0.467,0.55,0.941,0.642c0.07,1.3,0.046,2.722-0.076,4.265c-0.132,0.093-0.234,0.176-0.313,0.252
			c-0.074,0.076-0.112,0.16-0.112,0.252c0,0.183,0.106,0.345,0.317,0.487c-0.09,0.66-0.146,1.498-0.166,2.514
			c-0.021,0.844-0.041,1.691-0.062,2.544c0.132,0.274,0.364,0.412,0.699,0.412c0.142,0,0.272-0.036,0.396-0.106
			c0.485-0.285,0.971-0.569,1.457-0.854c0.598-0.366,1.049-0.736,1.352-1.111c0.396-0.488,0.594-1.021,0.594-1.601
			c0-0.751-0.42-1.401-1.262-1.95c-0.161-0.07-0.332-0.145-0.508-0.222c-0.179-0.075-0.281-0.189-0.313-0.343
			c0.518-0.354,1.033-0.717,1.55-1.082c0.536-0.445,0.87-0.943,1.002-1.492c0.062-0.266,0.025-0.59-0.106-0.975
			C108.296,155.226,107.653,154.672,106.56,154.103z M106.453,160.821c0.192,0.234,0.289,0.503,0.289,0.809
			c0,0.102-0.011,0.207-0.03,0.319c-0.082,0.364-0.213,0.655-0.396,0.868c-0.102,0.121-0.28,0.262-0.539,0.418
			c-0.258,0.158-0.447,0.308-0.568,0.449c-0.081-0.265-0.122-0.559-0.122-0.884c0-0.224,0.028-0.557,0.084-0.997
			c0.056-0.441,0.083-0.77,0.083-0.982c0-0.121-0.005-0.233-0.016-0.336c0.07-0.029,0.146-0.045,0.229-0.045
			C105.606,160.44,105.937,160.567,106.453,160.821z M106.879,157.013c-0.233,0.336-0.502,0.574-0.806,0.717
			c-0.021,0.01-0.102,0.068-0.243,0.176c-0.142,0.105-0.248,0.158-0.317,0.158c0.01-0.324,0-0.775-0.031-1.354
			c-0.041-0.63-0.062-1.076-0.062-1.341c0-0.193,0.006-0.375,0.017-0.549c0.051-0.021,0.096-0.03,0.137-0.03
			c0.08,0,0.183,0.041,0.304,0.123c0.172,0.101,0.299,0.167,0.38,0.196c0.557,0.203,0.86,0.494,0.911,0.869
			C107.207,156.332,107.11,156.679,106.879,157.013z M113.106,156.708c-0.051-0.416-0.106-0.832-0.168-1.25
			c-0.082-0.486-0.264-0.854-0.547-1.096c-0.111-0.092-0.238-0.139-0.379-0.139c-0.193,0-0.32,0.071-0.381,0.213
			c-0.264,0.642-0.563,1.561-0.896,2.76c-0.395,1.381-0.684,2.324-0.864,2.832c-0.021,0.072-0.114,0.125-0.281,0.16
			s-0.272,0.082-0.319,0.138c-0.045,0.057-0.067,0.108-0.067,0.159c0,0.062,0.071,0.146,0.213,0.26s0.207,0.213,0.196,0.306
			c-0.029,0.314-0.196,0.843-0.5,1.584c-0.254,0.65-0.364,1.167-0.334,1.554c0.02,0.192,0.197,0.347,0.531,0.457
			c0.264,0.082,0.436,0.03,0.517-0.151c0.161-0.388,0.329-0.95,0.501-1.69c0.183-0.803,0.328-1.361,0.439-1.677
			c0.224-0.192,0.532-0.313,0.928-0.364c0.345-0.031,0.688-0.062,1.033-0.092c0.191,0.518,0.358,1.162,0.5,1.936
			c0.133,0.711,0.445,1.11,0.941,1.203c0.063,0.01,0.178-0.063,0.35-0.213c0.172-0.154,0.26-0.33,0.26-0.533
			c0-0.123-0.031-0.266-0.092-0.428C114.14,161.081,113.612,159.104,113.106,156.708z M111.192,159.771
			c0.223-0.845,0.485-1.688,0.789-2.529c0.092,0.406,0.188,0.813,0.289,1.219c0.102,0.467,0.166,0.889,0.196,1.266
			C111.778,159.726,111.354,159.74,111.192,159.771z M116.676,157.562c-0.092-0.254-0.137-0.527-0.137-0.822
			c0-0.792,0.272-1.463,0.819-2.012c0.062-0.061,0.121-0.09,0.183-0.09c0.011,0,0.086,0.02,0.229,0.061
			c0.09,0.029,0.176,0.025,0.258-0.016c0.293-0.152,0.439-0.33,0.439-0.533c0-0.111-0.051-0.225-0.15-0.336
			c-0.213-0.233-0.532-0.351-0.957-0.351c-0.223,0-0.451,0.056-0.685,0.168c-0.507,0.243-0.896,0.646-1.17,1.203
			c-0.243,0.487-0.364,1.042-0.364,1.661c0,0.752,0.326,1.754,0.979,3.009s0.979,2.212,0.979,2.872c0,0.467-0.106,0.924-0.318,1.37
			c-0.051,0.11-0.152,0.174-0.305,0.185c-0.151,0.01-0.248,0.039-0.289,0.09c-0.15,0.174-0.228,0.32-0.228,0.441
			c0,0.204,0.151,0.371,0.455,0.504c0.081,0.03,0.167,0.045,0.259,0.045c0.232,0,0.496-0.104,0.79-0.318
			c0.364-0.274,0.593-0.498,0.685-0.672c0.271-0.518,0.408-1.056,0.408-1.613c0-0.682-0.242-1.51-0.729-2.483
			C117.101,158.46,116.716,157.673,116.676,157.562z M126.412,154.103c-0.486-0.244-0.974-0.396-1.459-0.455
			c-0.091-0.012-0.288-0.041-0.593-0.094c-0.213-0.039-0.385-0.061-0.517-0.061c-0.282,0-0.542,0.086-0.774,0.259
			c0,0.052-0.022,0.117-0.067,0.199c-0.046,0.081-0.063,0.142-0.054,0.182c0.152,0.335,0.466,0.55,0.941,0.642
			c0.07,1.3,0.045,2.722-0.076,4.265c-0.131,0.093-0.234,0.176-0.312,0.252s-0.114,0.16-0.114,0.252
			c0,0.183,0.106,0.345,0.319,0.487c-0.091,0.66-0.146,1.498-0.167,2.514c-0.021,0.844-0.041,1.691-0.061,2.544
			c0.131,0.274,0.363,0.412,0.697,0.412c0.143,0,0.273-0.036,0.396-0.106c0.484-0.285,0.972-0.569,1.457-0.854
			c0.599-0.366,1.049-0.736,1.353-1.111c0.396-0.488,0.593-1.021,0.593-1.601c0-0.751-0.42-1.401-1.261-1.95
			c-0.162-0.07-0.332-0.145-0.509-0.222c-0.178-0.075-0.281-0.189-0.313-0.343c0.518-0.354,1.032-0.717,1.549-1.082
			c0.537-0.445,0.871-0.943,1.004-1.492c0.061-0.266,0.025-0.59-0.106-0.975C128.147,155.226,127.506,154.672,126.412,154.103z
			 M126.306,160.821c0.192,0.234,0.288,0.503,0.288,0.809c0,0.102-0.01,0.207-0.03,0.319c-0.08,0.364-0.213,0.655-0.395,0.868
			c-0.102,0.121-0.281,0.262-0.539,0.418c-0.259,0.158-0.447,0.308-0.57,0.449c-0.08-0.265-0.121-0.559-0.121-0.884
			c0-0.224,0.027-0.557,0.084-0.997c0.056-0.441,0.084-0.77,0.084-0.982c0-0.121-0.006-0.233-0.017-0.336
			c0.071-0.029,0.147-0.045,0.229-0.045C125.46,160.44,125.789,160.567,126.306,160.821z M126.729,157.013
			c-0.231,0.336-0.5,0.574-0.805,0.717c-0.021,0.01-0.102,0.068-0.242,0.176c-0.142,0.107-0.248,0.158-0.32,0.158
			c0.012-0.324,0-0.775-0.029-1.354c-0.04-0.63-0.061-1.076-0.061-1.341c0-0.193,0.004-0.375,0.016-0.549
			c0.05-0.021,0.096-0.03,0.137-0.03c0.08,0,0.182,0.041,0.305,0.123c0.172,0.101,0.297,0.167,0.379,0.196
			c0.558,0.203,0.86,0.494,0.912,0.869C127.06,156.332,126.964,156.679,126.729,157.013z M134.249,155.078
			c-0.364-0.214-0.684-0.32-0.957-0.32c-0.07,0-0.131,0.005-0.182,0.017c-0.496,0.121-0.987,0.248-1.475,0.379
			c-0.566,0.154-1.043,0.326-1.428,0.52c-0.324,0.133-0.648,0.266-0.973,0.396c-0.344,0.173-0.521,0.404-0.531,0.699
			c-0.01,0.315,0.27,0.528,0.836,0.641c-0.063,0.884-0.102,1.367-0.122,1.447c-0.021,0.082-0.104,0.16-0.25,0.236
			c-0.147,0.076-0.226,0.159-0.235,0.252c-0.031,0.182,0.096,0.37,0.379,0.563c-0.09,0.699-0.09,1.492,0,2.377
			c0.03,0.305,0.162,0.578,0.396,0.822c0.232,0.244,0.491,0.4,0.773,0.473c0.901,0.232,1.965,0.33,3.189,0.289
			c0.162-0.012,0.286-0.084,0.372-0.221c0.086-0.139,0.114-0.287,0.084-0.449c-0.091-0.487-0.278-0.701-0.563-0.641
			c-0.061,0-0.137,0.039-0.228,0.114c-0.091,0.076-0.177,0.114-0.258,0.114c-1.175,0.051-2-0.092-2.478-0.428
			c-0.08-0.172-0.121-0.404-0.121-0.699c0-0.438,0.097-1.032,0.289-1.783c0.283-0.111,0.664-0.172,1.14-0.184
			c0.567-0.01,0.956-0.041,1.17-0.092c0.121,0.01,0.223-0.029,0.304-0.121c0.121-0.133,0.192-0.203,0.213-0.213
			c0.07-0.041,0.105-0.098,0.105-0.168c0-0.063-0.07-0.192-0.213-0.396c-0.202-0.121-0.445-0.182-0.729-0.182
			c-0.15,0-0.39,0.024-0.714,0.074c-0.324,0.051-0.562,0.076-0.714,0.076c-0.213,0-0.4-0.029-0.563-0.091
			c0.041-0.914,0.105-1.504,0.197-1.767c0.374-0.153,0.926-0.332,1.655-0.535c0.729-0.202,1.28-0.381,1.655-0.532
			c0.07-0.052,0.105-0.116,0.105-0.197c0-0.052-0.021-0.133-0.061-0.243C134.285,155.194,134.26,155.118,134.249,155.078z
			 M141.707,155.597c-0.011-0.021-0.011-0.093,0-0.214c0-0.102-0.015-0.151-0.045-0.151c-0.021,0-0.052,0.016-0.093,0.045
			c-0.191-0.111-0.385-0.168-0.576-0.168c-0.243,0-0.415,0.097-0.518,0.289c0.021,0.256,0.03,0.515,0.03,0.777
			c0,0.682-0.083,1.706-0.25,3.077s-0.251,2.403-0.251,3.095c0,0.039,0.006,0.071,0.006,0.11c-0.203-0.217-0.428-0.44-0.689-0.676
			c-1.104-1.005-1.659-1.515-1.67-1.523c-0.162-0.132-0.324-0.265-0.485-0.396c-0.213-0.184-0.319-0.34-0.319-0.473
			c0-0.121,0.092-0.232,0.273-0.336c0.445-0.242,0.82-0.578,1.124-1.005c0.354-0.478,0.53-0.954,0.53-1.433
			c0-0.568-0.188-1.098-0.562-1.584c-0.405-0.528-0.881-0.803-1.428-0.823c-1.084-0.051-1.677,0.239-1.777,0.869
			c-0.151,0.944-0.228,2.106-0.228,3.487v1.662c-0.012,0.813-0.036,1.514-0.076,2.103c-0.012,0.071-0.036,0.253-0.076,0.548
			c-0.04,0.254-0.061,0.458-0.061,0.609c0,0.519,0.223,0.828,0.668,0.93c0.07,0.02,0.16,0.005,0.267-0.046
			c0.104-0.052,0.169-0.076,0.188-0.076c0.133-0.498,0.224-1.168,0.273-2.011c0.081-1.117,0.137-1.809,0.167-2.072
			c0.437,0.376,1.099,1.046,1.99,2.012c0.8,0.863,1.468,1.504,2.005,1.92c0.166-0.043,0.293-0.094,0.402-0.147
			c0.074,0.021,0.156,0.036,0.25,0.041c0.304,0.01,0.502-0.127,0.593-0.411c-0.011-0.254-0.017-0.513-0.017-0.777
			c0-0.711,0.071-1.762,0.213-3.154c0.143-1.391,0.213-2.432,0.213-3.121c0-0.314-0.01-0.62-0.029-0.914
			C141.731,155.646,141.717,155.627,141.707,155.597z M136.179,158.444c0.021-0.264,0.021-0.604,0-1.021
			c-0.029-0.548-0.046-0.888-0.046-1.021c0-0.325,0.025-0.614,0.076-0.868c0.062-0.152,0.213-0.229,0.455-0.229
			c0.323,0,0.56,0.086,0.707,0.26c0.146,0.173,0.235,0.365,0.267,0.578c0.01,0.144,0,0.305-0.031,0.487
			C137.495,157.211,137.019,157.815,136.179,158.444z M144.062,157.562c-0.09-0.254-0.137-0.527-0.137-0.822
			c0-0.792,0.273-1.463,0.82-2.012c0.061-0.061,0.121-0.09,0.184-0.09c0.01,0,0.086,0.02,0.227,0.061
			c0.092,0.029,0.178,0.025,0.259-0.016c0.294-0.152,0.44-0.33,0.44-0.533c0-0.111-0.051-0.225-0.151-0.336
			c-0.213-0.233-0.531-0.351-0.957-0.351c-0.224,0-0.451,0.056-0.685,0.168c-0.506,0.243-0.896,0.646-1.17,1.203
			c-0.242,0.487-0.363,1.042-0.363,1.661c0,0.752,0.326,1.754,0.979,3.009c0.653,1.255,0.98,2.212,0.98,2.872
			c0,0.467-0.106,0.924-0.319,1.37c-0.051,0.11-0.151,0.174-0.304,0.185c-0.152,0.01-0.248,0.039-0.289,0.09
			c-0.151,0.174-0.229,0.32-0.229,0.441c0,0.204,0.152,0.371,0.456,0.504c0.08,0.03,0.167,0.045,0.259,0.045
			c0.231,0,0.496-0.104,0.789-0.318c0.364-0.274,0.592-0.498,0.685-0.672c0.272-0.518,0.409-1.056,0.409-1.613
			c0-0.682-0.242-1.51-0.729-2.483C144.487,158.46,144.103,157.673,144.062,157.562z M148.497,155.597
			c-0.012-0.021-0.012-0.093,0-0.214c0-0.102-0.016-0.151-0.046-0.151c-0.021,0-0.052,0.016-0.091,0.045
			c-0.193-0.111-0.385-0.168-0.577-0.168c-0.243,0-0.416,0.097-0.517,0.289c0.02,0.256,0.029,0.515,0.029,0.777
			c0,0.682-0.084,1.706-0.251,3.077s-0.25,2.403-0.25,3.095c0,0.396,0.021,0.771,0.062,1.127c0.039,0.354,0.277,0.543,0.713,0.563
			c0.305,0.01,0.502-0.127,0.594-0.411c-0.012-0.254-0.016-0.513-0.016-0.776c0-0.711,0.069-1.763,0.213-3.154
			c0.142-1.391,0.211-2.432,0.211-3.122c0-0.314-0.01-0.62-0.029-0.914C148.522,155.646,148.507,155.627,148.497,155.597z
			 M152.825,161.231c-0.639-0.375-1.271-0.75-1.898-1.127c0.273-0.426,0.896-1.143,1.868-2.147c0.83-0.862,1.388-1.608,1.671-2.239
			c-0.021-0.273-0.229-0.41-0.622-0.41c-0.143,0-0.272,0.024-0.396,0.075c-0.445,0.528-0.896,1.052-1.352,1.569
			c-0.537,0.619-1.014,1.115-1.429,1.492c0.021-0.813-0.046-1.908-0.196-3.291c-0.012-0.121-0.088-0.211-0.229-0.266
			c-0.142-0.058-0.278-0.104-0.41-0.146c-0.132,0.021-0.258,0.041-0.38,0.063c-0.162,0.039-0.232,0.121-0.213,0.242
			c0.143,0.792,0.213,1.727,0.213,2.805c0,0.354-0.01,0.885-0.03,1.592c-0.021,0.705-0.03,1.236-0.03,1.593
			c0,0.985,0.062,1.843,0.184,2.573c0.039,0.266,0.191,0.442,0.455,0.533c0.031,0.071,0.105,0.107,0.229,0.107
			c0.111,0,0.197-0.021,0.258-0.063c0.213-0.092,0.319-0.258,0.319-0.502c0-0.07-0.011-0.188-0.03-0.351
			c-0.021-0.163-0.029-0.285-0.029-0.366c-0.021-0.699-0.047-1.238-0.076-1.613c1.428,0.853,2.48,1.492,3.158,1.918
			c0.062,0.041,0.117,0.063,0.168,0.063s0.123-0.025,0.221-0.076c0.096-0.052,0.175-0.076,0.234-0.076
			c0.031,0,0.065,0.004,0.106,0.016c0.081-0.243,0.121-0.396,0.121-0.457c0-0.092-0.03-0.163-0.091-0.215
			C154.132,162.11,153.534,161.681,152.825,161.231z M22.96,143.206c-0.835-7.396-0.835-15.071-1.392-22.747
			c-0.348-0.698-0.278-1.954-0.278-3.07c-0.765-2.373-0.974-5.373-1.669-7.744c-0.557-3-0.417-6.838-1.809-8.723
			c-1.53,0.07-2.087,0.628-3.27,1.117c-1.252,5.232-2.157,10.814-3.479,15.909c-1.113-3.28-2.574-6.071-3.757-9.281v-0.978
			c-1.182-1.744-1.46-4.744-3.339-5.651c-0.556,0.696-1.043,0.209-1.878,0.418c-0.209,0.56-0.348,1.326-0.835,1.604v3.211
			c-0.626,3.768,0,8.723-0.278,12.77c-0.07,1.046-0.348,2.093-0.417,2.932c0,0.278,0.209,0.557,0.209,0.697
			c0,0.977-0.417,2.512-0.209,3.489c0.417,0.698,0.07,2.441,0.209,3.558c0.348,3.978-0.278,10.188,0,14.166
			c0.487,0.14,0.834-0.698,1.113,0c0.348-0.559,0.835-0.907,1.392-0.838c1.183-3.838,0.834-10.885,1.322-14.723
			c-0.696-3.488-0.209-8.303,0.348-11.793c-0.278-1.186-0.487-3.139-0.208-4.535c0.626,1.326,1.183,2.722,1.461,4.535
			c1.043,1.746,1.322,4.537,1.948,6.839c0.487,0.558,0.835,1.187,0.835,2.233c0.765,0.418,0.696,1.952,1.6,2.161
			c0.278,1.256,1.113,1.676,1.739,2.512c0.557-0.069,1.113-0.069,1.391,0.279c1.809-0.628,0.557-3.837,1.113-5.93
			c-0.208-2.722,0.626-6.28,1.461-8.513c1.183,8.861,1.113,19.467,1.878,28.887c0.626,0.698,1.669,0.837,1.739,2.231
			c0.348,0,0.696-0.068,0.626,0.42c0.348-0.42,1.183-0.209,1.669-0.42c0.209-0.627,0.557-0.977,0.835-1.395
			C23.238,145.369,22.403,144.253,22.96,143.206z M42.371,135.879c-0.766-4.466-1.67-8.861-1.948-13.885
			c-0.348-1.536-0.695-3.21-0.695-5.164c-0.557-1.396-0.974-2.93-0.974-5.023c-0.974-3-1.739-6.281-2.854-9.142
			c-0.417-0.14-0.904-0.278-0.834-0.978c-1.044-0.559-1.601,0.906-2.296,0.278c-0.487,0.837-1.044,1.536-1.878,1.954
			c-0.626,3.21-0.487,6.49-0.835,9.839c-0.278,2.023-0.904,5.582-1.252,7.396c-0.348,1.746-0.417,3.699-0.696,5.373
			c-0.07,0.488-0.417,0.838-0.487,1.257c-0.209,1.186-0.278,3.209-0.348,3.768c-0.417,5.024,0.139,10.258-1.113,14.025
			c1.252,0.488,1.878,0.07,2.782,0.279c0.348-0.279,0.418-0.907,1.113-0.838c-0.069-0.697,0.209-0.978,0.417-1.396
			c0.208-3.628,1.113-6.28,1.322-9.839c1.878,0.349,2.713,0.209,4.8,0.14c0.417,3.63,0.904,7.118,2.157,9.699
			c1.53,0.14,2.226,1.256,3.687,0.698c0.209-0.629,0.626-1.047,0.835-1.674C42.997,140.554,41.882,137.974,42.371,135.879z
			 M31.795,130.019c0.626-4.187,1.809-7.745,2.157-12.351c0.139,0.07,0.208,0.141,0.348,0.141c0.557,4.047,0.974,8.233,1.6,12.21
			C34.717,130.157,32.978,130.297,31.795,130.019z M62.752,125.482c-0.696-1.187-1.67-0.906-2.574-1.465
			c-0.278,0.069-0.417,0.35-0.695,0.418c-2.644-0.278-4.383,0.838-6.47,1.396c0.07,0.559-0.557,0.209-0.417,0.837
			c1.392,1.116,2.574,3.139,4.8,2.372c0,0.978,0.278,1.674,0.07,2.931c0,0.209,0.278,0.141,0.139,0.418
			c0.069,3.07-0.904,5.164-1.461,7.049c-0.348,1.115-0.626,2.721-1.878,2.302c-3.2-5.513-2.713-14.791-3.409-22.816
			c0.208-1.675,0.139-3.001,0.348-4.675c-0.348-0.488-0.07-2.304,0.278-2.722c-0.557-1.465,0.487-3.279,0.557-4.814
			c0.903-0.488,1.46-1.465,2.225-2.093c1.6-0.349,2.365,0.978,2.852,2.163c1.322,0.14,1.252,1.675,2.853,1.465
			c0.487-0.418,0.696-1.186,1.113-1.675c-0.904-3.28-4.243-6.769-7.513-5.233c-0.626-0.14-0.974,0.07-1.461,0
			c0,0.209,0,0.559-0.139,0.559c-1.322,0-2.157,0.838-3.409,0.978c-0.626,0.978-1.044,2.651-1.322,3.978
			c-1.391,7.955-0.556,16.539-0.695,23.863c0.417,0,0.208,0.56,0.417,0.628c-0.278,1.815,0,3.07,0.556,4.047
			c0,0.42,0.14,0.698,0,1.256c0.696,3.141,2.574,5.024,3.966,7.396c1.113,0.838,2.296,1.535,3.757,2.023
			c0.695-0.418,1.809-0.139,2.713-0.209c0.208-0.559,0.626-0.697,1.043-0.906c0.209-1.326,1.252-1.535,1.322-3.07
			c0.348,0.209,0.139-0.488,0.487-0.279c0.069-1.465,0.974-2.582,1.391-4.047c0.626-2.652,0.487-5.582,0.835-8.582
			C62.613,128.135,62.684,126.739,62.752,125.482z M82.022,135.879c-0.765-4.466-1.669-8.861-1.948-13.885
			c-0.348-1.536-0.696-3.21-0.696-5.164c-0.557-1.396-0.974-2.93-0.974-5.023c-0.974-3-1.739-6.281-2.852-9.142
			c-0.417-0.14-0.904-0.278-0.835-0.978c-1.043-0.559-1.6,0.906-2.296,0.278c-0.487,0.837-1.043,1.536-1.878,1.954
			c-0.626,3.21-0.487,6.49-0.835,9.839c-0.278,2.023-0.904,5.582-1.252,7.396c-0.348,1.746-0.417,3.699-0.696,5.373
			c-0.069,0.488-0.417,0.838-0.487,1.257c-0.208,1.186-0.278,3.209-0.348,3.768c-0.417,5.024,0.139,10.258-1.113,14.025
			c1.252,0.488,1.878,0.07,2.783,0.279c0.348-0.279,0.417-0.907,1.113-0.838c-0.069-0.697,0.208-0.978,0.417-1.396
			c0.208-3.628,1.113-6.28,1.322-9.839c1.878,0.349,2.713,0.209,4.8,0.14c0.417,3.63,0.904,7.118,2.156,9.699
			c1.531,0.14,2.227,1.256,3.688,0.698c0.208-0.629,0.626-1.047,0.835-1.674C82.648,140.554,81.536,137.974,82.022,135.879z
			 M71.449,130.019c0.626-4.187,1.809-7.745,2.157-12.351c0.139,0.07,0.208,0.141,0.348,0.141c0.557,4.047,0.974,8.233,1.6,12.21
			C74.371,130.157,72.63,130.297,71.449,130.019z M101.362,144.881c0.068-0.559,0.209-1.047,0.348-1.466
			c-0.277-1.186-0.975-1.954-1.252-3.21c-0.626-0.069-0.975-0.627-1.252-1.187c-1.879-1.186-4.176,0.907-6.191-0.278
			c-0.418,0.698-1.531-0.209-1.67,0.278c0-0.278-0.209-0.278-0.277-0.418c1.32-3.629,2.086-7.886,3.061-11.792
			c0.418,0.209,0.07-0.627,0.486-0.418c-0.068-1.257,0.488-1.676,0.418-2.861c0.418,0.209,0.07-0.627,0.486-0.418
			c0.209-2.582,1.252-4.047,1.67-6.351c1.879-2.442,2.365-6.141,3.617-9.141c0.278-2.163-0.695-2.931-0.974-4.396
			c-0.626-0.49-1.461-0.699-1.81-1.537c-4.801,0.351-8.279,1.537-13.357,1.396c-0.208,1.047,0.765,2.441,1.113,3.141
			c0.139,0.278,0.069,0.627,0.139,0.697c1.183,1.674,4.591,1.674,6.749,2.023c0.349-0.35,1.601-0.418,2.019-0.209
			c-0.558,1.604-1.461,3.07-2.088,4.744c-0.139,0.279,0,0.838-0.139,1.117c-0.07,0.209-0.348,0.209-0.486,0.418
			c-0.21,0.629-0.21,1.536-0.418,2.164c-0.07,0.209-0.418,0.279-0.486,0.42c-0.209,0.767-0.209,1.674-0.418,2.512
			c-0.209,0.628-0.626,1.115-0.835,1.744c-0.835,3.069-1.669,6.141-2.226,9.489c-0.417-0.209,0,0.559-0.487,0.418
			c-0.278,3.279-2.087,4.955-1.531,8.862c0.348,0.978,0.626,1.954,0.765,3.14c0.626,0.279,0.348,0.768,0.696,1.117
			c0.835,0.838,2.713,0.209,3.618,0.838c0.14-0.07,0.069-0.42,0.418-0.279c0.348,0.558,1.6,0,1.947,0.558
			C94.614,145.718,98.719,145.788,101.362,144.881z M109.851,111.109c0.557-1.187,0.834-2.721,1.321-3.979
			c-0.349-1.465-0.558-3.07-0.558-4.954c-0.277-0.837-1.112-0.907-1.461-1.675c-1.67,0.07-3.34,0.35-4.034,1.675
			c-1.67-0.278-1.392,2.023-2.019,3.14c0.139,1.535,0.975,2.094,1.043,3.629C105.884,109.923,106.928,111.736,109.851,111.109z
			 M108.39,114.736c-0.767,0.908-2.228,0.908-2.923,1.885c0.278,1.117,0.626,2.443,0.14,3.629c1.81,6.768-0.069,16.746,2.088,23.095
			c0.834,0.209,1.529,0.629,1.877,1.465c0.904-0.278,1.045,0.488,1.879,0.35c0.349-0.768,0.695-1.535,1.184-2.163
			c-0.14-2.792-0.418-5.373-0.277-8.513c-0.07-2.373-0.141-5.584-0.418-8.792C110.823,121.785,112.006,115.714,108.39,114.736z
			 M125.642,132.669c1.252,2.512,2.088,5.441,3.617,7.676c-0.068,0.559,0.278,0.768,0.141,1.396c0.903,0.768,1.32,1.884,1.809,3.001
			c1.252-0.35,2.087,0.977,2.991,0.977c0.975,0,1.321-0.768,1.948-1.604c-0.209-1.325-0.418-2.582-0.278-4.188
			c0.626-0.487,0.694-2.024,0.278-2.792c0.557-1.604-0.349-2.93,0.277-4.744c-0.974-5.651-0.557-12.071-0.695-18.282
			c0-0.209-0.349-0.14-0.277-0.418c-0.278-3.209,0.139-7.117-0.418-10.047c0.209-0.56-0.209-2.024-0.836-2.304
			c-1.252-0.558-2.713,1.116-4.104,1.116c-0.277,0.697-0.209,1.047-0.139,1.465c0.068,0.628,0.208,1.955,0,2.652
			c-0.487,2.093-0.418,5.931,0,8.094c-0.278,0.07-0.278,0.488-0.278,0.977c0.765,4.049,0.208,10.049,0.558,14.025
			c-1.739-3.697-2.854-8.094-4.035-12.42c-0.975-0.697-1.461-1.954-1.53-3.559c-0.418,0-0.278-0.559-0.558-0.559
			c-1.112-3.419-2.156-6.839-3.271-10.117c-0.485-0.279-0.834-0.769-1.391-0.978c-1.88,0.487-3.826,0.767-4.035,2.582
			c-0.069,0.767,0.487,1.604,0.558,2.512c0.209,1.884,0.139,3.978-0.279,5.583c0.209,3.907,0,8.723,0.418,13.048
			c0.14,1.466-0.209,3.279,0,5.232c0.486,5.023,0.695,10.188,0.418,14.863c0.695,0.836-0.069,1.884,0.277,2.512
			c0.904-0.279,2.365,0.21,2.227-1.674c0.277-0.209,0.348,0,0.695,0c0-2.861,1.81-5.303,0.834-8.164
			c0.767-2.721-0.902-9.002,0-13.466c-0.416-1.885,0.627-4.467,0.141-6.56c0.626,2.024,0.974,4.257,2.156,5.722
			C123.347,127.438,125.153,129.46,125.642,132.669z M153.678,138.112c0.14-0.838-0.626,0-1.183-0.279
			c-0.487,0.977-1.393,1.396-2.296,1.884c-0.349,1.326-1.462,2.304-2.853,1.884c-0.07-0.906-0.558-1.256-0.975-1.744
			c-1.044-4.047-2.018-8.933-1.67-14.165c-0.139-0.14-0.487-0.068-0.417-0.418c0-0.209,0.348-0.14,0.278-0.418
			c-1.113-4.815-0.696-12.211,1.183-15.631c0.834,0,1.112-0.559,1.81-0.697c1.111,0.279,1.252,1.813,2.644,1.813
			c0.139,0.837,1.112,0.628,1.183,1.466c1.321,0,1.113-0.209,1.948-0.559c0.694-3.419-1.461-4.605-2.296-6.629
			c0-0.419,0.417-0.35,0.348-0.768l-1.183-1.605c-4.244-0.488-6.4,1.535-8.905,3.07c-0.835,2.512-2.504,5.512-1.947,8.791
			c0.139,4.467,0,8.234,0.139,12.631c0.697,5.86,1.045,12.21,2.923,16.745c0.487,0,0.487,0.559,1.183,0.42
			c-0.139,0.418,0.141,0.349,0.141,0.697c0.903-0.069,1.252,0.488,1.668,1.047c0.836-0.14,1.602,0.418,2.437,0.559
			c1.669,0.279,3.13-0.279,4.174-0.559c1.671-0.418,3.409-0.35,3.757-2.164c0.349-1.953-0.486-4.534-1.113-5.651
			C154.233,137.833,153.815,137.763,153.678,138.112z"/>
	</g>
</g>
</svg>
