<?xml version="1.0" encoding="utf-8"?>
<!-- Generator: Adobe Illustrator 16.0.3, SVG Export Plug-In . SVG Version: 6.00 Build 0)  -->
<!DOCTYPE svg PUBLIC "-//W3C//DTD SVG 1.1//EN" "http://www.w3.org/Graphics/SVG/1.1/DTD/svg11.dtd">
<svg version="1.1" id="Layer_1" xmlns="http://www.w3.org/2000/svg" xmlns:xlink="http://www.w3.org/1999/xlink" x="0px" y="0px"
	 width="135px" height="60px" viewBox="-1182 1280.5 135 60" enable-background="new -1182 1280.5 135 60" xml:space="preserve">
<g>
	<g>
		<path fill="#FFFFFF" d="M-1055.998,1293.141c0.038-0.659-0.311-1.145-1.048-1.453c-0.66-0.194-1.319-0.39-1.979-0.582
			c-0.466-0.155-0.949-0.138-1.455,0.058c-0.502,0.194-0.795,0.524-0.871,0.989c-0.155,1.048-1.123,5.47-2.91,13.266
			c-1.163,5.275-1.745,9.735-1.745,13.382c0,0.813,0.02,1.628,0.06,2.443c0.114,1.551,1.164,2.521,3.141,2.908
			c0.351,0.077,0.729-0.028,1.135-0.319c0.408-0.291,0.611-0.611,0.611-0.96c-0.115-3.917,0.58-8.94,2.095-15.068
			C-1057.218,1300.742-1056.23,1295.856-1055.998,1293.141z M-1062.662,1326.831c-0.598-0.468-1.21-0.739-1.831-0.817
			c-0.351-0.038-0.949,0.225-1.805,0.788c-0.854,0.563-1.222,1.117-1.105,1.662c0.272,1.245,1.437,2.257,3.493,3.035
			c0.155,0.037,0.311-0.021,0.465-0.176s0.396-0.242,0.729-0.263c0.326-0.02,0.611-0.292,0.841-0.815
			c0.235-0.527,0.313-1.063,0.235-1.606C-1061.72,1327.9-1062.058,1327.298-1062.662,1326.831z M-1109.328,1324.407
			c-0.304-0.15-0.607-0.246-0.911-0.284c-0.058-0.007-0.181-0.024-0.371-0.058c-0.132-0.024-0.24-0.037-0.323-0.037
			c-0.176,0-0.338,0.054-0.483,0.16c0,0.032-0.014,0.073-0.043,0.124c-0.027,0.052-0.039,0.089-0.032,0.114
			c0.094,0.208,0.291,0.341,0.588,0.398c0.044,0.811,0.027,1.695-0.047,2.657c-0.083,0.059-0.147,0.109-0.195,0.157
			c-0.047,0.047-0.072,0.101-0.072,0.156c0,0.114,0.067,0.216,0.199,0.304c-0.057,0.412-0.091,0.934-0.104,1.566
			c-0.014,0.526-0.025,1.055-0.039,1.587c0.082,0.171,0.228,0.256,0.437,0.256c0.088,0,0.171-0.021,0.247-0.066
			c0.304-0.177,0.607-0.354,0.911-0.531c0.375-0.229,0.656-0.459,0.845-0.692c0.249-0.305,0.372-0.637,0.372-0.998
			c0-0.468-0.263-0.873-0.788-1.215c-0.103-0.044-0.208-0.09-0.318-0.139c-0.111-0.047-0.176-0.117-0.194-0.213
			c0.322-0.222,0.645-0.445,0.969-0.675c0.334-0.278,0.543-0.588,0.625-0.93c0.039-0.165,0.016-0.367-0.067-0.606
			C-1108.243,1325.108-1108.644,1324.763-1109.328,1324.407z M-1109.394,1328.596c0.12,0.146,0.18,0.313,0.18,0.503
			c0,0.063-0.006,0.13-0.019,0.199c-0.05,0.228-0.133,0.408-0.246,0.541c-0.065,0.076-0.177,0.164-0.338,0.263
			c-0.161,0.099-0.28,0.191-0.354,0.279c-0.051-0.164-0.076-0.349-0.076-0.551c0-0.141,0.017-0.348,0.052-0.622
			c0.034-0.275,0.052-0.479,0.052-0.612c0-0.076-0.003-0.146-0.009-0.209c0.043-0.02,0.091-0.027,0.142-0.027
			C-1109.922,1328.359-1109.717,1328.438-1109.394,1328.596z M-1109.128,1326.223c-0.146,0.209-0.313,0.357-0.503,0.445
			c-0.013,0.007-0.063,0.043-0.151,0.109c-0.089,0.065-0.156,0.1-0.2,0.1c0.007-0.202,0-0.483-0.018-0.846
			c-0.026-0.392-0.039-0.67-0.039-0.835c0-0.121,0.002-0.234,0.01-0.343c0.031-0.013,0.06-0.02,0.084-0.02
			c0.051,0,0.115,0.024,0.19,0.075c0.108,0.063,0.187,0.104,0.238,0.125c0.348,0.125,0.538,0.308,0.57,0.542
			C-1108.922,1325.799-1108.984,1326.014-1109.128,1326.223z M-1104.43,1325.016c-0.228-0.133-0.428-0.198-0.597-0.198
			c-0.045,0-0.083,0.002-0.114,0.01c-0.311,0.076-0.618,0.154-0.921,0.236c-0.354,0.096-0.652,0.203-0.891,0.323
			c-0.203,0.082-0.405,0.165-0.608,0.247c-0.216,0.106-0.326,0.253-0.333,0.437c-0.006,0.196,0.167,0.33,0.522,0.398
			c-0.037,0.551-0.063,0.852-0.076,0.902c-0.013,0.05-0.064,0.1-0.155,0.146c-0.092,0.047-0.141,0.1-0.148,0.156
			c-0.02,0.113,0.06,0.23,0.236,0.352c-0.057,0.438-0.057,0.931,0,1.48c0.021,0.189,0.103,0.359,0.247,0.514
			c0.146,0.151,0.309,0.25,0.486,0.294c0.563,0.146,1.228,0.206,1.992,0.182c0.102-0.008,0.179-0.053,0.233-0.139
			c0.054-0.085,0.072-0.179,0.053-0.279c-0.057-0.306-0.175-0.438-0.352-0.399c-0.037,0-0.085,0.023-0.142,0.071
			s-0.11,0.071-0.16,0.071c-0.735,0.03-1.251-0.059-1.548-0.267c-0.049-0.106-0.075-0.253-0.075-0.438
			c0-0.271,0.059-0.642,0.18-1.109c0.177-0.069,0.414-0.107,0.711-0.114c0.355-0.006,0.6-0.024,0.732-0.057
			c0.076,0.007,0.139-0.019,0.19-0.076c0.076-0.082,0.119-0.126,0.133-0.133c0.043-0.025,0.066-0.06,0.066-0.104
			c0-0.037-0.045-0.119-0.133-0.246c-0.127-0.076-0.28-0.113-0.456-0.113c-0.096,0-0.244,0.016-0.447,0.048
			c-0.202,0.03-0.351,0.047-0.446,0.047c-0.133,0-0.251-0.019-0.352-0.058c0.025-0.568,0.066-0.937,0.124-1.102
			c0.233-0.095,0.579-0.205,1.034-0.332c0.456-0.126,0.801-0.236,1.035-0.332c0.045-0.031,0.066-0.072,0.066-0.124
			c0-0.03-0.013-0.083-0.038-0.152C-1104.408,1325.089-1104.422,1325.041-1104.43,1325.016z M-1102.208,1324.407
			c-0.304-0.15-0.608-0.246-0.911-0.284c-0.058-0.007-0.181-0.024-0.371-0.058c-0.134-0.024-0.241-0.037-0.323-0.037
			c-0.177,0-0.338,0.054-0.484,0.16c0,0.032-0.013,0.073-0.042,0.124c-0.029,0.052-0.039,0.089-0.033,0.114
			c0.094,0.208,0.291,0.341,0.589,0.398c0.043,0.811,0.028,1.695-0.049,2.657c-0.081,0.059-0.146,0.109-0.194,0.157
			c-0.047,0.047-0.071,0.101-0.071,0.156c0,0.114,0.067,0.216,0.2,0.304c-0.058,0.412-0.092,0.934-0.105,1.566
			c-0.012,0.526-0.025,1.055-0.038,1.587c0.082,0.171,0.228,0.256,0.437,0.256c0.089,0,0.171-0.021,0.247-0.066
			c0.304-0.177,0.608-0.354,0.912-0.531c0.374-0.229,0.655-0.459,0.845-0.692c0.248-0.305,0.37-0.637,0.37-0.998
			c0-0.468-0.263-0.873-0.789-1.215c-0.101-0.044-0.206-0.09-0.317-0.139c-0.112-0.047-0.176-0.117-0.195-0.213
			c0.323-0.222,0.646-0.445,0.969-0.675c0.334-0.278,0.545-0.588,0.625-0.93c0.039-0.165,0.016-0.367-0.066-0.606
			C-1101.122,1325.108-1101.525,1324.763-1102.208,1324.407z M-1102.273,1328.596c0.12,0.146,0.18,0.313,0.18,0.503
			c0,0.063-0.006,0.13-0.018,0.199c-0.051,0.228-0.133,0.408-0.247,0.541c-0.063,0.076-0.175,0.164-0.337,0.263
			c-0.162,0.099-0.281,0.191-0.356,0.279c-0.051-0.164-0.076-0.349-0.076-0.551c0-0.141,0.017-0.348,0.051-0.622
			c0.035-0.275,0.053-0.479,0.053-0.612c0-0.076-0.002-0.146-0.009-0.209c0.045-0.02,0.092-0.027,0.143-0.027
			C-1102.803,1328.359-1102.597,1328.438-1102.273,1328.596z M-1102.009,1326.223c-0.146,0.209-0.313,0.357-0.503,0.445
			c-0.012,0.007-0.063,0.043-0.152,0.109c-0.089,0.065-0.155,0.1-0.199,0.1c0.006-0.202,0-0.483-0.02-0.846
			c-0.024-0.392-0.037-0.67-0.037-0.835c0-0.121,0.002-0.234,0.008-0.343c0.032-0.013,0.061-0.02,0.086-0.02
			c0.05,0,0.114,0.024,0.19,0.075c0.108,0.063,0.186,0.104,0.238,0.125c0.348,0.125,0.538,0.308,0.57,0.542
			C-1101.804,1325.799-1101.863,1326.014-1102.009,1326.223z M-1098.117,1326.031c-0.031-0.259-0.067-0.519-0.105-0.777
			c-0.05-0.306-0.163-0.532-0.342-0.685c-0.07-0.058-0.147-0.086-0.236-0.086c-0.121,0-0.2,0.045-0.238,0.133
			c-0.164,0.398-0.351,0.974-0.56,1.72c-0.247,0.861-0.428,1.449-0.542,1.766c-0.014,0.045-0.071,0.078-0.176,0.1
			c-0.104,0.022-0.171,0.052-0.199,0.087c-0.028,0.034-0.042,0.067-0.042,0.1c0,0.038,0.043,0.092,0.132,0.161
			c0.087,0.07,0.129,0.133,0.123,0.189c-0.019,0.196-0.123,0.525-0.313,0.987c-0.158,0.405-0.229,0.729-0.209,0.969
			c0.013,0.12,0.125,0.215,0.333,0.285c0.164,0.051,0.271,0.02,0.322-0.095c0.101-0.241,0.206-0.592,0.313-1.055
			c0.114-0.5,0.206-0.85,0.276-1.045c0.139-0.12,0.332-0.196,0.579-0.229c0.217-0.02,0.43-0.038,0.645-0.057
			c0.12,0.322,0.226,0.725,0.313,1.205c0.083,0.444,0.279,0.694,0.589,0.751c0.037,0.006,0.11-0.038,0.219-0.133
			c0.108-0.096,0.161-0.207,0.161-0.332c0-0.077-0.019-0.167-0.056-0.268C-1097.471,1328.757-1097.8,1327.527-1098.117,1326.031z
			 M-1099.314,1327.941c0.141-0.525,0.305-1.052,0.494-1.576c0.057,0.254,0.118,0.507,0.181,0.76
			c0.064,0.291,0.105,0.554,0.125,0.787C-1098.945,1327.912-1099.211,1327.922-1099.314,1327.941z M-1095.886,1326.564
			c-0.056-0.158-0.085-0.328-0.085-0.513c0-0.494,0.171-0.912,0.512-1.254c0.039-0.038,0.077-0.059,0.116-0.059
			c0.005,0,0.053,0.014,0.141,0.039c0.058,0.02,0.112,0.016,0.164-0.011c0.183-0.095,0.275-0.205,0.275-0.332
			c0-0.069-0.032-0.139-0.096-0.209c-0.133-0.146-0.333-0.218-0.599-0.218c-0.138,0-0.28,0.034-0.427,0.104
			c-0.315,0.151-0.559,0.401-0.731,0.75c-0.151,0.305-0.227,0.649-0.227,1.035c0,0.47,0.204,1.095,0.613,1.875
			c0.407,0.781,0.612,1.378,0.612,1.789c0,0.291-0.066,0.577-0.199,0.855c-0.031,0.068-0.095,0.106-0.19,0.113
			c-0.095,0.006-0.154,0.025-0.18,0.058c-0.096,0.106-0.142,0.198-0.142,0.274c0,0.127,0.093,0.231,0.284,0.313
			c0.05,0.019,0.105,0.028,0.161,0.028c0.146,0,0.31-0.066,0.493-0.199c0.229-0.171,0.371-0.311,0.428-0.418
			c0.17-0.322,0.256-0.659,0.256-1.007c0-0.424-0.152-0.94-0.455-1.549C-1095.62,1327.124-1095.86,1326.634-1095.886,1326.564z
			 M-1089.8,1324.407c-0.305-0.15-0.61-0.246-0.912-0.284c-0.055-0.007-0.18-0.024-0.372-0.058c-0.134-0.024-0.239-0.037-0.32-0.037
			c-0.179,0-0.341,0.054-0.485,0.16c0,0.032-0.013,0.073-0.043,0.124c-0.026,0.052-0.039,0.089-0.031,0.114
			c0.095,0.208,0.289,0.341,0.589,0.398c0.043,0.811,0.026,1.695-0.048,2.657c-0.083,0.059-0.146,0.109-0.195,0.157
			c-0.047,0.047-0.07,0.101-0.07,0.156c0,0.114,0.065,0.216,0.199,0.304c-0.056,0.412-0.093,0.934-0.105,1.566
			c-0.012,0.526-0.023,1.055-0.037,1.587c0.082,0.171,0.229,0.256,0.438,0.256c0.088,0,0.172-0.021,0.246-0.066
			c0.307-0.177,0.609-0.354,0.912-0.531c0.375-0.229,0.655-0.459,0.846-0.692c0.246-0.305,0.368-0.637,0.368-0.998
			c0-0.468-0.263-0.873-0.787-1.215c-0.102-0.044-0.206-0.09-0.315-0.139c-0.111-0.047-0.178-0.117-0.196-0.213
			c0.325-0.222,0.646-0.445,0.971-0.675c0.331-0.278,0.544-0.588,0.624-0.93c0.041-0.165,0.018-0.367-0.064-0.606
			C-1088.714,1325.108-1089.116,1324.763-1089.8,1324.407z M-1089.866,1328.596c0.12,0.146,0.18,0.313,0.18,0.503
			c0,0.063-0.006,0.13-0.02,0.199c-0.053,0.228-0.133,0.408-0.245,0.541c-0.065,0.076-0.176,0.164-0.338,0.263
			c-0.161,0.099-0.28,0.191-0.354,0.279c-0.054-0.164-0.078-0.349-0.078-0.551c0-0.141,0.019-0.348,0.052-0.622
			c0.036-0.275,0.053-0.479,0.053-0.612c0-0.076-0.003-0.146-0.008-0.209c0.044-0.02,0.091-0.027,0.142-0.027
			C-1090.396,1328.359-1090.188,1328.438-1089.866,1328.596z M-1089.603,1326.223c-0.144,0.209-0.313,0.357-0.502,0.445
			c-0.014,0.007-0.063,0.043-0.149,0.109c-0.091,0.065-0.157,0.1-0.198,0.1c0.003-0.202,0-0.483-0.02-0.846
			c-0.027-0.392-0.039-0.67-0.039-0.835c0-0.121,0.002-0.234,0.009-0.343c0.032-0.013,0.062-0.02,0.084-0.02
			c0.052,0,0.114,0.024,0.19,0.075c0.108,0.063,0.188,0.104,0.236,0.125c0.348,0.125,0.538,0.308,0.572,0.542
			C-1089.394,1325.799-1089.456,1326.014-1089.603,1326.223z M-1084.902,1325.016c-0.227-0.133-0.427-0.198-0.599-0.198
			c-0.043,0-0.082,0.002-0.114,0.01c-0.312,0.076-0.614,0.154-0.92,0.236c-0.354,0.096-0.651,0.203-0.894,0.323
			c-0.204,0.082-0.404,0.165-0.607,0.247c-0.214,0.106-0.325,0.253-0.329,0.437c-0.008,0.196,0.168,0.33,0.521,0.398
			c-0.038,0.551-0.063,0.852-0.075,0.902c-0.013,0.05-0.064,0.1-0.156,0.146c-0.094,0.047-0.142,0.1-0.147,0.156
			c-0.018,0.113,0.06,0.23,0.237,0.352c-0.056,0.438-0.056,0.931,0,1.48c0.019,0.189,0.101,0.359,0.246,0.514
			c0.146,0.151,0.308,0.25,0.486,0.294c0.561,0.146,1.227,0.206,1.993,0.182c0.101-0.008,0.178-0.053,0.231-0.139
			c0.054-0.085,0.07-0.179,0.052-0.279c-0.057-0.306-0.174-0.438-0.352-0.399c-0.038,0-0.085,0.023-0.143,0.071
			c-0.059,0.048-0.111,0.071-0.162,0.071c-0.732,0.03-1.246-0.059-1.547-0.267c-0.053-0.106-0.074-0.253-0.074-0.438
			c0-0.271,0.057-0.642,0.179-1.109c0.177-0.069,0.415-0.107,0.713-0.114c0.354-0.006,0.597-0.024,0.729-0.057
			c0.078,0.007,0.142-0.019,0.188-0.076c0.077-0.082,0.121-0.126,0.134-0.133c0.045-0.025,0.067-0.06,0.067-0.104
			c0-0.037-0.045-0.119-0.133-0.246c-0.126-0.076-0.281-0.113-0.457-0.113c-0.095,0-0.244,0.016-0.446,0.048
			c-0.199,0.03-0.35,0.047-0.443,0.047c-0.133,0-0.25-0.019-0.354-0.058c0.025-0.568,0.068-0.937,0.122-1.102
			c0.235-0.095,0.581-0.205,1.035-0.332c0.457-0.126,0.803-0.236,1.036-0.332c0.046-0.031,0.066-0.072,0.066-0.124
			c0-0.03-0.015-0.083-0.039-0.152C-1084.88,1325.089-1084.894,1325.041-1084.902,1325.016z M-1080.24,1325.34
			c-0.006-0.014-0.006-0.059,0-0.134c0-0.063-0.008-0.096-0.026-0.096c-0.015,0-0.037,0.01-0.061,0.028
			c-0.12-0.069-0.241-0.104-0.359-0.104c-0.151,0-0.261,0.061-0.324,0.181c0.015,0.159,0.02,0.32,0.02,0.484
			c0,0.425-0.05,1.063-0.154,1.918c-0.106,0.854-0.156,1.496-0.156,1.928c0,0.027,0.005,0.052,0.005,0.08
			c-0.13-0.141-0.263-0.28-0.433-0.432c-0.689-0.627-1.039-0.942-1.047-0.949c-0.1-0.082-0.199-0.164-0.302-0.248
			c-0.133-0.112-0.199-0.211-0.199-0.293c0-0.076,0.058-0.146,0.171-0.209c0.28-0.151,0.514-0.36,0.703-0.627
			c0.223-0.297,0.333-0.595,0.333-0.893c0-0.354-0.116-0.684-0.353-0.987c-0.254-0.33-0.551-0.5-0.894-0.514
			c-0.677-0.031-1.047,0.148-1.112,0.541c-0.094,0.59-0.14,1.313-0.14,2.175v1.035c-0.008,0.506-0.021,0.942-0.048,1.311
			c-0.007,0.045-0.021,0.158-0.05,0.342c-0.024,0.159-0.036,0.286-0.036,0.381c0,0.321,0.139,0.516,0.415,0.579
			c0.048,0.013,0.103,0.003,0.17-0.028c0.063-0.032,0.104-0.048,0.115-0.048c0.082-0.311,0.141-0.729,0.174-1.254
			c0.05-0.696,0.085-1.126,0.104-1.291c0.271,0.233,0.686,0.651,1.241,1.253c0.5,0.539,0.921,0.938,1.255,1.197
			c0.117-0.029,0.207-0.066,0.278-0.106c0.046,0.012,0.073,0.037,0.129,0.04c0.19,0.006,0.315-0.079,0.37-0.257
			c-0.007-0.158-0.011-0.319-0.011-0.483c0-0.443,0.045-1.1,0.134-1.967c0.091-0.865,0.132-1.516,0.132-1.945
			c0-0.195-0.005-0.387-0.019-0.569C-1080.224,1325.371-1080.233,1325.359-1080.24,1325.34z M-1083.696,1327.113
			c0.012-0.164,0.012-0.375,0-0.636c-0.019-0.342-0.027-0.554-0.027-0.636c0-0.202,0.017-0.383,0.047-0.541
			c0.037-0.096,0.133-0.144,0.283-0.144c0.205,0,0.351,0.054,0.442,0.161c0.091,0.107,0.147,0.229,0.166,0.361
			c0.005,0.088,0,0.189-0.019,0.305C-1082.873,1326.346-1083.172,1326.723-1083.696,1327.113z M-1078.769,1326.564
			c-0.056-0.158-0.086-0.328-0.086-0.513c0-0.494,0.172-0.912,0.512-1.254c0.041-0.038,0.078-0.059,0.115-0.059
			c0.004,0,0.056,0.014,0.143,0.039c0.058,0.02,0.109,0.016,0.162-0.011c0.183-0.095,0.275-0.205,0.275-0.332
			c0-0.069-0.033-0.139-0.098-0.209c-0.132-0.146-0.332-0.218-0.6-0.218c-0.138,0-0.279,0.034-0.424,0.104
			c-0.316,0.151-0.563,0.401-0.732,0.75c-0.151,0.305-0.227,0.649-0.227,1.035c0,0.47,0.2,1.095,0.61,1.875
			c0.41,0.781,0.613,1.378,0.613,1.789c0,0.291-0.064,0.577-0.198,0.855c-0.036,0.068-0.096,0.106-0.191,0.113
			c-0.098,0.006-0.154,0.025-0.181,0.058c-0.094,0.106-0.144,0.198-0.144,0.274c0,0.127,0.094,0.231,0.285,0.313
			c0.05,0.019,0.106,0.028,0.162,0.028c0.146,0,0.31-0.066,0.493-0.199c0.229-0.171,0.371-0.311,0.427-0.418
			c0.17-0.322,0.256-0.659,0.256-1.007c0-0.424-0.151-0.94-0.452-1.549C-1078.503,1327.124-1078.745,1326.634-1078.769,1326.564z
			 M-1075.999,1325.34c-0.007-0.014-0.007-0.059,0-0.134c0-0.063-0.01-0.096-0.028-0.096c-0.013,0-0.029,0.01-0.058,0.028
			c-0.118-0.069-0.239-0.104-0.36-0.104c-0.15,0-0.259,0.061-0.318,0.181c0.01,0.159,0.016,0.32,0.016,0.484
			c0,0.425-0.051,1.063-0.155,1.918c-0.104,0.854-0.157,1.496-0.157,1.928c0,0.247,0.014,0.481,0.039,0.703
			c0.026,0.222,0.174,0.339,0.444,0.352c0.19,0.006,0.313-0.079,0.371-0.257c-0.007-0.158-0.011-0.319-0.011-0.483
			c0-0.443,0.045-1.1,0.133-1.967c0.089-0.865,0.134-1.516,0.134-1.945c0-0.195-0.008-0.387-0.019-0.569
			C-1075.983,1325.371-1075.991,1325.359-1075.999,1325.34z M-1073.292,1328.852c-0.396-0.232-0.793-0.468-1.186-0.701
			c0.168-0.267,0.559-0.713,1.168-1.34c0.519-0.537,0.864-1.003,1.043-1.396c-0.013-0.171-0.144-0.258-0.391-0.258
			c-0.089,0-0.17,0.017-0.247,0.049c-0.276,0.329-0.56,0.655-0.844,0.979c-0.336,0.386-0.632,0.696-0.892,0.931
			c0.013-0.506-0.03-1.189-0.125-2.052c-0.008-0.076-0.055-0.132-0.142-0.166c-0.089-0.035-0.173-0.064-0.257-0.091
			c-0.082,0.013-0.164,0.025-0.238,0.038c-0.101,0.025-0.144,0.076-0.133,0.152c0.088,0.493,0.133,1.077,0.133,1.747
			c0,0.222-0.005,0.553-0.017,0.992c-0.017,0.439-0.021,0.771-0.021,0.991c0,0.614,0.037,1.148,0.111,1.605
			c0.027,0.164,0.122,0.274,0.287,0.332c0.02,0.044,0.066,0.065,0.143,0.065c0.069,0,0.123-0.013,0.161-0.038
			c0.134-0.057,0.198-0.16,0.198-0.313c0-0.044-0.005-0.117-0.02-0.219c-0.014-0.102-0.018-0.178-0.018-0.229
			c-0.013-0.438-0.029-0.771-0.048-1.006c0.894,0.531,1.551,0.931,1.973,1.196c0.04,0.025,0.074,0.039,0.106,0.039
			c0.029,0,0.076-0.017,0.139-0.049c0.059-0.031,0.108-0.047,0.145-0.047c0.021,0,0.043,0.004,0.067,0.01
			c0.052-0.152,0.075-0.247,0.075-0.285c0-0.059-0.018-0.103-0.057-0.134C-1072.474,1329.4-1072.849,1329.131-1073.292,1328.852z
			 M-1154.457,1317.617c-0.521-4.609-0.521-9.395-0.87-14.177c-0.217-0.436-0.174-1.219-0.174-1.915
			c-0.477-1.479-0.607-3.348-1.044-4.826c-0.347-1.87-0.26-4.261-1.13-5.437c-0.957,0.043-1.304,0.392-2.043,0.695
			c-0.782,3.262-1.348,6.741-2.174,9.916c-0.695-2.044-1.61-3.783-2.348-5.784v-0.608c-0.739-1.088-0.913-2.957-2.087-3.522
			c-0.347,0.437-0.652,0.131-1.173,0.261c-0.13,0.35-0.218,0.827-0.521,1.001v2c-0.392,2.35,0,5.436-0.175,7.959
			c-0.043,0.652-0.217,1.304-0.26,1.826c0,0.174,0.129,0.349,0.129,0.435c0,0.608-0.26,1.566-0.129,2.175
			c0.26,0.436,0.042,1.521,0.129,2.219c0.217,2.479-0.174,6.35,0,8.828c0.305,0.087,0.522-0.437,0.696,0
			c0.217-0.348,0.521-0.565,0.87-0.522c0.738-2.392,0.521-6.783,0.825-9.176c-0.434-2.174-0.13-5.175,0.219-7.351
			c-0.175-0.738-0.306-1.957-0.131-2.825c0.391,0.825,0.739,1.694,0.913,2.825c0.653,1.089,0.826,2.827,1.218,4.263
			c0.304,0.348,0.522,0.739,0.522,1.394c0.478,0.26,0.434,1.217,1,1.348c0.173,0.781,0.695,1.044,1.086,1.564
			c0.348-0.044,0.696-0.044,0.87,0.174c1.13-0.392,0.347-2.392,0.695-3.694c-0.13-1.697,0.393-3.914,0.914-5.308
			c0.738,5.523,0.696,12.134,1.174,18.004c0.392,0.436,1.043,0.521,1.088,1.394c0.217,0,0.434-0.044,0.392,0.261
			c0.216-0.261,0.739-0.131,1.042-0.261c0.13-0.394,0.348-0.61,0.522-0.871C-1154.283,1318.965-1154.805,1318.27-1154.457,1317.617z
			 M-1142.325,1313.051c-0.479-2.783-1.044-5.521-1.219-8.653c-0.218-0.957-0.434-2-0.434-3.219
			c-0.347-0.87-0.608-1.825-0.608-3.131c-0.608-1.87-1.088-3.914-1.783-5.695c-0.261-0.089-0.565-0.176-0.522-0.61
			c-0.651-0.348-1,0.565-1.435,0.174c-0.306,0.522-0.652,0.958-1.175,1.219c-0.391,2-0.304,4.045-0.522,6.132
			c-0.173,1.261-0.564,3.48-0.781,4.609c-0.218,1.087-0.262,2.305-0.436,3.349c-0.044,0.305-0.261,0.522-0.305,0.783
			c-0.13,0.739-0.173,2-0.216,2.348c-0.261,3.132,0.086,6.395-0.696,8.741c0.782,0.306,1.173,0.043,1.74,0.174
			c0.217-0.174,0.261-0.564,0.694-0.521c-0.042-0.436,0.131-0.609,0.262-0.87c0.131-2.262,0.695-3.914,0.826-6.131
			c1.174,0.217,1.696,0.13,3,0.087c0.261,2.261,0.565,4.436,1.349,6.044c0.955,0.087,1.391,0.783,2.303,0.437
			c0.13-0.393,0.392-0.652,0.522-1.045C-1141.934,1315.965-1142.631,1314.356-1142.325,1313.051z M-1148.935,1309.398
			c0.392-2.608,1.131-4.827,1.348-7.696c0.086,0.044,0.13,0.087,0.217,0.087c0.349,2.521,0.609,5.132,1,7.609
			C-1147.109,1309.484-1148.196,1309.572-1148.935,1309.398z M-1129.586,1306.57c-0.435-0.738-1.045-0.564-1.608-0.913
			c-0.176,0.044-0.261,0.218-0.436,0.262c-1.652-0.174-2.739,0.522-4.044,0.87c0.044,0.348-0.348,0.131-0.26,0.521
			c0.868,0.696,1.608,1.957,3,1.479c0,0.607,0.173,1.044,0.042,1.826c0,0.131,0.174,0.087,0.087,0.261
			c0.043,1.914-0.565,3.219-0.913,4.393c-0.217,0.696-0.39,1.696-1.173,1.437c-2.001-3.437-1.697-9.221-2.132-14.222
			c0.131-1.044,0.087-1.87,0.218-2.913c-0.218-0.305-0.043-1.436,0.174-1.695c-0.348-0.914,0.304-2.045,0.349-3.001
			c0.564-0.305,0.913-0.913,1.391-1.305c0.999-0.217,1.478,0.608,1.783,1.349c0.827,0.087,0.783,1.043,1.784,0.912
			c0.302-0.261,0.433-0.738,0.693-1.043c-0.563-2.044-2.651-4.219-4.695-3.262c-0.392-0.088-0.607,0.043-0.913,0
			c0,0.129,0,0.348-0.088,0.348c-0.825,0-1.347,0.522-2.129,0.608c-0.391,0.609-0.652,1.652-0.827,2.479
			c-0.869,4.958-0.348,10.307-0.436,14.873c0.261,0,0.13,0.348,0.261,0.391c-0.173,1.132,0,1.914,0.35,2.523
			c0,0.261,0.086,0.435,0,0.782c0.435,1.957,1.608,3.132,2.479,4.608c0.697,0.521,1.435,0.957,2.348,1.262
			c0.436-0.262,1.131-0.086,1.697-0.131c0.13-0.348,0.391-0.435,0.651-0.564c0.131-0.826,0.782-0.956,0.827-1.913
			c0.217,0.131,0.086-0.304,0.304-0.175c0.042-0.913,0.608-1.608,0.869-2.521c0.392-1.651,0.305-3.48,0.523-5.349
			C-1129.673,1308.224-1129.63,1307.355-1129.586,1306.57z M-1117.543,1313.051c-0.477-2.783-1.043-5.521-1.216-8.653
			c-0.219-0.957-0.435-2-0.435-3.219c-0.348-0.87-0.608-1.825-0.608-3.131c-0.609-1.87-1.087-3.914-1.782-5.695
			c-0.261-0.089-0.566-0.176-0.522-0.61c-0.652-0.348-1,0.565-1.435,0.174c-0.305,0.522-0.652,0.958-1.174,1.219
			c-0.392,2-0.304,4.045-0.522,6.132c-0.173,1.261-0.564,3.48-0.782,4.609c-0.218,1.087-0.261,2.305-0.435,3.349
			c-0.044,0.305-0.26,0.522-0.305,0.783c-0.129,0.739-0.173,2-0.216,2.348c-0.261,3.132,0.086,6.395-0.697,8.741
			c0.783,0.306,1.173,0.043,1.741,0.174c0.215-0.174,0.26-0.564,0.694-0.521c-0.043-0.436,0.13-0.609,0.261-0.87
			c0.13-2.262,0.697-3.914,0.827-6.131c1.173,0.217,1.694,0.13,3,0.087c0.262,2.261,0.565,4.436,1.349,6.044
			c0.956,0.087,1.391,0.783,2.305,0.437c0.13-0.393,0.391-0.652,0.521-1.045
			C-1117.152,1315.965-1117.848,1314.356-1117.543,1313.051z M-1124.151,1309.398c0.391-2.608,1.129-4.827,1.347-7.696
			c0.087,0.044,0.131,0.087,0.216,0.087c0.35,2.521,0.61,5.132,1.002,7.609C-1122.328,1309.484-1123.414,1309.572-1124.151,1309.398
			z M-1105.456,1318.66c0.044-0.348,0.13-0.651,0.217-0.912c-0.173-0.739-0.609-1.219-0.783-2.001
			c-0.392-0.044-0.608-0.393-0.783-0.739c-1.173-0.739-2.609,0.565-3.869-0.174c-0.261,0.435-0.956-0.131-1.044,0.174
			c0-0.174-0.13-0.174-0.173-0.261c0.826-2.262,1.304-4.914,1.914-7.351c0.26,0.131,0.043-0.391,0.303-0.261
			c-0.043-0.783,0.305-1.044,0.26-1.783c0.262,0.131,0.044-0.392,0.305-0.261c0.13-1.608,0.782-2.522,1.043-3.958
			c1.175-1.521,1.479-3.826,2.263-5.695c0.173-1.349-0.436-1.826-0.61-2.739c-0.392-0.306-0.914-0.437-1.129-0.958
			c-3.002,0.218-5.176,0.958-8.35,0.871c-0.131,0.651,0.479,1.521,0.697,1.955c0.085,0.175,0.043,0.393,0.085,0.437
			c0.74,1.043,2.871,1.043,4.218,1.261c0.219-0.218,1-0.261,1.262-0.131c-0.347,1.001-0.914,1.914-1.305,2.958
			c-0.087,0.174,0,0.521-0.087,0.695c-0.043,0.131-0.217,0.131-0.304,0.261c-0.13,0.392-0.13,0.957-0.261,1.349
			c-0.042,0.131-0.261,0.174-0.304,0.26c-0.13,0.48-0.13,1.046-0.261,1.566c-0.131,0.392-0.392,0.696-0.522,1.087
			c-0.521,1.913-1.044,3.827-1.392,5.914c-0.26-0.13,0,0.349-0.304,0.263c-0.174,2.044-1.305,3.087-0.955,5.522
			c0.215,0.608,0.389,1.217,0.476,1.956c0.392,0.174,0.219,0.479,0.436,0.695c0.521,0.521,1.695,0.131,2.262,0.521
			c0.087-0.044,0.042-0.261,0.261-0.174c0.217,0.348,0.999,0,1.217,0.348C-1109.674,1319.183-1107.107,1319.227-1105.456,1318.66z
			 M-1100.152,1297.613c0.348-0.74,0.521-1.696,0.826-2.48c-0.218-0.913-0.348-1.913-0.348-3.088
			c-0.174-0.521-0.695-0.564-0.912-1.043c-1.043,0.043-2.088,0.217-2.522,1.043c-1.043-0.174-0.868,1.262-1.261,1.958
			c0.087,0.956,0.609,1.304,0.653,2.261C-1102.629,1296.873-1101.978,1298.005-1100.152,1297.613z M-1101.065,1299.874
			c-0.478,0.565-1.391,0.565-1.825,1.174c0.174,0.697,0.392,1.521,0.088,2.262c1.129,4.22-0.045,10.438,1.303,14.396
			c0.522,0.131,0.956,0.392,1.173,0.912c0.566-0.174,0.652,0.306,1.174,0.219c0.217-0.479,0.436-0.957,0.738-1.348
			c-0.088-1.74-0.261-3.351-0.172-5.307c-0.045-1.479-0.089-3.479-0.261-5.479
			C-1099.543,1304.267-1098.805,1300.482-1101.065,1299.874z M-1090.284,1311.05c0.784,1.566,1.305,3.393,2.262,4.785
			c-0.039,0.348,0.176,0.479,0.09,0.869c0.563,0.479,0.825,1.174,1.131,1.87c0.781-0.219,1.303,0.607,1.867,0.607
			c0.611,0,0.828-0.479,1.22-1c-0.13-0.826-0.261-1.607-0.175-2.608c0.392-0.306,0.435-1.263,0.175-1.739
			c0.347-1-0.218-1.826,0.174-2.958c-0.61-3.521-0.349-7.521-0.435-11.394c0-0.131-0.218-0.088-0.177-0.262
			c-0.171-2,0.089-4.436-0.26-6.262c0.129-0.349-0.131-1.262-0.522-1.436c-0.781-0.349-1.693,0.694-2.565,0.694
			c-0.169,0.436-0.131,0.653-0.087,0.914c0.047,0.393,0.132,1.219,0,1.652c-0.305,1.305-0.26,3.696,0,5.045
			c-0.174,0.043-0.174,0.304-0.174,0.608c0.481,2.521,0.13,6.262,0.353,8.74c-1.089-2.305-1.785-5.045-2.522-7.74
			c-0.611-0.436-0.916-1.219-0.957-2.219c-0.26,0-0.176-0.348-0.351-0.348c-0.694-2.132-1.348-4.263-2.043-6.306
			c-0.306-0.175-0.521-0.479-0.869-0.609c-1.175,0.305-2.392,0.48-2.523,1.609c-0.043,0.479,0.305,1,0.349,1.564
			c0.13,1.174,0.087,2.479-0.174,3.479c0.13,2.436,0,5.437,0.262,8.134c0.085,0.913-0.131,2.043,0,3.261
			c0.304,3.131,0.435,6.35,0.26,9.263c0.436,0.521-0.044,1.175,0.175,1.566c0.564-0.174,1.477,0.13,1.391-1.045
			c0.172-0.13,0.217,0,0.434,0c0-1.782,1.131-3.304,0.521-5.088c0.479-1.695-0.563-5.609,0-8.395
			c-0.259-1.174,0.393-2.781,0.089-4.087c0.39,1.261,0.609,2.652,1.347,3.565C-1091.718,1307.789-1090.587,1309.05-1090.284,1311.05
			z M-1072.761,1314.442c0.088-0.521-0.393,0-0.737-0.174c-0.306,0.608-0.87,0.869-1.437,1.174
			c-0.217,0.827-0.914,1.437-1.783,1.175c-0.043-0.564-0.348-0.781-0.608-1.087c-0.651-2.521-1.26-5.566-1.043-8.827
			c-0.088-0.088-0.304-0.043-0.261-0.262c0-0.132,0.218-0.087,0.173-0.262c-0.694-3-0.433-7.609,0.739-9.741
			c0.521,0,0.695-0.348,1.131-0.435c0.696,0.174,0.784,1.131,1.651,1.131c0.088,0.521,0.695,0.393,0.739,0.913
			c0.828,0,0.696-0.13,1.218-0.348c0.437-2.133-0.912-2.871-1.437-4.133c0-0.261,0.262-0.217,0.219-0.478l-0.739-1.001
			c-2.651-0.305-4,0.957-5.564,1.914c-0.521,1.564-1.563,3.437-1.219,5.479c0.088,2.783,0,5.132,0.088,7.871
			c0.434,3.652,0.652,7.609,1.824,10.438c0.308,0,0.308,0.348,0.742,0.261c-0.089,0.263,0.086,0.218,0.086,0.437
			c0.564-0.045,0.783,0.304,1.043,0.65c0.522-0.087,1,0.262,1.522,0.35c1.043,0.174,1.957-0.174,2.606-0.35
			c1.043-0.261,2.133-0.217,2.35-1.348c0.219-1.217-0.305-2.827-0.694-3.522
			C-1072.412,1314.269-1072.673,1314.225-1072.761,1314.442z"/>
	</g>
</g>
</svg>
